<svg width="16" height="12" viewBox="0 0 16 12" fill="none"
  xmlns="http://www.w3.org/2000/svg">
  <path d="M0.00643246 2.75C0.202375 2.86684 0.376051 2.97116 0.554181 3.07965C2.90104 4.50259 5.25235 5.92552 7.59476 7.35262C7.87976 7.52788 8.12469 7.52371 8.40525 7.35262C10.8679 5.85458 13.335 4.36071 15.7976 2.86267C15.8511 2.82928 15.909 2.7959 15.9847 2.75417C15.9891 2.80425 15.998 2.8418 15.998 2.87936C15.998 5.30377 16.0025 7.73235 15.998 10.1568C15.998 11.1749 15.1252 11.997 14.0386 11.997C10.0129 12.0011 5.98268 12.0011 1.95695 11.997C0.870361 11.997 0.00197922 11.1708 0.00197922 10.1526C-0.00247402 7.73235 0.00197922 5.31211 0.00197922 2.8877C-0.00247402 2.85015 0.00197922 2.81259 0.00643246 2.75Z" fill="currentColor"/>
  <path d="M8.0087 0C10.0038 0 11.9988 0 13.9894 0C14.9335 0 15.7217 0.57585 15.9355 1.3979C15.9666 1.52308 15.9444 1.58985 15.8241 1.66078C13.3749 3.14631 10.9256 4.63184 8.47184 6.11736C8.31598 6.21334 8.15121 6.3719 7.99089 6.3719C7.83948 6.3719 7.67916 6.20916 7.52775 6.11736C5.07402 4.62766 2.61583 3.13796 0.157644 1.65244C0.0507667 1.58567 0.0285006 1.52725 0.05522 1.41459C0.268975 0.588368 1.0572 0.00417282 1.99238 0C3.99634 0 6.00475 0 8.0087 0Z" fill="currentColor"/>
</svg>
