<svg viewBox="0 0 20 13" fill="none"
  xmlns="http://www.w3.org/2000/svg">
  <path d="M17.1493 6.09849L18.388 8.19506L17.7428 9.27473L15.8848 6.08594L17.1493 6.09849Z" fill="currentColor"/>
  <path d="M7.01236 10.8843L3.43817 4.75781L2.1543 4.8708L6.21236 11.8447L10.0188 12.9997V11.7945L7.01236 10.8843Z" fill="currentColor"/>
  <path d="M13.0065 10.888L15.8065 6.08594L17.1484 6.09849L13.8 11.8484L10.0194 13.0034L10 11.7982L13.0065 10.888Z" fill="currentColor"/>
  <path d="M0 4.23081L10 1.20521V0L0 3.02559V4.23081Z" fill="currentColor"/>
  <path d="M3.00591 3.92969L9.99946 6.05137L10.0188 7.25658L2.1543 4.87126L3.00591 3.92969Z" fill="currentColor"/>
  <path d="M10 0L20 3.02559V4.23081L10 1.20521V0Z" fill="currentColor"/>
  <path d="M20 3.02344L10 6.04903L10.0194 7.25424L20 4.22865V3.02344Z" fill="currentColor"/>
  <path d="M1.60645 4.71674L0 4.22712V3.01562L1.59355 3.53035L1.60645 4.71674Z" fill="currentColor"/>
</svg>
