<svg width="19" height="18" viewBox="0 0 19 18" fill="none"
  xmlns="http://www.w3.org/2000/svg">
  <g clip-path="url(#clip0_423_14004)">
    <path fill-rule="evenodd" clip-rule="evenodd" d="M0 0V11.803V13.8182V17.2727L5.38333 13.8182H19V0H0ZM4.275 7.91667C3.64167 7.91667 3.16667 7.48485 3.16667 6.90909C3.16667 6.33333 3.64167 5.75758 4.275 5.75758C4.90833 5.75758 5.38333 6.18939 5.38333 6.76515C5.38333 7.48485 4.90833 7.91667 4.275 7.91667ZM9.5 7.91667C8.86667 7.91667 8.39167 7.48485 8.39167 6.90909C8.39167 6.33333 8.86667 5.75758 9.5 5.75758C10.1333 5.75758 10.6083 6.18939 10.6083 6.76515C10.6083 7.48485 10.1333 7.91667 9.5 7.91667ZM14.725 7.91667C14.0917 7.91667 13.6167 7.48485 13.6167 6.90909C13.6167 6.33333 14.0917 5.75758 14.725 5.75758C15.3583 5.75758 15.8333 6.33333 15.8333 6.90909C15.8333 7.48485 15.3583 7.91667 14.725 7.91667Z" fill="currentColor"/>
  </g>
  <defs>
    <clipPath id="clip0_423_14004">
      <rect width="19" height="17.2727" fill="white"/>
    </clipPath>
  </defs>
</svg>
