<svg width="16" height="13" viewBox="0 0 16 13" fill="none"
  xmlns="http://www.w3.org/2000/svg">
  <g clip-path="url(#clip0_357_67793)">
    <path d="M15.9995 2.05273C15.9995 0.882689 15.0869 0.00191889 13.8759 0.00191889C12.1264 0.00191889 10.3768 0.00191889 8.6272 0.00191889C6.85981 0.00191889 5.09242 0.00191889 3.32949 0.00191889C3.27606 0.00191889 3.21819 -0.00239861 3.16477 0.00191889C2.8932 0.0235064 2.68397 0.235064 2.67061 0.489796C2.65725 0.744529 2.83978 0.981991 3.10244 1.02948C3.18257 1.04244 3.26716 1.03812 3.35174 1.03812C6.8242 1.03812 10.2967 1.04675 13.7691 1.02948C14.4948 1.02517 14.9578 1.49146 14.9444 2.16499C14.9177 3.83586 14.9355 5.50673 14.9399 7.1776C14.9399 7.29417 14.9711 7.42802 15.029 7.52732C15.1403 7.72592 15.3896 7.80364 15.6077 7.74319C15.857 7.67411 16.0039 7.47983 16.0039 7.20782C15.9995 5.48946 15.9995 3.77109 15.9995 2.05273Z" fill="currentColor"/>
    <path d="M13.8676 4.12113C13.8676 2.94677 12.9594 2.07031 11.7485 2.07031C10.1458 2.07031 8.53868 2.07031 6.936 2.07031C5.33333 2.07031 3.72621 2.07031 2.12354 2.07031C0.912632 2.07031 0.00445186 2.94677 0 4.12113C0 6.72891 0 9.33668 0 11.9445C0 12.3719 0.169171 12.7043 0.565387 12.8943C0.957151 13.0843 1.32666 13.0109 1.66945 12.7562C2.21703 12.3503 2.76906 11.9531 3.31664 11.5472C3.468 11.435 3.62827 11.3789 3.8197 11.3789C6.46411 11.3832 9.10851 11.3832 11.7485 11.3789C12.9638 11.3789 13.8631 10.4981 13.8631 9.32373C13.8676 7.58809 13.8676 5.85677 13.8676 4.12113ZM4.81692 7.28587C4.52309 7.27723 4.29605 7.03977 4.30495 6.75913C4.31386 6.47417 4.55426 6.25398 4.84808 6.2583C5.14636 6.26262 5.3823 6.50871 5.3734 6.79367C5.35559 7.07431 5.10629 7.2945 4.81692 7.28587ZM7.49694 6.79799C7.47913 7.07863 7.22983 7.29882 6.94046 7.28587C6.64663 7.27291 6.42404 7.03545 6.43294 6.75049C6.44185 6.46986 6.6867 6.24535 6.98052 6.25398C7.2788 6.26262 7.51475 6.51303 7.49694 6.79799ZM9.03283 7.28587C8.74346 7.28587 8.50306 7.05272 8.49861 6.77208C8.49861 6.48281 8.74346 6.24966 9.04174 6.25398C9.33111 6.2583 9.56706 6.49144 9.56706 6.77208C9.56706 7.05704 9.32666 7.28587 9.03283 7.28587Z" fill="currentColor"/>
  </g>
  <defs>
    <clipPath id="clip0_357_67793">
      <rect width="16" height="13" fill="white"/>
    </clipPath>
  </defs>
</svg>
