<svg width="14" height="16" viewBox="0 0 14 16" fill="none"
  xmlns="http://www.w3.org/2000/svg">
  <path fill-rule="evenodd" clip-rule="evenodd" d="M13.9438 13.5315C13.3815 12.6743 12.7631 11.817 12.2008 10.9597C12.1446 10.9026 12.1446 10.7883 12.1446 10.674C12.1446 9.93101 12.1446 9.13089 12.1446 8.38793C11.8635 8.50223 11.5823 8.55938 11.3012 8.55938C11.245 8.55938 11.245 8.55938 11.1888 8.55938C11.1888 9.3595 11.1888 10.1596 11.1888 10.9597C11.1888 11.074 11.245 11.1883 11.3012 11.3026C11.5823 11.7599 11.9197 12.1599 12.2008 12.6171C12.257 12.6743 12.257 12.7314 12.3133 12.7886H1.7992C1.96787 12.5028 2.13655 12.2742 2.30522 12.0456C2.53012 11.7599 2.75502 11.4741 2.86747 11.1883C2.97992 10.8454 2.86747 10.5025 2.9237 10.1025C2.9237 9.41665 2.9237 8.73083 2.9237 8.04502C2.9237 5.98757 4.38554 4.33018 6.40964 3.98728C7.25301 3.87297 8.09639 3.98728 8.82731 4.33018C8.99599 4.04443 9.16466 3.81582 9.44578 3.58722C9.27711 3.47291 9.05221 3.41576 8.82731 3.30146C8.77109 3.30146 8.65864 3.24431 8.60241 3.24431C9.38956 2.21559 9.05221 1.07256 8.37751 0.501047C7.64659 -0.127618 6.52209 -0.184769 5.79117 0.443895C5.39759 0.729652 5.17269 1.12971 5.06024 1.58692C4.94779 2.21559 5.11647 2.72995 5.51004 3.24431C5.45382 3.24431 5.45382 3.30146 5.39759 3.30146C3.31727 4.04443 1.96787 5.87327 1.96787 8.04502C1.96787 8.90229 1.96787 9.81671 1.96787 10.674C1.96787 10.7883 1.91165 10.9026 1.85542 11.074C1.29317 11.9313 0.730926 12.7886 0.112452 13.5887C0.0562275 13.6458 0.0562249 13.703 0 13.7601H5.00402C4.89157 15.0175 5.79117 15.9319 6.85944 15.989C7.36546 16.0462 7.87149 15.8747 8.26506 15.589C8.88354 15.1318 9.05221 14.5031 8.99598 13.7601H14C14 13.6458 13.9438 13.5887 13.9438 13.5315ZM7.02811 0.901106C7.59036 0.901106 8.09639 1.35832 8.09639 1.92983C8.09639 2.50134 7.64659 2.95855 7.02811 2.95855C6.46586 2.95855 5.95984 2.50134 5.95984 1.92983C5.95984 1.35832 6.46586 0.901106 7.02811 0.901106ZM7.59036 14.9032C7.19679 15.1318 6.80321 15.1318 6.46586 14.9032C6.07229 14.6746 5.95984 14.3317 6.01607 13.8744C6.01607 13.7601 6.07229 13.703 6.18474 13.703C6.46586 13.703 6.74699 13.703 7.02811 13.703C7.30924 13.703 7.59036 13.703 7.87149 13.703C7.98393 13.703 8.04016 13.7601 8.04016 13.8744C8.09639 14.2745 7.98393 14.6174 7.59036 14.9032Z" fill="currentColor"/>
  <ellipse cx="10.0444" cy="6.46094" rx="3.95652" ry="4" fill="currentColor"/>
  <path fill-rule="evenodd" clip-rule="evenodd" d="M9.62672 6.46042C9.5076 6.27977 9.32892 6.09913 9.15023 5.91848C8.85243 5.61741 8.55463 5.31633 8.19727 4.95504V4.89483C8.31639 4.83461 8.43551 4.71418 8.55463 4.59375H8.61419C9.09067 5.07547 9.56716 5.55719 10.0436 6.03891C10.0436 6.03891 10.1032 6.09913 10.1032 6.03891C10.5797 5.55719 11.0562 5.07547 11.5327 4.59375H11.5922C11.7113 4.71418 11.7709 4.83461 11.89 4.95504V5.01526C11.4135 5.49698 10.9371 5.9787 10.4606 6.46042C10.401 6.52063 10.401 6.52063 10.4606 6.52063C10.9371 7.00235 11.4135 7.48407 11.89 7.96579V8.02601C11.7709 8.14644 11.7113 8.20665 11.5922 8.32708H11.5327C11.0562 7.84536 10.5797 7.36364 10.1032 6.88192C10.1032 6.88192 10.0436 6.82171 10.0436 6.88192C9.56716 7.36364 9.09067 7.84536 8.61419 8.32708H8.55463C8.43551 8.20665 8.31639 8.14644 8.19727 8.02601V7.96579C8.67375 7.48407 9.15023 7.00235 9.62672 6.52063C9.68628 6.52063 9.68628 6.46042 9.62672 6.46042C9.68628 6.46042 9.68628 6.46042 9.62672 6.46042Z" fill="white"/>
</svg>
