<svg width="29" height="29" viewBox="0 0 29 29" fill="none"
  xmlns="http://www.w3.org/2000/svg">
  <path fill-rule="evenodd" clip-rule="evenodd" d="M14.5 29C22.5081 29 29 22.5081 29 14.5C29 6.49187 22.5081 0 14.5 0C6.49187 0 0 6.49187 0 14.5C0 22.5081 6.49187 29 14.5 29ZM8.54513 14.6069L23.0291 14.6069V13.5407L8.44384 13.5407C10.3683 11.8348 12.1915 10.129 14.0146 8.42307C13.9133 8.31645 13.812 8.18318 13.7108 8.04991C13.6095 7.91664 13.5082 7.78336 13.4069 7.67675L13.2043 7.88998C12.1408 8.84954 11.1026 9.80911 10.0644 10.7687C9.02623 11.7282 7.98805 12.6878 6.92454 13.6473C6.72197 13.8606 6.72197 14.287 6.92454 14.5003C7.9374 15.4065 8.92495 16.3394 9.91249 17.2723C10.9 18.2052 11.8876 19.1381 12.9005 20.0444C13.0017 20.0977 13.0777 20.1777 13.1537 20.2576C13.2296 20.3376 13.3056 20.4176 13.4069 20.4709C13.471 20.4033 13.5352 20.3251 13.6025 20.243C13.7479 20.0658 13.9082 19.8703 14.1159 19.7245C12.1915 18.0187 10.3683 16.3128 8.54513 14.6069Z" fill="currentColor"/>
</svg>
