<svg width="29" height="29" viewBox="0 0 29 29" fill="none"
  xmlns="http://www.w3.org/2000/svg">
  <path fill-rule="evenodd" clip-rule="evenodd" d="M14.5 6.39718e-07C6.49187 -6.03747e-08 6.03743e-08 6.49187 -6.39718e-07 14.5C-1.33981e-06 22.5081 6.49187 29 14.5 29C22.5081 29 29 22.5081 29 14.5C29 6.49187 22.5081 1.33981e-06 14.5 6.39718e-07ZM20.4549 14.3931L5.97087 14.3931L5.97087 15.4593L20.5562 15.4593C18.6317 17.1652 16.8085 18.871 14.9854 20.5769C15.0867 20.6835 15.188 20.8168 15.2892 20.9501C15.3905 21.0834 15.4918 21.2166 15.5931 21.3233L15.7957 21.11C16.8592 20.1505 17.8974 19.1909 18.9356 18.2313C19.9738 17.2718 21.012 16.3122 22.0755 15.3527C22.278 15.1394 22.278 14.713 22.0755 14.4997C21.0626 13.5935 20.0751 12.6606 19.0875 11.7277C18.1 10.7948 17.1124 9.86186 16.0995 8.95561C15.9983 8.9023 15.9223 8.82234 15.8463 8.74237C15.7704 8.66241 15.6944 8.58245 15.5931 8.52914C15.529 8.59665 15.4648 8.67486 15.3975 8.75698C15.2521 8.93423 15.0918 9.12974 14.8841 9.27546C16.8085 10.9813 18.6316 12.6872 20.4548 14.393L20.4549 14.3931Z" fill="currentColor"/>
</svg>
