<svg width="15" height="15" viewBox="0 0 15 15" fill="none"
  xmlns="http://www.w3.org/2000/svg">
  <path fill-rule="evenodd" clip-rule="evenodd" d="M7.44483 10.8416L4.16016 5.36719L10.7295 5.47668L7.44483 10.8416Z" fill="currentColor"/>
  <path d="M7.44526 15C3.39416 15 0 11.6058 0 7.44526C0 3.39416 3.39416 0 7.44526 0C11.4964 0 14.8905 3.39416 14.8905 7.44526C15 11.6058 11.6058 15 7.44526 15ZM7.44526 1.64234C4.27007 1.64234 1.64234 4.27007 1.64234 7.44526C1.64234 10.6204 4.27007 13.2482 7.44526 13.2482C10.6204 13.2482 13.2482 10.6204 13.2482 7.44526C13.3577 4.27007 10.7299 1.64234 7.44526 1.64234Z" fill="currentColor"/>
</svg>
