<svg width="32" height="30" viewBox="0 0 32 30" fill="none"
  xmlns="http://www.w3.org/2000/svg">
  <path d="M0 28.1721C0.224444 27.4057 0.464367 26.6393 0.681072 25.8729C1.33119 23.6201 1.96582 21.3596 2.62368 19.0991C2.68559 18.8901 2.80942 18.681 2.96421 18.5262C7.35248 14.0826 11.7485 9.63894 16.1445 5.19531C16.5702 4.76953 16.9107 4.76953 17.3364 5.18757C18.0639 5.91527 18.7914 6.64298 19.5189 7.37068C19.9291 7.78098 19.9291 8.12935 19.5189 8.53965C15.4247 12.6427 11.3228 16.7457 7.22865 20.8487C6.74107 21.3364 6.2767 21.2667 5.96712 20.6551C5.82007 20.3687 5.74268 19.9661 5.51049 19.8268C5.26283 19.6797 4.86812 19.7803 4.54306 19.7726C4.2954 19.7726 4.05547 19.7726 3.80007 19.7726C3.53693 20.7016 3.28927 21.6228 3.00291 22.5286C2.91004 22.8305 2.97195 23.0163 3.18866 23.2331C4.10191 24.1233 4.99969 25.0291 5.88973 25.9348C6.02904 26.0742 6.14513 26.1052 6.33087 26.0432C7.21317 25.78 8.10321 25.5245 8.99325 25.2768C9.18673 25.2226 9.24091 25.1375 9.23317 24.9439C9.21769 24.5414 9.21769 24.1311 9.23317 23.7285C9.24091 23.5195 9.16352 23.4266 8.98551 23.3492C8.7688 23.2563 8.55984 23.1402 8.35087 23.0395C7.73172 22.7299 7.65432 22.2731 8.14191 21.7854C9.46535 20.4538 10.7965 19.1223 12.1277 17.7985C14.8752 15.0425 17.6227 12.2943 20.378 9.5383C20.8811 9.03511 21.1829 9.03511 21.6937 9.5383C22.398 10.2428 23.0945 10.9395 23.7988 11.644C24.2245 12.0698 24.2245 12.4104 23.7988 12.8285C19.3641 17.2334 14.9294 21.6383 10.487 26.0355C10.3244 26.1981 10.0845 26.3297 9.86007 26.3916C6.93455 27.2432 4.00904 28.0715 1.08352 28.9076C0.510804 29.0934 0.340536 29.0315 0 28.567C0 28.4354 0 28.3037 0 28.1721Z" fill="#D7D7D7"/>
  <path d="M22.7146 0C23.5659 0.123864 24.1774 0.627063 24.7578 1.22316C25.8723 2.36891 27.01 3.48368 28.1322 4.61395C28.9294 5.41906 29.2235 6.37901 28.8288 7.46283C28.6895 7.84216 28.4418 8.20601 28.1709 8.50019C27.4357 9.28208 26.654 10.0253 25.8878 10.7839C25.5085 11.1555 25.1603 11.1555 24.781 10.7839C22.5985 8.60083 20.416 6.41772 18.2335 4.23461C17.8852 3.88624 17.8387 3.53013 18.1406 3.21273C18.9687 2.36116 19.8123 1.51734 20.6559 0.681254C21.0506 0.286436 21.5692 0.139347 22.0954 0.015483C22.3044 0 22.5134 0 22.7146 0Z" fill="#D7D7D7"/>
  <line x1="12.752" y1="28.25" x2="30.252" y2="28.25" stroke="#D7D7D7" stroke-width="1.5" stroke-linecap="round"/>
</svg>
