<svg width="16" height="15" viewBox="0 0 16 15" fill="none"
  xmlns="http://www.w3.org/2000/svg">
  <g clip-path="url(#clip0_354_99883)">
    <path d="M16 3.26471H0V0H16V3.26471ZM0.903955 2.47059H15.096V0.794118H0.903955V2.47059Z" fill="#157974"/>
    <path d="M16 15H0V4.58823H16V15ZM0.903955 14.1176H15.096V5.47059H0.903955V14.1176Z" fill="#157974"/>
    <path d="M13.4689 7.05882H2.44068V7.94118H13.4689V7.05882Z" fill="#157974"/>
    <path d="M13.4689 9.35294H2.44068V10.2353H13.4689V9.35294Z" fill="#157974"/>
    <path d="M13.4689 11.6471H2.44068V12.5294H13.4689V11.6471Z" fill="#157974"/>
    <path fill-rule="evenodd" clip-rule="evenodd" d="M16.2286 3.48814H-0.228516V-0.226562H16.2286V3.48814ZM16.2286 15.2234H-0.228516V4.36167H16.2286V15.2234ZM2.21216 6.83226H13.6976V8.16461H2.21216V6.83226ZM2.21216 9.12638H13.6976V10.4587H2.21216V9.12638ZM2.21216 11.4205H13.6976V12.7528H2.21216V11.4205ZM15.0961 2.46903H0.904011V0.792555H15.0961V2.46903ZM14.8675 1.01756H1.13258V2.24403H14.8675V1.01756ZM15.0961 14.1161H0.904011V5.46903H15.0961V14.1161ZM14.8675 5.69403H1.13258V13.8911H14.8675V5.69403ZM5.58197e-05 3.26314V-0.00156249H16.0001V3.26314H5.58197e-05ZM5.58197e-05 14.9984V4.58667H16.0001V14.9984H5.58197e-05ZM13.469 7.05726V7.93961H2.44073V7.05726H13.469ZM2.44073 9.35138V10.2337H13.469V9.35138H2.44073ZM13.469 11.6455V12.5278H2.44073V11.6455H13.469Z" fill="#157974"/>
  </g>
  <defs>
    <clipPath id="clip0_354_99883">
      <rect width="16" height="15" fill="white"/>
    </clipPath>
  </defs>
</svg>
