<svg width="21" height="15" viewBox="0 0 21 15" fill="none"
  xmlns="http://www.w3.org/2000/svg">
  <g clip-path="url(#clip0_403_11571)">
    <path d="M19.5031 11.2969C19.4025 11.2969 19.2013 11.2969 19.1008 11.1969C19.0002 11.1969 18.8996 11.0969 18.799 10.9969L18.3967 10.6969C15.6812 8.99687 13.0662 7.19688 10.4512 5.49687C7.83621 7.19688 5.3218 8.89688 2.70682 10.5969L2.10336 10.9969C1.70106 11.1969 1.39933 11.2969 0.997022 11.0969C0.695293 10.9969 0.494141 10.7969 0.494141 10.4969C0.494141 10.2969 0.594717 9.99687 0.695293 9.79688C0.79587 9.79688 0.79587 9.69687 0.896446 9.69687L9.64659 3.89688C10.1495 3.59687 10.5518 3.59687 11.0547 3.89688L19.8048 9.69687C20.0059 9.79687 20.2071 9.99687 20.3077 10.3969C20.3077 10.6969 20.1065 10.8969 19.8048 11.0969C19.8048 11.1969 19.6036 11.2969 19.5031 11.2969Z" fill="currentColor"/>
    <path d="M19.5021 8.00156C19.4015 8.00156 19.2004 8.00156 19.0998 7.90156C18.9992 7.90156 18.8986 7.80156 18.7981 7.70156L18.2952 7.50156C15.6802 5.70156 13.0652 4.00156 10.4502 2.30156C7.93582 4.00156 5.32084 5.70156 2.70585 7.40156L2.20297 7.80156C1.80067 8.00156 1.39836 8.10156 1.09663 7.90156C0.794903 7.80156 0.694326 7.60156 0.59375 7.30156C0.59375 7.10156 0.694326 6.80156 0.794903 6.60156C0.895479 6.60156 0.895479 6.50156 0.996055 6.50156L9.7462 0.701563C10.2491 0.401562 10.6514 0.401562 11.1543 0.701563L19.9044 6.50156C20.1056 6.60156 20.3067 6.80156 20.4073 7.20156C20.4073 7.50156 20.2061 7.70156 19.9044 7.90156C19.8038 8.00156 19.6027 8.00156 19.5021 8.00156Z" fill="currentColor"/>
    <path d="M19.5031 14.5016C19.4025 14.5016 19.2013 14.5016 19.1008 14.4016C19.0002 14.4016 18.8996 14.3016 18.799 14.2016L18.3967 13.9016C15.6812 12.2016 13.0662 10.5016 10.4512 8.80156C7.83621 10.5016 5.3218 12.2016 2.70682 13.9016L2.10336 14.3016C1.70106 14.5016 1.39933 14.6016 0.997022 14.4016C0.695293 14.3016 0.494141 14.1016 0.494141 13.8016C0.494141 13.6016 0.594717 13.3016 0.695293 13.1016C0.79587 13.1016 0.79587 13.0016 0.896446 13.0016L9.64659 7.20156C10.1495 6.90156 10.5518 6.90156 11.0547 7.20156L19.8048 13.0016C20.0059 13.1016 20.2071 13.3016 20.3077 13.7016C20.3077 14.0016 20.1065 14.2016 19.8048 14.4016C19.8048 14.5016 19.6036 14.5016 19.5031 14.5016Z" fill="currentColor"/>
  </g>
  <defs>
    <clipPath id="clip0_403_11571">
      <rect width="19.8135" height="14" fill="white" transform="translate(0.59375 0.5)"/>
    </clipPath>
  </defs>
</svg>
