<svg width="24" height="24" viewBox="0 0 24 24" fill="none"
  xmlns="http://www.w3.org/2000/svg">
  <circle cx="12" cy="12" r="12" transform="rotate(-180 12 12)" fill="#D5E8E7"/>
  <g clip-path="url(#clip0_341_101307)">
    <path fill-rule="evenodd" clip-rule="evenodd" d="M4.9414 11.9076L16.9282 11.9076C15.4193 10.4959 13.9105 9.0841 12.3179 7.67234C12.5693 7.49587 12.737 7.23116 12.9046 7.05469C13.0723 7.14293 13.1561 7.3194 13.3238 7.40763C15.0002 8.90763 16.5929 10.4959 18.2693 11.9959C18.437 12.1723 18.437 12.5253 18.2693 12.7018C16.5091 14.29 14.8326 15.8782 13.0723 17.4665C12.9885 17.5547 12.9885 17.5547 12.9046 17.6429C12.737 17.4665 12.5693 17.2017 12.4017 17.0253C13.9105 15.6135 15.4193 14.2018 17.012 12.79L4.9414 12.79L4.9414 11.9076Z" fill="black"/>
  </g>
  <defs>
    <clipPath id="clip0_341_101307">
      <rect width="13.4118" height="10.5882" fill="white" transform="translate(4.94141 7.05469)"/>
    </clipPath>
  </defs>
</svg>
