<svg width="24" height="24" viewBox="0 0 24 24" fill="none"
  xmlns="http://www.w3.org/2000/svg">
  <circle cx="12" cy="12" r="12" fill="#D5E8E7"/>
  <g clip-path="url(#clip0_341_101306)">
    <path fill-rule="evenodd" clip-rule="evenodd" d="M19.0586 12.0846L7.07183 12.0846C8.58065 13.4963 10.0895 14.9081 11.6821 16.3199C11.4307 16.4963 11.263 16.761 11.0954 16.9375C10.9277 16.8493 10.8439 16.6728 10.6762 16.5846C8.99977 15.0846 7.40712 13.4963 5.73065 11.9963C5.56301 11.8198 5.56301 11.4669 5.73065 11.2904C7.49095 9.7022 9.16742 8.11397 10.9277 6.52573C11.0115 6.4375 11.0115 6.4375 11.0954 6.34926C11.263 6.52573 11.4307 6.79044 11.5983 6.96691C10.0895 8.37867 8.58065 9.79044 6.98801 11.2022L19.0586 11.2022L19.0586 12.0846Z" fill="black"/>
  </g>
  <defs>
    <clipPath id="clip0_341_101306">
      <rect width="13.4118" height="10.5882" fill="white" transform="translate(19.0586 16.9375) rotate(-180)"/>
    </clipPath>
  </defs>
</svg>
