<svg width="15" height="15" viewBox="0 0 15 15" fill="none"
  xmlns="http://www.w3.org/2000/svg">
  <circle cx="7.5" cy="7.5" r="7.5" fill="#6990EF"/>
  <path fill-rule="evenodd" clip-rule="evenodd" d="M6.70968 7.5C6.48387 7.16129 6.14516 6.82258 5.80645 6.48387C5.24194 5.91935 4.67742 5.35484 4 4.67742V4.56452C4.22581 4.45161 4.45161 4.22581 4.67742 4H4.79032C5.69355 4.90323 6.59677 5.80645 7.5 6.70968C7.5 6.70968 7.6129 6.82258 7.6129 6.70968C8.51613 5.80645 9.41935 4.90323 10.3226 4H10.4355C10.6613 4.22581 10.7742 4.45161 11 4.67742V4.79032C10.0968 5.69355 9.19355 6.59677 8.29032 7.5C8.17742 7.6129 8.17742 7.6129 8.29032 7.6129C9.19355 8.51613 10.0968 9.41935 11 10.3226V10.4355C10.7742 10.6613 10.6613 10.7742 10.4355 11H10.3226C9.41935 10.0968 8.51613 9.19355 7.6129 8.29032C7.6129 8.29032 7.5 8.17742 7.5 8.29032C6.59677 9.19355 5.69355 10.0968 4.79032 11H4.67742C4.45161 10.7742 4.22581 10.6613 4 10.4355V10.3226C4.90323 9.41935 5.80645 8.51613 6.70968 7.6129C6.82258 7.6129 6.82258 7.5 6.70968 7.5C6.82258 7.5 6.82258 7.5 6.70968 7.5Z" fill="white"/>
</svg>
