<svg viewBox="0 0 18 17" fill="none"
  xmlns="http://www.w3.org/2000/svg">
  <path fill-rule="evenodd" clip-rule="evenodd" d="M0 0H18V13.4149H5.60445L0 17V0ZM1.38462 1.36886V14.4838L5.19555 12.046H16.6154V1.36886H1.38462ZM4.25073 6.47769C4.18566 6.54845 4.15385 6.63791 4.15385 6.70743C4.15385 6.76276 4.17341 6.80051 4.20627 6.83029C4.24194 6.86261 4.3134 6.90135 4.43077 6.90135C4.54624 6.90135 4.60387 6.86474 4.63151 6.83718C4.65788 6.8109 4.70769 6.74225 4.70769 6.58195C4.70769 6.52661 4.68813 6.48886 4.65527 6.45908C4.6196 6.42676 4.54814 6.38802 4.43077 6.38802C4.37552 6.38802 4.31164 6.41145 4.25073 6.47769ZM2.76923 6.70743C2.76923 5.89036 3.43396 5.01916 4.43077 5.01916C5.30903 5.01916 6.09231 5.64719 6.09231 6.58195C6.09231 7.04904 5.93443 7.4823 5.61464 7.80109C5.29613 8.1186 4.86915 8.27021 4.43077 8.27021C3.55251 8.27021 2.76923 7.64218 2.76923 6.70743ZM8.81996 6.47769C8.75489 6.54845 8.72308 6.63791 8.72308 6.70743C8.72308 6.76276 8.74264 6.80051 8.7755 6.83029C8.81117 6.86261 8.88263 6.90135 9 6.90135C9.11547 6.90135 9.17311 6.86474 9.20074 6.83718C9.22711 6.8109 9.27692 6.74225 9.27692 6.58195C9.27692 6.52661 9.25736 6.48886 9.2245 6.45908C9.18883 6.42676 9.11737 6.38802 9 6.38802C8.94475 6.38802 8.88087 6.41145 8.81996 6.47769ZM7.33846 6.70743C7.33846 5.89036 8.00319 5.01916 9 5.01916C9.87826 5.01916 10.6615 5.64719 10.6615 6.58195C10.6615 7.04904 10.5037 7.4823 10.1839 7.80109C9.86536 8.1186 9.43838 8.27021 9 8.27021C8.12174 8.27021 7.33846 7.64218 7.33846 6.70743ZM13.3892 6.47769C13.3241 6.54845 13.2923 6.63791 13.2923 6.70743C13.2923 6.76276 13.3119 6.80051 13.3447 6.83029C13.3804 6.86261 13.4519 6.90135 13.5692 6.90135C13.6866 6.90135 13.7581 6.86261 13.7937 6.83029C13.8266 6.80051 13.8462 6.76276 13.8462 6.70743C13.8462 6.63791 13.8143 6.54845 13.7493 6.47769C13.6884 6.41145 13.6245 6.38802 13.5692 6.38802C13.514 6.38802 13.4501 6.41145 13.3892 6.47769ZM11.9077 6.70743C11.9077 5.89036 12.5724 5.01916 13.5692 5.01916C14.566 5.01916 15.2308 5.89036 15.2308 6.70743C15.2308 7.64218 14.4475 8.27021 13.5692 8.27021C12.691 8.27021 11.9077 7.64218 11.9077 6.70743Z" fill="currentColor"/>
</svg>
