<svg width="13" height="13" viewBox="0 0 13 13" fill="none"
  xmlns="http://www.w3.org/2000/svg">
  <circle cx="6.5" cy="6.5" r="6.5" fill="#727272"/>
  <path fill-rule="evenodd" clip-rule="evenodd" d="M5.81518 6.50208C5.61949 6.20854 5.32594 5.91499 5.03239 5.62144C4.54314 5.13219 4.05389 4.64294 3.4668 4.05585V3.958C3.6625 3.86015 3.85819 3.66445 4.05389 3.46875H4.15174C4.93454 4.25155 5.71733 5.03434 6.50013 5.81714C6.50013 5.81714 6.59798 5.91499 6.59798 5.81714C7.38078 5.03434 8.16357 4.25155 8.94637 3.46875H9.04422C9.23992 3.66445 9.33776 3.86015 9.53346 4.05585V4.1537C8.75067 4.93649 7.96787 5.71929 7.18508 6.50208C7.08723 6.59993 7.08723 6.59993 7.18508 6.59993C7.96787 7.38273 8.75067 8.16552 9.53346 8.94832V9.04617C9.33776 9.24187 9.23992 9.33972 9.04422 9.53542H8.94637C8.16357 8.75262 7.38078 7.96983 6.59798 7.18703C6.59798 7.18703 6.50013 7.08918 6.50013 7.18703C5.71733 7.96983 4.93454 8.75262 4.15174 9.53542H4.05389C3.85819 9.33972 3.6625 9.24187 3.4668 9.04617V8.94832C4.24959 8.16552 5.03239 7.38273 5.81518 6.59993C5.91303 6.59993 5.91303 6.50208 5.81518 6.50208C5.91303 6.50208 5.91303 6.50208 5.81518 6.50208Z" fill="white"/>
</svg>
