<svg width="24" height="24" viewBox="0 0 24 24" fill="none" xmlns="http://www.w3.org/2000/svg">
<mask id="path-1-inside-1_2362_8637" fill="white">
<path fill-rule="evenodd" clip-rule="evenodd" d="M21 3C21 1.89543 20.1046 1 19 1H5C3.89543 1 3 1.89543 3 3V20.9966C3 22.6381 4.86837 23.5807 6.18858 22.6051L10.8112 19.1893C11.5176 18.6673 12.4819 18.6673 13.1883 19.1893L17.8114 22.6055C19.1316 23.5811 21 22.6385 21 20.997V3Z"/>
</mask>
<path fill-rule="evenodd" clip-rule="evenodd" d="M21 3C21 1.89543 20.1046 1 19 1H5C3.89543 1 3 1.89543 3 3V20.9966C3 22.6381 4.86837 23.5807 6.18858 22.6051L10.8112 19.1893C11.5176 18.6673 12.4819 18.6673 13.1883 19.1893L17.8114 22.6055C19.1316 23.5811 21 22.6385 21 20.997V3Z" fill="white" fill-opacity="0.2"/>
<path d="M17.8114 22.6055L16.6228 24.214L17.8114 22.6055ZM13.1883 19.1893L14.3769 17.5808L13.1883 19.1893ZM6.18858 22.6051L5 20.9966L6.18858 22.6051ZM5 3H19V-1H5V3ZM5 20.9966V3H1V20.9966H5ZM7.37717 24.2136L11.9997 20.7978L9.62257 17.5808L5 20.9966L7.37717 24.2136ZM11.9997 20.7978L16.6228 24.214L19 20.997L14.3769 17.5808L11.9997 20.7978ZM19 3V20.997H23V3H19ZM16.6228 24.214C19.2633 26.1651 23 24.2801 23 20.997H19L19 20.997L16.6228 24.214ZM11.9997 20.7978L11.9997 20.7978L14.3769 17.5808C12.9641 16.5368 11.0354 16.5368 9.62257 17.5808L11.9997 20.7978ZM1 20.9966C1 24.2797 4.73675 26.1647 7.37717 24.2136L5 20.9966H5H1ZM19 3H23C23 0.790861 21.2091 -1 19 -1V3ZM5 -1C2.79086 -1 1 0.790867 1 3H5V3V-1Z" fill="#C5C5C5" mask="url(#path-1-inside-1_2362_8637)"/>
</svg>
