<svg width="19" height="12" viewBox="0 0 19 12" fill="none"
  xmlns="http://www.w3.org/2000/svg">
  <path fill-rule="evenodd" clip-rule="evenodd" d="M0 8.16842V3.27018C0.031392 3.04561 0.047088 2.83509 0.07848 2.61053C0.141264 2.1614 0.251136 1.72632 0.502272 1.33333C0.894672 0.701754 1.5696 0.407018 2.30731 0.238597C3.1235 0.0561404 3.95539 0 4.78728 0C7.69104 0 10.5791 0 13.4672 0C14.0636 0 14.6601 0 15.2408 0.0421053C15.8843 0.0842105 16.5122 0.168421 17.1243 0.364912C17.9091 0.617544 18.4428 1.0807 18.7096 1.79649C18.9137 2.37193 18.9608 2.9614 18.9765 3.55088C19.0078 4.99649 19.0078 6.44211 18.9765 7.90175C18.9765 8.47719 18.9137 9.0386 18.7567 9.6C18.4742 10.6807 17.7993 11.4246 16.575 11.7333C15.8843 11.9158 15.1623 11.986 14.456 11.986C11.3325 12 8.19331 12 5.06981 12C4.20653 12 3.35894 11.9439 2.54275 11.7333C1.64808 11.4947 0.926064 11.0596 0.502272 10.2877C0.251136 9.82456 0.141264 9.3193 0.062784 8.8C0.047088 8.57544 0.062784 8.36491 0 8.16842ZM7.94217 8.33684C8.05204 8.35088 8.17761 8.29474 8.28748 8.25263C9.57456 7.64912 10.8459 7.04561 12.133 6.45614C12.2272 6.41404 12.3057 6.37193 12.3684 6.30175C12.6667 6.02105 12.5568 5.61404 12.133 5.40351C10.8616 4.8 9.59025 4.21053 8.31888 3.62105C7.75382 3.35439 7.31433 3.60702 7.31433 4.16842C7.31433 4.92632 7.31433 5.68421 7.31433 6.44211C7.31433 6.87719 7.31433 7.31228 7.31433 7.73333C7.31433 8.08421 7.56547 8.32281 7.94217 8.33684Z" fill="#727272"/>
</svg>
