<svg width="15" height="15" viewBox="0 0 15 15" fill="none"
  xmlns="http://www.w3.org/2000/svg">
  <path fill-rule="evenodd" clip-rule="evenodd" d="M12.3529 0.529412H2.64706C1.48356 0.529412 0.529412 1.48356 0.529412 2.64706V12.3529C0.529412 13.5164 1.48356 14.4706 2.64706 14.4706H12.3529C13.5164 14.4706 14.4706 13.5164 14.4706 12.3529V2.64706C14.4706 1.48356 13.5164 0.529412 12.3529 0.529412ZM2.64706 0H12.3529C13.8088 0 15 1.19118 15 2.64706V12.3529C15 13.8088 13.8088 15 12.3529 15H2.64706C1.19118 15 0 13.8088 0 12.3529V2.64706C0 1.19118 1.19118 0 2.64706 0Z" fill="black"/>
</svg>
