<svg width="15" height="15" viewBox="0 0 15 15" fill="none"
  xmlns="http://www.w3.org/2000/svg">
  <path d="M15 7.5C15 11.6421 11.6421 15 7.5 15C3.35786 15 0 11.6421 0 7.5C0 3.35786 3.35786 0 7.5 0C11.6421 0 15 3.35786 15 7.5Z" fill="white"/>
  <path fill-rule="evenodd" clip-rule="evenodd" d="M7.5 13.6765C10.9112 13.6765 13.6765 10.9112 13.6765 7.5C13.6765 4.08883 10.9112 1.32353 7.5 1.32353C4.08883 1.32353 1.32353 4.08883 1.32353 7.5C1.32353 10.9112 4.08883 13.6765 7.5 13.6765ZM7.5 15C11.6421 15 15 11.6421 15 7.5C15 3.35786 11.6421 0 7.5 0C3.35786 0 0 3.35786 0 7.5C0 11.6421 3.35786 15 7.5 15Z" fill="#00CBBC"/>
  <path d="M11.9114 7.4977C11.9114 9.93425 9.93621 11.9095 7.49966 11.9095C5.0631 11.9095 3.08789 9.93425 3.08789 7.4977C3.08789 5.06115 5.0631 3.08594 7.49966 3.08594C9.93621 3.08594 11.9114 5.06115 11.9114 7.4977Z" fill="#00CBBC"/>
</svg>
