<svg width="15" height="15" viewBox="0 0 15 15" fill="none"
  xmlns="http://www.w3.org/2000/svg">
  <path fill-rule="evenodd" clip-rule="evenodd" d="M12.3529 0H2.64706C1.19118 0 0 1.19118 0 2.64706V12.3529C0 13.8088 1.19118 15 2.64706 15H12.3529C13.8088 15 15 13.8088 15 12.3529V2.64706C15 1.19118 13.8088 0 12.3529 0ZM11.8235 5.16176C11.4265 5.51471 11.0735 5.91176 10.6765 6.26471C9.17647 7.67647 7.72059 9.13235 6.22059 10.5882C6.17647 10.5882 6.17647 10.6324 6.13235 10.6765C6.08824 10.6324 6.08824 10.5882 6.04412 10.5882C5.11765 9.66177 4.14706 8.73529 3.22059 7.85294C3.17647 7.80882 3.17647 7.76471 3.22059 7.72059C3.44118 7.5 3.66176 7.27941 3.88235 7.05882C3.92647 7.01471 3.97059 7.01471 4.01471 7.05882C4.67647 7.72059 5.38235 8.38235 6.04412 9C6.08824 9.04412 6.08824 9.04412 6.13235 9.08824C6.17647 9.04412 6.17647 9 6.22059 9C7.80882 7.45588 9.39706 5.95588 10.9853 4.41176C11.0294 4.36765 11.0735 4.36765 11.1618 4.41176C11.3824 4.63235 11.6029 4.85294 11.8235 5.07353C11.8676 5.07353 11.8676 5.11765 11.8235 5.16176Z" fill="#00CBBC"/>
</svg>
