<svg width="15" height="15" viewBox="0 0 15 15" fill="none"
  xmlns="http://www.w3.org/2000/svg">
  <path d="M15 7.5C15 11.6421 11.6421 15 7.5 15C3.35786 15 0 11.6421 0 7.5C0 3.35786 3.35786 0 7.5 0C11.6421 0 15 3.35786 15 7.5Z" fill="white"/>
  <path fill-rule="evenodd" clip-rule="evenodd" d="M7.5 14.3382C11.2767 14.3382 14.3382 11.2767 14.3382 7.5C14.3382 3.72335 11.2767 0.661765 7.5 0.661765C3.72335 0.661765 0.661765 3.72335 0.661765 7.5C0.661765 11.2767 3.72335 14.3382 7.5 14.3382ZM7.5 15C11.6421 15 15 11.6421 15 7.5C15 3.35786 11.6421 0 7.5 0C3.35786 0 0 3.35786 0 7.5C0 11.6421 3.35786 15 7.5 15Z" fill="black"/>
</svg>
