<svg width="25" height="25" viewBox="0 0 25 25" fill="none"
  xmlns="http://www.w3.org/2000/svg">
  <rect width="25" height="25" rx="7" fill="#00CBBC"/>
  <path fill-rule="evenodd" clip-rule="evenodd" d="M3 14.8491V9.54269C3.03139 9.29941 3.04709 9.07134 3.07848 8.82807C3.14126 8.34152 3.25114 7.87018 3.50227 7.44444C3.89467 6.76023 4.5696 6.44094 5.30731 6.25848C6.1235 6.06082 6.95539 6 7.78728 6C10.691 6 13.5791 6 16.4672 6C17.0636 6 17.6601 6 18.2408 6.04561C18.8843 6.09123 19.5122 6.18246 20.1243 6.39532C20.9091 6.66901 21.4428 7.17076 21.7096 7.9462C21.9137 8.56959 21.9608 9.20819 21.9765 9.84678C22.0078 11.4129 22.0078 12.9789 21.9765 14.5602C21.9765 15.1836 21.9137 15.7918 21.7567 16.4C21.4742 17.5708 20.7993 18.3766 19.575 18.7111C18.8843 18.9088 18.1623 18.9848 17.456 18.9848C14.3325 19 11.1933 19 8.06981 19C7.20653 19 6.35894 18.9392 5.54275 18.7111C4.64808 18.4526 3.92606 17.9813 3.50227 17.145C3.25114 16.6433 3.14126 16.0959 3.06278 15.5333C3.04709 15.2901 3.06278 15.062 3 14.8491ZM10.9422 15.0316C11.052 15.0468 11.1776 14.986 11.2875 14.9404C12.5746 14.2865 13.8459 13.6327 15.133 12.9942C15.2272 12.9485 15.3057 12.9029 15.3684 12.8269C15.6667 12.5228 15.5568 12.0819 15.133 11.8538C13.8616 11.2 12.5903 10.5614 11.3189 9.92281C10.7538 9.63392 10.3143 9.9076 10.3143 10.5158C10.3143 11.3368 10.3143 12.1579 10.3143 12.9789C10.3143 13.4503 10.3143 13.9216 10.3143 14.3778C10.3143 14.7579 10.5655 15.0164 10.9422 15.0316Z" fill="white"/>
</svg>
