<svg width="17" height="20" viewBox="0 0 17 20" fill="none" xmlns="http://www.w3.org/2000/svg">
<mask id="mask0_122_1565" style="mask-type:luminance" maskUnits="userSpaceOnUse" x="0" y="0" width="17" height="20">
<path d="M16.9999 0H0.837891V19.675H16.9999V0Z" fill="white"/>
</mask>
<g mask="url(#mask0_122_1565)">
<path d="M8.92836 18.6749C9.55918 18.7012 10.1748 18.4767 10.6404 18.0503C11.1061 17.624 11.384 17.0306 11.4134 16.3999H6.44336C6.47269 17.0306 6.75059 17.624 7.21628 18.0503C7.68196 18.4767 8.29754 18.7012 8.92836 18.6749Z" stroke="#6A6B6B" stroke-width="2" stroke-miterlimit="10"/>
<path d="M15.324 16.2221H2.51405C2.41508 16.228 2.31613 16.2105 2.22516 16.1711C2.13419 16.1317 2.05375 16.0715 1.99031 15.9953C1.92688 15.9191 1.88222 15.8291 1.85994 15.7325C1.83766 15.6359 1.83838 15.5354 1.86205 15.4391L4.60905 6.25412C4.92059 5.36918 5.50684 4.60698 6.28221 4.07879C7.05758 3.5506 7.98148 3.28407 8.91905 3.31812C9.85678 3.28386 10.7809 3.55028 11.5565 4.07848C12.3321 4.60669 12.9185 5.36901 13.23 6.25412L15.976 15.4391C15.9997 15.5354 16.0004 15.6359 15.9782 15.7325C15.9559 15.8291 15.9112 15.9191 15.8478 15.9953C15.7843 16.0715 15.7039 16.1317 15.6129 16.1711C15.522 16.2105 15.423 16.228 15.324 16.2221Z" stroke="#6A6B6B" stroke-width="2" stroke-miterlimit="10"/>
<path d="M8.91992 2.944V1" stroke="#6A6B6B" stroke-width="2" stroke-linecap="round" stroke-linejoin="round"/>
</g>
</svg>
