<svg width="14" height="14" viewBox="0 0 14 14" fill="none"
  xmlns="http://www.w3.org/2000/svg">
  <g clip-path="url(#clip0_368_6203)">
    <path fill-rule="evenodd" clip-rule="evenodd" d="M6.7998 9.89844L3.7998 4.89844L9.7998 4.99844L6.7998 9.89844Z" fill="black"/>
    <path d="M6.8 13.7C3.1 13.7 0 10.6 0 6.8C0 3.1 3.1 0 6.8 0C10.5 0 13.6 3.1 13.6 6.8C13.7 10.6 10.6 13.7 6.8 13.7ZM6.8 1.5C3.9 1.5 1.5 3.9 1.5 6.8C1.5 9.7 3.9 12.1 6.8 12.1C9.7 12.1 12.1 9.7 12.1 6.8C12.2 3.9 9.8 1.5 6.8 1.5Z" fill="black"/>
  </g>
  <defs>
    <clipPath id="clip0_368_6203">
      <rect width="13.7" height="13.7" fill="white"/>
    </clipPath>
  </defs>
</svg>
