<svg width="18" height="18" viewBox="0 0 18 18" fill="none" xmlns="http://www.w3.org/2000/svg">
<path d="M2.25015 7.87515C2.2428 7.13442 2.38327 6.39966 2.66335 5.71389C2.94343 5.02811 3.35749 4.40509 3.88129 3.88129C4.40509 3.35749 5.02811 2.94343 5.71389 2.66335C6.39966 2.38327 7.13442 2.2428 7.87515 2.25015C8.61588 2.2428 9.35063 2.38327 10.0364 2.66335C10.7222 2.94343 11.3452 3.35749 11.869 3.88129C12.3928 4.40509 12.8069 5.02811 13.0869 5.71389C13.367 6.39966 13.5075 7.13442 13.5001 7.87515C13.5075 8.61588 13.367 9.35063 13.0869 10.0364C12.8069 10.7222 12.3928 11.3452 11.869 11.869C11.3452 12.3928 10.7222 12.8069 10.0364 13.0869C9.35063 13.367 8.61588 13.5075 7.87515 13.5001C7.13442 13.5075 6.39966 13.367 5.71389 13.0869C5.02811 12.8069 4.40509 12.3928 3.88129 11.869C3.35749 11.3452 2.94343 10.7222 2.66335 10.0364C2.38327 9.35063 2.2428 8.61588 2.25015 7.87515ZM16.0871 17.6631C16.2976 17.864 16.5783 17.9745 16.8692 17.9711C17.1601 17.9677 17.4382 17.8506 17.6439 17.6449C17.8496 17.4392 17.9667 17.1611 17.9701 16.8702C17.9735 16.5793 17.863 16.2986 17.6621 16.0881L14.1751 12.6001C15.2091 11.2431 15.7631 9.58114 15.7501 7.87515C15.7565 6.83921 15.5572 5.81231 15.1637 4.85399C14.7702 3.89568 14.1904 3.02501 13.4578 2.29248C12.7253 1.55994 11.8546 0.980115 10.8963 0.586616C9.93799 0.193118 8.91109 -0.00622464 7.87515 0.000148107C6.83921 -0.00622464 5.81231 0.193118 4.85399 0.586616C3.89568 0.980115 3.02501 1.55994 2.29248 2.29248C1.55994 3.02501 0.980115 3.89568 0.586616 4.85399C0.193118 5.81231 -0.00622464 6.83921 0.000148107 7.87515C-0.00622464 8.91109 0.193118 9.93799 0.586616 10.8963C0.980115 11.8546 1.55994 12.7253 2.29248 13.4578C3.02501 14.1904 3.89568 14.7702 4.85399 15.1637C5.81231 15.5572 6.83921 15.7565 7.87515 15.7501C9.58114 15.7631 11.2431 15.2091 12.6001 14.1751L16.0871 17.6631Z" fill="#7E7E7E"/>
</svg>
