<svg width="25" height="25" viewBox="0 0 25 25" fill="none"
  xmlns="http://www.w3.org/2000/svg">
  <path d="M14.5054 10.3242C14.9889 10.8361 15.2449 11.5472 15.2449 12.372C15.2449 12.4004 15.2449 12.4289 15.2449 12.4573C15.2165 14.1922 13.8513 15.5574 12.1732 15.5574C10.4668 15.5574 9.10156 14.1922 9.10156 12.4857C9.10156 11.6325 9.44286 10.8361 10.0401 10.2389C10.5805 9.69848 11.32 9.41406 12.0595 9.41406C12.0879 9.41406 12.1164 9.41406 12.1448 9.41406C13.1687 9.4425 13.965 9.75536 14.5054 10.3242Z" fill="#00CBBC"/>
  <path d="M17.1786 0H7.13879C3.21388 0 0 3.21388 0 7.13879V17.8612C0 21.7861 3.21388 25 7.13879 25H17.1786C21.1035 25 24.3174 21.7861 24.3174 17.8612V7.13879C24.3174 3.21388 21.132 0 17.1786 0ZM20.6485 16.24C20.6485 18.9989 18.4016 21.2173 15.6712 21.2173H8.64619C5.88737 21.2173 3.66894 18.9704 3.66894 16.24V8.75995C3.66894 6.00114 5.91581 3.78271 8.64619 3.78271H15.6428C18.4016 3.78271 20.62 6.02958 20.62 8.75995V16.24H20.6485ZM15.6712 5.06257H8.64619C6.59841 5.06257 4.94881 6.71217 4.94881 8.75995V16.24C4.94881 18.2878 6.59841 19.9374 8.64619 19.9374H15.6428C17.6906 19.9374 19.3402 18.2878 19.3402 16.24V8.75995C19.3686 6.71217 17.719 5.06257 15.6712 5.06257ZM16.8089 12.4858C16.7804 13.7088 16.2969 14.8749 15.4437 15.7565C14.562 16.6382 13.4243 17.1217 12.1729 17.1217C9.6132 17.1217 7.53697 15.0455 7.53697 12.4858C7.53697 11.2344 8.04892 10.0114 8.95904 9.12969C9.84073 8.27645 10.9784 7.82139 12.2014 7.84983C13.6519 7.87827 14.8464 8.39022 15.6712 9.24346C16.4391 10.0683 16.8373 11.2059 16.8089 12.4858ZM16.8942 8.7884C16.2969 8.7884 15.8134 8.30489 15.8134 7.70762C15.8134 7.11035 16.2969 6.62685 16.8942 6.62685C17.4915 6.62685 17.975 7.11035 17.975 7.70762C17.975 8.30489 17.4915 8.7884 16.8942 8.7884Z" fill="#00CBBC"/>
</svg>
