<svg width="14" height="14" viewBox="0 0 14 14" fill="none"
  xmlns="http://www.w3.org/2000/svg">
  <g clip-path="url(#clip0_448_10427)">
    <path fill-rule="evenodd" clip-rule="evenodd" d="M6.90039 3.80469L9.90039 8.80469L3.90039 8.70469L6.90039 3.80469Z" fill="black"/>
    <path d="M6.9002 0.0031246C10.6002 0.00312492 13.7002 3.10312 13.7002 6.90312C13.7002 10.6031 10.6002 13.7031 6.9002 13.7031C3.2002 13.7031 0.100195 10.6031 0.100196 6.90312C0.000195476 3.10312 3.1002 0.00312426 6.9002 0.0031246ZM6.9002 12.2031C9.8002 12.2031 12.2002 9.80312 12.2002 6.90312C12.2002 4.00312 9.8002 1.60312 6.9002 1.60312C4.0002 1.60312 1.6002 4.00312 1.6002 6.90312C1.50019 9.80312 3.9002 12.2031 6.9002 12.2031Z" fill="black"/>
  </g>
  <defs>
    <clipPath id="clip0_448_10427">
      <rect width="13.7" height="13.7" fill="white" transform="translate(13.7002 13.7031) rotate(-180)"/>
    </clipPath>
  </defs>
</svg>
