<svg width="21" height="21" viewBox="0 0 21 21" fill="none"
  xmlns="http://www.w3.org/2000/svg">
  <circle cx="10.5" cy="10.5" r="10" stroke="#A6A6A6"/>
  <g clip-path="url(#clip0_460_8364)">
    <path fill-rule="evenodd" clip-rule="evenodd" d="M16.6763 10.574L6.18785 10.574C7.50807 11.8093 8.82829 13.0446 10.2219 14.2799C10.0018 14.4343 9.85513 14.6659 9.70844 14.8203C9.56175 14.7431 9.4884 14.5887 9.34171 14.5115C7.8748 13.199 6.48123 11.8093 5.01432 10.4968C4.86763 10.3424 4.86763 10.0335 5.01432 9.87913C6.55458 8.48943 8.02149 7.09972 9.56175 5.71002C9.63509 5.63281 9.63509 5.63281 9.70844 5.55561C9.85513 5.71002 10.0018 5.94163 10.1485 6.09605C8.82829 7.33134 7.50807 8.56663 6.11451 9.80193L16.6763 9.80193L16.6763 10.574Z" fill="#A6A6A6"/>
  </g>
  <defs>
    <clipPath id="clip0_460_8364">
      <rect width="11.7353" height="9.26471" fill="white" transform="translate(16.6763 14.8203) rotate(-180)"/>
    </clipPath>
  </defs>
</svg>
