<svg width="24" height="24" viewBox="0 0 24 24" fill="none" xmlns="http://www.w3.org/2000/svg">
<path d="M10.0413 12.0009C10.0413 10.9037 10.9159 10.0143 11.9946 10.0143C13.0734 10.0143 13.948 10.9037 13.948 12.0009C13.948 13.098 13.0734 13.9874 11.9946 13.9874C10.9159 13.9874 10.0413 13.098 10.0413 12.0009Z" fill="#C9CED8"/>
<path fill-rule="evenodd" clip-rule="evenodd" d="M21.3836 12.6006C21.5388 12.2159 21.5388 11.7841 21.3836 11.3994C19.8686 7.64448 16.238 5 12 5C7.76204 5 4.1314 7.64448 2.61641 11.3994C2.4612 11.7841 2.4612 12.2159 2.61641 12.6006C4.1314 16.3555 7.76204 19 12 19C16.238 19 19.8686 16.3555 21.3836 12.6006ZM11.9946 8.31151C9.99119 8.31151 8.36706 9.96328 8.36706 12.0009C8.36706 14.0384 9.99119 15.6902 11.9946 15.6902C13.9981 15.6902 15.6222 14.0384 15.6222 12.0009C15.6222 9.96328 13.9981 8.31151 11.9946 8.31151Z" fill="#C9CED8"/>
</svg>
