<svg width="24" height="24" viewBox="0 0 24 24" fill="none" xmlns="http://www.w3.org/2000/svg">
<path fill-rule="evenodd" clip-rule="evenodd" d="M5.37265 4.49321C5.05656 4.16893 4.54408 4.16893 4.22799 4.49321C3.9119 4.81748 3.9119 5.34323 4.22799 5.66751L5.76157 7.24081C4.5261 8.28767 3.54493 9.63917 2.92736 11.1832C2.7773 11.5584 2.7773 11.9795 2.92736 12.3547C4.39215 16.0168 7.90248 18.596 12 18.596C13.4193 18.596 14.7681 18.2866 15.9858 17.7299L17.7179 19.5068C18.034 19.8311 18.5465 19.8311 18.8626 19.5068C19.1786 19.1825 19.1786 18.6568 18.8626 18.3325L5.37265 4.49321ZM13.3935 15.0704L12.0635 13.7059C12.0407 13.7068 12.0178 13.7072 11.9948 13.7072C10.9518 13.7072 10.1063 12.8397 10.1063 11.7697C10.1063 11.7461 10.1067 11.7226 10.1075 11.6993L8.77744 10.3348C8.5909 10.7744 8.48746 11.2596 8.48746 11.7697C8.48746 13.7569 10.0578 15.3679 11.9948 15.3679C12.492 15.3679 12.965 15.2618 13.3935 15.0704Z" fill="#C9CED8"/>
<path d="M15.4293 12.5033L18.7109 15.8699C19.7249 14.8926 20.536 13.6963 21.0726 12.3547C21.2227 11.9795 21.2227 11.5584 21.0726 11.1832C19.6078 7.52099 16.0975 4.94183 12 4.94183C10.8223 4.94183 9.69314 5.15488 8.64709 5.54547L11.2797 8.24631C11.5106 8.19725 11.7498 8.17147 11.9948 8.17147C13.9319 8.17147 15.5022 9.78244 15.5022 11.7697C15.5022 12.0211 15.4771 12.2664 15.4293 12.5033Z" fill="#C9CED8"/>
</svg>
