<svg width="24" height="24" viewBox="0 0 24 24" fill="none" xmlns="http://www.w3.org/2000/svg">
<path fill-rule="evenodd" clip-rule="evenodd" d="M2.75 12C2.75 6.89137 6.89137 2.75 12 2.75C17.1087 2.75 21.25 6.89137 21.25 12C21.25 17.1086 17.1087 21.25 12 21.25C6.89137 21.25 2.75 17.1086 2.75 12ZM12.9344 15.971C12.9344 16.487 12.516 16.9053 12 16.9053C11.484 16.9053 11.0657 16.487 11.0657 15.971C11.0657 15.455 11.484 15.0366 12 15.0366C12.516 15.0366 12.9344 15.455 12.9344 15.971ZM11.1591 7.09472V13.6351H12.8409V7.09472H11.1591Z" fill="#FF2E3E"/>
</svg>
