<svg width="21" height="14" viewBox="0 0 21 14" fill="none"
  xmlns="http://www.w3.org/2000/svg">
  <g clip-path="url(#clip0_341_8174)">
    <path fill-rule="evenodd" clip-rule="evenodd" d="M7.15703 14.0031C7.15703 13.8281 6.98203 13.8281 6.98203 13.8281C4.88203 11.7281 2.78203 9.80313 0.682031 7.70312C0.507031 7.52812 0.507031 7.52812 0.682031 7.35312C1.20703 6.82812 1.73203 6.30312 2.25703 5.95312C2.25703 5.77812 2.25703 5.77812 2.43203 5.95312C3.83203 7.35313 5.40703 8.75313 6.98203 10.3281L7.15703 10.5031L7.33203 10.3281C10.832 7.00313 14.332 3.50312 17.832 0.178125C18.007 0.003125 18.007 0.003125 18.182 0.178125C18.707 0.703125 19.232 1.22812 19.757 1.57812C19.757 1.57812 19.757 1.75313 19.582 1.75313C18.882 2.62812 18.007 3.50312 17.132 4.20312C13.807 7.35313 10.482 10.6781 7.33203 13.8281C7.15703 13.8281 7.15703 14.0031 7.15703 14.0031Z" fill="#6990EF"/>
  </g>
  <defs>
    <clipPath id="clip0_341_8174">
      <rect width="21" height="14" fill="white"/>
    </clipPath>
  </defs>
</svg>
