<svg width="32" height="32" viewBox="0 0 32 32" fill="none"
  xmlns="http://www.w3.org/2000/svg">
  <path fill-rule="evenodd" clip-rule="evenodd" d="M32 16C32 24.8366 24.8366 32 16 32C7.16344 32 0 24.8366 0 16C0 7.16344 7.16344 0 16 0C24.8366 0 32 7.16344 32 16ZM24.4214 13.0335C24.9922 12.3589 24.9081 11.3494 24.2335 10.7786C23.5589 10.2078 22.5494 10.2919 21.9786 10.9665L14.3018 20.0391L10.7314 16.4686C10.1065 15.8438 9.09347 15.8438 8.46863 16.4686C7.84379 17.0935 7.84379 18.1065 8.46863 18.7314L13.2686 23.5314C13.585 23.8478 14.0194 24.0172 14.4665 23.9986C14.9136 23.98 15.3324 23.7751 15.6214 23.4335L24.4214 13.0335Z" fill="url(#paint0_linear_341_75167)"/>
  <defs>
    <linearGradient id="paint0_linear_341_75167" x1="16" y1="0" x2="16" y2="32" gradientUnits="userSpaceOnUse">
      <stop stop-color="#00CBBC"/>
      <stop offset="1" stop-color="#6990EF"/>
    </linearGradient>
  </defs>
</svg>
