<svg width="19" height="15" viewBox="0 0 19 15" fill="none"
  xmlns="http://www.w3.org/2000/svg">
  <g clip-path="url(#clip0_467_13089)">
    <path fill-rule="evenodd" clip-rule="evenodd" d="M19 8.125L2.01875 8.125C4.15625 10.125 6.29375 12.125 8.55 14.125C8.19375 14.375 7.95625 14.75 7.71875 15C7.48125 14.875 7.3625 14.625 7.125 14.5C4.75 12.375 2.49375 10.125 0.11875 8C-0.118749 7.75 -0.118749 7.25 0.11875 7C2.6125 4.75 4.9875 2.5 7.48125 0.249999C7.6 0.124999 7.6 0.124999 7.71875 -9.86238e-07C7.95625 0.249999 8.19375 0.624999 8.43125 0.874999C6.29375 2.875 4.15625 4.875 1.9 6.875L19 6.875L19 8.125Z" fill="black"/>
  </g>
  <defs>
    <clipPath id="clip0_467_13089">
      <rect width="19" height="15" fill="white" transform="translate(19 15) rotate(-180)"/>
    </clipPath>
  </defs>
</svg>
