<svg width="50" height="50" viewBox="0 0 50 50" fill="none" xmlns="http://www.w3.org/2000/svg">
<g clip-path="url(#clip0_881_51)">
<path d="M46.4864 16.1632V30.6705H3.57617L3.57617 16.1632C3.57617 13.9061 5.40538 12.0769 7.66246 12.0769L42.3989 12.0769C44.656 12.0769 46.4864 13.9061 46.4864 16.1632Z" fill="#C3846C"/>
<path d="M46.4864 30.6707V39.8657C46.4864 42.1228 44.6572 43.952 42.4002 43.952H7.66246C5.40538 43.952 3.57617 42.1228 3.57617 39.8657L3.57617 30.6707H46.4864Z" fill="#956759"/>
<path d="M34.7368 12.0769H31.6718C31.6718 9.631 29.682 7.64241 27.2373 7.64241H22.8237C20.379 7.64241 18.3892 9.63222 18.3892 12.0769H15.3242C15.3242 7.94156 18.6884 4.57739 22.8237 4.57739H27.2373C31.3727 4.57739 34.7368 7.94156 34.7368 12.0769Z" fill="#C3846C"/>
<path d="M29.1184 30.6289C29.1184 32.2767 27.782 33.613 26.1343 33.613H23.9275C22.2797 33.613 20.9434 32.2767 20.9434 30.6289H29.1184Z" fill="#FFC33A"/>
</g>
<defs>
<clipPath id="clip0_881_51">
<rect width="49.0403" height="49.0403" fill="white" transform="translate(0.511719 0.510742)"/>
</clipPath>
</defs>
</svg>
