<svg viewBox="0 0 14 14" fill="none"
  xmlns="http://www.w3.org/2000/svg">
  <path fill-rule="evenodd" clip-rule="evenodd" d="M14 7C14 10.866 10.866 14 7 14C3.13401 14 0 10.866 0 7C0 3.13401 3.13401 0 7 0C10.866 0 14 3.13401 14 7ZM10.6844 5.70216C10.9341 5.40703 10.8973 4.96535 10.6022 4.71563C10.307 4.46591 9.86535 4.50272 9.61563 4.79784L6.25704 8.76709L4.69497 7.20503C4.42161 6.93166 3.97839 6.93166 3.70503 7.20503C3.43166 7.47839 3.43166 7.92161 3.70503 8.19497L5.80503 10.295C5.94345 10.4334 6.1335 10.5075 6.32909 10.4994C6.52468 10.4913 6.70792 10.4016 6.83437 10.2522L10.6844 5.70216Z" fill="currentColor"/>
</svg>
