<svg width="34" height="34" viewBox="0 0 34 34" fill="none"
  xmlns="http://www.w3.org/2000/svg">
  <path fill-rule="evenodd" clip-rule="evenodd" d="M28 0H6C2.7 0 0 2.7 0 6V28C0 31.3 2.7 34 6 34H28C31.3 34 34 31.3 34 28V6C34 2.7 31.3 0 28 0ZM26.8 11.7C25.9 12.5 25.1 13.4 24.2 14.2C20.8 17.4 17.5 20.7 14.1 24C14 24 14 24.1 13.9 24.2C13.8 24.1 13.8 24 13.7 24C11.6 21.9 9.4 19.8 7.3 17.8C7.2 17.7 7.2 17.6 7.3 17.5C7.8 17 8.3 16.5 8.8 16C8.9 15.9 9 15.9 9.1 16C10.6 17.5 12.2 19 13.7 20.4C13.8 20.5 13.8 20.5 13.9 20.6C14 20.5 14 20.4 14.1 20.4C17.7 16.9 21.3 13.5 24.9 10C25 9.9 25.1 9.9 25.3 10C25.8 10.5 26.3 11 26.8 11.5C26.9 11.5 26.9 11.6 26.8 11.7Z" fill="currentColor"/>
</svg>
