<svg width="12" height="13" viewBox="0 0 12 13" fill="none"
  xmlns="http://www.w3.org/2000/svg">
  <circle cx="6" cy="6.5" r="6" fill="#BFBFBF"/>
  <path fill-rule="evenodd" clip-rule="evenodd" d="M5.36794 6.50313C5.18729 6.23216 4.91632 5.96119 4.64536 5.69022C4.19374 5.23861 3.74213 4.787 3.2002 4.24506V4.15474C3.38084 4.06442 3.56149 3.88377 3.74213 3.70312H3.83245C4.55503 4.42571 5.27761 5.14829 6.0002 5.87087C6.0002 5.87087 6.09052 5.96119 6.09052 5.87087C6.8131 5.14829 7.53568 4.42571 8.25826 3.70312H8.34858C8.52923 3.88377 8.61955 4.06442 8.8002 4.24506V4.33538C8.07761 5.05796 7.35503 5.78054 6.63245 6.50313C6.54213 6.59345 6.54213 6.59345 6.63245 6.59345C7.35503 7.31603 8.07761 8.03861 8.8002 8.76119V8.85151C8.61955 9.03216 8.52923 9.12248 8.34858 9.30313H8.25826C7.53568 8.58054 6.8131 7.85796 6.09052 7.13538C6.09052 7.13538 6.0002 7.04506 6.0002 7.13538C5.27761 7.85796 4.55503 8.58054 3.83245 9.30313H3.74213C3.56149 9.12248 3.38084 9.03216 3.2002 8.85151V8.76119C3.92278 8.03861 4.64536 7.31603 5.36794 6.59345C5.45826 6.59345 5.45826 6.50313 5.36794 6.50313C5.45826 6.50313 5.45826 6.50313 5.36794 6.50313Z" fill="white"/>
</svg>
