<svg width="14" height="14" viewBox="0 0 7 7" fill="none" xmlns="http://www.w3.org/2000/svg">
<path fill-rule="evenodd" clip-rule="evenodd" d="M2.74767 3.46236C2.44659 3.12365 2.10788 2.82257 1.80681 2.5215C1.20466 1.91935 0.640142 1.35483 0.0379914 0.752679C0.000357025 0.715044 0.000357025 0.67741 0.0379914 0.639776C0.226163 0.451604 0.45197 0.263432 0.640142 0.0376252C0.677776 -9.18563e-06 0.715411 -9.18563e-06 0.753045 0.0376252C1.65627 0.940851 2.5595 1.84408 3.42509 2.7473C3.46272 2.78494 3.50036 2.82257 3.57563 2.7473C4.47885 1.84408 5.38208 0.940851 6.24767 0.0376252C6.32294 -9.18563e-06 6.32294 -9.18563e-06 6.39821 0.0376252C6.58638 0.225797 6.77455 0.451604 7.00036 0.639776C7.03799 0.67741 7.03799 0.715044 7.00036 0.752679C6.09713 1.6559 5.1939 2.55913 4.29068 3.42472C4.21541 3.49999 4.21541 3.49999 4.29068 3.57526C5.1939 4.47849 6.09713 5.38171 6.96272 6.2473C7.00036 6.28494 7.00036 6.32257 6.96272 6.39784C6.77455 6.58601 6.58638 6.77418 6.36057 6.99999C6.32294 7.03762 6.2853 7.03762 6.24767 6.99999C5.34444 6.09676 4.44122 5.19354 3.57563 4.29031C3.53799 4.25268 3.50036 4.21504 3.42509 4.29031C2.52186 5.19354 1.61864 6.09676 0.753045 6.99999C0.715411 7.03762 0.677776 7.03762 0.640142 6.99999C0.45197 6.81182 0.263798 6.58601 0.0379914 6.39784C0.000357025 6.36021 0.000357025 6.32257 0.0379914 6.28494C0.941217 5.38171 1.84444 4.47849 2.74767 3.57526L2.7853 3.53762C2.7853 3.49999 2.74767 3.46236 2.74767 3.46236Z" fill="black"/>
</svg>
