<svg width="20" height="20" viewBox="0 0 18 18" fill="none" xmlns="http://www.w3.org/2000/svg">
<path fill-rule="evenodd" clip-rule="evenodd" d="M16.3991 6.1C16.2991 6 16.2991 6 16.2991 5.9C16.2991 5.5 16.3991 5.1 16.2991 4.7C15.9991 2.6 14.1991 1.3 12.0991 1.7C11.9991 1.7 11.8991 1.7 11.7991 1.6C10.4991 -0.399998 7.59907 -0.499998 6.09907 1.4C5.99907 1.6 5.89907 1.7 5.49907 1.6C3.19907 1.4 1.19907 3.4 1.69907 5.8C1.69907 6 1.69907 6 1.59907 6.1C0.59907 6.8 0.0990696 7.7 -0.000930439 8.8C-0.10093 10.1 0.49907 11.2 1.59907 11.9C1.69907 12 1.69907 12 1.69907 12.1C1.69907 12.3 1.59907 12.6 1.59907 12.8C1.59907 13 1.59907 13.2 1.59907 13.3C1.89907 15.3 3.79907 16.6 5.79907 16.3C5.89907 16.3 5.99907 16.3 5.99907 16.4C7.39907 18.5 10.3991 18.5 11.8991 16.4C11.9991 16.3 11.9991 16.3 12.1991 16.3C12.5991 16.3 12.9991 16.4 13.3991 16.3C15.4991 16 16.6991 14.2 16.3991 12.1C16.3991 12 16.3991 11.9 16.4991 11.9C18.4991 10.5 18.4991 7.5 16.3991 6.1Z" fill="#00CBBC"/>
<svg width="18" height="18" viewBox="0 0 10 7" fill="none" xmlns="http://www.w3.org/2000/svg">
<path d="M8.29961 0.399994L3.89961 4.79999L1.69961 2.59999L0.599609 3.59999L2.79961 5.79999L3.89961 6.89999L4.99961 5.79999L9.39961 1.39999L8.29961 0.399994Z" fill="white"/>
</svg>
</svg>
