<svg width="16" height="16" viewBox="0 0 16 16" fill="none" xmlns="http://www.w3.org/2000/svg">
<g id="Group">
<path id="Vector" d="M8.57152 10.2873L5.14294 10.9045L5.71437 7.43018L12.2629 0.904461C12.3692 0.797343 12.4956 0.712321 12.6349 0.6543C12.7741 0.596278 12.9235 0.566406 13.0744 0.566406C13.2252 0.566406 13.3746 0.596278 13.5139 0.6543C13.6532 0.712321 13.7796 0.797343 13.8858 0.904461L15.0972 2.11589C15.2043 2.22213 15.2894 2.34853 15.3474 2.4878C15.4054 2.62707 15.4353 2.77645 15.4353 2.92732C15.4353 3.07819 15.4054 3.22757 15.3474 3.36683C15.2894 3.5061 15.2043 3.6325 15.0972 3.73875L8.57152 10.2873Z" fill="#919090"/>
<path id="Vector (Stroke)" fill-rule="evenodd" clip-rule="evenodd" d="M2.23608 3.14397C2.17348 3.14397 2.11345 3.16884 2.06918 3.2131C2.02492 3.25737 2.00005 3.3174 2.00005 3.38V13.7651C2.00005 13.8277 2.02492 13.8877 2.06918 13.932C2.11345 13.9762 2.17348 14.0011 2.23608 14.0011H12.6212C12.6838 14.0011 12.7438 13.9762 12.7881 13.932C12.8323 13.8877 12.8572 13.8277 12.8572 13.7651V10.4856C12.8572 10.0122 13.241 9.62844 13.7143 9.62844C14.1877 9.62844 14.5715 10.0122 14.5715 10.4856V13.7651C14.5715 14.2823 14.366 14.7784 14.0002 15.1442C13.6345 15.5099 13.1384 15.7154 12.6212 15.7154H2.23608C1.71882 15.7154 1.22275 15.5099 0.856999 15.1442C0.491245 14.7784 0.285767 14.2823 0.285767 13.7651V3.38C0.285767 2.86274 0.491245 2.36667 0.856999 2.00092C1.22275 1.63517 1.71882 1.42969 2.23608 1.42969H5.51558C5.98897 1.42969 6.37272 1.81344 6.37272 2.28683C6.37272 2.76022 5.98897 3.14397 5.51558 3.14397H2.23608Z" fill="#919090"/>
</g>
</svg>
