<svg width="24" height="21" viewBox="0 0 24 21" fill="none" xmlns="http://www.w3.org/2000/svg">
<path d="M21.2406 2.31931C20.6908 1.7622 20.0357 1.31985 19.3136 1.01793C18.5914 0.716017 17.8164 0.560547 17.0336 0.560547C16.2509 0.560547 15.4759 0.716017 14.7537 1.01793C14.0315 1.31985 13.3765 1.7622 12.8266 2.31931L11.9986 3.14731L11.1746 2.31931C10.0586 1.20328 8.54494 0.576299 6.96664 0.576299C5.38833 0.576299 3.87467 1.20328 2.75864 2.31931C1.6426 3.43534 1.01563 4.949 1.01563 6.52731C1.01562 8.10562 1.6426 9.61928 2.75864 10.7353L11.9996 19.9763L21.2406 10.7353C21.7977 10.1855 22.2401 9.53042 22.542 8.80823C22.8439 8.08604 22.9994 7.31107 22.9994 6.52831C22.9994 5.74555 22.8439 4.97058 22.542 4.24839C22.2401 3.5262 21.7977 2.87117 21.2406 2.32131" stroke="#95989A"/>
</svg>
