<svg width="22" height="20" viewBox="0 0 22 20" fill="none" xmlns="http://www.w3.org/2000/svg">
<path fill-rule="evenodd" clip-rule="evenodd" d="M20.2406 1.75925C19.6908 1.20214 19.0357 0.759792 18.3136 0.457875C17.5914 0.155958 16.8164 0.000488281 16.0336 0.000488281C15.2509 0.000488281 14.4759 0.155958 13.7537 0.457875C13.0315 0.759792 12.3765 1.20214 11.8266 1.75925L10.9986 2.58725L10.1746 1.75925C9.0586 0.64322 7.54494 0.0162407 5.96664 0.0162407C4.38833 0.0162407 2.87467 0.64322 1.75864 1.75925C0.642605 2.87528 0.015625 4.38895 0.015625 5.96725C0.015625 7.54556 0.642605 9.05922 1.75864 10.1753L10.9996 19.4163L20.2406 10.1753C20.7977 9.62539 21.2401 8.97036 21.542 8.24817C21.8439 7.52598 21.9994 6.75101 21.9994 5.96825C21.9994 5.18549 21.8439 4.41053 21.542 3.68833C21.2401 2.96614 20.7977 2.31111 20.2406 1.76125" fill="#F273C2"/>
</svg>
