<svg width="90" height="53" viewBox="0 0 90 53" fill="none" xmlns="http://www.w3.org/2000/svg">
<path d="M10.2227 6.59375V7.78906H0.496094V6.59375H4.62109V5.41016C3.79492 5.51562 3.01562 5.5332 2.03125 5.52734H1.375V1.82422H5.06641V2.99609H2.875V4.35547C3.67773 4.33789 4.375 4.2793 5.14844 4.13281L5.25977 5.05859H5.67578V1.82422H9.32031V2.99609H7.16406V4.34375H9.36719V5.52734H6.13281V6.59375H10.2227ZM1.53906 9.85156V8.65625H8.98047V12.1016H7.48047V9.85156H1.53906ZM20.5938 6.59375V7.78906H10.8672V6.59375H14.9922V5.41016C14.166 5.51562 13.3867 5.5332 12.4023 5.52734H11.7461V1.82422H15.4375V2.99609H13.2461V4.35547C14.0488 4.33789 14.7461 4.2793 15.5195 4.13281L15.6309 5.05859H16.0469V1.82422H19.6914V2.99609H17.5352V4.34375H19.7383V5.52734H16.5039V6.59375H20.5938ZM11.9102 9.85156V8.65625H19.3516V12.1016H17.8516V9.85156H11.9102ZM29.6992 1.42578V4.69531H31.1406V5.91406H29.6992V9.38281H28.1992V1.42578H29.6992ZM21.2383 3.72266V2.53906H23.6641V1.40234H25.1523V2.53906H27.5664V3.72266H21.2383ZM21.7539 6.16016C21.7539 4.92383 22.8496 4.09766 24.4023 4.09766C25.9492 4.09766 27.0273 4.92383 27.0273 6.16016C27.0273 7.39062 25.9492 8.19922 24.4023 8.19922C22.8496 8.19922 21.7539 7.39062 21.7539 6.16016ZM22.7852 11.8906V8.77344H24.2734V10.6953H30.0859V11.8906H22.7852ZM23.2188 6.16016C23.2129 6.74609 23.6875 7.0625 24.4023 7.0625C25.123 7.0625 25.6094 6.74609 25.6094 6.16016C25.6094 5.56836 25.123 5.24023 24.4023 5.23438C23.6875 5.24023 23.2129 5.56836 23.2188 6.16016ZM43.5977 1.41406V12.0781H42.1797V6.72266H41.1484V11.5625H39.7773V1.58984H41.1484V5.52734H42.1797V1.41406H43.5977ZM34.6797 9.66406V2.64453H38.6523V3.85156H36.1797V8.41016C37.2109 8.39258 38.125 8.33398 39.1562 8.15234L39.2617 9.37109C37.9609 9.61719 36.8242 9.6582 35.418 9.66406H34.6797ZM51.0742 2.36328V3.54688H44.7461V2.36328H47.1719V1.35547H48.6602V2.36328H51.0742ZM45.2617 5.85547C45.2617 4.68359 46.3633 3.89258 47.9102 3.88672C49.4629 3.89258 50.5352 4.68359 50.5352 5.85547C50.5352 7.02734 49.4629 7.81836 47.9102 7.82422C46.3633 7.81836 45.2617 7.02734 45.2617 5.85547ZM46.0234 9.74609V8.55078H53.207V12.0781H51.707V9.74609H46.0234ZM46.7266 5.85547C46.7207 6.40039 47.1953 6.68164 47.9102 6.67578C48.6309 6.68164 49.1172 6.40039 49.1172 5.85547C49.1172 5.30469 48.6309 5.01172 47.9102 5.01172C47.1953 5.01172 46.7207 5.30469 46.7266 5.85547ZM51.707 8.10547V1.41406H53.207V4.17969H54.6484V5.39844H53.207V8.10547H51.707ZM64.1523 1.42578V9.47656H62.6523V8.63281H60.6133V7.61328H62.6523V1.42578H64.1523ZM55.082 6.14844C57.0332 6.13672 59.6699 6.10742 61.9258 5.83203L62.0078 6.89844C61.1641 7.03906 60.291 7.13867 59.4297 7.20312V9.23047H57.9297V10.6953H64.3867V11.8906H56.4414V8.70312H57.9297V7.29102C56.9746 7.32617 56.0664 7.33203 55.2578 7.33203L55.082 6.14844ZM55.8672 3.69922C55.8672 2.5625 56.9629 1.7832 58.5508 1.78906C60.0977 1.7832 61.2051 2.5625 61.2109 3.69922C61.2051 4.8418 60.0977 5.58008 58.5508 5.57422C56.9629 5.58008 55.8672 4.8418 55.8672 3.69922ZM57.2852 3.69922C57.2793 4.21484 57.7891 4.50195 58.5508 4.49609C59.2656 4.50195 59.7812 4.21484 59.793 3.69922C59.7812 3.17188 59.2656 2.87891 58.5508 2.87891C57.7891 2.87891 57.2793 3.17188 57.2852 3.69922ZM71.6641 3.3125C71.6641 4.4668 72.2617 5.60352 73.6797 6.14844L72.8828 7.28516C71.9688 6.93945 71.3418 6.30664 70.9609 5.52148C70.5742 6.44141 69.9062 7.20898 68.9102 7.625L68.1016 6.47656C69.6074 5.81445 70.2109 4.50195 70.2109 3.3125V2.05859H71.6641V3.3125ZM70.082 10.0859C70.0762 8.83789 71.5117 8.08789 73.7734 8.09375C76.0234 8.08789 77.4648 8.83789 77.4766 10.0859C77.4648 11.3223 76.0234 12.084 73.7734 12.0781C71.5117 12.084 70.0762 11.3223 70.082 10.0859ZM71.582 10.0859C71.5703 10.6602 72.373 10.9531 73.7734 10.9531C75.1621 10.9531 75.9648 10.6602 75.9648 10.0859C75.9648 9.50586 75.1621 9.20703 73.7734 9.20703C72.373 9.20703 71.5703 9.50586 71.582 10.0859ZM73.7148 7.61328V1.61328H75.1094V4.02734H76V1.42578H77.418V7.94141H76V5.23438H75.1094V7.61328H73.7148ZM87.1562 1.41406V3.93359H88.5156V5.17578H87.1562V7.69531H85.6562V1.41406H87.1562ZM78.5078 6.54688C79.2871 6.54688 80.1719 6.54688 81.0977 6.5293V6.06055C79.9316 5.91406 79.2168 5.43359 79.2227 4.67188C79.2168 3.80469 80.2422 3.29492 81.8359 3.30078C83.418 3.29492 84.4434 3.80469 84.4492 4.67188C84.4434 5.42773 83.7344 5.9082 82.5859 6.05469V6.47656C83.4648 6.42969 84.3379 6.35938 85.1641 6.25391L85.2695 7.17969C82.9961 7.56055 80.5234 7.57812 78.6602 7.57812L78.5078 6.54688ZM78.7891 3.07812V2.08203H81.0977V1.32031H82.5859V2.08203H84.8945V3.07812H78.7891ZM79.9258 9.06641V8.07031H87.1562V10.4609H81.4375V11.0117H87.5078V12.0078H79.9375V9.55859H85.6562V9.06641H79.9258ZM80.6523 4.67188C80.6465 4.99414 81.0742 5.1582 81.8359 5.16406C82.5859 5.1582 83.0137 4.99414 83.0195 4.67188C83.0137 4.36133 82.5859 4.22656 81.8359 4.22656C81.0742 4.22656 80.6465 4.36133 80.6523 4.67188Z" fill="#5ACEC5"/>
<path d="M23.5879 18.5039V30.9219H28.8672V31.8848H23.5879V47.3906H22.5254V18.5039H23.5879ZM2.30469 40.4844C10.4561 36.5 14.9219 29.8428 15.2705 22.7207H3.40039V21.7578H16.3496C16.3164 29.4609 12.0332 36.8818 2.90234 41.3809L2.30469 40.4844ZM44.2734 37.0977C50.0674 37.0977 53.5205 38.957 53.5371 42.1777C53.5205 45.415 50.0674 47.2744 44.2734 47.291C38.4463 47.2744 34.9932 45.415 35.0098 42.1777C34.9932 38.957 38.4463 37.0977 44.2734 37.0977ZM32.6191 33.3457V20.2969H33.6816V25.4434H44.5391V20.2969H45.5352V33.3457H32.6191ZM33.6816 32.3496H44.5391V26.4062H33.6816V32.3496ZM36.0059 42.1777C35.9893 44.668 39.3096 46.2949 44.2734 46.2949C49.2041 46.2949 52.5078 44.668 52.5078 42.1777C52.5078 39.6875 49.2041 38.0605 44.2734 38.0605C39.3096 38.0605 35.9893 39.6875 36.0059 42.1777ZM52.2422 36.2012V18.5039H53.3047V26.3066H58.0527V27.3027H53.3047V36.2012H52.2422ZM86.8398 32.2832V33.3125H60.4102V32.2832H69.7236C70.7861 27.3193 70.9688 23.7002 71.002 21.791H62.8672V20.7949H72.0645V20.8281C72.0479 22.1064 72.0479 26.2734 70.8525 32.2832H81.1289C82.125 27.2197 82.2246 23.6006 82.2246 21.791H74.3887V20.7949H83.2871V21.3262C83.2705 22.8701 83.2705 26.7217 82.2412 32.2832H86.8398ZM64.0625 46.2285V37.0977H65.1582V45.2988H84.0176V46.2285H64.0625Z" fill="#393939"/>
</svg>
