<svg width="33" height="34" viewBox="0 0 33 34" fill="none" xmlns="http://www.w3.org/2000/svg">
    <mask id="mask0_127_175640" style="mask-type:luminance" maskUnits="userSpaceOnUse" x="0" y="0" width="33"
          height="34">
        <path d="M32.6044 0H0.484375V33.013H32.6044V0Z" fill="white"/>
    </mask>
    <g mask="url(#mask0_127_175640)">
        <path d="M9.95337 13.9738C10.8534 12.9668 11.8634 11.8888 12.8014 10.7488C13.5725 9.81359 14.2912 8.83643 14.9544 7.82179C15.6822 6.58415 16.1676 5.21913 16.3844 3.79979C16.4456 3.1291 16.656 2.48058 17.0001 1.90166C17.3443 1.32274 17.8135 0.828057 18.3734 0.453793C18.8106 0.203938 19.298 0.0547949 19.8001 0.0172385C20.3023 -0.0203179 20.8064 0.0546589 21.2759 0.236702C21.7454 0.418746 22.1683 0.703267 22.5139 1.06952C22.8595 1.43577 23.1189 1.87453 23.2734 2.35379C23.5994 3.39473 23.6842 4.49622 23.5214 5.57479C23.1755 7.98585 22.465 10.3303 21.4144 12.5278C21.3711 12.6519 21.335 12.7785 21.3064 12.9068C21.6304 12.9068 21.9114 12.9068 22.1934 12.9068C24.1444 12.9168 26.0934 12.8728 28.0464 12.9558C28.7414 12.9299 29.4345 13.0461 30.083 13.2973C30.7316 13.5485 31.3221 13.9295 31.8184 14.4168C32.115 14.7731 32.3373 15.1853 32.4721 15.6289C32.6069 16.0725 32.6516 16.5386 32.6034 16.9998C32.5576 17.9145 32.1734 18.7796 31.5254 19.4268C31.4809 19.5115 31.4561 19.6051 31.453 19.7007C31.4499 19.7963 31.4685 19.8914 31.5074 19.9788C31.7556 20.4024 31.9009 20.8783 31.9316 21.3682C31.9623 21.8582 31.8777 22.3485 31.6844 22.7998C31.2989 23.4211 30.8571 24.0056 30.3644 24.5458C30.4024 24.9568 30.4644 25.5018 30.5014 26.0458C30.5373 26.5866 30.4117 27.126 30.1405 27.5953C29.8694 28.0646 29.4649 28.4428 28.9784 28.6818C28.8261 28.7586 28.7007 28.8798 28.6189 29.0295C28.5371 29.1791 28.5027 29.3501 28.5204 29.5198C28.5316 30.1161 28.3921 30.7056 28.1149 31.2337C27.8376 31.7618 27.4316 32.2114 26.9344 32.5408C26.4379 32.858 25.8584 33.0209 25.2694 33.0088C21.5844 32.9938 17.8984 33.0478 14.2164 32.9458C12.9191 32.8872 11.6642 32.4659 10.5944 31.7298C10.5294 31.6673 10.4526 31.6183 10.3686 31.5857C10.2845 31.553 10.1948 31.5374 10.1046 31.5398C10.0145 31.5421 9.92572 31.5623 9.84344 31.5992C9.76117 31.6361 9.68705 31.689 9.62537 31.7548C9.29625 32.018 8.89399 32.1734 8.47337 32.1998C6.44938 32.2428 4.42338 32.1838 2.39838 32.2348C1.90292 32.2143 1.43274 32.0105 1.07907 31.663C0.725397 31.3154 0.513457 30.8488 0.484375 30.3538C0.511375 25.2998 0.496375 20.2458 0.502375 15.1908C0.542781 14.7303 0.753811 14.3016 1.09405 13.9888C1.43429 13.6759 1.87917 13.5015 2.34137 13.4998C4.36637 13.4738 6.39138 13.4618 8.41638 13.5098C8.94674 13.5992 9.46356 13.7558 9.95438 13.9758M28.3094 18.9758C28.9669 18.5714 29.5994 18.1276 30.2034 17.6468C30.332 17.5062 30.4291 17.3397 30.4881 17.1585C30.5471 16.9773 30.5668 16.7856 30.5456 16.5962C30.5245 16.4068 30.4632 16.2241 30.3657 16.0604C30.2682 15.8966 30.1368 15.7556 29.9804 15.6468C29.2799 15.2117 28.4627 15.0023 27.6394 15.0468C25.3964 14.9958 23.1504 14.9898 20.9074 15.0468C20.5896 15.0628 20.2732 14.9961 19.9888 14.8533C19.7045 14.7106 19.4621 14.4965 19.2851 14.2321C19.1081 13.9677 19.0027 13.662 18.9791 13.3447C18.9555 13.0274 19.0145 12.7095 19.1504 12.4218C19.5004 11.5398 19.8874 10.6718 20.2434 9.79179C21.1039 7.86129 21.5047 5.75746 21.4144 3.64579C21.388 3.35289 21.2927 3.07039 21.1363 2.82134C20.9798 2.5723 20.7668 2.36377 20.5144 2.21279C20.2281 2.12727 19.9219 2.13559 19.6407 2.23653C19.3595 2.33747 19.1179 2.52573 18.9514 2.77379C18.7169 3.1894 18.5537 3.64131 18.4684 4.11079C18.2572 5.41704 17.869 6.68841 17.3144 7.88979C16.2303 10.0116 14.8153 11.9471 13.1224 13.6238C12.4334 14.3638 11.7454 15.1088 11.0994 15.8868C10.8155 16.1741 10.6275 16.5423 10.5614 16.9408C10.5224 20.8088 10.5314 24.6768 10.5504 28.5408C10.5638 28.8024 10.6702 29.0506 10.8504 29.2408C11.9462 30.304 13.4176 30.8916 14.9444 30.8758C18.3184 30.9358 21.6944 30.8908 25.0694 30.8878C25.3591 30.924 25.6516 30.8467 25.8855 30.672C26.1195 30.4973 26.2768 30.2389 26.3244 29.9508C26.4837 29.3027 26.5133 28.6294 26.4114 27.9698C26.2484 27.2828 26.6194 27.2758 27.0264 27.1698C27.0954 27.1528 27.1734 27.1698 27.2444 27.1588C27.5887 27.1114 27.9016 26.9335 28.1186 26.662C28.3356 26.3905 28.44 26.0461 28.4104 25.6998C28.3467 25.3902 28.2393 25.0912 28.0914 24.8118C27.8094 24.2638 27.4914 23.7338 27.1774 23.1768C27.6994 23.0438 28.1774 22.9378 28.6484 22.7978C29.7184 22.4768 30.1204 21.8238 29.4294 20.6828C29.0614 20.0748 28.6524 19.4928 28.3094 18.9718M2.61238 30.0798H8.27138V15.6048H2.61238V30.0798Z"
              fill="#8DE8E1"/>
    </g>
</svg>
