<svg width="121" height="38" viewBox="0 0 121 38" fill="none" xmlns="http://www.w3.org/2000/svg">
<mask id="mask0_159_10068" style="mask-type:luminance" maskUnits="userSpaceOnUse" x="0" y="1" width="53" height="36">
<path d="M52.6813 1.70093H0.820312V36.3469H52.6813V1.70093Z" fill="white"/>
</mask>
<g mask="url(#mask0_159_10068)">
<mask id="mask1_159_10068" style="mask-type:luminance" maskUnits="userSpaceOnUse" x="0" y="1" width="53" height="36">
<path d="M52.6813 1.70093H0.820312V36.3469H52.6813V1.70093Z" fill="white"/>
</mask>
<g mask="url(#mask1_159_10068)">
<mask id="mask2_159_10068" style="mask-type:luminance" maskUnits="userSpaceOnUse" x="0" y="1" width="53" height="36">
<path d="M52.6813 1.70093H0.820312V36.3469H52.6813V1.70093Z" fill="white"/>
</mask>
<g mask="url(#mask2_159_10068)">
<path d="M42.0366 17.949V17.916H42.0176L42.0366 17.949Z" fill="#BDFFFA"/>
<path d="M42.0371 17.949L42.0561 17.982V17.915H42.0371V17.949Z" fill="#BCFFFA"/>
<path d="M42.0566 17.983L42.0756 18.017V17.917H42.0566V17.983Z" fill="#BBFFFA"/>
<path d="M42.0742 18.016L42.0932 18.05V17.917H42.0742V18.016Z" fill="#BBFFF9"/>
<path d="M42.0938 18.05L42.1127 18.084V17.917H42.0938V18.05Z" fill="#BAFFF9"/>
<path d="M42.1133 18.084L42.1323 18.118V17.918H42.1133V18.084Z" fill="#B9FEF9"/>
<path d="M42.1309 18.117L42.1499 18.151V17.917H42.1309V18.117Z" fill="#B8FEF9"/>
<path d="M42.1504 18.1559L42.1694 18.1898V17.9229H42.1504V18.1559Z" fill="#B7FEF9"/>
<path d="M42.168 18.185L42.187 18.218V17.918H42.168V18.185Z" fill="#B6FEF9"/>
<path d="M42.1914 18.218L42.2104 18.252V17.918H42.1914V18.218Z" fill="#B6FEF8"/>
<path d="M42.209 18.2529L42.228 18.2869V17.9199H42.209V18.2529Z" fill="#B5FEF8"/>
<path d="M42.2266 18.2849L42.2456 18.3189V17.9189H42.2266V18.2849Z" fill="#B4FEF8"/>
<path d="M42.2461 18.318L42.2651 18.352V17.918H42.2461V18.318Z" fill="#B3FDF8"/>
<path d="M42.2656 18.35L42.2846 18.384V17.916H42.2656V18.35Z" fill="#B2FDF8"/>
<path d="M42.2852 18.3859L42.3042 18.4199V17.9199H42.2852V18.3859Z" fill="#B1FDF7"/>
<path d="M42.3027 18.419L42.3217 18.452V17.918H42.3027V18.419Z" fill="#B0FDF7"/>
<path d="M42.3223 18.4529L42.3413 18.4869V17.9189H42.3223V18.4529Z" fill="#AFFDF7"/>
<path d="M42.3418 18.4869L42.3608 18.5209V17.9209H42.3418V18.4869Z" fill="#AEFDF7"/>
<path d="M42.3594 18.5209L42.3784 18.5549V17.9199H42.3594V18.5209Z" fill="#ADFDF7"/>
<path d="M42.3809 18.5539L42.3999 18.5879V17.9199H42.3809V18.5539Z" fill="#ACFCF6"/>
<path d="M42.3984 18.5879L42.4174 18.6219V17.9219H42.3984V18.5879Z" fill="#ACFCF6"/>
<path d="M42.418 18.6209L42.437 18.6549V17.9199H42.418V18.6209Z" fill="#ABFCF6"/>
<path d="M42.4375 18.6549L42.4565 18.6879V17.9199H42.4375V18.6549Z" fill="#AAFCF6"/>
<path d="M42.4551 18.6879L42.4741 18.7219V17.9219H42.4551V18.6879Z" fill="#A9FCF6"/>
<path d="M42.4746 18.7209L42.4936 18.7549V17.9199H42.4746V18.7209Z" fill="#A8FCF5"/>
<path d="M42.4941 18.7549L42.5131 18.7889V17.9199H42.4941V18.7549Z" fill="#A7FCF5"/>
<path d="M42.5117 18.7888L42.5307 18.8229V17.9229H42.5117V18.7888Z" fill="#A6FBF5"/>
<path d="M42.5332 18.8219L42.5522 18.8559V17.9209H42.5332V18.8219Z" fill="#A5FBF5"/>
<path d="M42.5508 18.8559L42.5698 18.8889V17.9209H42.5508V18.8559Z" fill="#A4FBF5"/>
<path d="M42.5664 18.8898L42.5854 18.9238V17.9238H42.5664V18.8898Z" fill="#A3FBF4"/>
<path d="M42.5918 18.9239L42.6108 18.9579V17.9219H42.5918V18.9239Z" fill="#A2FBF4"/>
<path d="M42.6074 18.9569L42.6264 18.9909V17.9219H42.6074V18.9569Z" fill="#A1FBF4"/>
<path d="M42.627 18.9911L42.646 19.0251V17.925H42.627V18.9911Z" fill="#A0FBF4"/>
<path d="M42.6465 19.0239L42.6655 19.0579V17.9229H42.6465V19.0239Z" fill="#9FFAF4"/>
<path d="M42.666 19.0579L42.685 19.0919V17.9229H42.666V19.0579Z" fill="#9EFAF3"/>
<path d="M42.6836 19.092L42.7026 19.125V17.925H42.6836V19.092Z" fill="#9DFAF3"/>
<path d="M42.7051 19.1251L42.7241 19.1591V17.9241H42.7051V19.1251Z" fill="#9CFAF3"/>
<path d="M42.7227 19.1579L42.7417 19.1918V17.9229H42.7227V19.1579Z" fill="#9BFAF3"/>
<path d="M42.7422 19.192L42.7612 19.226V17.926H42.7422V19.192Z" fill="#9BFAF3"/>
<path d="M42.7617 19.2289L42.7807 19.2628V17.9229H42.7617V19.2289Z" fill="#9AFAF2"/>
<path d="M42.7793 19.26L42.7983 19.294V17.929H42.7793V19.26Z" fill="#99F9F2"/>
<path d="M42.7988 19.294L42.8178 19.328V17.928H42.7988V19.294Z" fill="#98F9F2"/>
<path d="M42.8184 19.327L42.8374 19.36V17.927H42.8184V19.327Z" fill="#97F9F2"/>
<path d="M42.8379 19.36L42.8569 19.394V17.926H42.8379V19.36Z" fill="#96F9F1"/>
<path d="M42.8555 19.3941L42.8745 19.428V17.925H42.8555V19.3941Z" fill="#95F9F1"/>
<path d="M42.875 19.4238L42.894 19.4578V17.9238H42.875V19.4238Z" fill="#94F9F1"/>
<path d="M42.8945 19.4608L42.9135 19.4948V17.9238H42.8945V19.4608Z" fill="#93F9F1"/>
<path d="M42.9141 19.4949L42.9331 19.5289V17.9229H42.9141V19.4949Z" fill="#92F8F1"/>
<path d="M42.9316 19.5279L42.9506 19.5619V17.9219H42.9316V19.5279Z" fill="#91F8F0"/>
<path d="M42.9512 19.5619L42.9702 19.5949V17.9209H42.9512V19.5619Z" fill="#90F8F0"/>
<path d="M42.9668 19.5959L42.9858 19.6299V17.9299H42.9668V19.5959Z" fill="#8FF8F0"/>
<path d="M42.9902 19.629L43.0092 19.663V17.926H42.9902V19.629Z" fill="#8EF8F0"/>
<path d="M43.0078 19.663L43.0268 19.697V17.927H43.0078V19.663Z" fill="#8DF8F0"/>
<path d="M43.0273 19.6969L43.0463 19.7309V17.9309H43.0273V19.6969Z" fill="#8CF7EF"/>
<path d="M43.0469 19.73L43.0659 19.764V17.927H43.0469V19.73Z" fill="#8BF7EF"/>
<path d="M43.0664 19.764L43.0854 19.798V17.927H43.0664V19.764Z" fill="#8AF7EF"/>
<path d="M43.0859 19.7979L43.1049 19.8309V17.9309H43.0859V19.7979Z" fill="#89F7EF"/>
<path d="M43.1035 19.831L43.1225 19.865V17.927H43.1035V19.831Z" fill="#88F7EE"/>
<path d="M43.123 19.864L43.142 19.898V17.928H43.123V19.864Z" fill="#87F7EE"/>
<path d="M43.1406 19.8979L43.1596 19.9319V17.9319H43.1406V19.8979Z" fill="#86F7EE"/>
<path d="M43.1621 19.931L43.1811 19.965V17.928H43.1621V19.931Z" fill="#85F6EE"/>
<path d="M43.1797 19.965L43.1987 19.999V17.928H43.1797V19.965Z" fill="#84F6EE"/>
<path d="M43.1992 19.9989L43.2182 20.0329V17.9329H43.1992V19.9989Z" fill="#83F6ED"/>
<path d="M43.2188 20.032L43.2378 20.065V17.928H43.2188V20.032Z" fill="#82F6ED"/>
<path d="M43.2383 20.066L43.2573 20.1V17.929H43.2383V20.066Z" fill="#81F6ED"/>
<path d="M43.2559 20.0998L43.2749 20.1338V17.9338H43.2559V20.0998Z" fill="#80F6ED"/>
<path d="M43.2754 20.1329L43.2944 20.167V17.929H43.2754V20.1329Z" fill="#7FF5ED"/>
<path d="M43.2949 20.1669L43.3139 20.2009V17.9299H43.2949V20.1669Z" fill="#7EF5EC"/>
<path d="M43.3125 20.2011L43.3315 20.2351V17.9351H43.3125V20.2011Z" fill="#7DF5EC"/>
<path d="M43.332 20.2339L43.351 20.2679V17.9299H43.332V20.2339Z" fill="#7CF5EC"/>
<path d="M43.3516 20.2679L43.3706 20.3009V17.9299H43.3516V20.2679Z" fill="#7BF5EC"/>
<path d="M43.3672 20.303L43.3862 20.337V17.937H43.3672V20.303Z" fill="#7AF5EB"/>
<path d="M43.3906 20.3339L43.4096 20.3679V17.9299H43.3906V20.3339Z" fill="#79F5EB"/>
<path d="M43.4141 20.3679L43.4331 20.4019V17.9299H43.4141V20.3679Z" fill="#78F4EB"/>
<path d="M43.4277 20.4011L43.4467 20.4351V17.9351H43.4277V20.4011Z" fill="#77F4EB"/>
<path d="M43.4473 20.4349L43.4663 20.4689V17.9309H43.4473V20.4349Z" fill="#76F4EB"/>
<path d="M43.4648 20.4689L43.4838 20.5029V17.9309H43.4648V20.4689Z" fill="#75F4EA"/>
<path d="M43.4844 20.4979L43.5034 20.5309V17.9309H43.4844V20.4979Z" fill="#74F4EA"/>
<path d="M43.5039 20.5359L43.5229 20.5699V17.9319H43.5039V20.5359Z" fill="#73F4EA"/>
<path d="M43.5234 20.5699L43.5424 20.6039V17.9319H43.5234V20.5699Z" fill="#72F3EA"/>
<path d="M43.543 20.6039L43.562 20.6379V17.9319H43.543V20.6039Z" fill="#71F3E9"/>
<path d="M43.5605 20.6369L43.5795 20.6709V17.9319H43.5605V20.6369Z" fill="#70F3E9"/>
<path d="M43.5801 20.6709L43.5991 20.7049V17.9329H43.5801V20.6709Z" fill="#6FF3E9"/>
<path d="M43.5996 20.7049L43.6186 20.7389V17.9329H43.5996V20.7049Z" fill="#6EF3E9"/>
<path d="M43.6191 20.7379L43.6382 20.7709V17.9329H43.6191V20.7379Z" fill="#6DF3E9"/>
<path d="M43.6367 20.7709L43.6557 20.8049V17.9329H43.6367V20.7709Z" fill="#6CF3E8"/>
<path d="M43.6562 20.8049L43.6752 20.8389V17.9329H43.6562V20.8049Z" fill="#6BF2E8"/>
<path d="M43.6758 20.8379L43.6948 20.8719V17.9329H43.6758V20.8379Z" fill="#6AF2E8"/>
<path d="M43.6934 20.8719L43.7124 20.9059V17.9329H43.6934V20.8719Z" fill="#69F2E8"/>
<path d="M43.7148 20.9059L43.7338 20.9399V17.9329H43.7148V20.9059Z" fill="#68F2E7"/>
<path d="M43.7324 20.9398L43.7514 20.9738V17.9338H43.7324V20.9398Z" fill="#67F2E7"/>
<path d="M43.752 20.9728L43.771 21.0058V17.9338H43.752V20.9728Z" fill="#66F2E7"/>
<path d="M43.7656 21.0068L43.7846 21.0408V17.9338H43.7656V21.0068Z" fill="#65F1E7"/>
<path d="M43.7891 21.0401L43.8081 21.0741V17.9351H43.7891V21.0401Z" fill="#64F1E7"/>
<path d="M43.8125 21.0741L43.8315 21.1081V17.9351H43.8125V21.0741Z" fill="#63F1E6"/>
<path d="M43.8281 21.1081L43.8471 21.1421V17.9351H43.8281V21.1081Z" fill="#62F1E6"/>
<path d="M43.8477 21.1411L43.8667 21.1751V17.9351H43.8477V21.1411Z" fill="#61F1E6"/>
<path d="M43.8672 21.1751L43.8862 21.2091V17.9351H43.8672V21.1751Z" fill="#60F1E6"/>
<path d="M43.8848 21.209L43.9038 21.242V17.936H43.8848V21.209Z" fill="#5EF0E5"/>
<path d="M43.9043 21.242L43.9233 21.276V17.936H43.9043V21.242Z" fill="#5DF0E5"/>
<path d="M43.9238 21.28L43.9428 21.314V17.936H43.9238V21.28Z" fill="#5CF0E5"/>
<path d="M43.9414 21.31L43.9604 21.344V17.937H43.9414V21.31Z" fill="#5BF0E5"/>
<path d="M43.9609 21.343L43.9799 21.377V17.937H43.9609V21.343Z" fill="#5AF0E5"/>
<path d="M43.9805 21.378L43.9995 21.412V17.937H43.9805V21.378Z" fill="#59F0E4"/>
<path d="M44 21.411L44.019 21.445V17.937H44V21.411Z" fill="#58F0E4"/>
<path d="M44.0176 21.444L44.0366 21.477V17.937H44.0176V21.444Z" fill="#57EFE4"/>
<path d="M44.0391 21.475L44.0581 21.509V17.937H44.0391V21.475Z" fill="#56EFE4"/>
<path d="M44.0566 21.511L44.0756 21.545V17.937H44.0566V21.511Z" fill="#55EFE3"/>
<path d="M44.0762 21.544L44.0952 21.578V17.938H44.0762V21.544Z" fill="#54EFE3"/>
<path d="M44.0957 21.578L44.1147 21.612V17.938H44.0957V21.578Z" fill="#53EFE3"/>
<path d="M44.1133 21.612L44.1323 21.646V17.938H44.1133V21.612Z" fill="#52EFE3"/>
<path d="M44.1328 21.645L44.1518 21.679V17.938H44.1328V21.645Z" fill="#51EEE3"/>
<path d="M44.1523 21.679L44.1714 21.712V17.938H44.1523V21.679Z" fill="#50EEE2"/>
<path d="M44.1719 21.713L44.1909 21.747V17.939H44.1719V21.713Z" fill="#4FEEE2"/>
<path d="M44.1895 21.746L44.2085 21.78V17.939H44.1895V21.746Z" fill="#4EEEE2"/>
<path d="M44.2129 21.78L44.2319 21.814V17.939H44.2129V21.78Z" fill="#4DEEE2"/>
<path d="M44.2285 21.8139L44.2475 21.8479V17.9399H44.2285V21.8139Z" fill="#4CEEE1"/>
<path d="M44.248 21.8469L44.267 21.8809V17.9399H44.248V21.8469Z" fill="#4BEDE1"/>
<path d="M44.2676 21.8809L44.2866 21.9139V17.9399H44.2676V21.8809Z" fill="#4AEDE1"/>
<path d="M44.2852 21.9139L44.3042 21.9479V17.9399H44.2852V21.9139Z" fill="#49EDE1"/>
<path d="M44.3047 21.9469L44.3237 21.9809V17.9399H44.3047V21.9469Z" fill="#48EDE1"/>
<path d="M44.3242 21.9809L44.3432 22.0149V17.9399H44.3242V21.9809Z" fill="#47EDE0"/>
<path d="M44.3418 22.0149L44.3608 22.0489V17.9399H44.3418V22.0149Z" fill="#46EDE0"/>
<path d="M44.3633 22.0479L44.3823 22.0819V17.9399H44.3633V22.0479Z" fill="#45EDE0"/>
<path d="M44.3809 22.0819L44.3999 22.1159V17.9409H44.3809V22.0819Z" fill="#44ECE0"/>
<path d="M44.3984 22.1159L44.4174 22.1489V17.9409H44.3984V22.1159Z" fill="#43ECDF"/>
<path d="M44.418 22.1489L44.437 22.1829V17.9409H44.418V22.1489Z" fill="#42ECDF"/>
<path d="M44.4375 22.1829L44.4565 22.2169V17.9419H44.4375V22.1829Z" fill="#40ECDF"/>
<path d="M44.457 22.2169L44.476 22.2509V17.9419H44.457V22.2169Z" fill="#3FECDF"/>
<path d="M44.4746 22.2499L44.4936 22.2839V17.9419H44.4746V22.2499Z" fill="#3EECDF"/>
<path d="M44.4961 22.2839L44.5151 22.3179V17.9419H44.4961V22.2839Z" fill="#3DEBDE"/>
<path d="M44.5137 22.3179L44.5327 22.3519V17.9429H44.5137V22.3179Z" fill="#3CEBDE"/>
<path d="M44.5332 22.3539L44.5522 22.3869V17.9429H44.5332V22.3539Z" fill="#3BEBDE"/>
<path d="M44.5527 22.3849L44.5717 22.4189V17.9429H44.5527V22.3849Z" fill="#3AEBDE"/>
<path d="M44.5723 22.4179L44.5913 22.4519V17.9429H44.5723V22.4179Z" fill="#39EBDD"/>
<path d="M44.5879 22.4509L44.6069 22.4849V17.9429H44.5879V22.4509Z" fill="#38EBDD"/>
<path d="M44.6133 22.4849L44.6323 22.5189V17.9429H44.6133V22.4849Z" fill="#37EADD"/>
<path d="M44.6289 22.5189L44.6479 22.5529V17.9429H44.6289V22.5189Z" fill="#36EADD"/>
<path d="M44.6465 22.549L44.6655 22.583V17.949H44.6465V22.549Z" fill="#35EADC"/>
<path d="M44.666 22.586L44.685 22.619V17.948H44.666V22.586Z" fill="#34EADC"/>
<path d="M44.6855 22.62L44.7045 22.654V17.947H44.6855V22.62Z" fill="#33EADC"/>
<path d="M44.7051 22.653L44.7241 22.687V17.946H44.7051V22.653Z" fill="#32EADC"/>
<path d="M44.7246 22.687L44.7436 22.721V17.946H44.7246V22.687Z" fill="#31E9DC"/>
<path d="M44.7441 22.7211L44.7631 22.7551V17.9451H44.7441V22.7211Z" fill="#30E9DB"/>
<path d="M44.7617 22.7539L44.7807 22.7878V17.9438H44.7617V22.7539Z" fill="#2FE9DB"/>
<path d="M44.7812 22.7879L44.8002 22.8219V17.9429H44.7812V22.7879Z" fill="#2EE9DB"/>
<path d="M44.8008 22.8209L44.8198 22.8539V17.9419H44.8008V22.8209Z" fill="#2DE9DB"/>
<path d="M44.8184 22.8549L44.8374 22.8889V17.9419H44.8184V22.8549Z" fill="#2CE9DA"/>
<path d="M44.8379 22.889L44.8569 22.923V17.946H44.8379V22.889Z" fill="#2AE9DA"/>
<path d="M44.8555 22.922L44.8745 22.956V17.946H44.8555V22.922Z" fill="#29E8DA"/>
<path d="M44.877 22.955L44.896 22.989V17.946H44.877V22.955Z" fill="#28E8DA"/>
<path d="M44.8945 22.99L44.9135 23.024V17.947H44.8945V22.99Z" fill="#27E8DA"/>
<path d="M44.9141 23.024L44.9331 23.058V17.948H44.9141V23.024Z" fill="#26E8D9"/>
<path d="M44.9336 23.057L44.9526 23.09V17.947H44.9336V23.057Z" fill="#25E8D9"/>
<path d="M44.9531 23.09L44.9721 23.124V17.947H44.9531V23.09Z" fill="#24E8D9"/>
<path d="M44.9707 23.124L44.9897 23.158V17.948H44.9707V23.124Z" fill="#23E7D9"/>
<path d="M44.9883 23.157L45.0073 23.191V17.947H44.9883V23.157Z" fill="#22E7D8"/>
<path d="M45.0117 23.191L45.0307 23.225V17.948H45.0117V23.191Z" fill="#21E7D8"/>
<path d="M45.0273 23.224L45.0463 23.258V17.948H45.0273V23.224Z" fill="#20E7D8"/>
<path d="M45.0488 23.258L45.0678 23.292V17.948H45.0488V23.258Z" fill="#1FE7D8"/>
<path d="M45.0664 23.292L45.0854 23.325V17.948H45.0664V23.292Z" fill="#1EE7D7"/>
<path d="M45.0859 23.3299L45.1049 23.3639V17.9539H45.0859V23.3299Z" fill="#1DE6D7"/>
<path d="M45.1055 23.359L45.1245 23.393V17.949H45.1055V23.359Z" fill="#1CE6D7"/>
<path d="M45.123 23.393L45.1421 23.427V17.949H45.123V23.393Z" fill="#1BE6D7"/>
<path d="M45.1426 23.428L45.1616 23.462V17.949H45.1426V23.428Z" fill="#1AE6D7"/>
<path d="M45.1621 23.46L45.1811 23.4939V17.95H45.1621V23.46Z" fill="#18E6D6"/>
<path d="M45.1797 23.4939L45.1987 23.528V17.95H45.1797V23.4939Z" fill="#17E6D6"/>
<path d="M45.2012 23.526L45.2202 23.559V17.95H45.2012V23.526Z" fill="#16E5D6"/>
<path d="M45.2188 23.56L45.2377 23.594V17.95H45.2188V23.56Z" fill="#15E5D6"/>
<path d="M45.2383 23.594L45.2573 23.628V17.95H45.2383V23.594Z" fill="#14E5D5"/>
<path d="M45.2578 23.623L45.2768 23.657V17.95H45.2578V23.623Z" fill="#13E5D5"/>
<path d="M45.2773 23.661L45.2964 23.695V17.958V17.95H45.2823L45.2773 23.661Z" fill="#12E5D5"/>
<path d="M45.2949 23.6951L45.3139 23.7291V17.9891L45.2949 17.9561V23.6951Z" fill="#11E5D5"/>
<path d="M45.3145 23.729L45.3335 23.763V18.024L45.3145 17.991V23.729Z" fill="#10E4D4"/>
<path d="M45.334 23.7619L45.353 23.7949V18.0569L45.334 18.0239V23.7619Z" fill="#0FE4D4"/>
<path d="M45.3516 23.794L45.3706 23.828V18.094L45.3516 18.061V23.794Z" fill="#0EE4D4"/>
<path d="M45.373 23.8301L45.3921 23.8641V18.1241L45.373 18.0911V23.8301Z" fill="#0DE4D4"/>
<path d="M45.3867 23.863L45.4057 23.897V18.157L45.3867 18.124V23.863Z" fill="#0CE4D4"/>
<path d="M45.4121 23.898L45.4311 23.932V18.19L45.4121 18.157V23.898Z" fill="#0BE4D3"/>
<path d="M45.4297 23.93L45.4487 23.964V18.222L45.4297 18.189V23.93Z" fill="#0AE3D3"/>
<path d="M45.4473 23.9639L45.4663 23.9979V18.2549L45.4473 18.2219V23.9639Z" fill="#09E3D3"/>
<path d="M45.4668 24.0009L45.4858 24.0339V18.2879L45.4668 18.2549V24.0009Z" fill="#07E3D3"/>
<path d="M45.4863 24.0308L45.5053 24.0648V18.3208L45.4863 18.2878V24.0308Z" fill="#06E3D2"/>
<path d="M45.5059 24.065L45.5249 24.099V18.354L45.5059 18.321V24.065Z" fill="#05E3D2"/>
<path d="M45.5234 24.098L45.5424 24.132V18.388L45.5234 18.355V24.098Z" fill="#04E3D2"/>
<path d="M45.543 24.1319L45.562 24.1659V18.4209L45.543 18.3879V24.1319Z" fill="#03E2D2"/>
<path d="M45.5625 24.1659L45.5815 24.1999V18.4539L45.5625 18.4209V24.1659Z" fill="#02E2D1"/>
<path d="M45.582 24.1989L45.601 24.2329V18.4859L45.582 18.4529V24.1989Z" fill="#01E2D1"/>
<path d="M45.6016 24.2328L45.6206 24.2658V18.5188L45.6016 18.4858V24.2328Z" fill="#00E2D1"/>
<path d="M45.6191 24.2661L46.8331 26.4061L48.5131 23.5281L45.6191 18.5181V24.2661Z" fill="#00E2D1"/>
<path d="M6.40234 14.6889L6.50234 14.8719V14.6799L6.40234 14.6889Z" fill="#BDFFFA"/>
<path d="M6.50586 14.6789V14.8709L6.60586 15.0539V14.6689L6.50586 14.6789Z" fill="#B9FEF9"/>
<path d="M6.61133 14.6689V15.0539L6.71133 15.2369V14.6589L6.61133 14.6689Z" fill="#B5FEF8"/>
<path d="M6.71484 14.6599V15.2379L6.81484 15.4209V14.6509L6.71484 14.6599Z" fill="#B2FDF8"/>
<path d="M6.81836 14.6499V15.4199L6.91836 15.6029V14.6399L6.81836 14.6499Z" fill="#AEFDF7"/>
<path d="M6.92383 14.6409V15.6039L7.02383 15.7869V14.6309L6.92383 14.6409Z" fill="#AAFCF6"/>
<path d="M7.02539 14.6348V15.7898L7.12539 15.9729V14.6208L7.02539 14.6348Z" fill="#A7FCF5"/>
<path d="M7.12891 14.621V15.973L7.22891 16.156V14.616L7.12891 14.621Z" fill="#A3FBF4"/>
<path d="M7.23242 14.6131V16.1531L7.33242 16.3361V14.6021L7.23242 14.6131Z" fill="#A0FBF4"/>
<path d="M7.33594 14.602V16.335L7.43594 16.518V14.592L7.33594 14.602Z" fill="#9DFAF3"/>
<path d="M7.43945 14.59V16.516L7.53945 16.699V14.583L7.43945 14.59Z" fill="#99FAF2"/>
<path d="M7.54297 14.583V16.701L7.64297 16.884V14.573L7.54297 14.583Z" fill="#96F9F2"/>
<path d="M7.64648 14.568V16.879L7.74648 17.062V14.562L7.64648 14.568Z" fill="#93F9F1"/>
<path d="M7.75 14.5629V17.0629L7.85 17.2459V14.5459L7.75 14.5629Z" fill="#8FF8F0"/>
<path d="M7.85352 14.5529V17.2529L7.95351 17.4359V14.5449L7.85352 14.5529Z" fill="#8CF8EF"/>
<path d="M7.95703 14.5439V17.4319L8.05703 17.6149V14.5339L7.95703 14.5439Z" fill="#89F7EF"/>
<path d="M8.06055 14.534V17.615L8.16055 17.798V14.5229L8.06055 14.534Z" fill="#86F7EE"/>
<path d="M8.16406 14.5239V17.7979L8.26406 17.9809V14.5139L8.16406 14.5239Z" fill="#83F6ED"/>
<path d="M8.26758 14.514V17.98L8.36758 18.163V14.5L8.26758 14.514Z" fill="#80F6ED"/>
<path d="M8.37109 14.5049V18.1629L8.47109 18.3459V14.4949L8.37109 14.5049Z" fill="#7DF5EC"/>
<path d="M8.47461 14.4948V18.3458L8.57461 18.5288V14.4858L8.47461 14.4948Z" fill="#7BF5EC"/>
<path d="M8.57812 14.4849V18.5289L8.67812 18.7119V14.4749L8.57812 14.4849Z" fill="#78F4EB"/>
<path d="M8.68164 14.4751V18.7111L8.78164 18.8941V14.4661L8.68164 14.4751Z" fill="#75F4EA"/>
<path d="M8.78711 14.4661V18.8951L8.88711 19.0781V14.4561L8.78711 14.4661Z" fill="#72F4EA"/>
<path d="M8.88867 14.456V19.077L8.98867 19.26V14.447L8.88867 14.456Z" fill="#70F3E9"/>
<path d="M8.99414 14.447V19.261L9.09414 19.444V14.437L8.99414 14.447Z" fill="#6DF3E9"/>
<path d="M9.0957 14.437V19.444L9.19571 19.627V14.427L9.0957 14.437Z" fill="#6BF2E8"/>
<path d="M9.20117 14.427V19.627L9.30117 19.81V14.417L9.20117 14.427Z" fill="#68F2E8"/>
<path d="M9.30273 14.417V19.809L9.40273 19.992V14.408L9.30273 14.417Z" fill="#66F2E7"/>
<path d="M9.4082 14.4079V19.992L9.50821 20.1749V14.3979L9.4082 14.4079Z" fill="#63F1E7"/>
<path d="M9.50977 14.3979V20.1749L9.60976 20.3579V14.3879L9.50977 14.3979Z" fill="#61F1E6"/>
<path d="M9.61523 14.3879V20.3569L9.71524 20.5399V14.3779L9.61523 14.3879Z" fill="#5FF1E6"/>
<path d="M9.71875 14.379V20.541L9.81875 20.7239V14.529L9.73275 14.377L9.71875 14.379Z" fill="#5CF0E5"/>
<path d="M9.82617 20.7231L9.92617 20.9061V14.7121L9.82617 14.5291V20.7231Z" fill="#5AF0E5"/>
<path d="M9.92578 20.9059L10.0258 21.0889V14.8939L9.92578 14.7119V20.9059Z" fill="#58EFE4"/>
<path d="M10.0273 21.0889L10.1273 21.2719V15.0719L10.0273 14.8899V21.0889Z" fill="#56EFE4"/>
<path d="M10.1328 21.272L10.2328 21.455V15.255L10.1328 15.073V21.272Z" fill="#53EFE3"/>
<path d="M10.2344 21.4549L10.3344 21.6379V15.4379L10.2344 15.2549V21.4549Z" fill="#51EEE3"/>
<path d="M10.3398 21.638L10.4398 21.821V15.621L10.3398 15.438V21.638Z" fill="#4FEEE2"/>
<path d="M10.4395 21.8221L10.5395 22.0051V15.805L10.4395 15.623V21.8221Z" fill="#4DEEE2"/>
<path d="M10.5469 22.0031L10.6469 22.1861V15.9931L10.5469 15.8101V22.0031Z" fill="#4BEEE1"/>
<path d="M10.6504 22.187L10.7504 22.37V16.17L10.6504 15.988V22.187Z" fill="#49EDE1"/>
<path d="M10.7539 22.3689L10.8539 22.5519V16.3519L10.7539 16.1699V22.3689Z" fill="#47EDE1"/>
<path d="M10.8574 22.551L10.9574 22.7341V16.534L10.8574 16.3521V22.551Z" fill="#46EDE0"/>
<path d="M10.9609 22.7339L11.0609 22.9169V16.7169L10.9609 16.5339V22.7339Z" fill="#44ECE0"/>
<path d="M11.0645 22.918L11.1645 23.101V16.901L11.0645 16.719V22.918Z" fill="#42ECDF"/>
<path d="M11.168 23.1009L11.268 23.2839V17.0839L11.168 16.9019V23.1009Z" fill="#40ECDF"/>
<path d="M11.2715 23.282L11.3715 23.465V17.265L11.2715 17.082V23.282Z" fill="#3FECDF"/>
<path d="M11.375 23.466L11.475 23.649V17.451L11.375 17.269V23.466Z" fill="#3DEBDE"/>
<path d="M11.4785 23.649L11.5785 23.832V17.632L11.4785 17.449V23.649Z" fill="#3BEBDE"/>
<path d="M11.584 23.8321L11.684 24.0151V17.8151L11.584 17.6331V23.8321Z" fill="#3AEBDD"/>
<path d="M11.6855 24.0149L11.7855 24.1979V17.9979L11.6855 17.8149V24.0149Z" fill="#38EBDD"/>
<path d="M11.7891 24.198L11.8891 24.381V18.181L11.7891 17.999V24.198Z" fill="#36EADD"/>
<path d="M11.8926 24.3799L11.9926 24.5629V18.3629L11.8926 18.1809V24.3799Z" fill="#35EADC"/>
<path d="M11.9961 24.563L12.0961 24.746V18.546L11.9961 18.363V24.563Z" fill="#33EADC"/>
<path d="M12.0996 24.7459L12.1996 24.9289V18.7289L12.0996 18.5469V24.7459Z" fill="#32EADC"/>
<path d="M12.1992 24.929L12.2992 25.112V18.911L12.1992 18.729V24.929Z" fill="#31E9DC"/>
<path d="M12.3066 25.1118L12.4066 25.2948V19.0948L12.3066 18.9128V25.1118Z" fill="#2FE9DB"/>
<path d="M12.4102 25.295L12.5102 25.478V19.278L12.4102 19.095V25.295Z" fill="#2EE9DB"/>
<path d="M12.5137 25.4768L12.6137 25.6598V19.4598L12.5137 19.2778V25.4768Z" fill="#2CE9DB"/>
<path d="M12.6172 25.66L12.7172 25.843V19.643L12.6172 19.46V25.66Z" fill="#2BE9DA"/>
<path d="M12.7207 25.8431L12.8207 26.0261V19.8261L12.7207 19.6431V25.8431Z" fill="#2AE8DA"/>
<path d="M12.8262 26.0301L12.9262 26.2131V20.0131L12.8262 19.8311V26.0301Z" fill="#29E8DA"/>
<path d="M12.9297 26.21L13.0297 26.393V20.193L12.9297 20.011V26.21Z" fill="#27E8DA"/>
<path d="M13.0332 26.391L13.1332 26.574V20.37L13.0332 20.188V26.391Z" fill="#26E8D9"/>
<path d="M13.1367 26.574L13.2367 26.757V20.557L13.1367 20.374V26.574Z" fill="#25E8D9"/>
<path d="M13.2402 26.7578L13.3402 26.9408V20.7408L13.2402 20.5588V26.7578Z" fill="#24E7D9"/>
<path d="M13.3438 26.9409L13.4438 27.1239V20.9239L13.3438 20.7419V26.9409Z" fill="#23E7D9"/>
<path d="M13.4473 27.1238L13.5473 27.3068V21.1068L13.4473 20.9238V27.1238Z" fill="#22E7D8"/>
<path d="M13.5488 27.306L13.6488 27.489V21.289L13.5488 21.106V27.306Z" fill="#21E7D8"/>
<path d="M13.6543 27.4899L13.7543 27.6729V21.4669L13.6543 21.2849V27.4899Z" fill="#20E7D8"/>
<path d="M13.7578 27.672L13.8578 27.855V21.65L13.7578 21.467V27.672Z" fill="#1FE7D8"/>
<path d="M13.8613 27.8549L13.9613 28.0379V21.8309L13.8613 21.6479V27.8549Z" fill="#1EE7D7"/>
<path d="M13.9648 28.038L14.0648 28.221V22.015L13.9648 21.833V28.038Z" fill="#1DE6D7"/>
<path d="M14.0684 28.2209L14.1684 28.4039V22.1969L14.0684 22.0149V28.2209Z" fill="#1CE6D7"/>
<path d="M14.1719 28.403L14.2719 28.586V22.38L14.1719 22.197V28.403Z" fill="#1BE6D7"/>
<path d="M14.2754 28.5859L14.3754 28.7689V22.5619L14.2754 22.3799V28.5859Z" fill="#1AE6D7"/>
<path d="M14.3789 28.769L14.4789 28.952V22.745L14.3789 22.563V28.769Z" fill="#19E6D6"/>
<path d="M14.4824 28.9499L14.5824 29.1329V22.9249L14.4824 22.7419V28.9499Z" fill="#18E6D6"/>
<path d="M14.5859 29.135L14.6859 29.318V23.11L14.5859 22.927V29.135Z" fill="#17E6D6"/>
<path d="M14.6895 29.317L14.7895 29.5V23.289L14.6895 23.106V29.317Z" fill="#16E5D6"/>
<path d="M14.793 29.5L14.893 29.683V23.474L14.793 23.292V29.5Z" fill="#16E5D6"/>
<path d="M14.8965 29.6829L14.9965 29.8659V23.6569L14.8965 23.4739V29.6829Z" fill="#15E5D6"/>
<path d="M15 29.8669L15.1 30.0499V23.8409L15 23.6589V29.8669Z" fill="#14E5D5"/>
<path d="M15.1016 30.05L15.2016 30.233V24.024L15.1016 23.842V30.05Z" fill="#13E5D5"/>
<path d="M15.207 30.2319L15.307 30.4149V24.2049L15.207 24.0229V30.2319Z" fill="#13E5D5"/>
<path d="M15.3105 30.4148L15.4106 30.5978V24.3878L15.3105 24.2048V30.4148Z" fill="#12E5D5"/>
<path d="M15.4141 30.5979L15.5141 30.7809V24.5709L15.4141 24.3889V30.5979Z" fill="#11E5D5"/>
<path d="M15.5176 30.7809L15.6176 30.9639V24.7489L15.5176 24.5669V30.7809Z" fill="#11E5D5"/>
<path d="M15.6211 30.963L15.7211 31.146V24.935L15.6211 24.752V30.963Z" fill="#10E4D4"/>
<path d="M15.7246 31.146L15.8246 31.329V25.118L15.7246 24.936V31.146Z" fill="#0FE4D4"/>
<path d="M15.8301 31.3299L15.9301 31.5129V25.3019L15.8301 25.1189V31.3299Z" fill="#0FE4D4"/>
<path d="M15.9316 31.512L16.0316 31.695V25.483L15.9316 25.301V31.512Z" fill="#0EE4D4"/>
<path d="M16.0371 31.6991L16.1371 31.8821V25.6701L16.0371 25.4871V31.6991Z" fill="#0EE4D4"/>
<path d="M16.1387 31.878L16.2387 32.061V25.848L16.1387 25.666V31.878Z" fill="#0DE4D4"/>
<path d="M16.2461 32.0609L16.3461 32.2439V26.0309L16.2461 25.8489V32.0609Z" fill="#0DE4D4"/>
<path d="M16.3457 32.244L16.4457 32.427V26.214L16.3457 26.031V32.244Z" fill="#0CE4D4"/>
<path d="M16.4512 32.4259L16.5512 32.6089V26.3959L16.4512 26.2139V32.4259Z" fill="#0CE4D4"/>
<path d="M16.5527 32.609L16.6527 32.792V26.579L16.5527 26.396V32.609Z" fill="#0BE4D3"/>
<path d="M16.6582 32.7919L16.7582 32.9749V26.7609L16.6582 26.5789V32.7919Z" fill="#0BE4D3"/>
<path d="M16.7598 32.975L16.8598 33.158V26.944L16.7598 26.761V32.975Z" fill="#0AE4D3"/>
<path d="M16.8613 33.1568L16.9273 33.2738L16.9643 33.2859V27.1259L16.8643 26.9438L16.8613 33.1568Z" fill="#0AE3D3"/>
<path d="M16.9688 33.286L17.0687 33.318V27.308L16.9688 27.125V33.286Z" fill="#09E3D3"/>
<path d="M17.0723 33.3179L17.1723 33.3499V27.4909L17.0723 27.3079V33.3179Z" fill="#09E3D3"/>
<path d="M17.1758 33.3509L17.2758 33.3829V27.6739L17.1758 27.4919V33.3509Z" fill="#09E3D3"/>
<path d="M17.2773 33.3831L17.3773 33.4151V27.8561L17.2773 27.6741V33.3831Z" fill="#08E3D3"/>
<path d="M17.3828 33.415L17.4828 33.447V28.038L17.3828 27.856V33.415Z" fill="#08E3D3"/>
<path d="M17.4844 33.4481L17.5844 33.4801V28.2221L17.4844 28.0391V33.4481Z" fill="#07E3D3"/>
<path d="M17.5898 33.4799L17.6898 33.5119V28.4039L17.5898 28.2219V33.4799Z" fill="#07E3D3"/>
<path d="M17.6914 33.5121L17.7914 33.5441V28.5871L17.6914 28.4041V33.5121Z" fill="#07E3D2"/>
<path d="M17.7969 33.5449L17.8969 33.5769V28.7699L17.7969 28.5869V33.5449Z" fill="#06E3D2"/>
<path d="M17.9004 33.5769L18.0004 33.6089V28.9559L17.9004 28.7739V33.5769Z" fill="#06E3D2"/>
<path d="M18.0059 33.6089L18.1059 33.6409V29.1339L18.0059 28.9519V33.6089Z" fill="#06E3D2"/>
<path d="M18.1074 33.641L18.2074 33.673V29.317L18.1074 29.135V33.641Z" fill="#06E3D2"/>
<path d="M18.2109 33.6729L18.3109 33.7049V29.4989L18.2109 29.3159V33.6729Z" fill="#05E3D2"/>
<path d="M18.3145 33.705L18.4145 33.737V29.681L18.3145 29.499V33.705Z" fill="#05E3D2"/>
<path d="M18.418 33.7379L18.518 33.7699V29.8649L18.418 29.6829V33.7379Z" fill="#05E3D2"/>
<path d="M18.5215 33.77L18.6215 33.802V30.047L18.5215 29.865V33.77Z" fill="#04E3D2"/>
<path d="M18.6211 33.8019L18.7211 33.8339V30.2339L18.6211 30.0469V33.8019Z" fill="#04E3D2"/>
<path d="M18.7285 33.8349L18.8285 33.8669V30.4159L18.7285 30.2339V33.8349Z" fill="#04E3D2"/>
<path d="M18.832 33.867L18.932 33.899V30.599L18.832 30.417V33.867Z" fill="#04E3D2"/>
<path d="M18.9366 33.9L19.0366 33.932V30.724L18.9996 30.712L18.9336 30.595L18.9366 33.9Z" fill="#04E3D2"/>
<path d="M19.0391 33.9319L19.1391 33.9639V30.7559L19.0391 30.7239V33.9319Z" fill="#03E3D2"/>
<path d="M19.1426 33.9639L19.2426 33.9958V30.7879L19.1426 30.7559V33.9639Z" fill="#03E2D2"/>
<path d="M19.2461 33.9958L19.3461 34.0278V30.8198L19.2461 30.7878V33.9958Z" fill="#03E2D2"/>
<path d="M19.3496 34.028L19.4496 34.06V30.856L19.3496 30.824V34.028Z" fill="#03E2D2"/>
<path d="M19.4531 34.061L19.5531 34.093V30.885L19.4531 30.853V34.061Z" fill="#03E2D2"/>
<path d="M19.5566 34.093L19.6566 34.125V30.917L19.5566 30.885V34.093Z" fill="#02E2D2"/>
<path d="M19.6602 34.125L19.7602 34.157V30.949L19.6602 30.917V34.125Z" fill="#02E2D2"/>
<path d="M19.7637 34.158L19.8637 34.19V30.9819L19.7637 30.95V34.158Z" fill="#02E2D1"/>
<path d="M19.8691 34.19L19.9691 34.222V31.012L19.8691 30.98V34.19Z" fill="#02E2D1"/>
<path d="M19.9727 34.2219L20.0727 34.2539V31.0459L19.9727 31.0139V34.2219Z" fill="#02E2D1"/>
<path d="M20.0762 34.2549L20.1762 34.2869V31.0789L20.0762 31.0469V34.2549Z" fill="#02E2D1"/>
<path d="M20.1797 34.2869L20.2797 34.3189V31.1109L20.1797 31.0789V34.2869Z" fill="#02E2D1"/>
<path d="M20.2832 34.3188L20.3832 34.3508V31.1428L20.2832 31.1108V34.3188Z" fill="#02E2D1"/>
<path d="M20.3867 34.3511L20.4867 34.3831V31.1751L20.3867 31.1431V34.3511Z" fill="#01E2D1"/>
<path d="M20.4902 34.3831L20.5902 34.4151V31.2061L20.4902 31.1741V34.3831Z" fill="#01E2D1"/>
<path d="M20.5938 34.4099L20.6937 34.4419V31.2329L20.5938 31.2009V34.4099Z" fill="#01E2D1"/>
<path d="M20.6973 34.447L20.7973 34.479V31.271L20.6973 31.239V34.447Z" fill="#01E2D1"/>
<path d="M20.8008 34.48L20.9008 34.512V31.304L20.8008 31.272V34.48Z" fill="#01E2D1"/>
<path d="M20.9082 34.512L21.0082 34.544V31.335L20.9082 31.303V34.512Z" fill="#01E2D1"/>
<path d="M21.0078 34.544L21.1078 34.576V31.367L21.0078 31.335V34.544Z" fill="#01E2D1"/>
<path d="M21.1113 34.5759L21.2113 34.608V31.3989L21.1113 31.3669V34.5759Z" fill="#01E2D1"/>
<path d="M21.2148 34.609L21.3148 34.641V31.437L21.2148 31.405V34.609Z" fill="#01E2D1"/>
<path d="M21.3184 34.6409L21.4184 34.6729V31.4639L21.3184 31.4319V34.6409Z" fill="#01E2D1"/>
<path d="M21.4219 34.6729L21.5219 34.7049V31.4959L21.4219 31.4639V34.6729Z" fill="#01E2D1"/>
<path d="M21.5234 34.7048L21.6234 34.7368V31.5278L21.5234 31.4958V34.7048Z" fill="#01E2D1"/>
<path d="M21.6289 34.7381L21.7289 34.7701V31.5611L21.6289 31.5291V34.7381Z" fill="#01E2D1"/>
<path d="M21.7324 34.77L21.8324 34.802V31.593L21.7324 31.561V34.77Z" fill="#00E2D1"/>
<path d="M21.8359 34.802L21.9359 34.834V31.625L21.8359 31.593V34.802Z" fill="#00E2D1"/>
<path d="M21.9395 34.836L22.0395 34.868V31.659L21.9395 31.627V34.836Z" fill="#00E2D1"/>
<path d="M22.043 34.867L22.143 34.899V31.69L22.043 31.658V34.867Z" fill="#00E2D1"/>
<path d="M22.1465 34.8989L22.2465 34.9309V31.7219L22.1465 31.6899V34.8989Z" fill="#00E2D1"/>
<path d="M22.25 34.9309L22.35 34.9629V31.7539L22.25 31.7219V34.9309Z" fill="#00E2D1"/>
<path d="M22.3535 34.9639L22.4535 34.9959V31.7869L22.3535 31.7549V34.9639Z" fill="#00E2D1"/>
<path d="M22.457 34.992L22.557 35.024V31.815L22.457 31.783V34.992Z" fill="#00E2D1"/>
<path d="M22.5605 35.0278L22.6605 35.0598V31.8508L22.5605 31.8188V35.0278Z" fill="#00E2D1"/>
<path d="M22.666 35.0598L22.766 35.0918V31.8828L22.666 31.8508V35.0598Z" fill="#00E2D1"/>
<path d="M22.7676 35.0931L22.8676 35.1251V31.9151L22.7676 31.8831V35.0931Z" fill="#00E2D1"/>
<path d="M22.873 35.125L22.973 35.157V31.9471L22.873 31.915V35.125Z" fill="#00E2D1"/>
<path d="M22.9746 35.157L23.0746 35.189V31.979L22.9746 31.947V35.157Z" fill="#00E2D1"/>
<path d="M23.0801 35.189L23.1801 35.221V32.011L23.0801 31.979V35.189Z" fill="#00E2D1"/>
<path d="M23.1816 35.222L23.2816 35.254V32.044L23.1816 32.012V35.222Z" fill="#00E2D1"/>
<path d="M23.2832 35.2539L23.3832 35.2859V32.0759L23.2832 32.0439V35.2539Z" fill="#00E2D1"/>
<path d="M23.3887 35.2859L23.4887 35.3179V32.1079L23.3887 32.0759V35.2859Z" fill="#00E2D1"/>
<path d="M23.4941 35.3189L23.5941 35.3509V32.1409L23.4941 32.1089V35.3189Z" fill="#00E2D1"/>
<path d="M23.5957 35.3511L23.6957 35.3831V32.1751L23.5957 32.1431V35.3511Z" fill="#00E2D1"/>
<path d="M23.7012 35.3828L23.8012 35.4148V32.2048L23.7012 32.1729V35.3828Z" fill="#00E2D1"/>
<path d="M23.8047 35.418L23.9047 35.45V32.24L23.8047 32.208V35.418Z" fill="#00E2D1"/>
<path d="M23.9082 35.448L24.0082 35.48V32.27L23.9082 32.238V35.448Z" fill="#00E2D1"/>
<path d="M24.0117 35.48L24.1117 35.512V32.302L24.0117 32.27V35.48Z" fill="#00E2D1"/>
<path d="M24.1152 35.512L24.2152 35.5441V32.332L24.1152 32.3V35.512Z" fill="#00E2D1"/>
<path d="M24.2188 35.545L24.3188 35.577V32.367L24.2188 32.335V35.545Z" fill="#00E2D1"/>
<path d="M24.3223 35.574L24.4223 35.606V32.396L24.3223 32.364V35.574Z" fill="#00E2D1"/>
<path d="M24.4258 35.6089L24.5258 35.6409V32.4309L24.4258 32.3989V35.6089Z" fill="#00E2D1"/>
<path d="M24.5273 35.6409L24.6273 35.6729V32.4629L24.5273 32.4309V35.6409Z" fill="#00E2D1"/>
<path d="M24.6328 35.6729L24.7328 35.7049V32.4949L24.6328 32.4629V35.6729Z" fill="#00E2D1"/>
<path d="M24.7344 35.7059L24.8344 35.7379V32.5278L24.7344 32.4958V35.7059Z" fill="#00E2D1"/>
<path d="M24.8398 35.7368L24.9398 35.7688V32.5589L24.8398 32.5269V35.7368Z" fill="#00E2D1"/>
<path d="M24.9434 35.7698L25.0434 35.8018V32.5908L24.9434 32.5588V35.7698Z" fill="#00E2D1"/>
<path d="M25.0469 35.8021L25.1469 35.8341V32.6231L25.0469 32.5911V35.8021Z" fill="#00E2D1"/>
<path d="M25.1504 35.835L25.2504 35.867V32.656L25.1504 32.624V35.835Z" fill="#00E2D1"/>
<path d="M25.2539 35.866L25.3539 35.898V32.687L25.2539 32.655V35.866Z" fill="#00E2D1"/>
<path d="M25.3574 35.898L25.4574 35.93V32.719L25.3574 32.687V35.898Z" fill="#00E2D1"/>
<path d="M25.4609 35.9309L25.5609 35.9629V32.7569L25.4609 32.7249V35.9309Z" fill="#00E2D1"/>
<path d="M25.5684 35.963L25.6684 35.9949V32.784L25.5684 32.752V35.963Z" fill="#00E2D1"/>
<path d="M25.668 35.9988L25.768 36.0308V32.8198L25.668 32.7878V35.9988Z" fill="#00E2D1"/>
<path d="M25.7715 36.0279L25.8715 36.0599V32.8489L25.7715 32.8169V36.0279Z" fill="#00E2D1"/>
<path d="M25.875 36.0599L25.975 36.0919V32.8809L25.875 32.8489V36.0599Z" fill="#00E2D1"/>
<path d="M34.5435 30.7118L26.7725 33.1288L25.9785 32.8858V36.0968L26.7955 36.3508L36.6155 33.2788L45.2945 17.9558L41.8075 17.9128L34.5435 30.7118Z" fill="#00E2D1"/>
<path d="M0.820312 9.76493V12.9809L26.7503 4.91793L52.6813 12.9819V9.76493L26.7503 1.70093L0.820312 9.76493Z" fill="#BDFFFA"/>
<path d="M0.820312 12.845L0.920313 12.945L1.02031 12.913L0.820312 12.708V12.845Z" fill="#B8FEF9"/>
<path d="M0.820312 12.708L1.02931 12.917L1.12931 12.885L0.820312 12.571V12.708Z" fill="#B3FDF8"/>
<path d="M0.820312 12.5708L1.13331 12.8838L1.23331 12.8518L0.820312 12.4338V12.5708Z" fill="#AEFDF7"/>
<path d="M0.820312 12.4349L1.23731 12.8519L1.33731 12.8199L0.820312 12.2979V12.4349Z" fill="#AAFCF6"/>
<path d="M0.820312 12.2969L1.34131 12.8189L1.44131 12.7869L0.820312 12.1609V12.2969Z" fill="#A5FBF5"/>
<path d="M0.820312 12.161L1.44631 12.787L1.54631 12.755L0.820312 12.02V12.161Z" fill="#A1FBF4"/>
<path d="M0.820312 12.0239L1.55031 12.7539L1.65031 12.7219L0.820312 11.8879V12.0239Z" fill="#9CFAF3"/>
<path d="M0.820312 11.887L1.65431 12.721L1.75431 12.689L0.820312 11.75V11.887Z" fill="#98F9F2"/>
<path d="M0.820312 11.751L1.75831 12.69L1.85831 12.658L0.820312 11.614V11.751Z" fill="#94F9F1"/>
<path d="M0.820312 11.6141L1.86331 12.6571L1.96331 12.6251L0.820312 11.4771V11.6141Z" fill="#90F8F0"/>
<path d="M0.820312 11.4768L1.96731 12.6238L2.06731 12.5918L0.820312 11.3398V11.4768Z" fill="#8CF7EF"/>
<path d="M0.820312 11.341L2.07131 12.5919L2.17131 12.56L0.820312 11.2V11.341Z" fill="#88F7EF"/>
<path d="M0.820312 11.2039L2.17531 12.5599L2.27531 12.5279L0.820312 11.0669V11.2039Z" fill="#84F6EE"/>
<path d="M0.820312 11.0679L2.28031 12.5279L2.38031 12.4959L0.820312 10.9309V11.0679Z" fill="#81F6ED"/>
<path d="M0.820312 10.9309L2.38431 12.4949L2.48431 12.4629L0.820312 10.7939V10.9309Z" fill="#7DF5EC"/>
<path d="M0.820312 10.794L2.48831 12.462L2.58831 12.43L0.820312 10.657V10.794Z" fill="#79F5EB"/>
<path d="M0.820312 10.658L2.59331 12.433L2.69331 12.4L0.820312 10.521V10.658Z" fill="#76F4EB"/>
<path d="M0.820312 10.5199L2.69731 12.3969L2.79731 12.3639L0.820312 10.3789V10.5199Z" fill="#73F4EA"/>
<path d="M0.820312 10.384L2.80131 12.366L2.90131 12.334L0.820312 10.248V10.384Z" fill="#6FF3E9"/>
<path d="M0.820312 10.2468L2.90531 12.3328L3.00531 12.3008L0.820312 10.1108V10.2468Z" fill="#6CF3E8"/>
<path d="M0.820312 10.1099L3.01031 12.2999L3.11031 12.2669L0.820312 9.97388V10.1099Z" fill="#69F2E8"/>
<path d="M0.820312 9.97391L3.11431 12.2659L3.21431 12.2339L0.820312 9.83691V9.97391Z" fill="#66F2E7"/>
<path d="M0.820312 9.765V9.837L3.22031 12.237L3.32031 12.205L0.869312 9.75L0.820312 9.765Z" fill="#63F1E6"/>
<path d="M0.869141 9.74504L3.32314 12.203L3.42314 12.171L0.973141 9.71704L0.869141 9.74504Z" fill="#60F1E6"/>
<path d="M0.974609 9.71706L3.42761 12.1751L3.52761 12.1431L1.07861 9.68506L0.974609 9.71706Z" fill="#5DF0E5"/>
<path d="M1.07812 9.68483L3.53113 12.1378L3.63112 12.1058L1.18212 9.65283L1.07812 9.68483Z" fill="#5AF0E5"/>
<path d="M1.18164 9.65187L3.63464 12.1049L3.73464 12.0729L1.28564 9.61987L1.18164 9.65187Z" fill="#57EFE4"/>
<path d="M1.28711 9.61989L3.74011 12.0729L3.84011 12.0409L1.39111 9.58789L1.28711 9.61989Z" fill="#55EFE3"/>
<path d="M1.39062 9.58791L3.84362 12.0409L3.94363 12.0089L1.49563 9.55591L1.39062 9.58791Z" fill="#52EFE3"/>
<path d="M1.49609 9.55495L3.94909 12.0079L4.04909 11.976L1.60009 9.52295L1.49609 9.55495Z" fill="#50EEE2"/>
<path d="M1.59961 9.52299L4.05261 11.976L4.15261 11.944L1.70461 9.48999L1.59961 9.52299Z" fill="#4DEEE2"/>
<path d="M1.70312 9.491L4.15613 11.944L4.25612 11.912L1.80713 9.45801L1.70312 9.491Z" fill="#4BEDE1"/>
<path d="M1.80859 9.45805L4.26159 11.912L4.36159 11.8801L1.91259 9.42505L1.80859 9.45805Z" fill="#48EDE1"/>
<path d="M1.91211 9.42507L4.36511 11.8781L4.46511 11.8461L2.01711 9.39307L1.91211 9.42507Z" fill="#46EDE0"/>
<path d="M2.01562 9.39186L4.46863 11.8449L4.56862 11.8129L2.12063 9.35986L2.01562 9.39186Z" fill="#44ECE0"/>
<path d="M2.12109 9.35988L4.57409 11.8129L4.67409 11.7809L2.22609 9.32788L2.12109 9.35988Z" fill="#42ECDF"/>
<path d="M2.22461 9.3309L4.67761 11.7839L4.77761 11.7519L2.32861 9.2959L2.22461 9.3309Z" fill="#3FECDF"/>
<path d="M2.33008 9.29599L4.78708 11.749L4.88708 11.717L2.43508 9.26099L2.33008 9.29599Z" fill="#3DEBDE"/>
<path d="M2.43359 9.26296L4.88659 11.716L4.98659 11.684L2.53859 9.23096L2.43359 9.26296Z" fill="#3BEBDE"/>
<path d="M2.53906 9.231L4.99206 11.684L5.09206 11.652L2.64306 9.198L2.53906 9.231Z" fill="#39EBDD"/>
<path d="M2.64258 9.19801L5.09558 11.649L5.19558 11.617L2.74658 9.16602L2.64258 9.19801Z" fill="#38EBDD"/>
<path d="M2.74609 9.16606L5.19909 11.6191L5.29909 11.5871L2.85109 9.13306L2.74609 9.16606Z" fill="#36EADD"/>
<path d="M2.84961 9.13405L5.30061 11.5871L5.40061 11.555L2.94761 9.10205L2.84961 9.13405Z" fill="#34EADC"/>
<path d="M2.95508 9.10087L5.40808 11.5539L5.50808 11.5219L3.06008 9.06787L2.95508 9.10087Z" fill="#32EADC"/>
<path d="M3.05859 9.06789L5.51159 11.5209L5.61159 11.4889L3.16659 9.03589L3.05859 9.06789Z" fill="#30E9DC"/>
<path d="M3.16406 9.0359L5.61706 11.4889L5.71706 11.4569L3.26406 9.00391L3.16406 9.0359Z" fill="#2FE9DB"/>
<path d="M3.26758 9.00294L5.72058 11.4559L5.82058 11.4239L3.36758 8.97095L3.26758 9.00294Z" fill="#2DE9DB"/>
<path d="M3.37305 8.97097L5.82605 11.424L5.92605 11.392L3.47705 8.93896L3.37305 8.97097Z" fill="#2CE9DA"/>
<path d="M3.47461 8.93898L5.92761 11.392L6.02761 11.36L3.57961 8.90698L3.47461 8.93898Z" fill="#2AE8DA"/>
<path d="M3.58203 8.907L6.03503 11.36L6.13503 11.328L3.68203 8.875L3.58203 8.907Z" fill="#29E8DA"/>
<path d="M3.68359 8.87395L6.13659 11.3269L6.23659 11.2949L3.78759 8.84595L3.68359 8.87395Z" fill="#27E8D9"/>
<path d="M3.78906 8.84206L6.24206 11.2951L6.34206 11.2631L3.88906 8.81006L3.78906 8.84206Z" fill="#26E8D9"/>
<path d="M3.89258 8.80593L6.34558 11.2589L6.44558 11.2269L3.99258 8.77393L3.89258 8.80593Z" fill="#24E8D9"/>
<path d="M3.99805 8.77687L6.45105 11.2299L6.55105 11.1979L4.09805 8.74487L3.99805 8.77687Z" fill="#23E7D9"/>
<path d="M4.09766 8.74489L6.55066 11.1979L6.65066 11.1659L4.19766 8.71289L4.09766 8.74489Z" fill="#22E7D8"/>
<path d="M4.20703 8.71193L6.66003 11.1649L6.76003 11.1329L4.31103 8.67993L4.20703 8.71193Z" fill="#21E7D8"/>
<path d="M4.31055 8.67895L6.76355 11.1329L6.86355 11.1009L4.41055 8.64795L4.31055 8.67895Z" fill="#1FE7D8"/>
<path d="M4.41406 8.64699L6.86706 11.1L6.96706 11.068L4.51406 8.61499L4.41406 8.64699Z" fill="#1EE7D8"/>
<path d="M4.51953 8.61401L6.97253 11.067L7.07253 11.035L4.62353 8.58301L4.51953 8.61401Z" fill="#1DE6D7"/>
<path d="M4.62305 8.58205L7.07605 11.035L7.17605 11.003L4.72305 8.55005L4.62305 8.58205Z" fill="#1CE6D7"/>
<path d="M4.72852 8.55006L7.18152 11.0031L7.28152 10.9711L4.82852 8.51807L4.72852 8.55006Z" fill="#1BE6D7"/>
<path d="M4.83203 8.51706L7.28503 10.9721L7.38503 10.9401L4.93203 8.48706L4.83203 8.51706Z" fill="#1AE6D7"/>
<path d="M4.93555 8.48491L7.38855 10.9379L7.48855 10.9059L5.03955 8.4519L4.93555 8.48491Z" fill="#19E6D6"/>
<path d="M5.04492 8.45292L7.49792 10.9059L7.59792 10.8739L5.14492 8.41992L5.04492 8.45292Z" fill="#18E6D6"/>
<path d="M5.14453 8.42092L7.59753 10.8739L7.69753 10.8419L5.24453 8.38892L5.14453 8.42092Z" fill="#17E6D6"/>
<path d="M5.25 8.39088L7.703 10.8439L7.803 10.8119L5.35 8.35889L5.25 8.39088Z" fill="#16E5D6"/>
<path d="M5.35352 8.35604L7.80651 10.809L7.90652 10.777L5.45752 8.32104L5.35352 8.35604Z" fill="#15E5D6"/>
<path d="M5.45703 8.32204L7.91003 10.775L8.01003 10.743L5.56103 8.29004L5.45703 8.32204Z" fill="#14E5D5"/>
<path d="M5.56055 8.29006L8.01355 10.7431L8.11355 10.7111L5.66055 8.25806L5.56055 8.29006Z" fill="#13E5D5"/>
<path d="M5.66602 8.25785L8.11902 10.7099L8.21902 10.6779L5.76602 8.22485L5.66602 8.25785Z" fill="#13E5D5"/>
<path d="M5.76953 8.22487L8.22553 10.6779L8.32553 10.6459L5.87253 8.19287L5.76953 8.22487Z" fill="#12E5D5"/>
<path d="M5.875 8.19289L8.328 10.6459L8.428 10.6139L5.98 8.16089L5.875 8.19289Z" fill="#11E5D5"/>
<path d="M5.97852 8.1609L8.43152 10.6139L8.53152 10.5819L6.08352 8.12891L5.97852 8.1609Z" fill="#10E5D5"/>
<path d="M6.08398 8.12795L8.53698 10.5809L8.63698 10.5489L6.18398 8.09595L6.08398 8.12795Z" fill="#10E4D4"/>
<path d="M6.1875 8.09596L8.6405 10.549L8.7405 10.517L6.2875 8.06396L6.1875 8.09596Z" fill="#0FE4D4"/>
<path d="M6.29102 8.06398L8.74101 10.517L8.84101 10.485L6.38802 8.03198L6.29102 8.06398Z" fill="#0EE4D4"/>
<path d="M6.39648 8.03102L8.84949 10.484L8.94948 10.452L6.49648 7.99902L6.39648 8.03102Z" fill="#0EE4D4"/>
<path d="M6.5 7.99806L8.953 10.4471L9.053 10.4151L6.607 7.96606L6.5 7.99806Z" fill="#0DE4D4"/>
<path d="M6.60352 7.96584L9.05652 10.4188L9.15652 10.3868L6.70352 7.93384L6.60352 7.96584Z" fill="#0DE4D4"/>
<path d="M6.70898 7.93386L9.16199 10.3869L9.26199 10.3549L6.81399 7.90186L6.70898 7.93386Z" fill="#0CE4D4"/>
<path d="M6.8125 7.9009L9.2655 10.3539L9.3655 10.3219L6.9125 7.8689L6.8125 7.9009Z" fill="#0BE4D3"/>
<path d="M6.91797 7.86599L9.37097 10.319L9.47097 10.287L7.01797 7.83398L6.91797 7.86599Z" fill="#0BE4D3"/>
<path d="M7.02148 7.83696L9.47448 10.29L9.57449 10.258L7.12148 7.80396L7.02148 7.83696Z" fill="#0AE4D3"/>
<path d="M7.12695 7.80397L9.57995 10.257L9.67995 10.225L7.22695 7.77197L7.12695 7.80397Z" fill="#0AE4D3"/>
<path d="M7.23047 7.77199L9.68347 10.225L9.78347 10.193L7.33047 7.73999L7.23047 7.77199Z" fill="#09E3D3"/>
<path d="M7.33398 7.73903L9.78698 10.192L9.88699 10.16L7.43398 7.70703L7.33398 7.73903Z" fill="#09E3D3"/>
<path d="M7.43945 7.70707L9.89245 10.1601L9.99245 10.1281L7.54345 7.67407L7.43945 7.70707Z" fill="#09E3D3"/>
<path d="M7.54297 7.67404L9.99597 10.127L10.096 10.095L7.64697 7.64404L7.54297 7.67404Z" fill="#08E3D3"/>
<path d="M7.64648 7.64186L10.0995 10.0949L10.1995 10.0629L7.74649 7.60986L7.64648 7.64186Z" fill="#08E3D3"/>
<path d="M7.75195 7.60888L10.205 10.0629L10.305 10.0309L7.85196 7.57788L7.75195 7.60888Z" fill="#07E3D3"/>
<path d="M7.85547 7.57685L10.3085 10.0329L10.4085 10.0009L7.95547 7.54785L7.85547 7.57685Z" fill="#07E3D3"/>
<path d="M7.96094 7.54396L10.4139 9.99696L10.5139 9.96496L8.06494 7.51196L7.96094 7.54396Z" fill="#07E3D2"/>
<path d="M8.06445 7.51198L10.5175 9.96498L10.6175 9.93298L8.16446 7.47998L8.06445 7.51198Z" fill="#06E3D2"/>
<path d="M8.16797 7.48L10.621 9.933L10.721 9.901L8.26797 7.448L8.16797 7.48Z" fill="#06E3D2"/>
<path d="M8.27344 7.45094L10.7264 9.90394L10.8264 9.87194L8.37344 7.41895L8.27344 7.45094Z" fill="#06E3D2"/>
<path d="M8.37695 7.41486L10.83 9.86786L10.93 9.83586L8.48095 7.38086L8.37695 7.41486Z" fill="#05E3D2"/>
<path d="M8.48438 7.38285L10.9374 9.83585L11.0374 9.80385L8.58438 7.34985L8.48438 7.38285Z" fill="#05E3D2"/>
<path d="M8.58594 7.35085L11.0389 9.80385L11.1389 9.77185L8.68594 7.31885L8.58594 7.35085Z" fill="#05E3D2"/>
<path d="M8.68945 7.31691L11.1425 9.76991L11.2425 9.73791L8.78945 7.28491L8.68945 7.31691Z" fill="#05E3D2"/>
<path d="M8.79492 7.28591L11.2479 9.73891L11.3479 9.70691L8.89492 7.25391L8.79492 7.28591Z" fill="#04E3D2"/>
<path d="M8.89844 7.25295L11.3514 9.70595L11.4514 9.67395L8.99844 7.22095L8.89844 7.25295Z" fill="#04E3D2"/>
<path d="M9 7.21999L11.453 9.67299L11.553 9.64099L9.1 7.18799L9 7.21999Z" fill="#04E3D2"/>
<path d="M9.10547 7.18898L11.5585 9.64198L11.6585 9.60998L9.20547 7.15698L9.10547 7.18898Z" fill="#04E3D2"/>
<path d="M9.21094 7.1559L11.6659 9.6089L11.7659 9.5769L9.31494 7.1189L9.21094 7.1559Z" fill="#03E3D2"/>
<path d="M9.31445 7.12284L11.7675 9.57584L11.8675 9.54384L9.41845 7.08984L9.31445 7.12284Z" fill="#03E2D2"/>
<path d="M9.41992 7.09086L11.8729 9.54386L11.9729 9.51186L9.52492 7.05786L9.41992 7.09086Z" fill="#03E2D2"/>
<path d="M9.52344 7.05895L11.9764 9.50795L12.0764 9.47595L9.62344 7.02295L9.52344 7.05895Z" fill="#03E2D2"/>
<path d="M9.62891 7.0259L12.0819 9.4789L12.1819 9.4469L9.72891 6.9939L9.62891 7.0259Z" fill="#03E2D2"/>
<path d="M9.73242 6.99391L12.1814 9.44691L12.2814 9.41491L9.82842 6.96191L9.73242 6.99391Z" fill="#03E2D2"/>
<path d="M9.83594 6.96095L12.2889 9.41396L12.3889 9.38195L9.93594 6.92896L9.83594 6.96095Z" fill="#02E2D2"/>
<path d="M9.93945 6.926L12.3925 9.379L12.4925 9.347L10.0465 6.896L9.93945 6.926Z" fill="#02E2D1"/>
<path d="M10.0449 6.89601L12.4979 9.34901L12.5979 9.31701L10.1449 6.86401L10.0449 6.89601Z" fill="#02E2D1"/>
<path d="M10.1484 6.86403L12.6014 9.31703L12.7014 9.28503L10.2524 6.83203L10.1484 6.86403Z" fill="#02E2D1"/>
<path d="M10.2539 6.83083L12.7069 9.28383L12.8069 9.25183L10.3539 6.79883L10.2539 6.83083Z" fill="#02E2D1"/>
<path d="M10.3574 6.79885L12.8104 9.25184L12.9104 9.21984L10.4574 6.76685L10.3574 6.79885Z" fill="#02E2D1"/>
<path d="M10.4629 6.76589L12.9159 9.21889L13.0159 9.18689L10.5629 6.73389L10.4629 6.76589Z" fill="#02E2D1"/>
<path d="M10.5664 6.73386L13.0194 9.18686L13.1194 9.15486L10.6704 6.70386L10.5664 6.73386Z" fill="#01E2D1"/>
<path d="M10.6719 6.70192L13.1299 9.15492L13.2299 9.12292L10.7769 6.66992L10.6719 6.70192Z" fill="#01E2D1"/>
<path d="M10.7754 6.66896L13.2284 9.12196L13.3284 9.08996L10.8754 6.63696L10.7754 6.66896Z" fill="#01E2D1"/>
<path d="M10.8809 6.63691L13.3339 9.09291L13.4339 9.06091L10.9809 6.60791L10.8809 6.63691Z" fill="#01E2D1"/>
<path d="M10.9844 6.60402L13.4374 9.05702L13.5374 9.02502L11.0884 6.57202L10.9844 6.60402Z" fill="#01E2D1"/>
<path d="M11.0879 6.57204L13.5409 9.02504L13.6409 8.99304L11.1879 6.54004L11.0879 6.57204Z" fill="#01E2D1"/>
<path d="M11.1914 6.53906L13.6434 8.99306L13.7434 8.96106L11.2904 6.50806L11.1914 6.53906Z" fill="#01E2D1"/>
<path d="M11.2969 6.51198L13.7499 8.96498L13.8499 8.93298L11.3969 6.47998L11.2969 6.51198Z" fill="#01E2D1"/>
<path d="M11.4004 6.47489L13.8534 8.92789L13.9534 8.89589L11.5094 6.44189L11.4004 6.47489Z" fill="#01E2D1"/>
<path d="M11.5059 6.44191L13.9589 8.89491L14.0589 8.86291L11.6059 6.40991L11.5059 6.44191Z" fill="#01E2D1"/>
<path d="M11.6094 6.40993L14.0624 8.86293L14.1624 8.83093L11.7094 6.37793L11.6094 6.40993Z" fill="#01E2D1"/>
<path d="M11.7129 6.37795L14.1669 8.83095L14.2669 8.79895L11.8139 6.34595L11.7129 6.37795Z" fill="#01E2D1"/>
<path d="M11.8184 6.34501L14.2714 8.79801L14.3714 8.76601L11.9224 6.31201L11.8184 6.34501Z" fill="#01E2D1"/>
<path d="M11.9258 6.31303L14.3788 8.76603L14.4788 8.73403L12.0258 6.28003L11.9258 6.31303Z" fill="#01E2D1"/>
<path d="M12.0254 6.28005L14.4784 8.73305L14.5784 8.70105L12.1254 6.24805L12.0254 6.28005Z" fill="#00E2D1"/>
<path d="M12.1309 6.24904L14.5839 8.70204L14.6839 8.67004L12.2309 6.21704L12.1309 6.24904Z" fill="#00E2D1"/>
<path d="M12.2344 6.21496L14.6874 8.66796L14.7874 8.63596L12.3384 6.17896L12.2344 6.21496Z" fill="#00E2D1"/>
<path d="M12.3398 6.18288L14.7928 8.63588L14.8928 8.60388L12.4398 6.15088L12.3398 6.18288Z" fill="#00E2D1"/>
<path d="M12.4395 6.14992L14.8925 8.60292L14.9925 8.57092L12.5465 6.11792L12.4395 6.14992Z" fill="#00E2D1"/>
<path d="M12.5469 6.11801L15.0009 8.56801L15.1009 8.53601L12.6479 6.08301L12.5469 6.11801Z" fill="#00E2D1"/>
<path d="M12.6523 6.08595L15.1063 8.53895L15.2063 8.50695L12.7563 6.05396L12.6523 6.08595Z" fill="#00E2D1"/>
<path d="M12.7559 6.053L15.2089 8.506L15.3089 8.474L12.8559 6.021L12.7559 6.053Z" fill="#00E2D1"/>
<path d="M12.8613 6.02102L15.3143 8.47401L15.4143 8.44201L12.9613 5.98901L12.8613 6.02102Z" fill="#00E2D1"/>
<path d="M12.9648 5.98683L15.4178 8.43983L15.5178 8.40784L13.0648 5.95483L12.9648 5.98683Z" fill="#00E2D1"/>
<path d="M13.0684 5.95607L15.5214 8.40907L15.6214 8.37707L13.1684 5.92407L13.0684 5.95607Z" fill="#00E2D1"/>
<path d="M13.1738 5.92385L15.6218 8.37685L15.7218 8.34485L13.2688 5.89185L13.1738 5.92385Z" fill="#00E2D1"/>
<path d="M13.2773 5.89089L15.7303 8.34389L15.8303 8.31189L13.3773 5.85889L13.2773 5.89089Z" fill="#00E2D1"/>
<path d="M13.3809 5.85793L15.8339 8.31093L15.9339 8.27893L13.4869 5.82593L13.3809 5.85793Z" fill="#00E2D1"/>
<path d="M13.4844 5.82594L15.9374 8.27895L16.0374 8.24695L13.5894 5.79395L13.4844 5.82594Z" fill="#00E2D1"/>
<path d="M13.5898 5.79389L16.0428 8.24689L16.1428 8.21489L13.6948 5.76489L13.5898 5.79389Z" fill="#00E2D1"/>
<path d="M13.6934 5.761L16.1464 8.214L16.2464 8.182L13.7934 5.729L13.6934 5.761Z" fill="#00E2D1"/>
<path d="M13.7988 5.72389L16.2518 8.17689L16.3518 8.14489L13.8988 5.69189L13.7988 5.72389Z" fill="#00E2D1"/>
<path d="M13.9023 5.69706L16.3563 8.15406L16.4563 8.12206L14.0023 5.66406L13.9023 5.69706Z" fill="#00E2D1"/>
<path d="M14.0078 5.66384L16.4608 8.11684L16.5608 8.08484L14.1078 5.63184L14.0078 5.66384Z" fill="#00E2D1"/>
<path d="M14.1133 5.63185L16.5703 8.08485L16.6703 8.05285L14.2173 5.59985L14.1133 5.63185Z" fill="#00E2D1"/>
<path d="M14.2168 5.59987L16.6698 8.05287L16.7698 8.02087L14.3168 5.56787L14.2168 5.59987Z" fill="#00E2D1"/>
<path d="M14.3203 5.56594L16.7733 8.01893L16.8733 7.98693L14.4253 5.53394L14.3203 5.56594Z" fill="#00E2D1"/>
<path d="M14.4238 5.53395L16.8768 7.98695L16.9768 7.95495L14.5288 5.50195L14.4238 5.53395Z" fill="#00E2D1"/>
<path d="M14.5293 5.50197L16.9823 7.95497L17.0823 7.92297L14.6293 5.46997L14.5293 5.50197Z" fill="#00E2D1"/>
<path d="M14.6328 5.46899L17.0838 7.92299L17.1838 7.89099L14.7308 5.43799L14.6328 5.46899Z" fill="#00E2D1"/>
<path d="M14.7383 5.43701L17.1923 7.89101L17.2923 7.85901L14.8393 5.40601L14.7383 5.43701Z" fill="#00E2D1"/>
<path d="M14.8418 5.40505L17.2948 7.85805L17.3948 7.82605L14.9508 5.37305L14.8418 5.40505Z" fill="#00E2D1"/>
<path d="M14.9473 5.37184L17.4003 7.82484L17.5003 7.79284L15.0473 5.33984L14.9473 5.37184Z" fill="#00E2D1"/>
<path d="M15.0508 5.33986L17.5038 7.79286L17.6038 7.76086L15.1508 5.30786L15.0508 5.33986Z" fill="#00E2D1"/>
<path d="M15.1543 5.30983L17.6073 7.76283L17.7073 7.73083L15.2543 5.27783L15.1543 5.30983Z" fill="#00E2D1"/>
<path d="M15.2578 5.27501L17.7108 7.72801L17.8108 7.69601L15.3628 5.23901L15.2578 5.27501Z" fill="#00E2D1"/>
<path d="M15.3652 5.24296L17.8182 7.69596L17.9182 7.66396L15.4652 5.20996L15.3652 5.24296Z" fill="#00E2D1"/>
<path d="M15.4668 5.20998L17.9198 7.66298L18.0198 7.63098L15.5668 5.17798L15.4668 5.20998Z" fill="#00E2D1"/>
<path d="M15.5723 5.17707L18.0253 7.62807L18.1253 7.59607L15.6723 5.14307L15.5723 5.17707Z" fill="#00E2D1"/>
<path d="M15.6758 5.14504L18.1288 7.59804L18.2288 7.56604L15.7758 5.11304L15.6758 5.14504Z" fill="#00E2D1"/>
<path d="M15.7812 5.11305L18.2343 7.56606L18.3343 7.53406L15.8813 5.08105L15.7812 5.11305Z" fill="#00E2D1"/>
<path d="M15.8809 5.07985L18.3339 7.53285L18.4339 7.50085L15.9809 5.04785L15.8809 5.07985Z" fill="#00E2D1"/>
<path d="M15.9883 5.04689L18.4413 7.49989L18.5413 7.46789L16.0883 5.01489L15.9883 5.04689Z" fill="#00E2D1"/>
<path d="M16.0918 5.01589L18.5458 7.46889L18.6458 7.43689L16.1928 4.98389L16.0918 5.01589Z" fill="#00E2D1"/>
<path d="M16.1973 4.98293L18.6503 7.43593L18.7503 7.40393L16.2973 4.95093L16.1973 4.98293Z" fill="#00E2D1"/>
<path d="M16.3008 4.95094L18.7538 7.40395L18.8538 7.37194L16.4008 4.91895L16.3008 4.95094Z" fill="#00E2D1"/>
<path d="M16.4062 4.91899L18.8592 7.37199L18.9592 7.33999L16.5102 4.88599L16.4062 4.91899Z" fill="#00E2D1"/>
<path d="M16.5098 4.886L18.9628 7.339L19.0628 7.307L16.6098 4.854L16.5098 4.886Z" fill="#00E2D1"/>
<path d="M16.6152 4.85295L19.0682 7.30595L19.1682 7.27395L16.7192 4.82495L16.6152 4.85295Z" fill="#00E2D1"/>
<path d="M16.7188 4.82106L19.1718 7.27406L19.2718 7.24206L16.8187 4.78906L16.7188 4.82106Z" fill="#00E2D1"/>
<path d="M16.8242 4.78386L19.2772 7.23686L19.3772 7.20486L16.9292 4.75586L16.8242 4.78386Z" fill="#00E2D1"/>
<path d="M16.9277 4.75588L19.3807 7.21388L19.4807 7.18188L17.0317 4.72388L16.9277 4.75588Z" fill="#00E2D1"/>
<path d="M17.0332 4.72389L19.4862 7.1769L19.5862 7.14489L17.1332 4.69189L17.0332 4.72389Z" fill="#00E2D1"/>
<path d="M17.1367 4.69094L19.5897 7.14394L19.6897 7.11194L17.2367 4.65894L17.1367 4.69094Z" fill="#00E2D1"/>
<path d="M17.2402 4.65895L19.6932 7.11195L19.7932 7.07995L17.3402 4.62695L17.2402 4.65895Z" fill="#00E2D1"/>
<path d="M17.3438 4.62697L19.7968 7.07997L19.8968 7.04797L17.4437 4.59497L17.3438 4.62697Z" fill="#00E2D1"/>
<path d="M17.4492 4.59401L19.9022 7.04701L20.0022 7.01501L17.5542 4.56201L17.4492 4.59401Z" fill="#00E2D1"/>
<path d="M17.5527 4.56203L20.0087 7.01503L20.1087 6.98303L17.6557 4.53003L17.5527 4.56203Z" fill="#00E2D1"/>
<path d="M17.6582 4.53005L20.1112 6.98305L20.2112 6.95105L17.7582 4.49805L17.6582 4.53005Z" fill="#00E2D1"/>
<path d="M17.7617 4.49587L20.2147 6.95087L20.3147 6.91887L17.8657 4.46387L17.7617 4.49587Z" fill="#00E2D1"/>
<path d="M17.8652 4.46388L20.3182 6.91688L20.4182 6.88488L17.9652 4.43188L17.8652 4.46388Z" fill="#00E2D1"/>
<path d="M17.9707 4.4319L20.4237 6.8849L20.5237 6.8529L18.0707 4.3999L17.9707 4.4319Z" fill="#00E2D1"/>
<path d="M18.0742 4.39894L20.5242 6.85694L20.6422 6.81994L18.1892 4.36694L18.0742 4.39894Z" fill="#00E2D1"/>
<path d="M18.1914 4.36293L20.6444 6.81593L20.7624 6.77893L18.3094 4.32593L18.1914 4.36293Z" fill="#00E2D1"/>
<path d="M18.3105 4.32604L20.7635 6.77904L20.8805 6.74304L18.4275 4.29004L18.3105 4.32604Z" fill="#00E2D1"/>
<path d="M18.4277 4.28895L20.8807 6.74195L20.9987 6.70495L18.5457 4.25195L18.4277 4.28895Z" fill="#00E2D1"/>
<path d="M18.5469 4.25184L20.9999 6.70484L21.1179 6.66784L18.6649 4.21484L18.5469 4.25184Z" fill="#00E2D1"/>
<path d="M18.6641 4.21596L21.1171 6.66896L21.2351 6.63196L18.7821 4.17896L18.6641 4.21596Z" fill="#00E2D1"/>
<path d="M18.7832 4.17894L21.2362 6.63194L21.3542 6.59494L18.9012 4.13794L18.7832 4.17894Z" fill="#00E2D1"/>
<path d="M18.9004 4.14198L21.3534 6.59498L21.4714 6.55798L19.0204 4.10498L18.9004 4.14198Z" fill="#00E2D1"/>
<path d="M19.0176 4.10585L21.4706 6.55885L21.5886 6.52185L19.1356 4.06885L19.0176 4.10585Z" fill="#00E2D1"/>
<path d="M19.1367 4.06898L21.5897 6.52198L21.7077 6.48498L19.2547 4.03198L19.1367 4.06898Z" fill="#00E2D1"/>
<path d="M19.2539 4.03285L21.7049 6.48585L21.8229 6.44885L19.3699 3.99585L19.2539 4.03285Z" fill="#00E2D1"/>
<path d="M19.373 3.99501L21.826 6.44801L21.944 6.41101L19.4911 3.95801L19.373 3.99501Z" fill="#00E2D1"/>
<path d="M19.4902 3.95895L21.9432 6.41195L22.0612 6.37494L19.6082 3.91895L19.4902 3.95895Z" fill="#00E2D1"/>
<path d="M19.6074 3.92201L22.0604 6.37501L22.1784 6.33801L19.7254 3.88501L19.6074 3.92201Z" fill="#00E2D1"/>
<path d="M19.7266 3.88588L22.1796 6.33888L22.2976 6.30188L19.8446 3.84888L19.7266 3.88588Z" fill="#00E2D1"/>
<path d="M19.8457 3.84901L22.2987 6.30201L22.4167 6.26501L19.9637 3.81201L19.8457 3.84901Z" fill="#00E2D1"/>
<path d="M19.9629 3.8119L22.4159 6.2649L22.5339 6.2279L20.0809 3.7749L19.9629 3.8119Z" fill="#00E2D1"/>
<path d="M20.0801 3.77501L22.5331 6.22801L22.6511 6.19101L20.2011 3.73901L20.0801 3.77501Z" fill="#00E2D1"/>
<path d="M20.1992 3.73895L22.6522 6.19195L22.7702 6.15495L20.3172 3.69995L20.1992 3.73895Z" fill="#00E2D1"/>
<path d="M20.3164 3.70302L22.7694 6.15602L22.8874 6.11902L20.4344 3.66602L20.3164 3.70302Z" fill="#00E2D1"/>
<path d="M20.4336 3.66493L22.8866 6.11793L23.0046 6.08093L20.5516 3.62793L20.4336 3.66493Z" fill="#00E2D1"/>
<path d="M20.5527 3.62904L23.0057 6.08204L23.1237 6.04504L20.6717 3.59204L20.5527 3.62904Z" fill="#00E2D1"/>
<path d="M20.6699 3.59191L23.1229 6.04491L23.2409 6.00791L20.7879 3.55591L20.6699 3.59191Z" fill="#00E2D1"/>
<path d="M20.7891 3.55507L23.2421 6.00807L23.3601 5.97107L20.9071 3.51807L20.7891 3.55507Z" fill="#00E2D1"/>
<path d="M20.9062 3.518L23.3593 5.971L23.4773 5.934L21.0243 3.479L20.9062 3.518Z" fill="#00E2D1"/>
<path d="M21.0254 3.48207L23.4784 5.93507L23.5964 5.89807L21.1434 3.44507L21.0254 3.48207Z" fill="#00E2D1"/>
<path d="M21.1426 3.44594L23.5956 5.89894L23.7136 5.86194L21.2606 3.40894L21.1426 3.44594Z" fill="#00E2D1"/>
<path d="M21.2617 3.40907L23.7147 5.86207L23.8327 5.82507L21.3827 3.37207L21.2617 3.40907Z" fill="#00E2D1"/>
<path d="M21.3789 3.37098L23.8319 5.82398L23.9499 5.78698L21.4969 3.33398L21.3789 3.37098Z" fill="#00E2D1"/>
<path d="M21.4961 3.33485L23.9491 5.78785L24.0671 5.75085L21.6141 3.29785L21.4961 3.33485Z" fill="#00E2D1"/>
<path d="M21.6152 3.29801L24.0682 5.75101L24.1862 5.71401L21.7332 3.26001L21.6152 3.29801Z" fill="#00E2D1"/>
<path d="M21.7324 3.26185L24.1854 5.71485L24.3034 5.67785L21.8504 3.22485L21.7324 3.26185Z" fill="#00E2D1"/>
<path d="M21.8496 3.22499L24.3026 5.67799L24.4206 5.64099L21.9676 3.18799L21.8496 3.22499Z" fill="#00E2D1"/>
<path d="M21.9688 3.18788L24.4217 5.64088L24.5397 5.60388L22.0867 3.15088L21.9688 3.18788Z" fill="#00E2D1"/>
<path d="M22.0859 3.14686L24.5389 5.59986L24.6569 5.56286L22.2039 3.10986L22.0859 3.14686Z" fill="#00E2D1"/>
<path d="M22.207 3.1139L24.66 5.5669L24.778 5.5299L22.325 3.0769L22.207 3.1139Z" fill="#00E2D1"/>
<path d="M22.3223 3.07902L24.7753 5.53202L24.8933 5.49502L22.4403 3.04102L22.3223 3.07902Z" fill="#00E2D1"/>
<path d="M22.4395 3.04088L24.8924 5.49388L25.0105 5.45688L22.5614 3.00488L22.4395 3.04088Z" fill="#00E2D1"/>
<path d="M22.5586 3.00502L25.0116 5.45802L25.1296 5.42102L22.6766 2.96802L22.5586 3.00502Z" fill="#00E2D1"/>
<path d="M22.6758 2.96791L25.1288 5.42091L25.2468 5.38391L22.7938 2.93091L22.6758 2.96791Z" fill="#00E2D1"/>
<path d="M22.7949 2.92802L25.2469 5.38502L25.3649 5.34802L22.9119 2.89502L22.7949 2.92802Z" fill="#00E2D1"/>
<path d="M22.9141 2.89491L25.3671 5.34791L25.4851 5.31091L23.0321 2.85791L22.9141 2.89491Z" fill="#00E2D1"/>
<path d="M23.0312 2.85805L25.4843 5.31105L25.6022 5.27405L23.1493 2.82104L23.0312 2.85805Z" fill="#00E2D1"/>
<path d="M23.1484 2.82191L25.6014 5.27491L25.7194 5.23791L23.2664 2.78491L23.1484 2.82191Z" fill="#00E2D1"/>
<path d="M23.2676 2.78505L25.7206 5.23805L25.8386 5.20105L23.3856 2.74805L23.2676 2.78505Z" fill="#00E2D1"/>
<path d="M23.3867 2.74694L25.8397 5.19994L25.9577 5.16294L23.5027 2.71094L23.3867 2.74694Z" fill="#00E2D1"/>
<path d="M23.502 2.70888L25.9549 5.16188L26.073 5.12488L23.6199 2.67188L23.502 2.70888Z" fill="#00E2D1"/>
<path d="M23.6211 2.67494L26.0741 5.12794L26.1921 5.09094L23.7431 2.63794L23.6211 2.67494Z" fill="#00E2D1"/>
<path d="M23.7402 2.63805L26.1932 5.09105L26.3112 5.05405L23.8582 2.60205L23.7402 2.63805Z" fill="#00E2D1"/>
<path d="M23.8555 2.60097L26.3085 5.05396L26.4265 5.01696L23.9735 2.56396L23.8555 2.60097Z" fill="#00E2D1"/>
<path d="M23.9746 2.56386L26.4266 5.01686L26.5446 4.97986L24.0916 2.52686L23.9746 2.56386Z" fill="#00E2D1"/>
<path d="M24.0918 2.52797L26.5448 4.98097L26.6628 4.94397L24.2098 2.49097L24.0918 2.52797Z" fill="#00E2D1"/>
<path d="M24.2109 2.4889L26.6639 4.9419L26.7499 4.9149L26.8099 4.9339L24.3279 2.4519L24.2109 2.4889Z" fill="#00E2D1"/>
<path d="M24.3281 2.45399L26.8111 4.93499L27.0351 5.00499L24.4471 2.41699L24.3281 2.45399Z" fill="#00E2D1"/>
<path d="M24.4473 2.41684L27.0403 5.00584L27.2643 5.07584L24.5653 2.38184L24.4473 2.41684Z" fill="#00E2D1"/>
<path d="M24.5684 2.38095L27.2634 5.07595L27.4884 5.14595L24.6884 2.34595L24.5684 2.38095Z" fill="#00E2D1"/>
<path d="M24.6816 2.34391L27.4816 5.14391L27.7056 5.21391L24.7976 2.30591L24.6816 2.34391Z" fill="#00E2D1"/>
<path d="M24.8008 2.30702L27.7088 5.21502L27.9328 5.28502L24.9238 2.27002L24.8008 2.30702Z" fill="#00E2D1"/>
<path d="M24.9199 2.26991L27.9339 5.28391L28.1579 5.35391L25.0369 2.23291L24.9199 2.26991Z" fill="#01E2D1"/>
<path d="M25.0371 2.234L28.1581 5.355L28.3831 5.425L25.1551 2.198L25.0371 2.234Z" fill="#01E2D1"/>
<path d="M25.1562 2.19784L28.3842 5.42584L28.6082 5.49584L25.2742 2.16284L25.1562 2.19784Z" fill="#01E2D1"/>
<path d="M25.2734 2.16005L28.6074 5.49405L28.8324 5.56405L25.3914 2.12305L25.2734 2.16005Z" fill="#01E2D1"/>
<path d="M25.3906 2.12389L28.8316 5.56489L29.0556 5.63489L25.5086 2.08789L25.3906 2.12389Z" fill="#01E2D1"/>
<path d="M25.5098 2.08703L29.0568 5.63403L29.2808 5.70403L25.6278 2.05103L25.5098 2.08703Z" fill="#01E2D1"/>
<path d="M25.627 2.05089L29.281 5.70489L29.506 5.77489L25.746 2.01489L25.627 2.05089Z" fill="#01E2D1"/>
<path d="M25.748 2.01405L29.508 5.77405L29.732 5.84405L25.8651 1.97705L25.748 2.01405Z" fill="#01E2D1"/>
<path d="M25.8633 1.97685L29.7303 5.84385L29.9553 5.91385L25.9773 1.94385L25.8633 1.97685Z" fill="#01E2D1"/>
<path d="M25.9805 1.93983L29.9535 5.91283L30.1785 5.98283L26.0985 1.90283L25.9805 1.93983Z" fill="#01E2D1"/>
<path d="M26.0996 1.90394L30.1796 5.98394L30.4036 6.05394L26.2176 1.86694L26.0996 1.90394Z" fill="#01E2D1"/>
<path d="M26.2168 1.86683L30.4028 6.05283L30.6278 6.12283L26.3348 1.82983L26.2168 1.86683Z" fill="#01E2D1"/>
<path d="M26.3359 1.82997L30.6289 6.12297L30.8529 6.19297L26.4529 1.79297L26.3359 1.82997Z" fill="#01E2D1"/>
<path d="M26.4531 1.79284L30.8531 6.19284L31.0771 6.26284L26.5711 1.75684L26.4531 1.79284Z" fill="#01E2D1"/>
<path d="M26.5723 1.75685L31.0783 6.26285L31.3033 6.33285L26.6903 1.72485L26.5723 1.75685Z" fill="#02E2D1"/>
<path d="M26.6895 1.71995L31.3015 6.33195L31.5265 6.40195L26.8595 1.73395L26.7515 1.69995L26.6895 1.71995Z" fill="#02E2D1"/>
<path d="M31.5264 6.40286L31.7504 6.47286L27.0834 1.80486L26.8594 1.73486L31.5264 6.40286Z" fill="#02E2D1"/>
<path d="M31.75 6.47293L31.975 6.54293L27.307 1.87493L27.082 1.80493L31.75 6.47293Z" fill="#02E2D1"/>
<path d="M31.9756 6.54202L32.2006 6.61202L27.5326 1.94402L27.3086 1.87402L31.9756 6.54202Z" fill="#02E2D1"/>
<path d="M32.2032 6.61185L32.4272 6.68185L27.7592 2.01385L27.5352 1.94385L32.2032 6.61185Z" fill="#02E2D1"/>
<path d="M32.4239 6.68192L32.6489 6.75192L27.9809 2.08392L27.7559 2.01392L32.4239 6.68192Z" fill="#02E2D2"/>
<path d="M32.6484 6.75198L32.8734 6.82198L28.2064 2.15398L27.9824 2.08398L32.6484 6.75198Z" fill="#03E2D2"/>
<path d="M32.8731 6.82083L33.0971 6.89083L28.4291 2.22283L28.2051 2.15283L32.8731 6.82083Z" fill="#03E2D2"/>
<path d="M33.0977 6.8909L33.3227 6.9609L28.6547 2.2929L28.4297 2.2229L33.0977 6.8909Z" fill="#03E2D2"/>
<path d="M33.3242 6.96097L33.5493 7.03097L28.8802 2.36297L28.6562 2.29297L33.3242 6.96097Z" fill="#03E2D2"/>
<path d="M33.5469 7.03104L33.7709 7.10104L29.1029 2.43304L28.8789 2.36304L33.5469 7.03104Z" fill="#03E2D2"/>
<path d="M33.7725 7.10086L33.9975 7.17086L29.3285 2.50286L29.1035 2.43286L33.7725 7.10086Z" fill="#03E3D2"/>
<path d="M33.9961 7.16995L34.2201 7.23995L29.5521 2.57195L29.3281 2.50195L33.9961 7.16995Z" fill="#04E3D2"/>
<path d="M34.2207 7.24002L34.4457 7.31002L29.7777 2.64202L29.5527 2.57202L34.2207 7.24002Z" fill="#04E3D2"/>
<path d="M34.4443 7.30985L34.6693 7.37985L30.0013 2.71185L29.7773 2.64185L34.4443 7.30985Z" fill="#04E3D2"/>
<path d="M34.67 7.37991L34.894 7.44991L30.226 2.78191L30.002 2.71191L34.67 7.37991Z" fill="#04E3D2"/>
<path d="M34.8945 7.44883L35.1195 7.51883L30.4515 2.85083L30.2285 2.77783L34.8945 7.44883Z" fill="#05E3D2"/>
<path d="M35.1201 7.52005L35.3451 7.59005L30.6771 2.92205L30.4531 2.85205L35.1201 7.52005Z" fill="#05E3D2"/>
<path d="M35.3438 7.58988L35.5678 7.65987L30.8998 2.99187L30.6758 2.92188L35.3438 7.58988Z" fill="#05E3D2"/>
<path d="M35.5674 7.65994L35.7924 7.72994L31.1234 3.06194L30.8984 2.99194L35.5674 7.65994Z" fill="#05E3D2"/>
<path d="M35.792 7.72904L36.017 7.79904L31.349 3.13103L31.125 3.06104L35.792 7.72904Z" fill="#06E3D2"/>
<path d="M36.0176 7.79886L36.2416 7.86886L31.5736 3.20086L31.3496 3.13086L36.0176 7.79886Z" fill="#06E3D2"/>
<path d="M36.2403 7.86893L36.4653 7.93893L31.7973 3.27093L31.5723 3.20093L36.2403 7.86893Z" fill="#06E3D2"/>
<path d="M36.4658 7.939L36.6908 8.009L32.0228 3.341L31.7988 3.271L36.4658 7.939Z" fill="#07E3D2"/>
<path d="M36.6895 8.00784L36.9135 8.07784L32.2435 3.40984L32.0195 3.33984L36.6895 8.00784Z" fill="#07E3D3"/>
<path d="M36.9141 8.07791L37.1391 8.14791L32.4711 3.47991L32.2461 3.40991L36.9141 8.07791Z" fill="#07E3D3"/>
<path d="M37.1396 8.14798L37.3647 8.21798L32.6967 3.54998L32.4727 3.47998L37.1396 8.14798Z" fill="#08E3D3"/>
<path d="M37.3653 8.21805L37.5893 8.28805L32.9213 3.62005L32.6973 3.55005L37.3653 8.21805Z" fill="#08E3D3"/>
<path d="M37.5899 8.28787L37.8149 8.35787L33.1469 3.68987L32.9219 3.61987L37.5899 8.28787Z" fill="#09E3D3"/>
<path d="M37.8135 8.35697L38.0385 8.42696L33.3705 3.75896L33.1465 3.68896L37.8135 8.35697Z" fill="#09E3D3"/>
<path d="M38.0391 8.42703L38.2631 8.49703L33.5951 3.82903L33.3711 3.75903L38.0391 8.42703Z" fill="#09E3D3"/>
<path d="M38.2598 8.49686L38.4848 8.56686L33.8168 3.89886L33.5918 3.82886L38.2598 8.49686Z" fill="#0AE4D3"/>
<path d="M38.4864 8.56693L38.7104 8.63693L34.0424 3.96893L33.8184 3.89893L38.4864 8.56693Z" fill="#0AE4D3"/>
<path d="M38.7129 8.63699L38.9379 8.70699L34.2699 4.03899L34.0449 3.96899L38.7129 8.63699Z" fill="#0BE4D3"/>
<path d="M38.9365 8.70706L39.1615 8.77706L34.4935 4.10906L34.2695 4.03906L38.9365 8.70706Z" fill="#0BE4D3"/>
<path d="M39.1621 8.77298L39.3861 8.84298L34.7181 4.17498L34.4941 4.10498L39.1621 8.77298Z" fill="#0CE4D4"/>
<path d="M39.3858 8.84695L39.6098 8.91695L34.9418 4.24895L34.7168 4.17896L39.3858 8.84695Z" fill="#0DE4D4"/>
<path d="M39.6103 8.9139L39.8353 8.9839L35.1713 4.3139L34.9473 4.2439L39.6103 8.9139Z" fill="#0DE4D4"/>
<path d="M39.834 8.98587L40.058 9.05587L35.39 4.38787L35.166 4.31787L39.834 8.98587Z" fill="#0EE4D4"/>
<path d="M40.0586 9.05599L40.2826 9.12599L35.6156 4.45599L35.3906 4.38599L40.0586 9.05599Z" fill="#0EE4D4"/>
<path d="M40.2842 9.12601L40.5092 9.19601L35.8412 4.52801L35.6172 4.45801L40.2842 9.12601Z" fill="#0FE4D4"/>
<path d="M40.5078 9.19685L40.7318 9.26686L36.0638 4.59686L35.8398 4.52686L40.5078 9.19685Z" fill="#10E4D4"/>
<path d="M40.7315 9.26492L40.9555 9.33492L36.2875 4.66692L36.0625 4.59692L40.7315 9.26492Z" fill="#10E5D5"/>
<path d="M40.958 9.33895L41.183 9.40895L36.515 4.73895L36.291 4.66895L40.958 9.33895Z" fill="#11E5D5"/>
<path d="M41.1856 9.40506L41.4096 9.47506L36.7416 4.80706L36.5176 4.73706L41.1856 9.40506Z" fill="#12E5D5"/>
<path d="M41.4063 9.47406L41.6303 9.54406L36.9633 4.88006L36.7383 4.81006L41.4063 9.47406Z" fill="#13E5D5"/>
<path d="M41.6299 9.54398L41.8548 9.61398L37.1888 4.94598L36.9648 4.87598L41.6299 9.54398Z" fill="#13E5D5"/>
<path d="M41.8555 9.61502L42.0795 9.68502L37.4115 5.01702L37.1875 4.94702L41.8555 9.61502Z" fill="#14E5D5"/>
<path d="M42.0792 9.68485L42.3032 9.75485L37.6352 5.08685L37.4102 5.01685L42.0792 9.68485Z" fill="#15E5D6"/>
<path d="M42.3037 9.75491L42.5287 9.82491L37.8607 5.15691L37.6367 5.08691L42.3037 9.75491Z" fill="#16E5D6"/>
<path d="M42.5293 9.82401L42.7533 9.89401L38.0853 5.22601L37.8613 5.15601L42.5293 9.82401Z" fill="#17E6D6"/>
<path d="M42.7539 9.89383L42.9789 9.96383L38.3109 5.29583L38.0859 5.22583L42.7539 9.89383Z" fill="#18E6D6"/>
<path d="M42.9785 9.9639L43.2025 10.0339L38.5345 5.3659L38.3105 5.2959L42.9785 9.9639Z" fill="#19E6D6"/>
<path d="M43.2041 10.033L43.4281 10.103L38.7601 5.43499L38.5352 5.36499L43.2041 10.033Z" fill="#1AE6D7"/>
<path d="M43.4268 10.1031L43.6518 10.1731L38.9838 5.50506L38.7598 5.43506L43.4268 10.1031Z" fill="#1BE6D7"/>
<path d="M43.6524 10.1729L43.8764 10.2429L39.2084 5.57488L38.9844 5.50488L43.6524 10.1729Z" fill="#1CE6D7"/>
<path d="M43.876 10.243L44.1 10.313L39.432 5.64495L39.207 5.57495L43.876 10.243Z" fill="#1DE6D7"/>
<path d="M44.1006 10.313L44.3256 10.383L39.6576 5.71502L39.4336 5.64502L44.1006 10.313Z" fill="#1EE7D8"/>
<path d="M44.3262 10.3819L44.5502 10.4519L39.8822 5.78387L39.6582 5.71387L44.3262 10.3819Z" fill="#1FE7D8"/>
<path d="M44.5499 10.4519L44.7738 10.5219L40.1059 5.85394L39.8809 5.78394L44.5499 10.4519Z" fill="#21E7D8"/>
<path d="M44.7744 10.522L44.9994 10.592L40.3314 5.92401L40.1074 5.854L44.7744 10.522Z" fill="#22E7D8"/>
<path d="M44.9981 10.5921L45.2221 10.6621L40.5541 5.99407L40.3301 5.92407L44.9981 10.5921Z" fill="#23E7D9"/>
<path d="M45.2237 10.6619L45.4477 10.7319L40.7797 6.0639L40.5547 5.9939L45.2237 10.6619Z" fill="#24E8D9"/>
<path d="M45.4483 10.732L45.6732 10.802L41.0052 6.13396L40.7812 6.06396L45.4483 10.732Z" fill="#26E8D9"/>
<path d="M45.6739 10.802L45.8979 10.872L41.2279 6.20403L41.0039 6.13403L45.6739 10.802Z" fill="#27E8D9"/>
<path d="M45.8975 10.8719L46.1215 10.9419L41.4535 6.27386L41.2285 6.20386L45.8975 10.8719Z" fill="#29E8DA"/>
<path d="M46.1221 10.9409L46.3471 11.0109L41.6791 6.34295L41.4551 6.27295L46.1221 10.9409Z" fill="#2AE8DA"/>
<path d="M46.3457 11.011L46.5697 11.081L41.9017 6.41302L41.6777 6.34302L46.3457 11.011Z" fill="#2CE9DA"/>
<path d="M46.5694 11.0808L46.7934 11.1508L42.1254 6.48284L41.9004 6.41284L46.5694 11.0808Z" fill="#2DE9DB"/>
<path d="M46.7959 11.1509L47.0209 11.2209L42.3529 6.55291L42.1289 6.48291L46.7959 11.1509Z" fill="#2FE9DB"/>
<path d="M47.0196 11.22L47.2436 11.29L42.5756 6.622L42.3516 6.552L47.0196 11.22Z" fill="#30E9DC"/>
<path d="M47.2422 11.2901L47.4672 11.3601L42.7992 6.69207L42.5742 6.62207L47.2422 11.2901Z" fill="#32EADC"/>
<path d="M47.4688 11.3599L47.6928 11.4299L43.0248 6.76189L42.8008 6.69189L47.4688 11.3599Z" fill="#34EADC"/>
<path d="M47.6925 11.43L47.9165 11.5L43.2445 6.83196L43.0195 6.76196L47.6925 11.43Z" fill="#36EADD"/>
<path d="M47.9189 11.5L48.144 11.57L43.476 6.90203L43.252 6.83203L47.9189 11.5Z" fill="#38EBDD"/>
<path d="M48.1426 11.5699L48.3666 11.6399L43.6986 6.97186L43.4746 6.90186L48.1426 11.5699Z" fill="#39EBDD"/>
<path d="M48.3682 11.6399L48.5922 11.7099L43.9242 7.04192L43.6992 6.97192L48.3682 11.6399Z" fill="#3BEBDE"/>
<path d="M48.5917 11.71L48.8167 11.78L44.1537 7.11199L43.9297 7.04199L48.5917 11.71Z" fill="#3DEBDE"/>
<path d="M48.8164 11.7788L49.0404 11.8488L44.3724 7.18084L44.1484 7.11084L48.8164 11.7788Z" fill="#3FECDF"/>
<path d="M49.042 11.8489L49.266 11.9189L44.598 7.25091L44.373 7.18091L49.042 11.8489Z" fill="#42ECDF"/>
<path d="M49.2646 11.919L49.4897 11.989L44.8217 7.32098L44.5977 7.25098L49.2646 11.919Z" fill="#44ECE0"/>
<path d="M49.4903 11.989L49.7143 12.059L45.0463 7.39104L44.8223 7.32104L49.4903 11.989Z" fill="#46EDE0"/>
<path d="M49.7139 12.0589L49.9379 12.1289L45.2699 7.46087L45.0449 7.39087L49.7139 12.0589Z" fill="#48EDE1"/>
<path d="M49.9385 12.128L50.1635 12.198L45.4955 7.52996L45.2715 7.45996L49.9385 12.128Z" fill="#4BEDE1"/>
<path d="M50.168 12.198L50.392 12.268L45.724 7.60003L45.5 7.53003L50.168 12.198Z" fill="#4DEEE2"/>
<path d="M50.3878 12.2679L50.6118 12.3379L45.9438 7.66985L45.7188 7.59985L50.3878 12.2679Z" fill="#50EEE2"/>
<path d="M50.6132 12.3379L50.8382 12.4079L46.1732 7.73992L45.9492 7.66992L50.6132 12.3379Z" fill="#52EFE3"/>
<path d="M50.8379 12.407L51.0619 12.477L46.3939 7.80901L46.1699 7.73901L50.8379 12.407Z" fill="#55EFE3"/>
<path d="M51.0616 12.4729L51.2856 12.5429L46.6176 7.87493L46.3926 7.80493L51.0616 12.4729Z" fill="#57EFE4"/>
<path d="M51.2861 12.5469L51.5111 12.6169L46.8431 7.94891L46.6191 7.87891L51.2861 12.5469Z" fill="#5AF0E5"/>
<path d="M51.5107 12.6151L51.7347 12.6851L47.0677 8.01507L46.8438 7.94507L51.5107 12.6151Z" fill="#5DF0E5"/>
<path d="M51.7344 12.687L51.9594 12.757L47.2914 8.08904L47.0664 8.01904L51.7344 12.687Z" fill="#60F1E6"/>
<path d="M51.961 12.7559L52.185 12.8259L47.517 8.15594L47.293 8.08594L51.961 12.7559Z" fill="#63F1E6"/>
<path d="M52.1866 12.8269L52.4106 12.8969L47.7426 8.22894L47.5176 8.15894L52.1866 12.8269Z" fill="#66F2E7"/>
<path d="M52.4092 12.898L52.6342 12.968L47.9662 8.29803L47.7422 8.22803L52.4092 12.898Z" fill="#69F2E8"/>
<path d="M52.6338 12.9659L52.6818 12.9809V12.8589L48.1908 8.36785L47.9668 8.29785L52.6338 12.9659Z" fill="#6CF3E8"/>
<path d="M52.6814 12.8589V12.7039L48.4144 8.4389L48.1895 8.3689L52.6814 12.8589Z" fill="#6FF3E9"/>
<path d="M52.6811 12.705V12.55L48.6391 8.50799L48.4141 8.43799L52.6811 12.705Z" fill="#73F4EA"/>
<path d="M52.6797 12.549V12.394L48.8627 8.58001L48.6387 8.51001L52.6797 12.549Z" fill="#76F4EB"/>
<path d="M52.6822 12.3949V12.2399L49.0892 8.6469L48.8652 8.5769L52.6822 12.3949Z" fill="#79F5EB"/>
<path d="M52.6819 12.2399V12.0849L49.3129 8.72186L49.0879 8.65186L52.6819 12.2399Z" fill="#7DF5EC"/>
<path d="M52.6805 12.086V11.931L49.5365 8.78704L49.3125 8.71704L52.6805 12.086Z" fill="#81F6ED"/>
<path d="M52.6811 11.9309V11.7759L49.7621 8.85686L49.5371 8.78687L52.6811 11.9309Z" fill="#84F6EE"/>
<path d="M52.6807 11.776V11.621L49.9857 8.92596L49.7617 8.85596L52.6807 11.776Z" fill="#88F7EF"/>
<path d="M52.6794 11.622V11.467L50.2084 8.99701L49.9844 8.927L52.6794 11.622Z" fill="#8CF7EF"/>
<path d="M52.6809 11.4658V11.3108L50.4359 9.06585L50.2109 8.99585L52.6809 11.4658Z" fill="#90F8F0"/>
<path d="M52.6806 11.3109V11.1559L50.6595 9.13494L50.4355 9.06494L52.6806 11.3109Z" fill="#94F9F1"/>
<path d="M52.6822 11.1568V11.0018L50.8822 9.20184L50.6582 9.13184L52.6822 11.1568Z" fill="#98F9F2"/>
<path d="M52.6818 11.0021V10.8481L51.1098 9.27605L50.8848 9.20605L52.6818 11.0021Z" fill="#9CFAF3"/>
<path d="M52.6804 10.8479V10.6929L51.3334 9.34588L51.1094 9.27588L52.6804 10.8479Z" fill="#A1FBF4"/>
<path d="M52.681 10.693V10.538L51.558 9.41497L51.334 9.34497L52.681 10.693Z" fill="#A5FBF5"/>
<path d="M52.6816 10.5391V10.3841L51.7816 9.48406L51.5566 9.41406L52.6816 10.5391Z" fill="#AAFCF6"/>
<path d="M52.6812 10.3839V10.2289L52.0072 9.55486L51.7832 9.48486L52.6812 10.3839Z" fill="#AEFDF7"/>
<path d="M52.6808 10.2289V10.0739L52.2318 9.62493L52.0078 9.55493L52.6808 10.2289Z" fill="#B3FDF8"/>
<path d="M52.6814 10.075V9.91998L52.4574 9.69598L52.2324 9.62598L52.6814 10.075Z" fill="#B8FEF9"/>
<path d="M52.681 9.91885V9.76385L52.457 9.69385L52.681 9.91885Z" fill="#BDFFFA"/>
<mask id="mask3_159_10068" style="mask-type:luminance" maskUnits="userSpaceOnUse" x="0" y="1" width="53" height="12">
<path d="M26.7503 1.70093L0.820312 9.76493V12.9809L26.7503 4.91693L52.6813 12.9809V9.76493L26.7503 1.70093Z" fill="white"/>
</mask>
<g mask="url(#mask3_159_10068)">
<path d="M52.6802 9.76493L44.6172 1.70093H52.6802V9.76493Z" fill="#BDFFFA"/>
</g>
<path d="M26.7513 17.834L8.6213 12.182L6.4043 14.688L26.7943 21.045L52.6793 12.981V9.77002L26.7513 17.834Z" fill="#00E2D1"/>
<path d="M4.98131 14.2749L0.820312 12.9809V9.75488L4.94531 11.1119L4.98131 14.2749Z" fill="#00E2D1"/>
</g>
</g>
</g>
<path d="M65.1138 5.37891V6.22559H58.2241V5.37891H61.146V4.54053C60.5608 4.61523 60.0088 4.62769 59.3115 4.62354H58.8467V2.00049H61.4614V2.83057H59.9092V3.79346C60.4778 3.78101 60.9717 3.7395 61.5195 3.63574L61.5984 4.2915H61.8931V2.00049H64.4746V2.83057H62.9473V3.78516H64.5078V4.62354H62.2168V5.37891H65.1138ZM58.9629 7.68652V6.83984H64.2339V9.28027H63.1714V7.68652H58.9629ZM72.46 5.37891V6.22559H65.5703V5.37891H68.4922V4.54053C67.907 4.61523 67.355 4.62769 66.6577 4.62354H66.1929V2.00049H68.8076V2.83057H67.2554V3.79346C67.824 3.78101 68.3179 3.7395 68.8657 3.63574L68.9446 4.2915H69.2393V2.00049H71.8208V2.83057H70.2935V3.78516H71.854V4.62354H69.563V5.37891H72.46ZM66.3091 7.68652V6.83984H71.5801V9.28027H70.5176V7.68652H66.3091ZM78.9097 1.71826V4.03418H79.9307V4.89746H78.9097V7.35449H77.8472V1.71826H78.9097ZM72.9165 3.34521V2.50684H74.6348V1.70166H75.689V2.50684H77.3989V3.34521H72.9165ZM73.2817 5.07178C73.2817 4.19604 74.0579 3.61084 75.1577 3.61084C76.2534 3.61084 77.0171 4.19604 77.0171 5.07178C77.0171 5.94336 76.2534 6.51611 75.1577 6.51611C74.0579 6.51611 73.2817 5.94336 73.2817 5.07178ZM74.0122 9.13086V6.92285H75.0664V8.28418H79.1836V9.13086H74.0122ZM74.3193 5.07178C74.3152 5.48682 74.6514 5.71094 75.1577 5.71094C75.6682 5.71094 76.0127 5.48682 76.0127 5.07178C76.0127 4.65259 75.6682 4.42017 75.1577 4.41602C74.6514 4.42017 74.3152 4.65259 74.3193 5.07178ZM88.7544 1.70996V9.26367H87.75V5.47021H87.0195V8.89844H86.0483V1.83447H87.0195V4.62354H87.75V1.70996H88.7544ZM82.4375 7.55371V2.58154H85.2515V3.43652H83.5V6.66553C84.2305 6.65308 84.8779 6.61157 85.6084 6.48291L85.6831 7.34619C84.7617 7.52051 83.9565 7.54956 82.9604 7.55371H82.4375ZM94.0503 2.38232V3.2207H89.5679V2.38232H91.2861V1.66846H92.3403V2.38232H94.0503ZM89.9331 4.85596C89.9331 4.02588 90.7134 3.46558 91.8091 3.46143C92.9089 3.46558 93.6685 4.02588 93.6685 4.85596C93.6685 5.68604 92.9089 6.24634 91.8091 6.25049C90.7134 6.24634 89.9331 5.68604 89.9331 4.85596ZM90.4727 7.61182V6.76514H95.561V9.26367H94.4985V7.61182H90.4727ZM90.9707 4.85596C90.9666 5.24194 91.3027 5.44116 91.8091 5.43701C92.3196 5.44116 92.6641 5.24194 92.6641 4.85596C92.6641 4.46582 92.3196 4.2583 91.8091 4.2583C91.3027 4.2583 90.9666 4.46582 90.9707 4.85596ZM94.4985 6.44971V1.70996H95.561V3.66895H96.582V4.53223H95.561V6.44971H94.4985ZM103.314 1.71826V7.4209H102.251V6.82324H100.807V6.10107H102.251V1.71826H103.314ZM96.8892 5.06348C98.2712 5.05518 100.139 5.03442 101.737 4.83936L101.795 5.59473C101.197 5.69434 100.579 5.76489 99.9688 5.81055V7.24658H98.9062V8.28418H103.48V9.13086H97.8521V6.87305H98.9062V5.8728C98.2297 5.89771 97.5864 5.90186 97.0137 5.90186L96.8892 5.06348ZM97.4453 3.32861C97.4453 2.52344 98.2214 1.97144 99.3462 1.97559C100.442 1.97144 101.226 2.52344 101.23 3.32861C101.226 4.13794 100.442 4.66089 99.3462 4.65674C98.2214 4.66089 97.4453 4.13794 97.4453 3.32861ZM98.4497 3.32861C98.4456 3.69385 98.8066 3.89722 99.3462 3.89307C99.8525 3.89722 100.218 3.69385 100.226 3.32861C100.218 2.95508 99.8525 2.74756 99.3462 2.74756C98.8066 2.74756 98.4456 2.95508 98.4497 3.32861ZM108.635 3.05469C108.635 3.87231 109.058 4.67749 110.062 5.06348L109.498 5.86865C108.851 5.62378 108.406 5.17554 108.137 4.61938C107.863 5.271 107.39 5.8147 106.684 6.10938L106.111 5.2959C107.178 4.8269 107.605 3.89722 107.605 3.05469V2.1665H108.635V3.05469ZM107.514 7.85254C107.51 6.96851 108.527 6.43726 110.129 6.44141C111.723 6.43726 112.744 6.96851 112.752 7.85254C112.744 8.72827 111.723 9.26782 110.129 9.26367C108.527 9.26782 107.51 8.72827 107.514 7.85254ZM108.577 7.85254C108.568 8.25928 109.137 8.4668 110.129 8.4668C111.113 8.4668 111.681 8.25928 111.681 7.85254C111.681 7.44165 111.113 7.22998 110.129 7.22998C109.137 7.22998 108.568 7.44165 108.577 7.85254ZM110.087 6.10107V1.85107H111.075V3.56104H111.706V1.71826H112.71V6.3335H111.706V4.41602H111.075V6.10107H110.087ZM119.608 1.70996V3.49463H120.571V4.37451H119.608V6.15918H118.546V1.70996H119.608ZM113.482 5.3457C114.034 5.3457 114.661 5.3457 115.317 5.33325V5.00122C114.491 4.89746 113.985 4.55713 113.989 4.01758C113.985 3.40332 114.711 3.04224 115.84 3.04639C116.96 3.04224 117.687 3.40332 117.691 4.01758C117.687 4.55298 117.185 4.89331 116.371 4.99707V5.2959C116.994 5.2627 117.612 5.21289 118.197 5.13818L118.272 5.79395C116.662 6.06372 114.91 6.07617 113.59 6.07617L113.482 5.3457ZM113.682 2.88867V2.18311H115.317V1.64355H116.371V2.18311H118.006V2.88867H113.682ZM114.487 7.13037V6.4248H119.608V8.11816H115.558V8.5083H119.857V9.21387H114.495V7.479H118.546V7.13037H114.487ZM115.001 4.01758C114.997 4.24585 115.3 4.36206 115.84 4.36621C116.371 4.36206 116.674 4.24585 116.678 4.01758C116.674 3.79761 116.371 3.70215 115.84 3.70215C115.3 3.70215 114.997 3.79761 115.001 4.01758Z" fill="#5ACEC5"/>
<path d="M75.1328 12.9922V21.3594H78.3906V23.2109H75.1328V33.9688H72.9062V12.9922H75.1328ZM58.7969 28.3672C64.0586 25.7422 66.918 21.9453 67.375 17.0469H59.8516V15.1953H69.6484C69.625 21.2656 66.9531 26.6914 60.0391 30.1016L58.7969 28.3672ZM89.2422 26.0703C93.5664 26.0703 96.2031 27.5234 96.2031 30.0078C96.2031 32.5273 93.5664 33.9805 89.2422 33.9922C84.8711 33.9805 82.1875 32.5273 82.1875 30.0078C82.1875 27.5234 84.8711 26.0703 89.2422 26.0703ZM80.3359 24.0547V14.3047H82.5156V17.3281H88.0234V14.3047H90.2266V24.0547H80.3359ZM82.5156 22.2734H88.0234V19.0859H82.5156V22.2734ZM84.4141 30.0078C84.4023 31.4141 86.207 32.2109 89.2422 32.2109C92.2539 32.2109 94.0352 31.4141 94.0234 30.0078C94.0352 28.6133 92.2539 27.8281 89.2422 27.8281C86.207 27.8281 84.4023 28.6133 84.4141 30.0078ZM93.7891 25.5312V12.9922H96.0156V18.125H99.0625V20.0234H96.0156V25.5312H93.7891ZM119.453 22.6016V24.4297H100.258V22.6016H105.719C106.516 19.707 106.703 17.5508 106.75 16.0859H102.039V14.3047H108.953V14.9375C108.941 16.2969 108.941 18.875 108.004 22.6016H114.145C114.789 19.7188 114.93 17.5508 114.965 16.0859H110.312V14.3047H117.133V15.0781C117.109 16.4609 117.145 18.9922 116.359 22.6016H119.453ZM102.695 33.4297V26.4922H104.945V31.6484H117.555V33.4297H102.695Z" fill="#393939"/>
</svg>
