<svg width="16" height="14" viewBox="0 0 16 14" fill="none" xmlns="http://www.w3.org/2000/svg">
<path d="M0.855001 0.027832C0.967365 0.027832 1.07863 0.0499803 1.18243 0.0930106C1.28622 0.136041 1.38052 0.199109 1.45993 0.278609C1.53934 0.358109 1.6023 0.452482 1.6452 0.556331C1.68811 0.660179 1.71013 0.771468 1.71 0.883832V6.09783C1.71027 6.49133 1.8667 6.86864 2.14495 7.14689C2.42319 7.42513 2.8005 7.58157 3.194 7.58183H12.763L10.2 5.29883C10.1162 5.22398 10.0479 5.13334 9.99905 5.0321C9.95022 4.93086 9.92182 4.82099 9.91546 4.70877C9.9091 4.59655 9.92491 4.48418 9.96197 4.37806C9.99904 4.27195 10.0566 4.17418 10.1315 4.09033C10.2064 4.00648 10.297 3.9382 10.3982 3.88938C10.4995 3.84056 10.6093 3.81215 10.7216 3.80579C10.8338 3.79943 10.9462 3.81524 11.0523 3.85231C11.1584 3.88937 11.2562 3.94698 11.34 4.02183L15.575 7.79783H15.58L15.598 7.81483L15.638 7.85583L15.647 7.86583L15.654 7.87483C15.668 7.89083 15.681 7.90783 15.694 7.92483L15.704 7.93783C15.718 7.95783 15.732 7.97883 15.744 8.00083L15.758 8.02783C15.765 8.04183 15.773 8.05583 15.779 8.06983L15.793 8.09983C15.799 8.11383 15.804 8.12783 15.81 8.14183L15.82 8.16983C15.827 8.19183 15.833 8.21383 15.839 8.23683C15.845 8.25983 15.839 8.25483 15.845 8.26383C15.851 8.27283 15.851 8.29483 15.853 8.31083C15.855 8.32683 15.853 8.32983 15.853 8.33883C15.853 8.34783 15.853 8.37283 15.853 8.38983C15.853 8.40683 15.853 8.40483 15.853 8.41283C15.853 8.43783 15.853 8.46283 15.853 8.48783C15.853 8.48783 15.853 8.48783 15.853 8.49383C15.853 8.51683 15.853 8.53883 15.845 8.56183C15.837 8.58483 15.845 8.57783 15.845 8.58583C15.845 8.59383 15.839 8.61883 15.835 8.63483L15.828 8.66283C15.828 8.67783 15.819 8.69283 15.814 8.70783C15.809 8.72283 15.808 8.72683 15.805 8.73583C15.797 8.7565 15.7883 8.77683 15.779 8.79683L15.766 8.82183C15.759 8.83583 15.751 8.84983 15.744 8.86283L15.727 8.88983L15.701 8.92883L15.684 8.95183C15.669 8.97183 15.653 8.99083 15.636 9.00883C15.619 9.02683 15.602 9.04383 15.584 9.05983L15.577 9.06683L11.342 12.8038C11.2592 12.8842 11.161 12.947 11.0533 12.9884C10.9456 13.0298 10.8307 13.049 10.7153 13.0448C10.6 13.0406 10.4868 13.0131 10.3824 12.9639C10.278 12.9148 10.1846 12.845 10.1079 12.7589C10.0312 12.6727 9.97269 12.5719 9.93596 12.4625C9.89923 12.3531 9.88502 12.2374 9.89419 12.1224C9.90336 12.0074 9.93571 11.8954 9.9893 11.7932C10.0429 11.691 10.1166 11.6008 10.206 11.5278L12.746 9.28683H3.194C2.34825 9.28525 1.53752 8.94892 0.939013 8.35135C0.340508 7.75378 0.00290638 6.94358 5.84849e-07 6.09783V0.883832C-0.000130835 0.771468 0.0218874 0.660179 0.0647963 0.556331C0.107705 0.452482 0.170663 0.358109 0.25007 0.278609C0.329478 0.199109 0.423777 0.136041 0.527575 0.0930106C0.631374 0.0499803 0.742636 0.027832 0.855001 0.027832Z" fill="#414141"/>
</svg>
