<svg width="14" height="12" viewBox="0 0 14 12" fill="none" xmlns="http://www.w3.org/2000/svg">
<g id="Symbol 66">
<path id="Heart" fill-rule="evenodd" clip-rule="evenodd" d="M12.1403 1.06207C11.8215 0.739104 11.4418 0.482664 11.0231 0.307637C10.6044 0.132609 10.1551 0.0424805 9.70133 0.0424805C9.24753 0.0424805 8.79825 0.132609 8.37956 0.307637C7.96087 0.482664 7.58112 0.739104 7.26233 1.06207L6.78233 1.54207L6.30233 1.06207C5.65547 0.41521 4.77813 0.0518067 3.86333 0.0518067C2.94853 0.0518067 2.07119 0.415211 1.42433 1.06207C0.777466 1.70894 0.414063 2.58627 0.414063 3.50107C0.414062 4.41588 0.777466 5.29321 1.42433 5.94007L6.77933 11.2981L12.1373 5.94007C12.4603 5.62129 12.7167 5.24153 12.8918 4.82284C13.0668 4.40415 13.1569 3.95487 13.1569 3.50107C13.1569 3.04727 13.0668 2.59799 12.8918 2.1793C12.7167 1.76062 12.4603 1.38086 12.1373 1.06207" fill="#F273C2"/>
</g>
</svg>
