<svg width="14" height="14" viewBox="0 0 14 14" fill="none" xmlns="http://www.w3.org/2000/svg">
    <g id="Symbol 67">
        <path id="Chat" fill-rule="evenodd" clip-rule="evenodd"
              d="M4.51748 6.62331C4.51057 6.73016 4.52653 6.83725 4.56429 6.93744C4.60205 7.03763 4.66075 7.12862 4.73646 7.20433C4.81217 7.28004 4.90315 7.33874 5.00334 7.3765C5.10354 7.41426 5.21063 7.43022 5.31748 7.42331H8.50348C8.71565 7.42331 8.91913 7.33903 9.06916 7.189C9.21919 7.03897 9.30348 6.83548 9.30348 6.62331C9.31038 6.51646 9.29442 6.40937 9.25666 6.30918C9.2189 6.20899 9.16021 6.118 9.0845 6.04229C9.00879 5.96658 8.9178 5.90789 8.81761 5.87013C8.71742 5.83237 8.61032 5.81641 8.50348 5.82331H5.31448C5.10282 5.82411 4.90011 5.90874 4.75073 6.05868C4.60135 6.20863 4.51747 6.41166 4.51748 6.62331ZM0.531476 4.23131C0.526263 3.70641 0.625804 3.18575 0.824274 2.69979C1.02274 2.21383 1.31615 1.77234 1.68733 1.40117C2.05851 1.02999 2.5 0.736579 2.98595 0.53811C3.47191 0.339641 3.99258 0.240099 4.51748 0.245312H9.30048C9.82537 0.240099 10.346 0.339641 10.832 0.53811C11.318 0.736579 11.7594 1.02999 12.1306 1.40117C12.5018 1.77234 12.7952 2.21383 12.9937 2.69979C13.1921 3.18575 13.2917 3.70641 13.2865 4.23131V12.2033C13.2934 12.3102 13.2774 12.4173 13.2397 12.5174C13.2019 12.6176 13.1432 12.7086 13.0675 12.7843C12.9918 12.86 12.9008 12.9187 12.8006 12.9565C12.7004 12.9943 12.5933 13.0102 12.4865 13.0033H4.51748C3.99232 13.0085 3.47141 12.9089 2.98525 12.7102C2.49909 12.5116 2.05747 12.2179 1.68625 11.8464C1.31503 11.4749 1.02169 11.0331 0.823395 10.5468C0.625106 10.0605 0.525861 9.53946 0.531476 9.01431V4.23131Z"
              fill="#ffffff"/>
    </g>
</svg>
