<svg width="24" height="24" viewBox="0 0 24 24" fill="none" xmlns="http://www.w3.org/2000/svg">
<path d="M12.0502 8H11.9502" stroke="black" stroke-width="3" stroke-linecap="round" stroke-linejoin="round"/>
<path d="M12.0003 16V13M3.12034 13.47C3.3535 14.8683 3.91366 16.1917 4.75519 17.3324C5.59672 18.4732 6.69582 19.3991 7.96296 20.0346C9.2301 20.6701 10.6294 20.9973 12.047 20.9896C13.4646 20.9818 14.8602 20.6393 16.1203 19.99L19.5103 20.69C19.6723 20.7231 19.84 20.7155 19.9984 20.6679C20.1567 20.6204 20.3008 20.5343 20.4177 20.4173C20.5346 20.3004 20.6207 20.1563 20.6683 19.998C20.7159 19.8396 20.7235 19.672 20.6903 19.51L20.0003 16.11C20.6524 14.8431 20.9943 13.4394 20.998 12.0146C21.0017 10.5897 20.667 9.1843 20.0215 7.91403C19.376 6.64377 18.4381 5.54492 17.285 4.7079C16.1319 3.87087 14.7965 3.3196 13.3887 3.09943C11.981 2.87926 10.541 2.99648 9.18743 3.44146C7.83382 3.88643 6.6052 4.64644 5.60266 5.65896C4.60012 6.67147 3.85231 7.90755 3.42076 9.2655C2.98921 10.6235 2.88625 12.0645 3.12034 13.47Z" stroke="black" stroke-width="2" stroke-linecap="round" stroke-linejoin="round"/>
</svg>
