<svg width="83" height="83" viewBox="0 0 83 83" fill="none"
  xmlns="http://www.w3.org/2000/svg">
  <g clip-path="url(#clip0_342_215829)">
    <path fill-rule="evenodd" clip-rule="evenodd" d="M39.1 0H44C44.2 0 44.4 0.1 44.6 0.1C50.3 0.5 55.8 2 60.9 4.9C74.5 12.5 82 24.2 82.9 39.8C83.4 47.3 81.7 54.4 78.1 61C70.5 74.6 58.8 82 43.2 83C35.7 83.5 28.6 81.8 22 78.2C10.3 71.7 3.2 61.9 0.7 48.7C0.4 47.1 0.3 45.5 0 43.9V39C0 38.8 0.1 38.5 0.1 38.3C0.5 32.6 2.1 27.1 4.9 22C11.3 10.3 21.1 3.2 34.3 0.7C35.8 0.4 37.5 0.2 39.1 0ZM41.5 5.2C21.5 5.2 5.2 21.4 5.2 41.5C5.2 61.5 21.5 77.8 41.5 77.8C61.5 77.8 77.8 61.6 77.8 41.5C77.8 21.5 61.5 5.2 41.5 5.2Z" fill="currentColor"/>
    <path fill-rule="evenodd" clip-rule="evenodd" d="M35.7004 64.1C34.4004 62.8 33.2004 61.6 31.9004 60.3C38.1004 54.1 44.4004 47.8 50.7004 41.6C44.5004 35.2 38.2004 28.9 32.0004 22.6C33.2004 21.4 34.4004 20.2 35.6004 19C35.7004 19.1 35.9004 19.3 36.1004 19.5C42.7004 26.1 49.3004 32.7 55.9004 39.3C57.5004 40.9 57.5004 42.2 55.9004 43.8C49.3004 50.4 42.8004 56.9 36.2004 63.5C36.0004 63.7 35.9004 63.9 35.7004 64.1Z" fill="currentColor"/>
  </g>
  <defs>
    <clipPath id="clip0_342_215829">
      <rect width="83" height="83" fill="white"/>
    </clipPath>
  </defs>
</svg>
