<svg width="18" height="18" viewBox="0 0 18 18" fill="none"
  xmlns="http://www.w3.org/2000/svg">
  <path fill-rule="evenodd" clip-rule="evenodd" d="M0 9C0 4.05 4.05 0 9 0C13.95 0 18 4.05 18 9C18 13.95 13.95 18 9 18C4.05 18 0 13.95 0 9ZM12.3 13.65V11.4H9.9L10.05 11.25C10.35 10.95 10.65 10.5 10.95 10.05C11.4 9.6 11.85 9 12 8.4C12.45 6.9 12 5.25 10.2 4.65C9.45 4.35 8.7 4.35 7.8 4.65C6.9 4.8 6.3 5.4 6 6.3C5.85 6.75 5.85 7.05 5.85 7.5H8.25C8.25 7.35 8.25 7.2 8.25 7.05C8.25 6.75 8.55 6.45 9 6.45C9.45 6.45 9.75 6.75 9.75 7.2C9.75 7.5 9.75 7.8 9.6 7.95C9.45 8.4 9.3 8.7 9 9C7.95 10.2 6.9 11.55 5.85 12.9C5.7 13.05 5.7 13.35 5.7 13.65H12.3Z" fill="black"/>
</svg>
