<svg width="16" height="16" viewBox="0 0 16 16" fill="none"
  xmlns="http://www.w3.org/2000/svg">
  <g clip-path="url(#clip0_336_9787)">
    <path fill-rule="evenodd" clip-rule="evenodd" d="M7.05863 8.76593C6.33138 8.72315 5.60414 8.76593 4.91968 8.76593C3.55075 8.76593 2.26738 8.76593 0.898454 8.76593C0.812896 8.76593 0.770117 8.72315 0.770117 8.63759C0.770117 8.2098 0.812896 7.73923 0.770117 7.26866C0.770117 7.1831 0.812896 7.14032 0.898454 7.14032C2.95184 7.14032 5.00524 7.14032 7.01585 7.1831C7.10141 7.1831 7.18696 7.1831 7.18696 7.01199C7.18696 4.9586 7.18696 2.9052 7.14419 0.894592C7.18696 0.766256 7.18696 0.766256 7.3153 0.723477C7.74309 0.723477 8.21366 0.766256 8.68423 0.723477C8.76979 0.723477 8.81257 0.766256 8.81257 0.851813C8.81257 2.9052 8.81257 4.9586 8.76979 6.96921C8.76979 7.14032 8.76979 7.14032 8.9409 7.14032C10.9943 7.14032 13.0477 7.14032 15.0155 7.14032C15.1011 7.14032 15.1439 7.1831 15.1866 7.31144C15.1866 7.73923 15.1866 8.16702 15.1866 8.68037C15.1866 8.76593 15.1439 8.8087 15.0583 8.8087C13.0049 8.8087 10.9515 8.8087 8.9409 8.76593C8.85534 8.76593 8.76979 8.76593 8.76979 8.93704C8.76979 10.9904 8.76979 13.0438 8.81257 15.0544C8.81257 15.14 8.76979 15.1828 8.68423 15.1828C8.25644 15.1828 7.78587 15.14 7.3153 15.1828C7.22974 15.1828 7.18696 15.14 7.18696 15.0544C7.18696 13.001 7.18696 10.9477 7.18696 8.89426L7.18696 8.8087C7.14419 8.76593 7.05863 8.76593 7.05863 8.76593Z" fill="#727272"/>
  </g>
  <defs>
    <clipPath id="clip0_336_9787">
      <rect width="11.2527" height="11.2527" fill="white" transform="translate(0 7.95312) rotate(-45)"/>
    </clipPath>
  </defs>
</svg>
