<svg width="16" height="16" viewBox="0 0 14 14" fill="none" xmlns="http://www.w3.org/2000/svg">
<path d="M12.8891 8.35867L11.7116 7.45288C11.7116 7.27173 11.7116 7.18115 11.7116 6.99999C11.7116 6.81883 11.7116 6.63767 11.7116 6.5471L12.8891 5.64131C13.1609 5.46015 13.1609 5.18842 13.0703 4.91668L11.8928 2.83337C11.8022 2.56163 11.4399 2.47105 11.1681 2.56163L9.80945 3.1051C9.53771 2.92395 9.26597 2.74279 8.99424 2.65221L8.7225 1.29353C8.7225 1.02179 8.45076 0.840637 8.17903 0.840637H5.82398C5.46167 0.840637 5.28051 1.02179 5.18993 1.29353L5.00877 2.74279C4.73704 2.83337 4.4653 3.01453 4.19356 3.19568L2.83488 2.65221C2.56315 2.56163 2.29141 2.65221 2.11025 2.92395L0.932731 4.91668C0.751573 5.18842 0.842152 5.46015 1.02331 5.64131L2.20083 6.5471C2.20083 6.72825 2.20083 6.90941 2.20083 6.99999C2.20083 7.18115 2.20083 7.27173 2.20083 7.45288L1.02331 8.35867C0.842152 8.53983 0.751573 8.81156 0.932731 9.0833L2.11025 11.1666C2.20083 11.4383 2.56315 11.5289 2.83488 11.4383L4.19356 10.8949C4.4653 11.076 4.73704 11.2572 5.00877 11.3478L5.18993 12.797C5.18993 13.0688 5.46167 13.2499 5.7334 13.2499H8.17903C8.45076 13.2499 8.7225 13.0688 8.7225 12.797L8.99424 11.2572C9.26597 11.1666 9.53771 10.9855 9.80945 10.8043L11.1681 11.3478C11.2587 11.3478 11.2587 11.3478 11.3493 11.3478C11.5304 11.3478 11.7116 11.2572 11.8022 11.076L13.0703 9.0833C13.1609 8.81156 13.1609 8.53983 12.8891 8.35867ZM7.00151 9.0833C5.82398 9.0833 4.91819 8.17751 4.91819 6.99999C4.91819 5.91305 5.82398 4.91668 7.00151 4.91668C8.17903 4.91668 9.08482 5.82247 9.08482 6.99999C9.08482 8.17751 8.17903 9.0833 7.00151 9.0833Z" stroke="black" stroke-width="0.7" stroke-miterlimit="10"/>
</svg>
