<svg width="53" height="53" viewBox="0 0 53 53" fill="none" xmlns="http://www.w3.org/2000/svg">
<g id="&#240;&#159;&#167;&#145;&#226;&#128;&#141;&#240;&#159;&#142;&#147; &#237;&#149;&#153;&#236;&#131;&#157;" clip-path="url(#clip0_881_34)">
<g id="Group">
<g id="Group_2">
<g id="Group_3">
<path id="Vector" d="M30.7773 32.6296H35.5615C36.611 32.6296 37.5043 31.8665 37.6671 30.83L38.3507 26.499C37.7569 26.7777 37.0967 26.9522 36.387 26.9587C35.275 29.4731 33.2671 31.4837 30.7773 32.6296Z" fill="#FF9000"/>
<path id="Vector_2" d="M15.8133 26.9585C14.8888 26.9494 14.0345 26.6799 13.3262 26.228L14.5176 31.0134C14.7546 31.964 15.6075 32.6307 16.5868 32.6307H21.4282C18.9346 31.49 16.924 29.4795 15.8133 26.9585Z" fill="#FF9000"/>
<path id="Vector_3" d="M30.1504 17.9554C32.5607 19.1325 35.1559 20.0206 37.3383 19.8748C37.4685 19.8656 37.6196 19.8201 37.7693 19.7576C38.1482 19.544 38.4673 19.169 38.7615 19.2133C38.7746 19.2159 38.7889 19.2068 38.8019 19.2107C38.8214 17.9007 38.6313 16.6376 38.2889 15.437C38.229 15.4696 38.1808 15.5151 38.1118 15.536L30.1504 17.9554Z" fill="#FF9000"/>
<path id="Vector_4" d="M14.9987 21.3359L18.8804 16.9919L14.0871 15.5348C13.8241 15.4553 13.6314 15.2717 13.5077 15.053C13.2446 15.8903 13.0558 16.7588 12.9712 17.656C12.9139 18.2719 12.8983 18.88 12.9243 19.4764C12.9243 19.4764 12.9751 19.4699 13.0493 19.4686C13.3553 19.4673 14.2121 19.6274 14.9987 21.3359Z" fill="#FF9000"/>
</g>
<path id="Vector_5" d="M37.3387 19.8748C35.1563 20.0194 32.5611 19.1313 30.1508 17.9555L26.7483 18.9894C26.325 19.1183 25.8732 19.1183 25.45 18.9894L18.8806 16.9932L14.9989 21.3372C14.2111 19.6287 13.3556 19.4699 13.0496 19.4712C12.0235 20.2407 11.3594 21.414 11.3594 22.7409C11.3594 24.1928 12.1368 25.4702 13.3256 26.2294C14.034 26.6825 14.8895 26.9507 15.8127 26.9599C16.9222 29.4808 18.934 31.4901 21.4276 32.6308C22.0644 32.9224 22.7246 33.1711 23.4173 33.3404V37.0516C23.4173 38.536 24.6283 39.747 26.1128 39.747C27.5973 39.747 28.8083 38.536 28.8083 37.0516V33.3404C29.4945 33.1698 30.1469 32.9211 30.7771 32.6308C33.2668 31.4849 35.2748 29.4743 36.3868 26.9599C37.0965 26.952 37.7567 26.7789 38.3505 26.5002C39.8245 25.8075 40.8402 24.3933 40.8402 22.7409C40.8402 21.2538 40.0068 19.9608 38.7606 19.2146C38.4677 19.1704 38.1473 19.5454 37.7684 19.7589C37.6199 19.8227 37.4689 19.8683 37.3374 19.8761L37.3387 19.8748Z" fill="#FFC84D"/>
<g id="Group_4">
<path id="Vector_6" d="M22.9454 23.3216C23.6056 23.3216 24.1408 22.6791 24.1408 21.8866C24.1408 21.0941 23.6056 20.4517 22.9454 20.4517C22.2852 20.4517 21.75 21.0941 21.75 21.8866C21.75 22.6791 22.2852 23.3216 22.9454 23.3216Z" fill="black"/>
<path id="Vector_7" d="M29.2559 23.3216C29.9161 23.3216 30.4513 22.6791 30.4513 21.8866C30.4513 21.0941 29.9161 20.4517 29.2559 20.4517C28.5957 20.4517 28.0605 21.0941 28.0605 21.8866C28.0605 22.6791 28.5957 23.3216 29.2559 23.3216Z" fill="black"/>
</g>
<path id="Vector_8" d="M27.5863 27.542C27.8545 27.542 28.0459 27.7998 27.9743 28.0589C27.7478 28.8819 26.9938 29.4861 26.0992 29.4861C25.2046 29.4861 24.4507 28.8819 24.2241 28.0589C24.1525 27.7998 24.3439 27.542 24.6122 27.542H27.5863Z" fill="#5C2F17"/>
</g>
<path id="Vector_9" d="M43.5907 48.0887L42.9305 45.405C42.674 44.3606 42.3341 43.3293 41.7989 42.397C40.4942 40.1247 38.4355 38.3499 35.9483 37.4045L30.7814 35.4409C30.1368 35.1961 29.4753 35.0138 28.8073 34.8744V37.0503C28.8073 38.5348 27.5963 39.7458 26.1119 39.7458C24.6274 39.7458 23.4164 38.5348 23.4164 37.0503V34.8679C22.7393 35.0086 22.07 35.1922 21.4163 35.4409L16.2493 37.4045C13.7622 38.3499 11.7035 40.1234 10.3987 42.397C9.86356 43.3293 9.525 44.3619 9.26718 45.405L8.60698 48.0887C8.50672 48.495 8.81403 48.8869 9.23202 48.8869H42.9657C43.3837 48.8869 43.691 48.495 43.5907 48.0887Z" fill="#333333"/>
<path id="Vector_10" d="M44.2342 7.41974L26.8699 3.39869C26.3634 3.28149 25.836 3.28149 25.3295 3.39869L7.96524 7.41974C7.68918 7.48355 7.68137 7.87289 7.95482 7.94842L10.0838 8.53309V8.36381C10.0838 8.22057 10.188 8.09035 10.3313 8.05129L22.4022 5.19957C22.5715 5.1605 22.7408 5.26468 22.7799 5.43396C22.832 5.61626 22.7148 5.78554 22.5455 5.8246L10.7219 8.62424V8.70888L15.3498 9.98108L13.4551 14.1298C13.3119 14.4436 13.3536 14.7795 13.5098 15.0543C13.6348 15.273 13.8262 15.4566 14.0893 15.5361L18.8825 16.9932L25.4519 18.9894C25.8751 19.1183 26.3269 19.1183 26.7501 18.9894L30.1527 17.9555L38.1127 15.5361C38.1805 15.5152 38.2299 15.4697 38.2898 15.4371C38.7521 15.1871 38.9761 14.6298 38.7469 14.1298L36.8523 9.98108L44.2472 7.94842C44.5207 7.87289 44.5115 7.48355 44.2368 7.41974H44.2342Z" fill="#262626"/>
<path id="Vector_11" d="M22.5437 5.82464C22.713 5.78558 22.8302 5.6163 22.7781 5.43399C22.739 5.26471 22.5698 5.16054 22.4005 5.19961L10.3295 8.05133C10.1863 8.09039 10.0821 8.22061 10.0821 8.36385V16.0466C9.56122 16.1768 9.18359 16.6586 9.18359 17.2185C9.18359 17.8956 9.7305 18.4425 10.4076 18.4425C11.0847 18.4425 11.6316 17.8956 11.6316 17.2185C11.6316 16.6456 11.241 16.1768 10.7201 16.0335V8.62428L22.5437 5.82464Z" fill="#FFAA00"/>
</g>
</g>
<defs>
<clipPath id="clip0_881_34">
<rect width="52.0862" height="52.0862" fill="white" transform="translate(0.0566406 0.0561523)"/>
</clipPath>
</defs>
</svg>
