<svg width="24" height="24" viewBox="0 0 19 19" fill="none" xmlns="http://www.w3.org/2000/svg">
<path d="M18.9654 19C12.6419 19 6.32344 19 0 19C0 12.6815 0 6.35807 0 0.0395833C6.31849 0.0395833 12.632 0.0395833 18.9654 0.0395833C18.9654 6.37292 18.9654 12.6865 18.9654 19ZM1.12318 5.61589C1.12318 9.71276 1.12318 13.7948 1.12318 17.8768C2.24141 17.8768 3.33984 17.8768 4.45313 17.8768C4.45313 13.7849 4.45313 9.70781 4.45313 5.61589C3.33984 5.61589 2.23646 5.61589 1.12318 5.61589ZM5.59115 4.47786C9.69297 4.47786 13.7651 4.47786 17.8422 4.47786C17.8422 3.35964 17.8422 2.2612 17.8422 1.15781C13.7552 1.15781 9.67813 1.15781 5.59115 1.15781C5.59115 2.27109 5.59115 3.36953 5.59115 4.47786ZM4.45313 4.48776C4.45313 3.37448 4.45313 2.26615 4.45313 1.16276C3.32995 1.16276 2.22656 1.16276 1.12318 1.16276C1.12318 2.28099 1.12318 3.37943 1.12318 4.48776C2.23646 4.48776 3.33984 4.48776 4.45313 4.48776ZM8.91615 5.62083C7.79792 5.62083 6.69948 5.62083 5.59115 5.62083C5.59115 6.73906 5.59115 7.84245 5.59115 8.95573C6.70443 8.95573 7.80781 8.95573 8.91615 8.95573C8.91615 7.84245 8.91615 6.73906 8.91615 5.62083ZM13.3693 8.95573C13.3693 7.83255 13.3693 6.72917 13.3693 5.62083C12.251 5.62083 11.1477 5.62083 10.0492 5.62083C10.0492 6.73906 10.0492 7.8474 10.0492 8.95573C11.1625 8.95573 12.2609 8.95573 13.3693 8.95573ZM14.5122 5.61589C14.5122 6.73906 14.5122 7.8375 14.5122 8.95078C15.6255 8.95078 16.7339 8.95078 17.8422 8.95078C17.8422 7.83255 17.8422 6.72917 17.8422 5.61589C16.7289 5.61589 15.6305 5.61589 14.5122 5.61589ZM5.59115 14.5469C5.59115 15.6651 5.59115 16.7685 5.59115 17.8768C6.70443 17.8768 7.80781 17.8768 8.9112 17.8768C8.9112 16.7586 8.9112 15.6552 8.9112 14.5469C7.79792 14.5469 6.69948 14.5469 5.59115 14.5469ZM13.3792 17.8818C13.3792 16.7635 13.3792 15.6602 13.3792 14.5469C12.2609 14.5469 11.1576 14.5469 10.0542 14.5469C10.0542 15.6651 10.0542 16.7734 10.0542 17.8818C11.1625 17.8818 12.2609 17.8818 13.3792 17.8818ZM17.8471 17.8768C17.8471 16.7635 17.8471 15.6602 17.8471 14.5469C16.7339 14.5469 15.6305 14.5469 14.5122 14.5469C14.5122 15.6602 14.5122 16.7635 14.5122 17.8768C15.6206 17.8768 16.724 17.8768 17.8471 17.8768ZM8.91615 10.0839C7.79792 10.0839 6.69948 10.0839 5.59115 10.0839C5.59115 11.1971 5.59115 12.3055 5.59115 13.4138C6.70443 13.4138 7.80781 13.4138 8.91615 13.4138C8.91615 12.3005 8.91615 11.2021 8.91615 10.0839ZM13.3742 13.4188C13.3742 12.2956 13.3742 11.1922 13.3742 10.0839C12.256 10.0839 11.1576 10.0839 10.0492 10.0839C10.0492 11.2021 10.0492 12.3055 10.0492 13.4188C11.1576 13.4188 12.256 13.4188 13.3742 13.4188ZM14.5073 13.4089C15.6305 13.4089 16.7339 13.4089 17.8422 13.4089C17.8422 12.2906 17.8422 11.1922 17.8422 10.0839C16.724 10.0839 15.6206 10.0839 14.5073 10.0839C14.5073 11.1971 14.5073 12.2906 14.5073 13.4089Z" fill="black"/>
<path d="M18.9654 19C18.9654 12.6865 18.9654 6.37292 18.9654 0.0395833C12.637 0.0395833 6.31849 0.0395833 0 0.0395833C0.0494792 0.0247396 0.0989583 0 0.148438 0C0.880729 0 1.61797 0 2.35026 0C7.90182 0 13.4484 0 19 0C19 6.2789 19 12.5578 19 18.8318C19 18.8911 18.9753 18.9456 18.9654 19Z" fill="black"/>
</svg>
