<svg width="100%" height="100%" viewBox="0 0 24 24" fill="none" xmlns="http://www.w3.org/2000/svg">
<path d="M10.9053 4.16905C11.5707 3.73336 12.4313 3.73336 13.0967 4.16905L20.0898 8.74815C20.6541 9.11764 20.9941 9.74652 20.9941 10.421V21.0001C20.9941 21.5524 20.5464 22.0001 19.9941 22.0001H15.249C14.6967 22.0001 14.249 21.5524 14.249 21.0001V15.6935C14.249 15.1412 13.8013 14.6935 13.249 14.6935H10.7529C10.2006 14.6935 9.75293 15.1412 9.75293 15.6935V21.0001C9.75293 21.5524 9.30521 22.0001 8.75293 22.0001H4.00781C3.45553 22.0001 3.00781 21.5524 3.00781 21.0001V10.421C3.00789 9.74652 3.34782 9.11764 3.91211 8.74815L10.9053 4.16905Z" fill="currentColor"/>
</svg>
