<svg viewBox="0 0 28 28" fill="none" xmlns="http://www.w3.org/2000/svg">
<path d="M5.6666 11.5238C5.6666 10.0201 6.03557 8.62768 6.77353 7.3467C7.52541 6.06572 8.54184 5.05625 9.82282 4.3183C11.1038 3.56642 12.4962 3.19048 13.9999 3.19048C15.5176 3.19048 16.91 3.56642 18.177 4.3183C19.458 5.05625 20.4675 6.06572 21.2054 7.3467C21.9573 8.62768 22.3333 10.0201 22.3333 11.5238V22.2381H5.6666V11.5238ZM23.5237 19.8571C23.8579 19.8571 24.1364 19.9755 24.3592 20.2122C24.5959 20.435 24.7142 20.7134 24.7142 21.0476C24.7142 21.3679 24.5959 21.6463 24.3592 21.883C24.1364 22.1197 23.8579 22.2381 23.5237 22.2381H21.1428C20.8225 22.2381 20.5441 22.1197 20.3074 21.883C20.0707 21.6463 19.9523 21.3679 19.9523 21.0476C19.9523 20.7134 20.0707 20.435 20.3074 20.2122C20.5441 19.9755 20.8225 19.8571 21.1428 19.8571H23.5237ZM4.47612 22.2381C4.15588 22.2381 3.8774 22.1197 3.6407 21.883C3.404 21.6463 3.28564 21.3679 3.28564 21.0476C3.28564 20.7134 3.404 20.435 3.6407 20.2122C3.8774 19.9755 4.15588 19.8571 4.47612 19.8571H6.85707C7.19124 19.8571 7.46972 19.9755 7.69249 20.2122C7.9292 20.435 8.04755 20.7134 8.04755 21.0476C8.04755 21.3679 7.9292 21.6463 7.69249 21.883C7.46972 22.1197 7.19124 22.2381 6.85707 22.2381H4.47612ZM13.9999 24.619C13.9999 24.2849 14.1183 24.0064 14.355 23.7836C14.5917 23.5469 14.8702 23.4286 15.1904 23.4286C15.5246 23.4286 15.803 23.5469 16.0258 23.7836C16.2625 24.0064 16.3809 24.2849 16.3809 24.619C16.3809 25.0368 16.2695 25.4336 16.0467 25.8095C15.8379 26.1715 15.5524 26.4639 15.1904 26.6867C14.8284 26.8956 14.4316 27 13.9999 27C13.5822 27 13.1854 26.8956 12.8095 26.6867C12.4474 26.4639 12.155 26.1715 11.9323 25.8095C11.7234 25.4336 11.619 25.0368 11.619 24.619C11.619 24.2849 11.7373 24.0064 11.974 23.7836C12.2107 23.5469 12.4892 23.4286 12.8095 23.4286C13.1436 23.4286 13.4221 23.5469 13.6449 23.7836C13.8816 24.0064 13.9999 24.2849 13.9999 24.619C13.9999 24.6887 13.986 24.7235 13.9582 24.7235C13.9303 24.7096 13.9094 24.6887 13.8955 24.6608C13.8955 24.633 13.9303 24.619 13.9999 24.619C14.0695 24.619 14.0974 24.633 14.0835 24.6608C14.0835 24.6887 14.0695 24.7096 14.0417 24.7235C14.0139 24.7235 13.9999 24.6887 13.9999 24.619ZM11.619 4.38095C11.619 3.94932 11.7234 3.55249 11.9323 3.19048C12.155 2.82846 12.4474 2.54303 12.8095 2.33417C13.1854 2.11139 13.5822 2 13.9999 2C14.4316 2 14.8284 2.11139 15.1904 2.33417C15.5524 2.54303 15.8379 2.82846 16.0467 3.19048C16.2695 3.55249 16.3809 3.94932 16.3809 4.38095V5.88471C15.1138 5.67586 14.3202 5.57143 13.9999 5.57143C13.6797 5.57143 12.886 5.67586 11.619 5.88471V4.38095ZM12.8095 25.8095C12.4892 25.8095 12.2107 25.6912 11.974 25.4545C11.7373 25.2178 11.619 24.9393 11.619 24.619C11.619 24.2849 11.7373 24.0064 11.974 23.7836C12.2107 23.5469 12.4892 23.4286 12.8095 23.4286H15.1904C15.5246 23.4286 15.803 23.5469 16.0258 23.7836C16.2625 24.0064 16.3809 24.2849 16.3809 24.619C16.3809 24.9393 16.2625 25.2178 16.0258 25.4545C15.803 25.6912 15.5246 25.8095 15.1904 25.8095H12.8095ZM15.1904 24.619C15.1904 24.9393 15.0721 25.2178 14.8354 25.4545C14.5986 25.6912 14.3202 25.8095 13.9999 25.8095C13.6797 25.8095 13.4012 25.6912 13.1645 25.4545C12.9278 25.2178 12.8095 24.9393 12.8095 24.619H15.1904Z" fill="#C9CED8"/>
</svg>
