<svg width="100%" height="100%" viewBox="0 0 72 54" fill="none" xmlns="http://www.w3.org/2000/svg">
<path id="Vector 9288 (Stroke)" fill-rule="evenodd" clip-rule="evenodd" d="M9.38957 16.4736L36.4572 26.4414L62.4116 16.4696L36.4582 6.49828L9.38957 16.4736ZM12.0773 23.6597L0 19.1959L0.00257152 13.7424L35.4807 0.667969L37.5152 0.681953L71.5452 13.7564V19.1829L37.5152 32.2573L35.4823 32.2719L18.1531 25.8976L19.6989 39.8543C21.0661 41.1956 23.2661 42.9985 25.9672 44.5435C29.1485 46.3632 32.8106 47.703 36.4794 47.703C45.552 47.703 49.9967 42.9377 52.625 39.8438L54.6447 30.388L60.3085 31.6056L58.1364 41.7746L57.5154 43.0425C57.4789 43.0858 57.4418 43.1299 57.4041 43.1745C54.6108 46.489 48.6905 53.5139 36.4794 53.5139C31.4596 53.5139 26.7952 51.7062 23.0981 49.5914C19.3944 47.4729 16.4467 44.9239 14.8021 43.1365L14.0517 41.4867L12.0773 23.6597Z" fill="#10E4D5"/>
</svg>
