<svg width="88" height="26" viewBox="0 0 88 26" fill="none" xmlns="http://www.w3.org/2000/svg">
<path fill-rule="evenodd" clip-rule="evenodd" d="M4.46215 7.77633L17.3254 12.6804L29.6595 7.77437L17.3258 2.86849L4.46215 7.77633ZM5.7394 11.3118L0 9.11569L0.00122205 6.43258L16.8613 0L17.8281 0.00688002L34 6.43946V9.10928L17.8281 15.5419L16.8621 15.549L8.62679 12.4129L9.3614 19.2795C10.0111 19.9394 11.0566 20.8265 12.3402 21.5866C13.8521 22.4819 15.5924 23.1411 17.3359 23.1411C21.6474 23.1411 23.7596 20.7965 25.0086 19.2744L25.9685 14.6222L28.66 15.2212L27.6278 20.2243L27.3327 20.8481C27.3153 20.8694 27.2977 20.8911 27.2798 20.9131C25.9524 22.5438 23.1389 26 17.3359 26C14.9504 26 12.7337 25.1106 10.9768 24.0702C9.2167 23.0279 7.81585 21.7737 7.03429 20.8944L6.67771 20.0826L5.7394 11.3118Z" fill="#10E4D5"/>
<path d="M55.0957 5.10352V11.2207H57.3633V13.1016H55.0957V21.0996H52.8281V5.10352H55.0957ZM50.8066 6.75586C50.8066 11.5459 48.9521 15.6592 43.582 18.3398L42.3164 16.6172C46.0254 14.7188 48.0732 12.1963 48.5039 8.58398H43.1953V6.75586H50.8066ZM65.0892 14.8945C68.4379 14.8945 70.5384 16.0635 70.5384 18.0059C70.5384 19.9746 68.4466 21.1348 65.0892 21.1348C61.7406 21.1348 59.6312 19.9746 59.6224 18.0059C59.6312 16.0635 61.7406 14.8945 65.0892 14.8945ZM65.0892 16.6875C63.0238 16.6875 61.89 17.1006 61.89 18.0059C61.89 18.9287 63.015 19.3682 65.0892 19.3594C67.181 19.3682 68.2972 18.9287 68.2884 18.0059C68.2972 17.1006 67.1634 16.6875 65.0892 16.6875ZM70.3451 5.12109V8.84766H72.5072V10.7109H70.3451V14.543H68.0775V5.12109H70.3451ZM60.3959 6.12305V8.10938H63.6302V6.12305H65.8802V13.6465H58.1283V6.12305H60.3959ZM60.3959 11.8711H63.6302V9.88477H60.3959V11.8711ZM87.4753 12.293V14.1211H72.8503V12.293H76.5241C77.1218 10.3594 77.28 8.88281 77.3327 7.77539H74.2038V5.96484H79.5476V6.70312C79.5564 7.88965 79.5739 9.69141 78.8445 12.293H82.9753C83.4411 10.3682 83.5642 8.8916 83.6081 7.77539H80.4968V5.96484H85.823V6.73828C85.823 7.87207 85.8318 9.7002 85.2253 12.293H87.4753ZM86.1042 18.9727V20.8008H74.6433V15.4219H76.9109V18.9727H86.1042Z" fill="#464D57"/>
</svg>
