<svg viewBox="0 0 28 28" fill="none" xmlns="http://www.w3.org/2000/svg">
<path d="M8.63353 8.59316C8.63353 7.55384 8.88998 6.5955 9.40289 5.71816C9.9158 4.84081 10.6109 4.14568 11.4883 3.63277C12.3656 3.11986 13.324 2.8634 14.3633 2.8634C15.4026 2.8634 16.3609 3.11986 17.2383 3.63277C18.1156 4.14568 18.8108 4.84081 19.3237 5.71816C19.8366 6.5955 20.093 7.55384 20.093 8.59316C20.093 9.63248 19.8366 10.5908 19.3237 11.4682C18.8108 12.3455 18.1156 13.0406 17.2383 13.5535C16.3609 14.0665 15.4026 14.3229 14.3633 14.3229C13.324 14.3229 12.3656 14.0665 11.4883 13.5535C10.6109 13.0406 9.9158 12.3455 9.40289 11.4682C8.88998 10.5908 8.63353 9.63248 8.63353 8.59316ZM2.86328 21.2877C2.86328 20.1674 3.38294 19.1753 4.42226 18.3115C5.47508 17.4341 6.87883 16.7592 8.63353 16.2868C10.4017 15.8009 12.3116 15.5579 14.3633 15.5579C16.4149 15.5579 18.3181 15.8009 20.0728 16.2868C21.841 16.7592 23.2447 17.4341 24.2841 18.3115C25.3369 19.1753 25.8633 20.1674 25.8633 21.2877C25.8633 22.1111 25.6541 22.8737 25.2356 23.5756C24.8307 24.2774 24.2773 24.8376 23.5754 25.256C22.8736 25.6609 22.1109 25.8634 21.2876 25.8634H7.43899C6.61563 25.8634 5.85301 25.6609 5.15113 25.256C4.44926 24.8376 3.8891 24.2774 3.47068 23.5756C3.06575 22.8737 2.86328 22.1111 2.86328 21.2877Z" fill="#C9CED8"/>
</svg>
