<svg width="20" height="20" viewBox="0 0 20 20" fill="none" xmlns="http://www.w3.org/2000/svg">
<path d="M9.75514 17.4899C10.0007 18.2657 11.0986 18.2657 11.3441 17.4899L11.6872 16.4059C11.7691 16.1473 11.9716 15.9447 12.2302 15.8629L13.3142 15.5198C14.09 15.2742 14.09 14.1763 13.3142 13.9308L12.2302 13.5877C11.9716 13.5058 11.7691 13.3033 11.6872 13.0447L11.3441 11.9607C11.0986 11.1849 10.0007 11.1849 9.75514 11.9607L9.41205 13.0447C9.3302 13.3033 9.12762 13.5058 8.86903 13.5877L7.78505 13.9308C7.00922 14.1763 7.00922 15.2742 7.78505 15.5198L8.86903 15.8629C9.12762 15.9447 9.3302 16.1473 9.41205 16.4059L9.75514 17.4899Z" fill="#2DDACE"/>
<path d="M15.1892 11.6182C15.3856 12.2389 16.2639 12.2389 16.4603 11.6182L16.7242 10.7844C16.7897 10.5776 16.9518 10.4155 17.1587 10.35L17.9925 10.0861C18.6131 9.88966 18.6131 9.01137 17.9925 8.81493L17.1587 8.55102C16.9518 8.48555 16.7897 8.32348 16.7242 8.1166L16.4603 7.28281C16.2639 6.66215 15.3856 6.66215 15.1892 7.28281L14.9253 8.1166C14.8598 8.32348 14.6977 8.48555 14.4908 8.55102L13.657 8.81493C13.0364 9.01137 13.0364 9.88966 13.657 10.0861L14.4908 10.35C14.6977 10.4155 14.8598 10.5776 14.9253 10.7844L15.1892 11.6182Z" fill="#10E4D5"/>
<path d="M5.79892 10.6767C6.04448 11.4526 7.14234 11.4526 7.38789 10.6767L8.04802 8.59112C8.12986 8.33252 8.33245 8.12994 8.59104 8.04809L10.6767 7.38797C11.4525 7.14241 11.4525 6.04455 10.6767 5.799L8.59104 5.13887C8.33245 5.05702 8.12986 4.85444 8.04802 4.59585L7.38789 2.51022C7.14234 1.7344 6.04448 1.7344 5.79892 2.51022L5.1388 4.59585C5.05695 4.85444 4.85437 5.05702 4.59577 5.13887L2.51015 5.799C1.73432 6.04455 1.73432 7.14241 2.51014 7.38797L4.59577 8.04809C4.85437 8.12994 5.05695 8.33252 5.1388 8.59112L5.79892 10.6767Z" fill="#22C6BB"/>
</svg>
