<svg width="32" height="32" viewBox="0 0 32 32" fill="none" xmlns="http://www.w3.org/2000/svg">
<g clip-path="url(#clip0_4542_10949)">
<path fill-rule="evenodd" clip-rule="evenodd" d="M6.37495 4.64545L19.7606 6.92145L13.8198 12.8623L3.30855 7.34385C2.90935 7.13425 2.82775 6.59745 3.14695 6.27905L4.03655 5.39025C4.64935 4.77745 5.52055 4.49985 6.37495 4.64545Z" fill="#93C9FF"/>
<path fill-rule="evenodd" clip-rule="evenodd" d="M25.0764 12.2391L27.354 25.6247C27.4996 26.4799 27.2212 27.3519 26.6084 27.9647L25.7196 28.8527C25.4004 29.1711 24.8644 29.0895 24.6548 28.6903L19.1372 18.1791L25.0764 12.2391Z" fill="#93C9FF"/>
<path fill-rule="evenodd" clip-rule="evenodd" d="M28.9902 8.32697L15.0454 22.2718V25.879C15.0454 26.5886 14.7638 27.2686 14.2622 27.7702L12.2286 29.8038C11.839 30.1934 11.1718 29.971 11.0942 29.4254L10.0998 22.4678C10.0574 22.1734 9.82697 21.9422 9.53257 21.9006L2.57497 20.9062C2.02937 20.8286 1.80697 20.1614 2.19657 19.7718L4.23017 17.739C4.73177 17.2374 5.41177 16.9558 6.12057 16.9558H9.72777L23.6726 3.01097C25.1542 1.62857 27.4646 1.66857 28.8974 3.10217C30.331 4.53417 30.3718 6.84457 28.9902 8.32697Z" fill="#C8E1FF"/>
</g>
<defs>
<clipPath id="clip0_4542_10949">
<rect width="32" height="32" fill="white"/>
</clipPath>
</defs>
</svg>
