<svg width="32" height="32" viewBox="0 0 32 32" fill="none" xmlns="http://www.w3.org/2000/svg">
<g clip-path="url(#clip0_4542_19750)">
<path d="M30 10.2133V19.6797H2V10.2133C2 8.74048 3.1936 7.54688 4.6664 7.54688H27.3328C28.8056 7.54688 30 8.74048 30 10.2133Z" fill="#C3846C"/>
<path d="M30 19.6797V25.6797C30 27.1525 28.8064 28.3461 27.3336 28.3461H4.6664C3.1936 28.3461 2 27.1525 2 25.6797V19.6797H30Z" fill="#956759"/>
<path d="M22.3337 7.54692H20.3337C20.3337 5.95092 19.0353 4.65332 17.4401 4.65332H14.5601C12.9649 4.65332 11.6665 5.95172 11.6665 7.54692H9.6665C9.6665 4.84852 11.8617 2.65332 14.5601 2.65332H17.4401C20.1385 2.65332 22.3337 4.84852 22.3337 7.54692Z" fill="#C3846C"/>
<path d="M18.6664 19.6523C18.6664 20.7275 17.7944 21.5995 16.7192 21.5995H15.2792C14.204 21.5995 13.332 20.7275 13.332 19.6523H18.6664Z" fill="#FFC33A"/>
</g>
<defs>
<clipPath id="clip0_4542_19750">
<rect width="32" height="32" fill="white"/>
</clipPath>
</defs>
</svg>
