<svg viewBox="0 0 32 32" fill="none" xmlns="http://www.w3.org/2000/svg">
<g clip-path="url(#clip0_4246_1650)">
<path d="M17.1998 20H14.7998V25.3336H17.1998V20Z" fill="#FFAA00"/>
<path d="M23.7392 16.1963C22.7712 16.1963 21.804 15.9299 20.8824 15.3971C18.5472 14.0467 16.916 11.2019 16.916 8.47951V7.56271L23.2984 5.82031H28.0024C29.1048 5.82031 30.0024 6.71791 30.0024 7.82031V9.26511C30.0024 11.8379 28.692 14.1907 26.5832 15.4043C25.6664 15.9323 24.7032 16.1955 23.74 16.1955L23.7392 16.1963ZM19.4032 9.37231C19.704 10.9587 20.7568 12.5523 22.084 13.3195C23.1792 13.9531 24.2904 13.9539 25.3856 13.3243C26.7528 12.5371 27.6024 10.9819 27.6024 9.26511V8.22031H23.62L19.4032 9.37151V9.37231Z" fill="#FFCD00"/>
<path d="M8.26076 16.1963C7.29756 16.1963 6.33436 15.9323 5.41676 15.4043C3.30796 14.1907 1.99756 11.8379 1.99756 9.26511V7.82031C1.99756 6.71791 2.89516 5.82031 3.99756 5.82031H8.70156L15.084 7.56271V8.47951C15.084 11.2019 13.4528 14.0467 11.1176 15.3971C10.1968 15.9299 9.22876 16.1963 8.26076 16.1963ZM4.39756 8.22111V9.26591C4.39756 10.9827 5.24716 12.5379 6.61436 13.3251C7.71036 13.9555 8.82076 13.9539 9.91596 13.3203C11.2432 12.5531 12.296 10.9595 12.5968 9.37311L8.37996 8.22191H4.39756V8.22111Z" fill="#FFCD00"/>
<path d="M25.6625 13.27C25.6625 18.658 21.2529 23.0156 15.8457 22.9316C10.5105 22.8484 6.33691 18.258 6.33691 12.9228V4.26602C6.33691 3.38202 7.05291 2.66602 7.93691 2.66602H24.0625C24.9465 2.66602 25.6625 3.38202 25.6625 4.26602V13.27Z" fill="#FFCD00"/>
<path d="M21.8678 29.7328H10.1318C9.4766 29.7328 9.0142 29.0912 9.2214 28.4696L9.9622 26.2464C10.2238 25.4624 10.9574 24.9336 11.7838 24.9336H20.2158C21.0422 24.9336 21.7758 25.4624 22.0374 26.2464L22.7782 28.4696C22.9854 29.0912 22.523 29.7328 21.8678 29.7328Z" fill="#FFCD00"/>
</g>
<defs>
<clipPath id="clip0_4246_1650">
<rect width="32" height="32" fill="white"/>
</clipPath>
</defs>
</svg>
