<svg width="32" height="32" viewBox="0 0 32 32" fill="none" xmlns="http://www.w3.org/2000/svg">
<path d="M30.7037 13.256C30.7037 13.536 30.5117 13.776 30.2397 13.84L26.0717 14.776C25.0477 15 24.2237 16.056 24.0317 17.384L23.2877 22.576C23.2397 22.872 22.9917 23.088 22.6877 23.088C22.3917 23.088 22.1357 22.872 22.0957 22.576L21.3437 17.384C21.1517 16.056 20.3357 15 19.3117 14.776L15.1437 13.84C14.8717 13.776 14.6797 13.536 14.6797 13.256C14.6797 12.976 14.8717 12.728 15.1437 12.664L19.3117 11.736C20.3357 11.504 21.1517 10.456 21.3437 9.12002L22.0957 3.92802C22.1357 3.63202 22.3917 3.41602 22.6877 3.41602C22.9917 3.41602 23.2397 3.63202 23.2877 3.92802L24.0317 9.12002C24.1277 9.79202 24.3837 10.384 24.7357 10.84C25.0957 11.296 25.5597 11.616 26.0717 11.736L30.2397 12.664C30.5117 12.728 30.7037 12.976 30.7037 13.256Z" fill="#FFCD00"/>
<path d="M17.7116 22.8804C17.7116 23.1604 17.5196 23.4004 17.2396 23.4644L14.3276 24.1124C13.6876 24.2644 13.1676 24.9364 13.0396 25.7924L12.5196 29.4244C12.4796 29.7204 12.2236 29.9364 11.9276 29.9364C11.6236 29.9364 11.3756 29.7204 11.3356 29.4244L10.8076 25.7924C10.6796 24.9364 10.1676 24.2644 9.51955 24.1124L6.60755 23.4644C6.33555 23.4004 6.14355 23.1604 6.14355 22.8804C6.14355 22.6004 6.33555 22.3524 6.60755 22.2884L9.51955 21.6404C10.1676 21.4964 10.6796 20.8164 10.8076 19.9604L11.3356 16.3284C11.3756 16.0324 11.6236 15.8164 11.9276 15.8164C12.2236 15.8164 12.4796 16.0324 12.5196 16.3284L13.0396 19.9604C13.1676 20.8164 13.6876 21.4964 14.3276 21.6404L17.2396 22.2884C17.5196 22.3524 17.7116 22.6004 17.7116 22.8804Z" fill="#FFCD00"/>
<path d="M11.8241 9.40081C11.8241 9.68081 11.6321 9.92081 11.3601 9.98481L9.03212 10.5048C8.56013 10.6088 8.18412 11.1128 8.09613 11.7528L7.67213 14.6568C7.63213 14.9448 7.37613 15.1688 7.08013 15.1688C6.78413 15.1688 6.52812 14.9448 6.48812 14.6568L6.06413 11.7528C5.97613 11.1128 5.60012 10.6088 5.12812 10.5048L2.80012 9.98481C2.52812 9.92081 2.32812 9.68081 2.32812 9.40081C2.32812 9.12081 2.52812 8.87281 2.80012 8.81681L5.12812 8.28881C5.60012 8.18481 5.97613 7.68881 6.06413 7.04881L6.48812 4.14481C6.52812 3.84881 6.78413 3.63281 7.08013 3.63281C7.37613 3.63281 7.63213 3.84881 7.67213 4.14481L8.09613 7.04881C8.18412 7.68881 8.56013 8.18481 9.03212 8.28881L11.3601 8.81681C11.6321 8.87281 11.8241 9.12081 11.8241 9.40081Z" fill="#FFCD00"/>
</svg>
