<svg width="32" height="32" viewBox="0 0 32 32" fill="none" xmlns="http://www.w3.org/2000/svg">
<g clip-path="url(#clip0_4639_16233)">
<path d="M24.3042 15.2078C23.8418 16.7366 24.7082 20.179 26.609 18.1782C28.5098 16.1774 29.1098 12.9918 27.7866 9.99102C26.5658 8.16942 24.6202 6.99902 22.4362 6.99902C19.621 6.99902 17.9258 8.46862 16.9882 9.73342C16.493 10.4014 15.5154 10.4014 15.0202 9.73342C14.0826 8.46862 12.3874 6.99902 9.57224 6.99902C7.24904 6.99902 5.20264 8.33022 4.00504 10.355C2.89384 13.2966 3.67144 16.9238 5.32584 18.9934C6.99624 21.0838 9.62264 22.7166 9.62264 19.8766C11.5778 22.7206 8.13224 23.4718 12.1706 27.5222C13.0026 28.147 13.7674 28.6814 14.3882 29.0982C15.3698 29.7566 16.6394 29.7566 17.621 29.0982C18.7738 28.3254 20.4106 27.155 22.0874 25.7262C21.9634 24.7486 21.9602 23.4654 21.9602 22.2102C21.9602 18.7182 23.2874 16.8094 24.3034 15.207L24.3042 15.2078Z" fill="#EC4452"/>
<path d="M29.104 14.4323C29.104 14.5523 29.104 14.6723 29.096 14.8003C29.08 15.1363 29.048 15.4723 29 15.8163C29 15.8243 28.992 15.8243 28.992 15.8323C28.944 16.1683 28.872 16.5043 28.784 16.8483C28.76 16.9283 28.72 17.0163 28.696 17.1043C28.616 17.3683 28.536 17.6323 28.432 17.8963C28.288 18.2563 28.128 18.6163 27.936 18.9763C27.936 18.9843 27.928 18.9843 27.928 18.9843C27.776 19.2803 27.6 19.5683 27.424 19.8563L27.232 20.1443C27.104 20.3363 26.976 20.5363 26.84 20.7283C26.76 20.8323 26.68 20.9363 26.6 21.0483C26.464 21.2243 26.328 21.4003 26.192 21.5763C26.104 21.6883 26.016 21.7923 25.928 21.8963C25.784 22.0723 25.64 22.2483 25.488 22.4163C25.4 22.5203 25.312 22.6163 25.224 22.7123C25.056 22.8963 24.888 23.0723 24.72 23.2483C24.64 23.3363 24.56 23.4163 24.48 23.4963C24.28 23.7043 24.08 23.9043 23.872 24.1043L23.72 24.2563C23.184 24.7683 22.632 25.2643 22.088 25.7283C21.96 24.7523 21.96 23.4643 21.96 22.2083C21.96 18.7203 23.288 16.8083 24.304 15.2083C23.84 16.7363 24.704 20.1763 26.608 18.1763C27.816 16.9123 28.496 15.1683 28.496 13.2963C28.496 12.2163 28.272 11.0883 27.784 9.99233C26.568 8.16833 24.624 7.00033 22.44 7.00033C19.624 7.00033 17.928 8.47233 16.992 9.73633C16.496 10.4003 15.512 10.4003 15.024 9.73633C14.08 8.47233 12.392 7.00033 9.57603 7.00033C7.24803 7.00033 5.20003 8.32833 4.00803 10.3523C2.89603 13.2963 3.67203 16.9203 5.32803 18.9923C7.00003 21.0883 9.62403 22.7203 9.62403 19.8803C11.576 22.7203 8.14403 23.4723 12.16 27.5123C11.176 26.6803 9.96803 25.7683 8.70403 24.6403C7.09603 23.2083 5.40003 21.4163 4.00003 18.9763C3.32003 17.7923 3.00003 16.5763 2.88003 15.4163C2.88003 15.3603 2.87203 15.3043 2.87203 15.2483C2.85603 15.1043 2.84803 14.9523 2.84003 14.8003C2.83203 14.6723 2.83203 14.5523 2.83203 14.4323C2.83203 9.07233 4.86403 6.60033 6.73603 4.04033C5.88003 6.48033 7.83203 6.75233 8.98403 5.86433C12.04 3.52833 9.47203 0.000332719 9.47203 0.000332719C9.51203 -0.00766728 11.592 -0.0636673 13.288 2.97633C14.672 5.44033 13.792 7.43233 15.312 7.67233C17.2 7.96833 16.008 3.02433 19.384 1.24833C18.344 4.20033 19.792 5.88833 21.528 6.13633C23.112 6.35233 25.16 5.50433 24.456 3.47233C25.904 5.44033 28.8 8.76033 29.072 13.6323V13.6483C29.08 13.7683 29.088 13.8803 29.088 13.9923C29.096 14.1363 29.104 14.2803 29.104 14.4323Z" fill="#FF9E00"/>
</g>
<defs>
<clipPath id="clip0_4639_16233">
<rect width="32" height="32" fill="white"/>
</clipPath>
</defs>
</svg>
