<svg viewBox="0 0 24 24" fill="none" xmlns="http://www.w3.org/2000/svg">
<g clip-path="url(#clip0_3404_79137)">
<path d="M19.0711 4.92849C15.1678 1.02526 8.83216 1.02526 4.92893 4.92849C1.0257 8.83172 1.0257 15.1674 4.92893 19.0706C8.83216 22.9739 15.1678 22.9739 19.0711 19.0706C22.9743 15.1674 22.9743 8.83172 19.0711 4.92849ZM14.1213 15.5351L12 13.4138L9.87868 15.5351C9.48977 15.924 8.85338 15.924 8.46447 15.5351C8.07556 15.1462 8.07556 14.5098 8.46447 14.1209L10.5858 11.9996L8.46447 9.87824C8.07556 9.48933 8.07556 8.85293 8.46447 8.46402C8.85338 8.07511 9.48977 8.07511 9.87868 8.46402L12 10.5853L14.1213 8.46402C14.5102 8.07511 15.1466 8.07511 15.5355 8.46402C15.9244 8.85293 15.9244 9.48933 15.5355 9.87824L13.4142 11.9996L15.5355 14.1209C15.9244 14.5098 15.9244 15.1462 15.5355 15.5351C15.1466 15.924 14.5102 15.924 14.1213 15.5351Z" fill="currentColor"/>
</g>
<defs>
<clipPath id="clip0_3404_79137">
<rect width="24" height="24" fill="white"/>
</clipPath>
</defs>
</svg>
