<svg width="32" height="32" viewBox="0 0 32 32" fill="none" xmlns="http://www.w3.org/2000/svg">
<g clip-path="url(#clip0_4639_12432)">
<path d="M16 2.25781C8.268 2.25781 2 7.86901 2 14.7906C2 17.5538 3.0072 20.1018 4.7024 22.1722C5.3232 22.9306 5.6072 23.909 5.42 24.8706L4.656 28.7882C4.528 29.4458 5.216 29.9602 5.8104 29.6506L10.4608 27.2298C11.1176 26.8882 11.8736 26.777 12.596 26.941C13.6856 27.1882 14.8248 27.3234 16 27.3234C23.732 27.3234 30 21.7122 30 14.7906C30 7.86901 23.732 2.25781 16 2.25781Z" fill="#E2E5E8"/>
<path d="M10.2025 13.624C11.0681 13.624 11.7689 14.3256 11.7689 15.1904C11.7689 15.6056 11.6041 16.004 11.3097 16.2984C11.0161 16.592 10.6177 16.7576 10.2017 16.7576C9.33605 16.7576 8.63525 16.056 8.63525 15.1912C8.63525 14.3264 9.33685 13.6248 10.2017 13.6248L10.2025 13.624Z" fill="#333D4B"/>
<path d="M21.7954 16.7568C22.6605 16.7568 23.3618 16.0555 23.3618 15.1904C23.3618 14.3253 22.6605 13.624 21.7954 13.624C20.9303 13.624 20.229 14.3253 20.229 15.1904C20.229 16.0555 20.9303 16.7568 21.7954 16.7568Z" fill="#333D4B"/>
<path d="M16 16.7568C16.8651 16.7568 17.5664 16.0555 17.5664 15.1904C17.5664 14.3253 16.8651 13.624 16 13.624C15.1349 13.624 14.4336 14.3253 14.4336 15.1904C14.4336 16.0555 15.1349 16.7568 16 16.7568Z" fill="#333D4B"/>
</g>
<defs>
<clipPath id="clip0_4639_12432">
<rect width="32" height="32" fill="white"/>
</clipPath>
</defs>
</svg>
