<svg width="41" height="40" viewBox="0 0 41 40" fill="none" xmlns="http://www.w3.org/2000/svg">
<g clip-path="url(#clip0_4552_18772)">
<path d="M6.74219 11.3164L7.63719 34.1004C7.70119 35.7194 9.03219 36.9994 10.6522 36.9994H30.6832C32.3032 36.9994 33.6342 35.7194 33.6982 34.1004L34.5932 11.3164H6.74219Z" fill="#6B7683"/>
<path d="M6.92383 15.9688L7.63583 34.0998C7.69983 35.7188 9.03083 36.9987 10.6508 36.9987H30.6818C32.3018 36.9987 33.6328 35.7188 33.6968 34.0998L34.4088 15.9688H6.92383Z" fill="#8A94A0"/>
<path d="M17.2023 30.1237C16.5323 30.1237 15.9883 29.5807 15.9883 28.9097V20.5167C15.9883 19.8457 16.5323 19.3027 17.2023 19.3027C17.8723 19.3027 18.4163 19.8457 18.4163 20.5167V28.9097C18.4163 29.5807 17.8723 30.1237 17.2023 30.1237Z" fill="#4B596A"/>
<path d="M24.132 30.1237C23.462 30.1237 22.918 29.5807 22.918 28.9097V20.5167C22.918 19.8457 23.462 19.3027 24.132 19.3027C24.802 19.3027 25.346 19.8457 25.346 20.5167V28.9097C25.346 29.5807 24.802 30.1237 24.132 30.1237Z" fill="#4B596A"/>
<path d="M27.4959 9.14916C26.8259 9.14916 26.2819 8.60616 26.2819 7.93516V6.35116C26.2819 5.17216 25.3229 4.21216 24.1439 4.21216H17.1969C16.0179 4.21216 15.0589 5.17216 15.0589 6.35116V7.93516C15.0589 8.60616 14.5149 9.14916 13.8449 9.14916C13.1749 9.14916 12.6309 8.60616 12.6309 7.93516V6.35116C12.6309 3.83216 14.6799 1.78516 17.1979 1.78516H24.1449C26.6629 1.78516 28.7119 3.83316 28.7119 6.35116V7.93516C28.7119 8.60616 28.1679 9.14916 27.4979 9.14916H27.4959Z" fill="#4B596A"/>
<path d="M34.9152 7.92969H6.08322C5.24982 7.92969 4.57422 8.60529 4.57422 9.43869V11.4497C4.57422 12.2831 5.24982 12.9587 6.08322 12.9587H34.9152C35.7486 12.9587 36.4242 12.2831 36.4242 11.4497V9.43869C36.4242 8.60529 35.7486 7.92969 34.9152 7.92969Z" fill="#8A94A0"/>
</g>
<defs>
<clipPath id="clip0_4552_18772">
<rect width="40" height="40" fill="white" transform="translate(0.5)"/>
</clipPath>
</defs>
</svg>
