<svg width="32" height="32" viewBox="0 0 32 32" fill="none" xmlns="http://www.w3.org/2000/svg">
<g clip-path="url(#clip0_4246_14633)">
<path d="M24.9761 8.85637C25.3033 11.0396 25.6833 12.2892 24.1217 12.2892C21.9969 12.2892 21.9961 7.26037 18.4001 4.39557C14.8425 1.56197 12.1889 2.25077 12.1329 2.26597C12.1321 2.26677 12.1305 2.26837 12.1297 2.26917C15.0929 4.74277 13.4401 8.80837 11.5009 9.92917C9.64009 11.0044 7.51609 9.64837 8.62809 6.45717C6.18249 9.80117 4.07129 13.8532 4.07129 17.8908C4.07129 24.4788 9.41209 29.8196 16.0001 29.8196C22.5881 29.8196 27.9289 24.4788 27.9289 17.8908C27.9289 14.778 26.6713 11.6564 24.9761 8.85637Z" fill="#EF4452"/>
<path d="M16.0007 16.0156C16.0007 16.0156 21.1879 19.0028 21.1879 23.1764C21.1879 26.0412 18.8655 28.3636 16.0007 28.3636C13.1359 28.3636 10.8135 26.0412 10.8135 23.1764C10.8135 19.0028 16.0007 16.0156 16.0007 16.0156Z" fill="#FF7978"/>
</g>
<defs>
<clipPath id="clip0_4246_14633">
<rect width="32" height="32" fill="white"/>
</clipPath>
</defs>
</svg>
