<svg width="184" height="32" viewBox="0 0 184 32" fill="none" xmlns="http://www.w3.org/2000/svg">
<g clip-path="url(#clip0_4542_5635)">
<path d="M14.9352 24.0736C14.9352 22.1608 16.2208 20.5656 17.9696 20.0568H6.0568C5.7648 20.0568 5.4816 20.0232 5.2072 19.9648C3.3752 20.356 2 21.9808 2 23.9296C2 26.1704 3.816 27.9864 6.0568 27.9864H18.8472C16.6864 27.9864 14.9344 26.2344 14.9344 24.0736H14.9352Z" fill="#FFC33A"/>
<path d="M18.4249 21.5214C17.1721 21.8086 16.2809 23.0446 16.5473 24.4318C16.7737 25.6102 17.8737 26.4214 19.0737 26.4214H30.0001V21.459H18.9817C18.7905 21.459 18.6041 21.4806 18.4249 21.5214Z" fill="#E5E8EB"/>
<path d="M18.8471 20.0567H17.9695C16.2207 20.5647 14.9351 22.1607 14.9351 24.0735C14.9351 26.2343 16.6871 27.9864 18.8479 27.9864H28.4351C29.2991 27.9864 29.9999 27.2856 29.9999 26.4216H19.0735C17.8735 26.4216 16.7735 25.6104 16.5471 24.432C16.2807 23.0448 17.1719 21.8088 18.4247 21.5216C18.6039 21.4807 18.7903 21.4591 18.9815 21.4591H29.9999C29.9999 20.7671 29.5543 20.1856 28.9367 19.9688C28.7783 20.0224 28.6119 20.0583 28.4351 20.0583H18.8479L18.8471 20.0567Z" fill="#FFA300"/>
<path d="M17.9696 20.0568H18.8472C16.6864 20.0568 14.9344 18.3048 14.9344 16.144C14.9344 14.2312 16.22 12.636 17.9688 12.1272H6.0568C5.7648 12.1272 5.4816 12.0936 5.2072 12.0352C3.3752 12.4264 2 14.0512 2 16C2 17.9488 3.3752 19.5736 5.2072 19.9648C5.4816 20.0232 5.7648 20.0568 6.0568 20.0568H17.9696Z" fill="#3182F6"/>
<path d="M18.4249 13.5927C17.1721 13.8799 16.2809 15.1151 16.5473 16.5031C16.7737 17.6815 17.8737 18.4927 19.0737 18.4927H30.0001V13.5303H18.9817C18.7905 13.5303 18.6041 13.5519 18.4249 13.5927Z" fill="#E5E8EB"/>
<path d="M18.8471 12.128H17.9695C16.2207 12.636 14.9351 14.232 14.9351 16.1448C14.9351 18.3056 16.6871 20.0576 18.8479 20.0576H28.4351C28.6119 20.0576 28.7783 20.0216 28.9367 19.968C29.5535 19.7584 29.9999 19.1808 29.9999 18.4928H19.0735C17.8735 18.4928 16.7735 17.6816 16.5471 16.5032C16.2807 15.1152 17.1719 13.88 18.4247 13.5928C18.6039 13.552 18.7903 13.5304 18.9815 13.5304H29.9999C29.9999 12.8384 29.5543 12.256 28.9367 12.04C28.7783 12.0936 28.6119 12.1296 28.4351 12.1296H18.8479L18.8471 12.128Z" fill="#1E6EF4"/>
<path d="M17.9696 12.1282H18.8472C16.6864 12.1282 14.9344 10.3762 14.9344 8.21545C14.9344 5.99385 16.664 4.19465 18.8472 4.04345V4.01465H6.0568C3.816 4.01465 2 5.83065 2 8.07145C2 10.0202 3.3752 11.645 5.2072 12.0362C5.4816 12.0946 5.7648 12.1282 6.0568 12.1282H17.9696Z" fill="#23B169"/>
<path d="M18.4249 5.66299C17.7089 5.82699 17.1113 6.30059 16.7801 6.93579C16.7617 6.97099 16.7529 7.01179 16.7369 7.04779C16.6033 7.33739 16.5145 7.65339 16.5025 7.99019C16.5017 8.01979 16.5097 8.05179 16.5097 8.08139C16.5097 8.24299 16.5161 8.40619 16.5481 8.57339C16.7745 9.75179 17.8745 10.563 19.0745 10.563H30.0009V5.60059H18.9825C18.7913 5.60059 18.6041 5.62219 18.4249 5.66299Z" fill="#E5E8EB"/>
<path d="M30.0002 10.5636H19.0738C17.8738 10.5636 16.7738 9.75242 16.5474 8.57402C16.5154 8.40682 16.509 8.24362 16.509 8.08203C16.509 8.05242 16.501 8.02042 16.5018 7.99082C16.5138 7.65322 16.6026 7.33803 16.7362 7.04843C16.753 7.01243 16.761 6.97162 16.7794 6.93642C17.1106 6.30122 17.7082 5.82762 18.4242 5.66362C18.6034 5.62282 18.7898 5.60122 18.981 5.60122H29.9994C29.9994 4.72522 29.2898 4.01562 28.4138 4.01562H19.1362C19.037 4.01562 18.945 4.03802 18.8474 4.04442C16.6642 4.19562 14.9346 5.99483 14.9346 8.21642C14.9346 10.3772 16.6866 12.1292 18.8474 12.1292H28.4346C28.6114 12.1292 28.7778 12.0932 28.9362 12.0396C29.553 11.83 29.9994 11.2524 29.9994 10.5644L30.0002 10.5636Z" fill="#03905A"/>
</g>
<path d="M59.5273 7.02344V17.5703H56.9688V13.3711H54.2148V11.3203H56.9688V7.02344H59.5273ZM53.4531 17.9805C57.2227 17.9707 59.5762 19.25 59.5859 21.3984C59.5762 23.5566 57.2227 24.8164 53.4531 24.8164C49.6543 24.8164 47.3105 23.5566 47.3008 21.3984C47.3105 19.25 49.6543 17.9707 53.4531 17.9805ZM53.4531 19.8945C51.0801 19.8848 49.8301 20.3828 49.8203 21.3984C49.8301 22.3945 51.0801 22.9023 53.4531 22.9023C55.8164 22.9023 57.0664 22.3945 57.0664 21.3984C57.0664 20.3828 55.8066 19.8848 53.4531 19.8945ZM54.7617 8.09766V10.1094H51.2461C51.3145 12.1309 52.5742 14.2207 55.3281 15.1484L54.0781 17.1211C52.125 16.4766 50.7871 15.1973 50.0156 13.6055C49.2344 15.4219 47.8086 16.8672 45.7188 17.5703L44.4297 15.5781C47.291 14.6113 48.6191 12.3359 48.6875 10.1094H45.1133V8.09766H54.7617ZM77.643 20.6758V22.7266H61.4125V20.6758H68.2484V17.3945H63.1313V8.13672H65.6313V10.8906H73.3656V8.13672H75.8852V17.3945H70.768V20.6758H77.643ZM65.6313 15.3828H73.3656V12.8828H65.6313V15.3828ZM93.7273 7.02344V24.7773H91.3055V7.02344H93.7273ZM89.8992 7.39453V23.9961H87.5359V15.8516H84.7039C83.6785 17.8828 82.0281 19.6309 79.4891 21.0859L78.0633 19.3281C81.657 17.1992 83.2391 14.6406 83.5906 11.1445H79.0594V9.11328H86.0711C86.0711 10.8027 85.8953 12.3848 85.4852 13.8398H87.5359V7.39453H89.8992ZM102.097 10.9883C102.097 14.3281 103.581 17.5508 106.589 18.8398L105.124 20.8906C103.073 19.9531 101.677 18.1758 100.886 15.9688C100.075 18.3613 98.6203 20.2852 96.4523 21.2812L94.9484 19.2109C98.0539 17.8633 99.5578 14.4355 99.5578 10.9883V8.39062H102.097V10.9883ZM110.046 7.00391V24.8359H107.507V7.00391H110.046ZM128.298 14.9922V17.0234H112.048V14.9922H116.13C116.795 12.8438 116.97 11.2031 117.029 9.97266H113.552V7.96094H119.49V8.78125C119.5 10.0996 119.519 12.1016 118.709 14.9922H123.298C123.816 12.8535 123.953 11.2129 124.002 9.97266H120.545V7.96094H126.463V8.82031C126.463 10.0801 126.472 12.1113 125.798 14.9922H128.298ZM126.775 22.4141V24.4453H114.041V18.4688H116.56V22.4141H126.775ZM140.545 16.6719V19.2891C141.991 19.2109 143.455 19.0742 144.823 18.8789L144.998 20.7148C141.112 21.4766 136.834 21.5059 133.768 21.5156L133.455 19.4648C134.774 19.4648 136.346 19.4551 138.006 19.4062V16.6719H140.545ZM144.198 9.11328V11.1055H140.565C140.731 12.8145 142.069 14.4355 144.725 15.1094L143.592 17.043C141.532 16.5156 140.096 15.3633 139.295 13.8789C138.504 15.4316 137.069 16.6523 134.979 17.2188L133.846 15.2656C136.512 14.5625 137.821 12.8828 137.987 11.1055H134.373V9.11328H138.006V7.17969H140.545V9.11328H144.198ZM148.319 7.00391V24.8359H145.819V7.00391H148.319ZM165.165 7.04297V19.9922H162.626V7.04297H165.165ZM165.634 22.4531V24.4844H153.251V18.7422H155.77V22.4531H165.634ZM157.079 9.71875C157.069 12.1602 158.427 14.377 161.259 15.2852L159.97 17.2969C157.968 16.623 156.591 15.2949 155.809 13.6055C155.009 15.4219 153.593 16.8867 151.512 17.6094L150.223 15.5977C153.212 14.5723 154.501 12.1016 154.501 9.71875V8H157.079V9.71875ZM181.484 7.72656V8.91797C181.493 10.0801 181.493 11.4961 181.152 13.2734H183.398V15.2852H167.167V13.2734H178.632C178.915 11.8379 178.984 10.7051 179.003 9.71875H169.159V7.72656H181.484ZM181.445 16.5156V21.4961H171.523V22.707H181.913V24.6602H169.003V19.6406H178.945V18.4492H168.964V16.5156H181.445Z" fill="#464D57"/>
<defs>
<clipPath id="clip0_4542_5635">
<rect width="32" height="32" fill="white"/>
</clipPath>
</defs>
</svg>
