<svg width="41" height="41" viewBox="0 0 41 41" fill="none" xmlns="http://www.w3.org/2000/svg">
<g clip-path="url(#clip0_3404_77597)">
<path d="M28.9593 18.2931H12.0273V11.5851C12.0273 6.91714 15.8253 3.11914 20.4933 3.11914C25.1613 3.11914 28.9593 6.91714 28.9593 11.5851V18.2931ZM15.0273 15.2931H25.9593V11.5851C25.9593 8.57114 23.5073 6.11914 20.4933 6.11914C17.4793 6.11914 15.0273 8.57114 15.0273 11.5851V15.2931Z" fill="#6B7683"/>
<path d="M31.4932 13.585H9.49316C7.28402 13.585 5.49316 15.3758 5.49316 17.585V32.585C5.49316 34.7941 7.28402 36.585 9.49316 36.585H31.4932C33.7023 36.585 35.4932 34.7941 35.4932 32.585V17.585C35.4932 15.3758 33.7023 13.585 31.4932 13.585Z" fill="#AFB7C0"/>
<path d="M20.4932 25.627C22.15 25.627 23.4932 24.2838 23.4932 22.627C23.4932 20.9701 22.15 19.627 20.4932 19.627C18.8363 19.627 17.4932 20.9701 17.4932 22.627C17.4932 24.2838 18.8363 25.627 20.4932 25.627Z" fill="#313D4C"/>
<path d="M20.4932 30.377C19.6642 30.377 18.9932 29.705 18.9932 28.877V23.46C18.9932 22.632 19.6642 21.96 20.4932 21.96C21.3222 21.96 21.9932 22.632 21.9932 23.46V28.877C21.9932 29.705 21.3222 30.377 20.4932 30.377Z" fill="#313D4C"/>
</g>
<defs>
<clipPath id="clip0_3404_77597">
<rect width="40" height="40" fill="white" transform="translate(0.5 0.5)"/>
</clipPath>
</defs>
</svg>
