<svg width="32" height="32" viewBox="0 0 32 32" fill="none" xmlns="http://www.w3.org/2000/svg">
<g clip-path="url(#clip0_4542_10845)">
<path d="M13.9806 15.8263H19.9278C20.2318 15.8263 20.5094 15.6535 20.6446 15.3815L26.9014 2.75188C27.1646 2.21988 26.7782 1.59668 26.1846 1.59668H20.2374C19.9334 1.59668 19.6558 1.76948 19.5206 2.04148L13.2638 14.6711C13.0006 15.2031 13.387 15.8263 13.9806 15.8263Z" fill="#D12030"/>
<path d="M18.0191 15.8261H12.0719C11.7679 15.8261 11.4903 15.6533 11.3551 15.3813L5.09826 2.7509C4.83506 2.2189 5.22146 1.5957 5.81506 1.5957H11.7623C12.0663 1.5957 12.3439 1.7685 12.4791 2.0405L18.7359 14.6701C18.9991 15.2021 18.6127 15.8253 18.0191 15.8253V15.8261Z" fill="#EF4452"/>
<path d="M15.9997 30.4037C21.9644 30.4037 26.7997 25.5684 26.7997 19.6037C26.7997 13.639 21.9644 8.80371 15.9997 8.80371C10.035 8.80371 5.19971 13.639 5.19971 19.6037C5.19971 25.5684 10.035 30.4037 15.9997 30.4037Z" fill="#FFCD00"/>
<path d="M16.6441 13.7713L17.9433 16.4041C18.0481 16.6161 18.2497 16.7625 18.4841 16.7969L21.3889 17.2193C21.9777 17.3049 22.2129 18.0289 21.7865 18.4441L19.6841 20.4929C19.5145 20.6577 19.4377 20.8953 19.4777 21.1281L19.9737 24.0217C20.0745 24.6081 19.4585 25.0553 18.9321 24.7785L16.3337 23.4121C16.1249 23.3025 15.8745 23.3025 15.6657 23.4121L13.0673 24.7785C12.5409 25.0553 11.9249 24.6081 12.0257 24.0217L12.5217 21.1281C12.5617 20.8953 12.4841 20.6577 12.3153 20.4929L10.2129 18.4441C9.78651 18.0289 10.0217 17.3049 10.6105 17.2193L13.5153 16.7969C13.7489 16.7633 13.9513 16.6161 14.0561 16.4041L15.3553 13.7713C15.6185 13.2377 16.3801 13.2377 16.6441 13.7713Z" fill="#FFAA00"/>
</g>
<defs>
<clipPath id="clip0_4542_10845">
<rect width="32" height="32" fill="white"/>
</clipPath>
</defs>
</svg>
