<svg width="32" height="32" viewBox="0 0 32 32" fill="none" xmlns="http://www.w3.org/2000/svg">
<g clip-path="url(#clip0_4246_4287)">
<path d="M16.0002 1.12695C17.8874 1.12695 17.8514 1.81815 19.1226 1.88535C20.3938 1.95335 21.0586 1.55335 21.917 1.67975C22.5138 1.76775 22.9626 2.03415 23.273 2.29575C23.6122 2.58215 23.6682 3.08055 23.3978 3.43255L20.441 7.27415C20.1778 7.58695 20.2098 8.05015 20.5186 8.31735C25.1202 12.3038 30.8002 17.0982 30.8002 21.403C30.8002 28.6366 24.8626 30.8749 16.0002 30.8749C7.1378 30.8749 1.2002 28.6366 1.2002 21.403C1.2002 17.099 6.8802 12.3038 11.4818 8.31735C11.7906 8.05015 11.8226 7.58615 11.5594 7.27415L8.6026 3.43255C8.3322 3.08055 8.3882 2.58215 8.7274 2.29575C9.0378 2.03415 9.4866 1.76775 10.0834 1.67975C10.9418 1.55335 11.6074 1.95335 12.8778 1.88535C14.149 1.81735 14.113 1.12695 16.0002 1.12695Z" fill="#FFC522"/>
<path d="M16.0667 9.10846C14.5139 9.10846 12.9579 8.96285 11.4395 8.67325C10.9555 8.58045 10.6387 8.11326 10.7307 7.62926C10.8235 7.14526 11.2915 6.82606 11.7747 6.91966C14.5899 7.45646 17.5491 7.45886 20.3323 6.91966C20.8155 6.82286 21.2843 7.14205 21.3779 7.62605C21.4715 8.11005 21.1547 8.57805 20.6707 8.67165C19.1691 8.96205 17.6203 9.10765 16.0667 9.10765V9.10846Z" fill="#99452E"/>
<path d="M16.1919 25.5413C14.1375 25.5413 12.5735 24.3253 11.9191 23.4909C11.5375 23.0037 11.6231 22.2997 12.1103 21.9181C12.5951 21.5389 13.2943 21.6213 13.6775 22.1029C13.8327 22.2941 15.2375 23.9277 17.4399 23.0477C17.9751 22.8341 18.2191 22.4469 18.1831 22.1741C18.1287 21.7573 17.4343 21.2589 16.0071 21.0877C12.4871 20.6653 11.9567 18.6701 11.8775 18.0677C11.6999 16.7077 12.5575 15.4037 14.0119 14.8229C16.9543 13.6501 19.1015 15.2261 19.8879 15.9581C20.3407 16.3789 20.3655 17.0885 19.9439 17.5413C19.5215 17.9933 18.8143 18.0189 18.3607 17.5973C17.6415 16.9269 16.4463 16.2637 14.8415 16.9045C14.3063 17.1181 14.0623 17.5053 14.0983 17.7781C14.1527 18.1949 14.8463 18.6933 16.2735 18.8645C19.7935 19.2869 20.3239 21.2821 20.4031 21.8837C20.5815 23.2437 19.7231 24.5477 18.2695 25.1285C17.5367 25.4205 16.8391 25.5421 16.1911 25.5421L16.1919 25.5413Z" fill="#FFF3CC"/>
<path d="M16.1415 16.6438C15.5231 16.6438 15.0215 16.143 15.0215 15.5246V13.9278C15.0215 13.3094 15.5231 12.8086 16.1415 12.8086C16.7599 12.8086 17.2615 13.3094 17.2615 13.9278V15.5246C17.2615 16.143 16.7599 16.6438 16.1415 16.6438Z" fill="#FFF3CC"/>
<path d="M16.1415 27.1418C15.5231 27.1418 15.0215 26.641 15.0215 26.0226V24.4258C15.0215 23.8074 15.5231 23.3066 16.1415 23.3066C16.7599 23.3066 17.2615 23.8074 17.2615 24.4258V26.0226C17.2615 26.641 16.7599 27.1418 16.1415 27.1418Z" fill="#FFF3CC"/>
</g>
<defs>
<clipPath id="clip0_4246_4287">
<rect width="32" height="32" fill="white"/>
</clipPath>
</defs>
</svg>
