<svg viewBox="0 0 20 20" fill="none" xmlns="http://www.w3.org/2000/svg">
<g clip-path="url(#clip0_3404_79439)">
<path fill-rule="evenodd" clip-rule="evenodd" d="M14.6892 13.5443C14.885 13.2051 14.798 12.7892 14.5202 12.5037C13.7495 11.7219 13.5616 10.4973 14.1366 9.50136L16.22 5.89292L16.9417 6.30959C17.3386 6.53875 17.8509 6.40149 18.08 6.00457C18.3092 5.60764 18.1719 5.09538 17.775 4.86621L10.5581 0.699544C10.1612 0.470378 9.64893 0.607637 9.41977 1.00457C9.1906 1.40149 9.32786 1.91375 9.72479 2.14292L10.4465 2.55959L8.36314 6.16803C7.78814 7.16395 6.63364 7.61361 5.57126 7.33704C5.18512 7.23919 4.78141 7.37176 4.58558 7.71096L4.53141 7.80478C4.30225 8.20171 4.43951 8.71396 4.83643 8.94313L8.43044 11.0181L5.52821 16.0783C5.29904 16.4752 5.4363 16.9875 5.83323 17.2166C6.23016 17.4458 6.74242 17.3085 6.97158 16.9116L9.87381 11.8515L13.4967 13.9431C13.8936 14.1723 14.4059 14.035 14.635 13.6381L14.6892 13.5443Z" fill="currentColor"/>
</g>
<defs>
<clipPath id="clip0_3404_79439">
<rect width="20" height="20" fill="white"/>
</clipPath>
</defs>
</svg>
