<svg width="20" height="20" viewBox="0 0 20 20" fill="none" xmlns="http://www.w3.org/2000/svg">
<g clip-path="url(#clip0_3404_77373)">
<path d="M15.2413 13.0913L11.4247 16.908C11.0997 17.233 10.5663 17.233 10.2413 16.908C9.91634 16.583 9.91634 16.0497 10.2413 15.7247L12.6413 13.333H4.16634C3.70801 13.333 3.33301 12.958 3.33301 12.4997V4.16634C3.33301 3.70801 3.70801 3.33301 4.16634 3.33301C4.62467 3.33301 4.99967 3.70801 4.99967 4.16634V11.6663H12.6413L10.2413 9.27467C9.91634 8.94967 9.91634 8.41634 10.2413 8.09134C10.5663 7.76634 11.0997 7.76634 11.4247 8.09134L15.2413 11.908C15.5663 12.233 15.5663 12.7663 15.2413 13.0913Z" fill="#C9CED8"/>
</g>
<defs>
<clipPath id="clip0_3404_77373">
<rect width="20" height="20" fill="white"/>
</clipPath>
</defs>
</svg>
