<svg viewBox="0 0 16 16" fill="none" xmlns="http://www.w3.org/2000/svg">
<g clip-path="url(#clip0_3404_77753)">
<path d="M3.33286 8.7875V10.6608C3.33286 11.1475 3.59953 11.6008 4.0262 11.8342L7.35953 13.6542C7.75953 13.8742 8.23953 13.8742 8.63953 13.6542L11.9729 11.8342C12.3995 11.6008 12.6662 11.1475 12.6662 10.6608V8.7875L8.63953 10.9875C8.23953 11.2075 7.75953 11.2075 7.35953 10.9875L3.33286 8.7875ZM7.35953 2.3475L1.73953 5.41417C1.27953 5.6675 1.27953 6.33417 1.73953 6.5875L7.35953 9.65417C7.75953 9.87417 8.23953 9.87417 8.63953 9.65417L13.9995 6.7275V10.6675C13.9995 11.0342 14.2995 11.3342 14.6662 11.3342C15.0329 11.3342 15.3329 11.0342 15.3329 10.6675V6.39417C15.3329 6.1475 15.1995 5.9275 14.9862 5.8075L8.63953 2.3475C8.23953 2.13417 7.75953 2.13417 7.35953 2.3475Z" fill="currentColor"/>
</g>
<defs>
<clipPath id="clip0_3404_77753">
<rect width="16" height="16" fill="white"/>
</clipPath>
</defs>
</svg>
