<svg viewBox="0 0 24 24" fill="none" xmlns="http://www.w3.org/2000/svg">
<path fill-rule="evenodd" clip-rule="evenodd" d="M7.88552 3C7.06714 3 6.28227 3.30754 5.70359 3.85496C5.12491 4.40238 4.7998 5.14484 4.7998 5.919V20.0275C4.7999 20.1933 4.84477 20.3563 4.93017 20.5011C5.01557 20.6459 5.13865 20.7676 5.28775 20.8548C5.43685 20.9419 5.60701 20.9916 5.7821 20.999C5.95718 21.0065 6.13137 20.9715 6.28815 20.8974L11.9998 18.1963L17.7115 20.8974C17.8682 20.9715 18.0424 21.0065 18.2175 20.999C18.3926 20.9916 18.5628 20.9419 18.7119 20.8548C18.861 20.7676 18.984 20.6459 19.0694 20.5011C19.1548 20.3563 19.1997 20.1933 19.1998 20.0275V5.919C19.1998 5.14484 18.8747 4.40238 18.296 3.85496C17.7173 3.30754 16.9325 3 16.1141 3H7.88552Z" fill="currentColor"/>
</svg>
