<svg viewBox="0 0 24 24" fill="none" xmlns="http://www.w3.org/2000/svg">
<path d="M5 21.9998C4.45 21.9998 3.97933 21.8041 3.588 21.4128C3.19667 21.0215 3.00067 20.5505 3 19.9998V16.1998C3 15.9665 3.04167 15.7331 3.125 15.4998C3.20833 15.2665 3.33333 15.0581 3.5 14.8748L5.05 13.1248C5.23333 12.9081 5.471 12.7958 5.763 12.7878C6.055 12.7798 6.30067 12.8755 6.5 13.0748C6.68333 13.2581 6.78333 13.4831 6.8 13.7498C6.81667 14.0165 6.73333 14.2498 6.55 14.4498L5.175 15.9998H18.825L17.5 14.4998C17.3167 14.2998 17.2333 14.0665 17.25 13.7998C17.2667 13.5331 17.3667 13.3081 17.55 13.1248C17.75 12.9248 17.996 12.8288 18.288 12.8368C18.58 12.8448 18.8173 12.9575 19 13.1748L20.5 14.8748C20.6667 15.0581 20.7917 15.2665 20.875 15.4998C20.9583 15.7331 21 15.9665 21 16.1998V19.9998C21 20.5498 20.8043 21.0208 20.413 21.4128C20.0217 21.8048 19.5507 22.0005 19 21.9998H5ZM10.6 14.3998L7.125 10.8748C6.74167 10.4915 6.55 10.0165 6.55 9.4498C6.55 8.88314 6.74167 8.40814 7.125 8.0248L12.025 3.1248C12.4083 2.74147 12.8833 2.5498 13.45 2.5498C14.0167 2.5498 14.4917 2.74147 14.875 3.1248L18.4 6.5998C18.7833 6.98314 18.9793 7.4538 18.988 8.0118C18.9967 8.5698 18.809 9.0408 18.425 9.4248L13.425 14.4248C13.0417 14.8081 12.571 14.9958 12.013 14.9878C11.455 14.9798 10.984 14.7838 10.6 14.3998ZM17 7.9998L13.45 4.4998L8.5 9.4498L12.05 12.9498L17 7.9998Z" fill="currentColor"/>
</svg>
