<svg width="41" height="40" viewBox="0 0 41 40" fill="none" xmlns="http://www.w3.org/2000/svg">
<g clip-path="url(#clip0_4552_19997)">
<path d="M17.2259 6.63219L3.31088 30.7342C1.85588 33.2542 3.67488 36.4042 6.58488 36.4042H34.4159C37.3259 36.4042 39.1439 33.2542 37.6899 30.7342L23.7739 6.63219C22.3189 4.11219 18.6809 4.11219 17.2259 6.63219Z" fill="#FFCD00"/>
<path d="M20.4994 27.5488C19.4554 27.5488 18.6094 28.3948 18.6094 29.4388C18.6094 30.4828 19.4554 31.3288 20.4994 31.3288C21.5434 31.3288 22.3894 30.4828 22.3894 29.4388C22.3894 28.3948 21.5434 27.5488 20.4994 27.5488Z" fill="#303D4C"/>
<path d="M20.4984 25.0789C19.6144 25.0789 18.8984 24.3629 18.8984 23.4789V15.6039C18.8984 14.7199 19.6144 14.0039 20.4984 14.0039C21.3824 14.0039 22.0984 14.7199 22.0984 15.6039V23.4789C22.0984 24.3629 21.3824 25.0789 20.4984 25.0789Z" fill="#303D4C"/>
</g>
<defs>
<clipPath id="clip0_4552_19997">
<rect width="40" height="40" fill="white" transform="translate(0.5)"/>
</clipPath>
</defs>
</svg>
