<svg width="100%" height="100%" viewBox="0 0 32 32" fill="none" xmlns="http://www.w3.org/2000/svg">
<g clip-path="url(#clip0_6500_128237)">
<path d="M14.9352 24.0732C14.9352 22.1604 16.2208 20.5652 17.9696 20.0564H6.0568C5.7648 20.0564 5.4816 20.0228 5.2072 19.9644C3.3752 20.3556 2 21.9804 2 23.9292C2 26.17 3.816 27.986 6.0568 27.986H18.8472C16.6864 27.986 14.9344 26.234 14.9344 24.0732H14.9352Z" fill="#FFC33A"/>
<path d="M18.4249 21.5204C17.1721 21.8076 16.2809 23.0436 16.5473 24.4308C16.7737 25.6092 17.8737 26.4204 19.0737 26.4204H30.0001V21.458H18.9817C18.7905 21.458 18.6041 21.4796 18.4249 21.5204Z" fill="#E5E8EB"/>
<path d="M18.8495 20.0567H17.9719C16.2231 20.5647 14.9375 22.1607 14.9375 24.0735C14.9375 26.2343 16.6895 27.9864 18.8503 27.9864H28.4375C29.3015 27.9864 30.0023 27.2856 30.0023 26.4216H19.0759C17.8759 26.4216 16.7759 25.6104 16.5495 24.432C16.2831 23.0448 17.1743 21.8088 18.4271 21.5216C18.6063 21.4807 18.7927 21.4591 18.9839 21.4591H30.0023C30.0023 20.7671 29.5567 20.1856 28.9391 19.9688C28.7807 20.0224 28.6143 20.0583 28.4375 20.0583H18.8503L18.8495 20.0567Z" fill="#FFA300"/>
<path d="M17.9696 20.0568H18.8472C16.6864 20.0568 14.9344 18.3048 14.9344 16.144C14.9344 14.2312 16.22 12.636 17.9688 12.1272H6.0568C5.7648 12.1272 5.4816 12.0936 5.2072 12.0352C3.3752 12.4264 2 14.0512 2 16C2 17.9488 3.3752 19.5736 5.2072 19.9648C5.4816 20.0232 5.7648 20.0568 6.0568 20.0568H17.9696Z" fill="#3182F6"/>
<path d="M18.4249 13.5917C17.1721 13.8789 16.2809 15.1141 16.5473 16.5021C16.7737 17.6805 17.8737 18.4917 19.0737 18.4917H30.0001V13.5293H18.9817C18.7905 13.5293 18.6041 13.5509 18.4249 13.5917Z" fill="#E5E8EB"/>
<path d="M18.8495 12.1276H17.9719C16.2231 12.6356 14.9375 14.2316 14.9375 16.1444C14.9375 18.3052 16.6895 20.0572 18.8503 20.0572H28.4375C28.6143 20.0572 28.7807 20.0211 28.9391 19.9675C29.5559 19.7579 30.0023 19.1803 30.0023 18.4923H19.0759C17.8759 18.4923 16.7759 17.6811 16.5495 16.5027C16.2831 15.1148 17.1743 13.8795 18.4271 13.5923C18.6063 13.5515 18.7927 13.53 18.9839 13.53H30.0023C30.0023 12.838 29.5567 12.2556 28.9391 12.0396C28.7807 12.0932 28.6143 12.1292 28.4375 12.1292H18.8503L18.8495 12.1276Z" fill="#1E6EF4"/>
<path d="M17.9696 12.1278H18.8472C16.6864 12.1278 14.9344 10.3758 14.9344 8.21496C14.9344 5.99336 16.664 4.19416 18.8472 4.04296V4.01416H6.0568C3.816 4.01416 2 5.83016 2 8.07096C2 10.0198 3.3752 11.6446 5.2072 12.0358C5.4816 12.0942 5.7648 12.1278 6.0568 12.1278H17.9696Z" fill="#23B169"/>
<path d="M18.4225 5.66201C17.7065 5.82601 17.1089 6.29961 16.7777 6.93481C16.7593 6.97001 16.7505 7.01081 16.7345 7.04681C16.6009 7.33641 16.5121 7.65241 16.5001 7.98921C16.4993 8.01881 16.5073 8.05081 16.5073 8.08041C16.5073 8.24201 16.5137 8.40521 16.5457 8.57241C16.7721 9.75081 17.8721 10.562 19.0721 10.562H29.9985V5.59961H18.9801C18.7889 5.59961 18.6017 5.62121 18.4225 5.66201Z" fill="#E5E8EB"/>
<path d="M30.0031 10.5631H19.0767C17.8767 10.5631 16.7767 9.75194 16.5503 8.57354C16.5183 8.40634 16.5119 8.24314 16.5119 8.08154C16.5119 8.05194 16.5039 8.01994 16.5047 7.99034C16.5167 7.65274 16.6055 7.33754 16.7391 7.04794C16.7559 7.01194 16.7639 6.97114 16.7823 6.93594C17.1135 6.30074 17.7111 5.82714 18.4271 5.66314C18.6063 5.62234 18.7927 5.60074 18.9839 5.60074H30.0023C30.0023 4.72474 29.2927 4.01514 28.4167 4.01514H19.1391C19.0399 4.01514 18.9479 4.03754 18.8503 4.04394C16.6671 4.19514 14.9375 5.99434 14.9375 8.21594C14.9375 10.3767 16.6895 12.1287 18.8503 12.1287H28.4375C28.6143 12.1287 28.7807 12.0927 28.9391 12.0391C29.5559 11.8295 30.0023 11.2519 30.0023 10.5639L30.0031 10.5631Z" fill="#03905A"/>
</g>
<defs>
<clipPath id="clip0_6500_128237">
<rect width="100%" height="100%" fill="white"/>
</clipPath>
</defs>
</svg>
