<svg width="100%" height="100%" viewBox="0 0 32 32" fill="none" xmlns="http://www.w3.org/2000/svg">
<g clip-path="url(#clip0_6500_128072)">
<path d="M13.9806 15.8268H19.9278C20.2318 15.8268 20.5094 15.654 20.6446 15.382L26.9014 2.75237C27.1646 2.22037 26.7782 1.59717 26.1846 1.59717H20.2374C19.9334 1.59717 19.6558 1.76997 19.5206 2.04197L13.2638 14.6716C13.0006 15.2036 13.387 15.8268 13.9806 15.8268Z" fill="#D12030"/>
<path d="M18.0205 15.8266H12.0733C11.7693 15.8266 11.4917 15.6538 11.3565 15.3818L5.09973 2.75139C4.83653 2.21939 5.22293 1.59619 5.81653 1.59619H11.7637C12.0677 1.59619 12.3453 1.76899 12.4805 2.04099L18.7373 14.6706C19.0005 15.2026 18.6141 15.8258 18.0205 15.8258V15.8266Z" fill="#EF4452"/>
<path d="M16.0031 30.4042C21.9678 30.4042 26.8031 25.5689 26.8031 19.6042C26.8031 13.6395 21.9678 8.8042 16.0031 8.8042C10.0384 8.8042 5.20312 13.6395 5.20312 19.6042C5.20312 25.5689 10.0384 30.4042 16.0031 30.4042Z" fill="#FFCD00"/>
<path d="M16.649 13.7723L17.9482 16.4051C18.053 16.6171 18.2546 16.7635 18.489 16.7979L21.3938 17.2203C21.9826 17.3059 22.2178 18.0299 21.7914 18.4451L19.689 20.4939C19.5194 20.6587 19.4426 20.8963 19.4826 21.1291L19.9786 24.0227C20.0794 24.6091 19.4634 25.0563 18.937 24.7795L16.3386 23.4131C16.1298 23.3035 15.8794 23.3035 15.6706 23.4131L13.0722 24.7795C12.5458 25.0563 11.9298 24.6091 12.0306 24.0227L12.5266 21.1291C12.5666 20.8963 12.489 20.6587 12.3202 20.4939L10.2178 18.4451C9.79139 18.0299 10.0266 17.3059 10.6154 17.2203L13.5202 16.7979C13.7538 16.7643 13.9562 16.6171 14.061 16.4051L15.3602 13.7723C15.6234 13.2387 16.385 13.2387 16.649 13.7723Z" fill="#FFAA00"/>
</g>
<defs>
<clipPath id="clip0_6500_128072">
<rect width="100%" height="100%" fill="white"/>
</clipPath>
</defs>
</svg>
