<svg width="100%" height="100%" viewBox="0 0 33 32" fill="none" xmlns="http://www.w3.org/2000/svg">
<g clip-path="url(#clip0_4231_6142)">
<path d="M16.3333 2.25781C8.60125 2.25781 2.33325 7.86901 2.33325 14.7906C2.33325 17.5538 3.34045 20.1018 5.03565 22.1722C5.65645 22.9306 5.94045 23.909 5.75325 24.8706L4.98925 28.7882C4.86125 29.4458 5.54925 29.9602 6.14365 29.6506L10.7941 27.2298C11.4509 26.8882 12.2069 26.777 12.9293 26.941C14.0189 27.1882 15.1581 27.3234 16.3333 27.3234C24.0653 27.3234 30.3333 21.7122 30.3333 14.7906C30.3333 7.86901 24.0653 2.25781 16.3333 2.25781Z" fill="#E2E5E8"/>
<path d="M10.5359 13.625C11.4015 13.625 12.1023 14.3266 12.1023 15.1914C12.1023 15.6066 11.9375 16.005 11.6431 16.2994C11.3495 16.593 10.9511 16.7586 10.5351 16.7586C9.66955 16.7586 8.96875 16.057 8.96875 15.1922C8.96875 14.3274 9.67035 13.6258 10.5351 13.6258L10.5359 13.625Z" fill="#333D4B"/>
<path d="M22.1289 16.7578C22.994 16.7578 23.6953 16.0565 23.6953 15.1914C23.6953 14.3263 22.994 13.625 22.1289 13.625C21.2638 13.625 20.5625 14.3263 20.5625 15.1914C20.5625 16.0565 21.2638 16.7578 22.1289 16.7578Z" fill="#333D4B"/>
<path d="M16.3332 16.7578C17.1983 16.7578 17.8996 16.0565 17.8996 15.1914C17.8996 14.3263 17.1983 13.625 16.3332 13.625C15.4681 13.625 14.7668 14.3263 14.7668 15.1914C14.7668 16.0565 15.4681 16.7578 16.3332 16.7578Z" fill="#333D4B"/>
</g>
<defs>
<clipPath id="clip0_4231_6142">
<rect width="32" height="32" fill="white" transform="translate(0.333252)"/>
</clipPath>
</defs>
</svg>
