<svg width="100%" height="100%" viewBox="0 0 21 20" fill="none" xmlns="http://www.w3.org/2000/svg">
<path d="M4.49992 17.5C4.04159 17.5 3.64936 17.3369 3.32325 17.0108C2.99714 16.6847 2.83381 16.2922 2.83325 15.8333V4.16667C2.83325 3.70833 2.99659 3.31611 3.32325 2.99C3.64992 2.66389 4.04214 2.50056 4.49992 2.5H16.1666C16.6249 2.5 17.0174 2.66333 17.3441 2.99C17.6708 3.31667 17.8338 3.70889 17.8333 4.16667V15.8333C17.8333 16.2917 17.6702 16.6842 17.3441 17.0108C17.018 17.3375 16.6255 17.5006 16.1666 17.5H4.49992ZM6.16659 14.1667H14.4999C14.6666 14.1667 14.7916 14.0903 14.8749 13.9375C14.9583 13.7847 14.9444 13.6389 14.8333 13.5L12.5416 10.4375C12.4583 10.3264 12.3471 10.2708 12.2083 10.2708C12.0694 10.2708 11.9583 10.3264 11.8749 10.4375L9.70825 13.3333L8.16659 11.2708C8.08325 11.1597 7.97214 11.1042 7.83325 11.1042C7.69436 11.1042 7.58325 11.1597 7.49992 11.2708L5.83325 13.5C5.72214 13.6389 5.70825 13.7847 5.79159 13.9375C5.87492 14.0903 5.99992 14.1667 6.16659 14.1667Z" fill="currentColor"/>
</svg>
