<svg width="100%" height="100%" viewBox="0 0 20 21" fill="none" xmlns="http://www.w3.org/2000/svg">
<g clip-path="url(#clip0_4076_52082)">
<path d="M8.77348 10.5625H12.3865C12.571 10.5625 12.74 10.458 12.822 10.292L16.6225 2.61947C16.7825 2.29647 16.5475 1.91797 16.187 1.91797H12.574C12.3895 1.91797 12.2205 2.02247 12.1385 2.18847L8.33798 9.86097C8.17798 10.184 8.41298 10.5625 8.77348 10.5625Z" fill="#FF9000"/>
<path d="M11.2265 10.5625H7.61353C7.42903 10.5625 7.26003 10.458 7.17803 10.292L3.37753 2.61947C3.21753 2.29647 3.45253 1.91797 3.81303 1.91797H7.42603C7.61053 1.91797 7.77953 2.02247 7.86153 2.18847L11.662 9.86097C11.822 10.184 11.587 10.5625 11.2265 10.5625Z" fill="#FFAD00"/>
<path d="M9.99996 19.4189C13.6235 19.4189 16.561 16.4814 16.561 12.8579C16.561 9.23434 13.6235 6.29688 9.99996 6.29688C6.37642 6.29688 3.43896 9.23434 3.43896 12.8579C3.43896 16.4814 6.37642 19.4189 9.99996 19.4189Z" fill="#9C5522"/>
<path d="M9.99996 18.1064C12.8986 18.1064 15.2485 15.7565 15.2485 12.8579C15.2485 9.95921 12.8986 7.60938 9.99996 7.60938C7.1013 7.60938 4.75146 9.95921 4.75146 12.8579C4.75146 15.7565 7.1013 18.1064 9.99996 18.1064Z" fill="#CF712D"/>
<path d="M10.0715 14.7436C10.647 14.7436 10.9505 14.4326 10.9585 13.9891C10.966 13.4836 10.7175 13.2191 10.0175 13.2191H9.40305V12.1611H9.99405C10.5075 12.1611 10.7955 11.8731 10.7955 11.4531C10.7955 11.0486 10.5385 10.7606 10.0485 10.7606C9.55855 10.7606 9.23955 11.0721 9.19305 11.4846H7.84755C7.92505 10.4651 8.87405 9.70312 10.0485 9.70312C11.223 9.70312 12.102 10.3491 12.102 11.3211C12.102 11.9671 11.7285 12.4956 11.005 12.6356C11.7985 12.7371 12.265 13.2736 12.265 13.9891C12.265 15.0551 11.347 15.8016 10.0715 15.8016C8.88105 15.8016 7.90105 15.0941 7.80005 14.0206H9.14605C9.24705 14.4561 9.58155 14.7436 10.0715 14.7436Z" fill="white"/>
</g>
<defs>
<clipPath id="clip0_4076_52082">
<rect width="20" height="20" fill="white" transform="translate(0 0.667969)"/>
</clipPath>
</defs>
</svg>
