<svg width="100%" height="100%" viewBox="0 0 20 20" fill="none" xmlns="http://www.w3.org/2000/svg">
<g clip-path="url(#clip0_4076_52069)">
<path d="M8.77348 9.8945H12.3865C12.571 9.8945 12.74 9.79 12.822 9.624L16.6225 1.9515C16.7825 1.6285 16.5475 1.25 16.187 1.25H12.574C12.3895 1.25 12.2205 1.3545 12.1385 1.5205L8.33798 9.193C8.17798 9.516 8.41298 9.8945 8.77348 9.8945Z" fill="#1E6EF4"/>
<path d="M11.2265 9.8945H7.61353C7.42903 9.8945 7.26003 9.79 7.17803 9.624L3.37753 1.9515C3.21753 1.6285 3.45253 1.25 3.81303 1.25H7.42603C7.61053 1.25 7.77953 1.3545 7.86153 1.5205L11.662 9.193C11.822 9.516 11.587 9.8945 11.2265 9.8945Z" fill="#4592FB"/>
<path d="M9.99996 18.7509C13.6235 18.7509 16.561 15.8134 16.561 12.1899C16.561 8.56637 13.6235 5.62891 9.99996 5.62891C6.37642 5.62891 3.43896 8.56637 3.43896 12.1899C3.43896 15.8134 6.37642 18.7509 9.99996 18.7509Z" fill="#8595AA"/>
<path d="M9.99996 17.4384C12.8986 17.4384 15.2485 15.0886 15.2485 12.1899C15.2485 9.29124 12.8986 6.94141 9.99996 6.94141C7.1013 6.94141 4.75146 9.29124 4.75146 12.1899C4.75146 15.0886 7.1013 17.4384 9.99996 17.4384Z" fill="#ABB7C7"/>
<path d="M9.99645 9.06495C11.4039 9.06495 12.0574 9.85845 12.0574 10.893C12.0574 11.686 11.6139 12.223 10.9994 12.814L9.81745 13.942H12.0809V14.984H8.09045V14.2135L10.0274 12.2925C10.6419 11.6855 10.7744 11.3905 10.7744 10.978C10.7744 10.4025 10.4474 10.114 9.98844 10.114C9.52194 10.114 9.21795 10.472 9.21795 10.978L7.91895 10.97C7.95045 9.89695 8.81345 9.06445 9.99645 9.06445V9.06495Z" fill="white"/>
</g>
<defs>
<clipPath id="clip0_4076_52069">
<rect width="20" height="20" fill="white"/>
</clipPath>
</defs>
</svg>
