<svg width="100%" height="100%" viewBox="0 0 20 21" fill="none" xmlns="http://www.w3.org/2000/svg">
<g clip-path="url(#clip0_4076_52056)">
<path d="M8.77348 10.2285H12.3865C12.571 10.2285 12.74 10.124 12.822 9.95798L16.6225 2.28548C16.7825 1.96248 16.5475 1.58398 16.187 1.58398H12.574C12.3895 1.58398 12.2205 1.68848 12.1385 1.85448L8.33798 9.52698C8.17798 9.84998 8.41298 10.2285 8.77348 10.2285Z" fill="#D12030"/>
<path d="M11.2265 10.2285H7.61353C7.42903 10.2285 7.26003 10.124 7.17803 9.95798L3.37753 2.28548C3.21753 1.96248 3.45253 1.58398 3.81303 1.58398H7.42603C7.61053 1.58398 7.77953 1.68848 7.86153 1.85448L11.662 9.52698C11.822 9.84998 11.587 10.2285 11.2265 10.2285Z" fill="#EF4452"/>
<path d="M9.99996 19.0849C13.6235 19.0849 16.561 16.1474 16.561 12.5239C16.561 8.90035 13.6235 5.96289 9.99996 5.96289C6.37642 5.96289 3.43896 8.90035 3.43896 12.5239C3.43896 16.1474 6.37642 19.0849 9.99996 19.0849Z" fill="#FFAD00"/>
<path d="M9.99996 17.7724C12.8986 17.7724 15.2485 15.4226 15.2485 12.5239C15.2485 9.62522 12.8986 7.27539 9.99996 7.27539C7.1013 7.27539 4.75146 9.62522 4.75146 12.5239C4.75146 15.4226 7.1013 17.7724 9.99996 17.7724Z" fill="#FFC450"/>
<path d="M8.18799 11.703V10.466L9.82949 9.43945H10.825V15.32H9.54949V10.8625L8.18799 11.703Z" fill="white"/>
</g>
<defs>
<clipPath id="clip0_4076_52056">
<rect width="20" height="20" fill="white" transform="translate(0 0.333984)"/>
</clipPath>
</defs>
</svg>
