<svg width="100%" height="100%" viewBox="0 0 25 24" fill="none" xmlns="http://www.w3.org/2000/svg">
<g clip-path="url(#clip0_4231_6156)">
<path d="M7.2153 16.407H3.3183C2.6637 16.407 2.1333 15.8766 2.1333 15.222V8.7768C2.1333 8.1222 2.6637 7.5918 3.3183 7.5918H7.2153V16.407Z" fill="#FFA300"/>
<path d="M7.21533 16.4076V7.59235L18.2997 2.33635C19.0857 1.96375 19.9923 2.53675 19.9923 3.40735V20.5932C19.9923 21.4632 19.0857 22.0368 18.2997 21.6642L7.21533 16.4076Z" fill="#FFC33A"/>
<path d="M19.9922 9.79688H21.3482C22.0028 9.79688 22.5332 10.3273 22.5332 10.9819V13.0195C22.5332 13.6741 22.0028 14.2045 21.3482 14.2045H19.9922" fill="#FF9C00"/>
</g>
<defs>
<clipPath id="clip0_4231_6156">
<rect width="24" height="24" fill="white" transform="translate(0.333252)"/>
</clipPath>
</defs>
</svg>
