<svg width="100%" height="100%" viewBox="0 0 25 24" fill="none" xmlns="http://www.w3.org/2000/svg">
<g clip-path="url(#clip0_4076_51743)">
<path d="M15.9627 3.70525L3.56445 16.1035L8.26657 20.8056L20.6648 8.40737L15.9627 3.70525Z" fill="#FFAA00"/>
<path fill-rule="evenodd" clip-rule="evenodd" d="M22.6062 6.46704L20.6658 8.40804L15.9636 3.70524L17.904 1.76484C18.429 1.23984 19.2798 1.23984 19.8042 1.76484L22.6062 4.56684C23.1312 5.09184 23.1312 5.94204 22.6062 6.46704Z" fill="#FF9000"/>
<path fill-rule="evenodd" clip-rule="evenodd" d="M2.4769 22.3581L4.7749 21.7425L2.6287 19.5957L2.0131 21.8943C1.9375 22.1757 2.1955 22.4331 2.4769 22.3581Z" fill="#313D4C"/>
<path fill-rule="evenodd" clip-rule="evenodd" d="M2.62964 19.5949L4.77524 21.7417L8.26784 20.8057L3.56564 16.1035L2.62964 19.5949Z" fill="#FFCCA8"/>
</g>
<defs>
<clipPath id="clip0_4076_51743">
<rect width="24" height="24" fill="white" transform="translate(0.5)"/>
</clipPath>
</defs>
</svg>
