<svg width="100%" height="100%" viewBox="0 0 17 16" fill="none" xmlns="http://www.w3.org/2000/svg">
<path d="M8.4663 14.5H4.66644C3.67114 14.5 2.6665 13.744 2.6665 12.0561V8.6962C2.68052 7.16437 3.2541 5.69051 4.27923 4.55217C5.30436 3.41383 6.71031 2.68956 8.23231 2.51575C9.09119 2.4534 9.95342 2.57667 10.7604 2.87717C11.5674 3.17768 12.3003 3.64838 12.9092 4.2573C13.5181 4.86622 13.9888 5.59907 14.2893 6.40608C14.5898 7.21308 14.7131 8.07531 14.6508 8.93419C14.4767 10.4568 13.7518 11.8632 12.6127 12.8884C11.4735 13.9136 9.99879 14.4868 8.4663 14.5Z" fill="#A7ADB6"/>
</svg>
