<svg width="100%" height="100%" viewBox="0 0 33 32" fill="none" xmlns="http://www.w3.org/2000/svg">
<g clip-path="url(#clip0_4076_51924)">
<path d="M17.8993 3.63729L20.3865 8.67649C20.5865 9.08209 20.9737 9.36369 21.4217 9.42849L26.9825 10.2365C28.1097 10.4005 28.5601 11.7853 27.7441 12.5805L23.7201 16.5029C23.3961 16.8189 23.2481 17.2733 23.3249 17.7197L24.2745 23.2581C24.4673 24.3805 23.2889 25.2373 22.2801 24.7069L17.3057 22.0917C16.9057 21.8813 16.4273 21.8813 16.0265 22.0917L11.0521 24.7069C10.0441 25.2373 8.86567 24.3805 9.05767 23.2581L10.0073 17.7197C10.0841 17.2741 9.93607 16.8189 9.61207 16.5029L5.58807 12.5805C4.77207 11.7853 5.22247 10.3997 6.34967 10.2365L11.9105 9.42849C12.3585 9.36369 12.7449 9.08209 12.9457 8.67649L15.4329 3.63729C15.9369 2.61569 17.3937 2.61569 17.8977 3.63729H17.8993Z" fill="#FFCD00"/>
<path d="M22.7927 3.32065C22.4439 3.79505 22.0911 5.35425 21.8655 6.52385C21.7551 7.09585 22.3559 7.53825 22.8695 7.26225C23.9191 6.69826 25.3031 5.89825 25.6519 5.42385C26.2327 4.63425 26.0639 3.52385 25.2743 2.94305C24.4847 2.36225 23.3735 2.53105 22.7927 3.32065Z" fill="#FFE63B"/>
<path d="M29.4497 17.0599C28.8913 16.8743 27.2993 17.0207 26.1169 17.1679C25.5385 17.2399 25.3041 17.9479 25.7249 18.3511C26.5857 19.1751 27.7745 20.2439 28.3329 20.4295C29.2633 20.7383 30.2673 20.2343 30.5761 19.3039C30.8849 18.3735 30.3809 17.3695 29.4505 17.0607L29.4497 17.0599Z" fill="#FFE63B"/>
<path d="M18.4409 27.6368C18.4441 27.048 17.8137 25.5792 17.3089 24.5C17.0617 23.972 16.3161 23.968 16.0625 24.4928C15.5449 25.5656 14.8953 27.0264 14.8921 27.6152C14.8865 28.5952 15.6761 29.3944 16.6561 29.4008C17.6361 29.4064 18.4345 28.6168 18.4409 27.6368Z" fill="#FFE63B"/>
<path d="M4.97923 20.4341C5.54003 20.2557 6.74163 19.2013 7.61203 18.3877C8.03763 17.9901 7.81123 17.2789 7.23443 17.1997C6.05363 17.0389 4.46403 16.8733 3.90323 17.0517C2.96963 17.3485 2.45283 18.3469 2.75043 19.2805C3.04803 20.2141 4.04563 20.7317 4.97923 20.4341Z" fill="#FFE63B"/>
<path d="M7.66892 5.40695C8.01212 5.88535 9.38572 6.70215 10.4289 7.27895C10.9385 7.56055 11.5449 7.12615 11.4417 6.55255C11.2297 5.37975 10.8961 3.81655 10.5529 3.33815C9.98172 2.54215 8.87292 2.35895 8.07692 2.93015C7.28092 3.50135 7.09772 4.61015 7.66892 5.40615V5.40695Z" fill="#FFE63B"/>
</g>
<defs>
<clipPath id="clip0_4076_51924">
<rect width="32" height="32" fill="white" transform="translate(0.666504)"/>
</clipPath>
</defs>
</svg>
