<svg viewBox="0 0 39 25" fill="none"
  xmlns="http://www.w3.org/2000/svg">
  <path d="M33.4394 11.7195L35.8549 15.7513L34.5969 17.8275L30.9736 11.6953L33.4394 11.7195Z" fill="url(#paint0_linear_368_6193)"/>
  <path d="M13.6754 20.93L6.70569 9.14844L4.20215 9.36572L12.1154 22.7769L19.5379 24.998V22.6803L13.6754 20.93Z" fill="url(#paint1_linear_368_6193)"/>
  <path d="M25.3626 20.9298L30.8226 11.6953L33.4393 11.7195L26.91 22.7767L19.5377 24.9978L19.5 22.6802L25.3626 20.9298Z" fill="url(#paint2_linear_368_6193)"/>
  <path d="M0 8.13602L19.5 2.31768V0L0 5.81834V8.13602Z" fill="url(#paint3_linear_368_6193)"/>
  <path d="M5.86279 7.55469L19.5002 11.6348L19.5379 13.9525L4.20215 9.36538L5.86279 7.55469Z" fill="url(#paint4_linear_368_6193)"/>
  <path d="M19.5 0L39 5.81834V8.13602L19.5 2.31768V0Z" fill="url(#paint5_linear_368_6193)"/>
  <path d="M39 5.82031L19.5 11.6387L19.5377 13.9563L39 8.13799V5.82031Z" fill="url(#paint6_linear_368_6193)"/>
  <path d="M3.13257 9.076L0 8.13444V5.80469L3.10741 6.79453L3.13257 9.076Z" fill="url(#paint7_linear_368_6193)"/>
  <defs>
    <linearGradient id="paint0_linear_368_6193" x1="33.4143" y1="11.6953" x2="33.4143" y2="17.8275" gradientUnits="userSpaceOnUse">
      <stop stop-color="#00CBBC"/>
      <stop offset="1" stop-color="#D5E8E7"/>
    </linearGradient>
    <linearGradient id="paint1_linear_368_6193" x1="11.87" y1="9.14844" x2="11.87" y2="24.998" gradientUnits="userSpaceOnUse">
      <stop stop-color="#00CBBC"/>
      <stop offset="1" stop-color="#D5E8E7"/>
    </linearGradient>
    <linearGradient id="paint2_linear_368_6193" x1="26.4697" y1="11.6953" x2="26.4697" y2="24.9978" gradientUnits="userSpaceOnUse">
      <stop stop-color="#00CBBC"/>
      <stop offset="1" stop-color="#D5E8E7"/>
    </linearGradient>
    <linearGradient id="paint3_linear_368_6193" x1="9.74998" y1="0" x2="9.74998" y2="8.13602" gradientUnits="userSpaceOnUse">
      <stop stop-color="#00CBBC"/>
      <stop offset="1" stop-color="#D5E8E7"/>
    </linearGradient>
    <linearGradient id="paint4_linear_368_6193" x1="11.87" y1="7.55469" x2="11.87" y2="13.9525" gradientUnits="userSpaceOnUse">
      <stop stop-color="#00CBBC"/>
      <stop offset="1" stop-color="#D5E8E7"/>
    </linearGradient>
    <linearGradient id="paint5_linear_368_6193" x1="29.25" y1="0" x2="29.25" y2="8.13602" gradientUnits="userSpaceOnUse">
      <stop stop-color="#00CBBC"/>
      <stop offset="1" stop-color="#D5E8E7"/>
    </linearGradient>
    <linearGradient id="paint6_linear_368_6193" x1="29.25" y1="5.82031" x2="29.25" y2="13.9563" gradientUnits="userSpaceOnUse">
      <stop stop-color="#00CBBC"/>
      <stop offset="1" stop-color="#D5E8E7"/>
    </linearGradient>
    <linearGradient id="paint7_linear_368_6193" x1="1.56629" y1="5.80469" x2="1.56629" y2="9.076" gradientUnits="userSpaceOnUse">
      <stop stop-color="#00CBBC"/>
      <stop offset="1" stop-color="#D5E8E7"/>
    </linearGradient>
  </defs>
</svg>
