<svg width="32" height="33" viewBox="0 0 32 33" fill="none" xmlns="http://www.w3.org/2000/svg">
<g clip-path="url(#clip0_5730_103390)">
<path d="M30 10.7133V20.1797H2V10.7133C2 9.24048 3.1936 8.04688 4.6664 8.04688H27.3328C28.8056 8.04688 30 9.24048 30 10.7133Z" fill="#C3846C"/>
<path d="M30 20.1797V26.1797C30 27.6525 28.8064 28.8461 27.3336 28.8461H4.6664C3.1936 28.8461 2 27.6525 2 26.1797V20.1797H30Z" fill="#956759"/>
<path d="M22.3313 8.04594H20.3313C20.3313 6.44994 19.0329 5.15234 17.4377 5.15234H14.5577C12.9625 5.15234 11.6641 6.45074 11.6641 8.04594H9.66406C9.66406 5.34754 11.8593 3.15234 14.5577 3.15234H17.4377C20.1361 3.15234 22.3313 5.34754 22.3313 8.04594Z" fill="#C3846C"/>
<path d="M18.6625 20.1523C18.6625 21.2275 17.7905 22.0995 16.7153 22.0995H15.2753C14.2001 22.0995 13.3281 21.2275 13.3281 20.1523H18.6625Z" fill="#FFC33A"/>
</g>
<defs>
<clipPath id="clip0_5730_103390">
<rect width="32" height="32" fill="white" transform="translate(0 0.5)"/>
</clipPath>
</defs>
</svg>
