<svg width="32" height="33" viewBox="0 0 32 33" fill="none" xmlns="http://www.w3.org/2000/svg">
<g clip-path="url(#clip0_5730_103362)">
<path fill-rule="evenodd" clip-rule="evenodd" d="M26.2672 21.7633C26.2672 24.6969 21.7336 27.4969 16.0008 27.4969C10.268 27.4969 5.73438 24.5633 5.73438 21.7633V14.4297L16.0008 11.3633L26.2672 14.2969V21.7633Z" fill="#4E5968"/>
<path fill-rule="evenodd" clip-rule="evenodd" d="M1.33301 11.0967L14.6658 3.36309C15.4658 2.82949 16.5322 2.82949 17.3322 3.36309L30.6658 11.0967C31.5994 11.6303 31.5994 12.8303 30.6658 13.3631L17.3322 21.0967C16.5322 21.6303 15.4658 21.6303 14.6658 21.0967L1.33301 13.3631C0.399412 12.8295 0.399412 11.6295 1.33301 11.0967Z" fill="#6B7683"/>
<path fill-rule="evenodd" clip-rule="evenodd" d="M16.4016 11.4969L14.9352 10.2969L5.60156 16.1633V27.3633C5.60156 27.8969 6.00156 28.2969 6.53516 28.2969C7.06876 28.2969 7.46876 27.8969 7.46876 27.3633V17.0969L16.4016 11.4969Z" fill="#FFC100"/>
<path fill-rule="evenodd" clip-rule="evenodd" d="M18.1344 10.6959C18.1344 11.4959 17.2008 12.1623 16.0008 12.1623C14.8008 12.1623 13.8672 11.4959 13.8672 10.6959C13.8672 9.89594 14.8008 9.22954 16.0008 9.22954C17.2008 9.09594 18.1344 9.89594 18.1344 10.6959Z" fill="#303D4C"/>
<path fill-rule="evenodd" clip-rule="evenodd" d="M6.66328 24.5625C5.59688 24.5625 4.79688 25.3625 4.79688 26.2961V29.0657C4.79688 29.4809 5.62727 30.0353 6.59688 30.0353C7.56648 30.0353 8.39688 29.6201 8.39688 29.0657V26.2961C8.39688 25.3625 7.73048 24.5625 6.66328 24.5625Z" fill="#FFDA16"/>
</g>
<defs>
<clipPath id="clip0_5730_103362">
<rect width="32" height="32" fill="white" transform="translate(0 0.5)"/>
</clipPath>
</defs>
</svg>
