<svg width="20" height="14" viewBox="0 0 20 14" fill="none" xmlns="http://www.w3.org/2000/svg">
<path d="M8.04133 7.00085C8.04133 5.9037 8.91586 5.01428 9.99465 5.01428C11.0734 5.01428 11.948 5.9037 11.948 7.00085C11.948 8.09801 11.0734 8.98742 9.99465 8.98742C8.91586 8.98742 8.04133 8.09801 8.04133 7.00085Z" fill="#C9CED8"/>
<path fill-rule="evenodd" clip-rule="evenodd" d="M19.3836 7.60057C19.5388 7.21589 19.5388 6.78411 19.3836 6.39942C17.8686 2.64448 14.238 0 10 0C5.76204 0 2.1314 2.64448 0.616407 6.39942C0.461198 6.78411 0.461198 7.21589 0.616407 7.60058C2.1314 11.3555 5.76204 14 10 14C14.238 14 17.8686 11.3555 19.3836 7.60057ZM9.99465 3.31151C7.99119 3.31151 6.36706 4.96328 6.36706 7.00085C6.36706 9.03842 7.99119 10.6902 9.99465 10.6902C11.9981 10.6902 13.6222 9.03842 13.6222 7.00085C13.6222 4.96328 11.9981 3.31151 9.99465 3.31151Z" fill="#C9CED8"/>
</svg>
