<svg width="32" height="33" viewBox="0 0 32 33" fill="none" xmlns="http://www.w3.org/2000/svg">
<g clip-path="url(#clip0_5730_103343)">
<path d="M16.4027 6.54245L21.6083 4.33845C22.1995 4.08805 22.1995 3.25045 21.6083 3.00005L16.2891 0.748047C16.3587 0.820047 16.4027 0.917647 16.4027 1.02565V6.54245Z" fill="#4592FB"/>
<path d="M16.4016 6.79335V1.02695C16.4016 0.918953 16.3576 0.821353 16.288 0.749353C16.2152 0.674153 16.1144 0.626953 16.0016 0.626953C15.7808 0.626953 15.6016 0.806153 15.6016 1.02695V6.79335C15.8544 6.65895 16.1488 6.65895 16.4016 6.79335Z" fill="#333D4B"/>
<path d="M20.5391 30.666H27.0743C28.0271 30.666 28.7999 29.8932 28.7999 28.9404V14.334H20.5391V30.666Z" fill="#D0D5DA"/>
<path d="M3.20312 14.3328V28.9392C3.20312 29.892 3.97593 30.6648 4.92873 30.6648H11.4639V14.332L3.20312 14.3328Z" fill="#D0D5DA"/>
<path d="M28.8031 13.4674V14.3314H20.5391L16.0031 9.77136L11.4671 14.3314H3.20312V13.4674C3.20312 12.5154 3.97912 11.7394 4.93112 11.7394H10.6031L15.3951 6.93136C15.4511 6.86736 15.5311 6.83536 15.6031 6.79536C15.8591 6.65936 16.1471 6.65936 16.4031 6.79536C16.4751 6.83536 16.5551 6.86736 16.6111 6.93136L21.4031 11.7394H27.0751C28.0271 11.7394 28.8031 12.5154 28.8031 13.4674Z" fill="#4592FB"/>
<path d="M20.5393 14.3331L16.0001 9.77148L11.4609 14.3331V30.6659H20.5393V14.3331ZM18.1577 30.6659H13.8433V27.3163C13.8433 26.7835 14.2753 26.3515 14.8081 26.3515H17.1929C17.7257 26.3515 18.1577 26.7835 18.1577 27.3163V30.6659ZM16.0001 20.2523C14.3657 20.2523 13.0409 18.9275 13.0409 17.2939C13.0409 15.6603 14.3657 14.3347 16.0001 14.3347C17.6345 14.3347 18.9593 15.6595 18.9593 17.2939C18.9593 18.9283 17.6345 20.2523 16.0001 20.2523Z" fill="#E5E9EE"/>
<path d="M15.9983 14.334C14.3639 14.334 13.0391 15.6588 13.0391 17.2932C13.0391 18.9276 14.3639 20.2516 15.9983 20.2516C17.6327 20.2516 18.9575 18.9268 18.9575 17.2932C18.9575 15.6596 17.6327 14.334 15.9983 14.334ZM16.3983 17.7004H14.5791C14.3583 17.7004 14.1791 17.5212 14.1791 17.3004C14.1791 17.0796 14.3583 16.9004 14.5791 16.9004H15.5983V15.4508C15.5983 15.23 15.7775 15.0508 15.9983 15.0508C16.2191 15.0508 16.3983 15.23 16.3983 15.4508V17.7004Z" fill="white"/>
<path d="M17.1933 26.3516H14.8085C14.2757 26.3516 13.8438 26.7836 13.8438 27.3164V30.666H18.1581V27.3164C18.1581 26.7836 17.7261 26.3516 17.1933 26.3516Z" fill="#6B7683"/>
<path d="M15.9989 15.0508C15.7781 15.0508 15.5989 15.23 15.5989 15.4508V16.9004H14.5797C14.3589 16.9004 14.1797 17.0796 14.1797 17.3004C14.1797 17.5212 14.3589 17.7004 14.5797 17.7004H16.3989V15.4508C16.3989 15.23 16.2197 15.0508 15.9989 15.0508Z" fill="#6B7683"/>
</g>
<defs>
<clipPath id="clip0_5730_103343">
<rect width="32" height="32" fill="white" transform="translate(0 0.5)"/>
</clipPath>
</defs>
</svg>
