<svg width="32" height="33" viewBox="0 0 32 33" fill="none" xmlns="http://www.w3.org/2000/svg">
<path fill-rule="evenodd" clip-rule="evenodd" d="M10.5127 4.5C9.42155 4.5 8.37506 4.91005 7.60348 5.63994C6.83191 6.36983 6.39844 7.35978 6.39844 8.392V27.2034C6.39856 27.4244 6.4584 27.6418 6.57226 27.8348C6.68612 28.0278 6.85024 28.1902 7.04904 28.3063C7.24783 28.4225 7.47472 28.4887 7.70816 28.4987C7.9416 28.5086 8.17386 28.462 8.38289 28.3632L15.9984 24.7618L23.614 28.3632C23.823 28.462 24.0553 28.5086 24.2887 28.4987C24.5222 28.4887 24.749 28.4225 24.9478 28.3063C25.1466 28.1902 25.3108 28.0278 25.4246 27.8348C25.5385 27.6418 25.5983 27.4244 25.5984 27.2034V8.392C25.5984 7.35978 25.165 6.36983 24.3934 5.63994C23.6218 4.91005 22.5753 4.5 21.4842 4.5H10.5127Z" fill="#E5E9F1"/>
</svg>
