<svg width="24" height="24" viewBox="0 0 24 24" fill="none" xmlns="http://www.w3.org/2000/svg">
<path d="M19 14.8506C19.3208 14.8499 19.5974 14.9607 19.8193 15.1826C20.0412 15.4045 20.1518 15.6808 20.1504 16.001V18.001C20.1503 18.5908 19.9385 19.0997 19.5195 19.5195C19.1527 19.887 18.7167 20.0958 18.2178 20.1416L18 20.1504H6C5.40998 20.1504 4.90167 19.9387 4.48242 19.5195C4.06316 19.1003 3.85032 18.5916 3.84961 18.001V16.001C3.84961 15.6799 3.96019 15.4034 4.18164 15.1826C4.40298 14.962 4.67965 14.8513 5 14.8506C5.32075 14.8499 5.59738 14.9607 5.81934 15.1826C6.04122 15.4045 6.15178 15.6808 6.15039 16.001V17.8506H17.8496V16.001C17.8496 15.6799 17.9602 15.4034 18.1816 15.1826C18.403 14.962 18.6797 14.8513 19 14.8506ZM11.999 4.27539C12.1489 4.27464 12.2922 4.29843 12.4268 4.34766C12.5312 4.38586 12.628 4.4427 12.7178 4.51562L12.8057 4.59375V4.59473L16.4062 8.19434C16.6334 8.4215 16.7475 8.69436 16.7383 9.00488C16.7292 9.30834 16.6181 9.57673 16.4102 9.80273L16.4062 9.80664C16.1802 10.0327 15.9068 10.1541 15.5928 10.1641C15.2752 10.1741 14.9974 10.0609 14.7686 9.83203L13.1504 8.21387V15.001C13.1503 15.3221 13.0398 15.5989 12.8184 15.8203C12.597 16.0417 12.3206 16.1511 12 16.1504C11.6797 16.1496 11.403 16.0399 11.1816 15.8193C10.9601 15.5985 10.8497 15.322 10.8496 15.001V8.21387L9.23145 9.83203C9.00321 10.0603 8.7255 10.1733 8.4082 10.1641C8.09409 10.1548 7.8204 10.0333 7.59375 9.80664L7.58887 9.80273L7.58984 9.80176C7.38278 9.57587 7.27161 9.30894 7.26172 9.00586C7.25161 8.69489 7.36574 8.42162 7.59375 8.19434L11.1943 4.59473C11.3078 4.48129 11.4347 4.39742 11.5752 4.34766C11.7088 4.30036 11.8503 4.27616 11.999 4.27539Z" fill="#818791" stroke="#818791" stroke-width="0.3"/>
</svg>
