<svg width="100%" height="100%" viewBox="0 0 20 20" fill="none" xmlns="http://www.w3.org/2000/svg">
<path d="M9.9987 12.9791C9.88759 12.9791 9.78342 12.9619 9.6862 12.9274C9.58898 12.893 9.4987 12.8338 9.41536 12.7499L6.41536 9.74992C6.2487 9.58325 6.1687 9.38881 6.17536 9.16659C6.18203 8.94437 6.26203 8.74992 6.41536 8.58325C6.58203 8.41659 6.78009 8.32992 7.00953 8.32325C7.23898 8.31659 7.43675 8.39631 7.60286 8.56242L9.16536 10.1249V4.16659C9.16536 3.93048 9.24536 3.7327 9.40536 3.57325C9.56536 3.41381 9.76314 3.33381 9.9987 3.33325C10.2343 3.3327 10.4323 3.4127 10.5929 3.57325C10.7534 3.73381 10.8331 3.93159 10.832 4.16659V10.1249L12.3945 8.56242C12.5612 8.39575 12.7593 8.31576 12.9887 8.32242C13.2181 8.32909 13.4159 8.41603 13.582 8.58325C13.7348 8.74992 13.8148 8.94437 13.822 9.16659C13.8293 9.38881 13.7493 9.58325 13.582 9.74992L10.582 12.7499C10.4987 12.8333 10.4084 12.8924 10.3112 12.9274C10.214 12.9624 10.1098 12.9796 9.9987 12.9791ZM4.9987 16.6666C4.54036 16.6666 4.14814 16.5035 3.82203 16.1774C3.49592 15.8513 3.33259 15.4588 3.33203 14.9999V13.3333C3.33203 13.0971 3.41203 12.8994 3.57203 12.7399C3.73203 12.5805 3.92981 12.5005 4.16536 12.4999C4.40092 12.4994 4.59898 12.5794 4.75953 12.7399C4.92009 12.9005 4.99981 13.0983 4.9987 13.3333V14.9999H14.9987V13.3333C14.9987 13.0971 15.0787 12.8994 15.2387 12.7399C15.3987 12.5805 15.5965 12.5005 15.832 12.4999C16.0676 12.4994 16.2656 12.5794 16.4262 12.7399C16.5868 12.9005 16.6665 13.0983 16.6654 13.3333V14.9999C16.6654 15.4583 16.5023 15.8508 16.1762 16.1774C15.8501 16.5041 15.4576 16.6671 14.9987 16.6666H4.9987Z" fill="currentColor"/>
</svg>
