<svg width="100%" height="100%" viewBox="0 0 20 20" fill="none" xmlns="http://www.w3.org/2000/svg">
<path d="M15.2516 4.75843C14.9266 4.43343 14.4016 4.43343 14.0766 4.75843L10.0016 8.8251L5.92656 4.7501C5.60156 4.4251 5.07656 4.4251 4.75156 4.7501C4.42656 5.0751 4.42656 5.6001 4.75156 5.9251L8.82656 10.0001L4.75156 14.0751C4.42656 14.4001 4.42656 14.9251 4.75156 15.2501C5.07656 15.5751 5.60156 15.5751 5.92656 15.2501L10.0016 11.1751L14.0766 15.2501C14.4016 15.5751 14.9266 15.5751 15.2516 15.2501C15.5766 14.9251 15.5766 14.4001 15.2516 14.0751L11.1766 10.0001L15.2516 5.9251C15.5682 5.60843 15.5682 5.0751 15.2516 4.75843Z" fill="currentColor"/>
</svg>
