<svg width="100%" height="100%" viewBox="0 0 41 40" fill="none" xmlns="http://www.w3.org/2000/svg">
<g clip-path="url(#clip0_2691_126439)">
<path d="M17.2259 6.63219L3.31088 30.7342C1.85588 33.2542 3.67488 36.4042 6.58488 36.4042H34.4159C37.3259 36.4042 39.1439 33.2542 37.6899 30.7342L23.7739 6.63219C22.3189 4.11219 18.6809 4.11219 17.2259 6.63219Z" fill="#FFCD00"/>
<path d="M20.5001 27.5469C19.4561 27.5469 18.6101 28.3929 18.6101 29.4369C18.6101 30.4809 19.4561 31.3269 20.5001 31.3269C21.5441 31.3269 22.3901 30.4809 22.3901 29.4369C22.3901 28.3929 21.5441 27.5469 20.5001 27.5469Z" fill="#303D4C"/>
<path d="M20.5001 25.0789C19.6161 25.0789 18.9001 24.3629 18.9001 23.4789V15.6039C18.9001 14.7199 19.6161 14.0039 20.5001 14.0039C21.3841 14.0039 22.1001 14.7199 22.1001 15.6039V23.4789C22.1001 24.3629 21.3841 25.0789 20.5001 25.0789Z" fill="#303D4C"/>
</g>
<defs>
<clipPath id="clip0_2691_126439">
<rect width="40" height="40" fill="white" transform="translate(0.5)"/>
</clipPath>
</defs>
</svg>
