<svg width="100%" height="100%" viewBox="0 0 40 40" fill="none" xmlns="http://www.w3.org/2000/svg">
<g clip-path="url(#clip0_5163_101007)">
<path d="M20 35.9131C27.8701 35.9131 34.25 29.5331 34.25 21.6631C34.25 13.793 27.8701 7.41309 20 7.41309C12.1299 7.41309 5.75 13.793 5.75 21.6631C5.75 29.5331 12.1299 35.9131 20 35.9131Z" fill="white"/>
<path d="M20.0019 37.4541C11.2949 37.4541 4.21094 30.3711 4.21094 21.6631C4.21094 12.9551 11.2939 5.87207 20.0019 5.87207C28.7099 5.87207 35.7929 12.9551 35.7929 21.6631C35.7929 30.3711 28.7099 37.4541 20.0019 37.4541ZM20.0019 8.95407C12.9939 8.95407 7.29294 14.6561 7.29294 21.6631C7.29294 28.6701 12.9949 34.3721 20.0019 34.3721C27.0089 34.3721 32.7109 28.6701 32.7109 21.6631C32.7109 14.6561 27.0089 8.95407 20.0019 8.95407Z" fill="#EF4452"/>
<path d="M33.7593 10.4541C34.6423 11.0721 35.9053 10.6431 36.1773 9.60012C36.7923 7.24412 35.9253 4.65012 33.8133 3.17212C31.7013 1.69312 28.9683 1.76512 26.9643 3.14912C26.0773 3.76212 26.1053 5.09512 26.9893 5.71412L33.7593 10.4541Z" fill="#EF4452"/>
<path d="M6.24439 10.4541C5.36139 11.0721 4.09839 10.6431 3.82639 9.60012C3.21139 7.24412 4.07839 4.65012 6.19039 3.17212C8.30239 1.69312 11.0354 1.76512 13.0394 3.14912C13.9264 3.76212 13.8984 5.09512 13.0144 5.71412L6.24439 10.4541Z" fill="#EF4452"/>
<path d="M19.9991 23.2041H14.1191C13.2681 23.2041 12.5781 22.5141 12.5781 21.6631C12.5781 20.8121 13.2681 20.1221 14.1191 20.1221H19.9991C20.8501 20.1221 21.5401 20.8121 21.5401 21.6631C21.5401 22.5141 20.8501 23.2041 19.9991 23.2041Z" fill="#EF4452"/>
<path d="M20.0019 23.2039C19.1509 23.2039 18.4609 22.5139 18.4609 21.6629V13.2329C18.4609 12.3819 19.1509 11.6919 20.0019 11.6919C20.8529 11.6919 21.5429 12.3819 21.5429 13.2329V21.6629C21.5429 22.5139 20.8529 23.2039 20.0019 23.2039Z" fill="#313D4C"/>
</g>
<defs>
<clipPath id="clip0_5163_101007">
<rect width="100%" height="100%" fill="white"/>
</clipPath>
</defs>
</svg>
