<svg width="100%" height="100%" viewBox="0 0 32 32" fill="none" xmlns="http://www.w3.org/2000/svg">
<g clip-path="url(#clip0_4076_52131)">
<path d="M24.9765 8.85637C25.3037 11.0396 25.6837 12.2892 24.1221 12.2892C21.9973 12.2892 21.9965 7.26037 18.4005 4.39557C14.8429 1.56197 12.1893 2.25077 12.1333 2.26597C12.1325 2.26677 12.1309 2.26837 12.1301 2.26917C15.0933 4.74277 13.4405 8.80837 11.5013 9.92917C9.64046 11.0044 7.51645 9.64837 8.62846 6.45717C6.18286 9.80117 4.07166 13.8532 4.07166 17.8908C4.07166 24.4788 9.41246 29.8196 16.0005 29.8196C22.5885 29.8196 27.9293 24.4788 27.9293 17.8908C27.9293 14.778 26.6717 11.6564 24.9765 8.85637Z" fill="#EF4452"/>
<path d="M16.001 16.0156C16.001 16.0156 21.1882 19.0028 21.1882 23.1764C21.1882 26.0412 18.8658 28.3636 16.001 28.3636C13.1362 28.3636 10.8138 26.0412 10.8138 23.1764C10.8138 19.0028 16.001 16.0156 16.001 16.0156Z" fill="#FF7978"/>
</g>
<defs>
<clipPath id="clip0_4076_52131">
<rect width="32" height="32" fill="white"/>
</clipPath>
</defs>
</svg>
