<svg width="100%" height="100%" viewBox="0 0 24 24" fill="none" xmlns="http://www.w3.org/2000/svg">
<g clip-path="url(#clip0_4783_242252)">
<path fill-rule="evenodd" clip-rule="evenodd" d="M17.6269 16.2534C17.8619 15.8463 17.7574 15.3472 17.424 15.0047C16.4992 14.0665 16.2738 12.597 16.9638 11.4018L19.4638 7.07171L20.3298 7.57171C20.8061 7.84671 21.4208 7.682 21.6958 7.20569C21.9708 6.72937 21.8061 6.11466 21.3298 5.83966L12.6696 0.839661C12.1932 0.564661 11.5785 0.729372 11.3035 1.20569C11.0285 1.682 11.1932 2.29671 11.6696 2.57171L12.5356 3.07171L10.0356 7.40184C9.34558 8.59695 7.96017 9.13654 6.68532 8.80465C6.22195 8.68724 5.7375 8.84632 5.5025 9.25336L5.4375 9.36594C5.1625 9.84225 5.32721 10.457 5.80353 10.732L10.1163 13.222L6.63365 19.2941C6.35865 19.7705 6.52336 20.3852 6.99968 20.6602C7.47599 20.9352 8.0907 20.7705 8.3657 20.2941L11.8484 14.222L16.1958 16.732C16.6721 17.007 17.2869 16.8423 17.5619 16.3659L17.6269 16.2534Z" fill="currentColor"/>
</g>
<defs>
<clipPath id="clip0_4783_242252">
<rect width="100%" height="100%" fill="currentColor"/>
</clipPath>
</defs>
</svg>
