<svg width="100%" height="100%" viewBox="0 0 24 24" fill="none" xmlns="http://www.w3.org/2000/svg">
<path d="M12 1.75C17.6581 1.75 22.25 6.34193 22.25 12C22.25 17.6581 17.6581 22.25 12 22.25C6.34193 22.25 1.75 17.6581 1.75 12C1.75 6.34193 6.34193 1.75 12 1.75ZM7.47949 18.2822C8.74862 19.206 10.3089 19.75 12 19.75C16.2819 19.75 19.75 16.2819 19.75 12V11.999C19.7534 10.3723 19.2383 8.78937 18.2832 7.47852L7.47949 18.2822ZM12 4.25C7.71807 4.25 4.25 7.71807 4.25 12V12.001C4.24665 13.6272 4.76128 15.2099 5.71582 16.5205L16.5195 5.7168C15.2506 4.79356 13.6906 4.25 12 4.25Z" fill="#FF2E3E" stroke="#FF2E3E" stroke-width="0.5"/>
</svg>
