<svg width="100%" height="100%" viewBox="0 0 32 32" fill="none" xmlns="http://www.w3.org/2000/svg">
<g clip-path="url(#clip0_4076_51994)">
<path d="M1.19995 10V23.6C1.19995 24.5464 1.54235 25.404 2.09195 26.0896L11.504 18.5872L1.19995 10Z" fill="#D0D5DA"/>
<path d="M29.908 26.0896C30.4576 25.4048 30.8 24.5464 30.8 23.6V10L20.496 18.5864L29.908 26.0896Z" fill="#D0D5DA"/>
<path d="M22.0703 16.3232L17.5559 20.7152C17.9623 20.5584 18.3575 20.348 18.7231 20.064L20.4959 18.5864L30.7999 10L22.2783 15.8712C22.2151 16.0216 22.1503 16.172 22.0703 16.3232Z" fill="#AFB7C0"/>
<path d="M13.1832 19.9856C11.968 18.9848 10.6616 17.7008 9.92955 16.3224C9.84955 16.172 9.78475 16.0208 9.72155 15.8704L1.19995 10L11.504 18.5864L13.1832 19.9856Z" fill="#AFB7C0"/>
<path d="M18.7232 20.0635C18.3576 20.3467 17.9624 20.5571 17.556 20.7147L16.6784 21.5683C16.2656 21.8411 15.7336 21.8411 15.3208 21.5683C14.7912 21.2187 14.0072 20.6651 13.1824 19.9851L11.5032 18.5859L2.09119 26.0883C2.82399 27.0019 3.93679 27.5987 5.19919 27.5987H26.7992C28.0616 27.5987 29.1744 27.0019 29.9072 26.0883L20.4952 18.5859L18.7232 20.0635Z" fill="#E5E9EE"/>
<path d="M26.8 4.40039H5.19995C2.99115 4.40039 1.19995 6.19159 1.19995 8.40039V10.0004L9.72155 15.8716C8.50475 12.978 10.3368 10.2268 12.7272 10.2268C14.1608 10.2268 15.024 10.9756 15.5008 11.6196C15.752 11.9588 16.2488 11.9588 16.5 11.6196C16.9768 10.9756 17.84 10.2268 19.2736 10.2268C21.6639 10.2268 23.4952 12.978 22.2792 15.8716L30.8008 10.0004V8.40039C30.8008 6.19159 29.0088 4.40039 26.8 4.40039Z" fill="#E5E9EE"/>
<path d="M9.92956 16.3245C10.6616 17.7021 11.968 18.9861 13.1832 19.9877C14.008 20.6677 14.792 21.2205 15.3216 21.5709C15.7344 21.8437 16.2664 21.8437 16.6792 21.5709L17.5568 20.7173L22.0712 16.3253C22.1512 16.1749 22.216 16.0237 22.2792 15.8733C23.496 12.9797 21.664 10.2285 19.2736 10.2285C17.84 10.2285 16.9768 10.9773 16.5 11.6213C16.2488 11.9605 15.752 11.9605 15.5008 11.6213C15.024 10.9773 14.1608 10.2285 12.7272 10.2285C10.3368 10.2285 8.50557 12.9797 9.72157 15.8733C9.78477 16.0237 9.84956 16.1741 9.92956 16.3253V16.3245Z" fill="#EC4452"/>
</g>
<defs>
<clipPath id="clip0_4076_51994">
<rect width="32" height="32" fill="white"/>
</clipPath>
</defs>
</svg>
