<svg width="100%" height="100%" viewBox="0 0 21 20" fill="none" xmlns="http://www.w3.org/2000/svg">
<path d="M10.5096 2.58127C10.05 2.58127 9.67875 2.9525 9.67875 3.41212L9.67286 9.16915L3.90994 9.16915C3.45032 9.16915 3.07909 9.54038 3.07909 10C3.07909 10.4596 3.45032 10.8309 3.90994 10.8309L9.67286 10.8309L9.67286 16.5938C9.67286 17.0534 10.0441 17.4246 10.5037 17.4246C10.9633 17.4246 11.3346 17.0534 11.3346 16.5938L11.3346 10.8308H17.0975C17.5571 10.8308 17.9283 10.4596 17.9283 10C17.9283 9.54038 17.5571 9.16915 17.0975 9.16915H11.3346L11.3346 3.40623C11.3346 2.9584 10.9574 2.58127 10.5096 2.58127Z" fill="currentColor"/>
</svg>
