<svg width="100%" height="100%" viewBox="0 0 32 32" fill="none" xmlns="http://www.w3.org/2000/svg">
<path d="M16.4 6.04245L21.6056 3.83845C22.1968 3.58805 22.1968 2.75045 21.6056 2.50005L16.2864 0.248047C16.356 0.320047 16.4 0.417647 16.4 0.525647V6.04245Z" fill="#4592FB"/>
<path d="M16.4001 6.29335V0.526953C16.4001 0.418953 16.3561 0.321353 16.2865 0.249353C16.2137 0.174153 16.1129 0.126953 16.0001 0.126953C15.7793 0.126953 15.6001 0.306153 15.6001 0.526953V6.29335C15.8529 6.15895 16.1473 6.15895 16.4001 6.29335Z" fill="#333D4B"/>
<path d="M20.5391 30.166H27.0743C28.0271 30.166 28.7999 29.3932 28.7999 28.4404V13.834H20.5391V30.166Z" fill="#D0D5DA"/>
<path d="M3.19995 13.8328V28.4392C3.19995 29.392 3.97275 30.1648 4.92555 30.1648H11.4608V13.832L3.19995 13.8328Z" fill="#D0D5DA"/>
<path d="M28.8 12.9674V13.8314H20.536L16 9.27136L11.464 13.8314H3.19995V12.9674C3.19995 12.0154 3.97595 11.2394 4.92795 11.2394H10.6L15.392 6.43136C15.448 6.36736 15.528 6.33536 15.6 6.29536C15.856 6.15936 16.144 6.15936 16.4 6.29536C16.472 6.33536 16.552 6.36736 16.608 6.43136L21.4 11.2394H27.072C28.024 11.2394 28.8 12.0154 28.8 12.9674Z" fill="#4592FB"/>
<path d="M20.5391 13.8331L15.9999 9.27148L11.4607 13.8331V30.1659H20.5391V13.8331ZM18.1575 30.1659H13.8431V26.8163C13.8431 26.2835 14.2751 25.8515 14.8079 25.8515H17.1927C17.7255 25.8515 18.1575 26.2835 18.1575 26.8163V30.1659ZM15.9999 19.7523C14.3655 19.7523 13.0407 18.4275 13.0407 16.7939C13.0407 15.1603 14.3655 13.8347 15.9999 13.8347C17.6343 13.8347 18.9591 15.1595 18.9591 16.7939C18.9591 18.4283 17.6343 19.7523 15.9999 19.7523Z" fill="#E5E9EE"/>
<path d="M16 13.834C14.3656 13.834 13.0408 15.1588 13.0408 16.7932C13.0408 18.4276 14.3656 19.7516 16 19.7516C17.6344 19.7516 18.9592 18.4268 18.9592 16.7932C18.9592 15.1596 17.6344 13.834 16 13.834ZM16.4 17.2004H14.5808C14.36 17.2004 14.1808 17.0212 14.1808 16.8004C14.1808 16.5796 14.36 16.4004 14.5808 16.4004H15.6V14.9508C15.6 14.73 15.7792 14.5508 16 14.5508C16.2208 14.5508 16.4 14.73 16.4 14.9508V17.2004Z" fill="white"/>
<path d="M17.1929 25.8516H14.8081C14.2753 25.8516 13.8433 26.2836 13.8433 26.8164V30.166H18.1577V26.8164C18.1577 26.2836 17.7257 25.8516 17.1929 25.8516Z" fill="#6B7683"/>
<path d="M16.0001 14.5508C15.7793 14.5508 15.6001 14.73 15.6001 14.9508V16.4004H14.5809C14.3601 16.4004 14.1809 16.5796 14.1809 16.8004C14.1809 17.0212 14.3601 17.2004 14.5809 17.2004H16.4001V14.9508C16.4001 14.73 16.2209 14.5508 16.0001 14.5508Z" fill="#6B7683"/>
</svg>
