<svg width="100%" height="100%" viewBox="0 0 16 16" fill="none" xmlns="http://www.w3.org/2000/svg">
<g clip-path="url(#clip0_8384_35210)">
<path d="M3.33677 8.7875V10.6608C3.33677 11.1475 3.60344 11.6008 4.0301 11.8342L7.36344 13.6542C7.76344 13.8742 8.24344 13.8742 8.64344 13.6542L11.9768 11.8342C12.4034 11.6008 12.6701 11.1475 12.6701 10.6608V8.7875L8.64344 10.9875C8.24344 11.2075 7.76344 11.2075 7.36344 10.9875L3.33677 8.7875ZM7.36344 2.3475L1.74344 5.41417C1.28344 5.6675 1.28344 6.33417 1.74344 6.5875L7.36344 9.65417C7.76344 9.87417 8.24344 9.87417 8.64344 9.65417L14.0034 6.7275V10.6675C14.0034 11.0342 14.3034 11.3342 14.6701 11.3342C15.0368 11.3342 15.3368 11.0342 15.3368 10.6675V6.39417C15.3368 6.1475 15.2034 5.9275 14.9901 5.8075L8.64344 2.3475C8.24344 2.13417 7.76344 2.13417 7.36344 2.3475Z" fill="currentColor"/>
</g>
<defs>
<clipPath id="clip0_8384_35210">
<rect width="16" height="16" fill="white"/>
</clipPath>
</defs>
</svg>
