<svg width="100%" height="100%" viewBox="0 0 13 12" fill="none" xmlns="http://www.w3.org/2000/svg">
<path d="M1.53387 4.14742C1.66721 3.7825 1.87773 3.50531 2.16545 3.31584C2.46019 3.11934 2.77247 3.04566 3.1023 3.09478L3.3444 3.10531C3.40756 3.09127 3.45317 3.07022 3.48124 3.04215C3.50931 3.01408 3.55142 2.96847 3.60756 2.90531L3.73387 2.76847L3.80756 2.69478C3.87773 2.62461 3.91282 2.57198 3.91282 2.53689C3.91984 2.49478 3.91282 2.44566 3.89177 2.38952V2.28426C3.89879 1.89829 4.0251 1.56496 4.27072 1.28426C4.51633 1.00355 4.82861 0.828116 5.20756 0.757941L5.69177 0.631625C6.08475 0.568467 6.43563 0.61759 6.7444 0.778994C7.05317 0.93338 7.27423 1.16145 7.40756 1.4632L7.5023 1.67373C7.5444 1.72285 7.58651 1.75443 7.62861 1.76847C7.67072 1.77548 7.74089 1.78601 7.83914 1.80005L7.92335 1.83162C8.00054 1.85268 8.06019 1.87373 8.1023 1.89478C8.19352 1.90882 8.25317 1.90531 8.28124 1.88426C8.31633 1.8632 8.36195 1.83162 8.41809 1.78952L8.49177 1.73689C8.83563 1.55443 9.19002 1.49829 9.55493 1.56847C9.92686 1.63864 10.2356 1.8211 10.4812 2.11584L10.8181 2.48426C11.0707 2.77198 11.2076 3.09127 11.2286 3.44215C11.2567 3.78601 11.169 4.09478 10.9655 4.36847L10.8286 4.55794C10.8005 4.62812 10.7935 4.68426 10.8076 4.72636C10.8216 4.76145 10.8462 4.8211 10.8812 4.90531L10.9444 5.18952L10.9549 5.23163C10.983 5.28777 11.0111 5.32636 11.0391 5.34741C11.0672 5.36847 11.1128 5.38952 11.176 5.41057L11.2707 5.4632C11.6005 5.67373 11.8251 5.95092 11.9444 6.29478C12.0637 6.63864 12.0602 6.98952 11.9339 7.34741L11.7865 7.85268C11.6602 8.21057 11.4532 8.48777 11.1655 8.68426C10.8777 8.87373 10.5655 8.94741 10.2286 8.90531L9.98651 8.89478C9.92335 8.9018 9.87773 8.91934 9.84966 8.94741C9.82159 8.97548 9.77949 9.02461 9.72335 9.09478C9.68826 9.15092 9.61458 9.2211 9.5023 9.30531C9.44616 9.36847 9.41458 9.4211 9.40756 9.4632C9.40756 9.49829 9.41458 9.55092 9.42861 9.6211L9.43914 9.71584C9.4251 10.1018 9.29528 10.4351 9.04966 10.7158C8.81107 10.9965 8.49879 11.172 8.11282 11.2422L7.62861 11.3579C7.25668 11.4281 6.91282 11.386 6.59703 11.2316C6.28826 11.0772 6.06721 10.8457 5.93387 10.5369L5.81809 10.3369C5.77598 10.2737 5.73387 10.2386 5.69177 10.2316C5.64966 10.2246 5.58651 10.2141 5.5023 10.2L5.3023 10.1369L5.21809 10.1158C5.13387 10.0948 5.07423 10.0948 5.03914 10.1158C5.00405 10.1299 4.95844 10.1614 4.9023 10.2106L4.82861 10.2632C4.49177 10.4386 4.13738 10.4913 3.76545 10.4211C3.39352 10.3509 3.08826 10.1685 2.84966 9.87373L2.5023 9.51584C2.25668 9.22812 2.11984 8.90882 2.09177 8.55794C2.0637 8.20706 2.15493 7.89829 2.36545 7.63163L2.49177 7.43163C2.51984 7.36847 2.52686 7.31934 2.51282 7.28426C2.49879 7.24215 2.47423 7.17549 2.43914 7.08426L2.37598 6.81057L2.36545 6.76847C2.3444 6.71233 2.31633 6.67373 2.28124 6.65268C2.25317 6.63163 2.20756 6.61057 2.1444 6.58952L2.04966 6.53689C1.72686 6.32636 1.5023 6.04917 1.37598 5.70531C1.25668 5.36145 1.26019 5.01057 1.38651 4.65268L1.53387 4.14742ZM4.86019 6.00005C4.86019 6.32285 4.94089 6.62461 5.1023 6.90531C5.2637 7.17899 5.48124 7.39654 5.75493 7.55794C6.03563 7.71934 6.33738 7.80005 6.66019 7.80005C6.99002 7.80005 7.29177 7.71934 7.56545 7.55794C7.83914 7.39654 8.05668 7.17899 8.21809 6.90531C8.37949 6.62461 8.46019 6.32285 8.46019 6.00005C8.46019 5.67022 8.37949 5.36847 8.21809 5.09478C8.05668 4.8211 7.83914 4.60356 7.56545 4.44215C7.29177 4.28075 6.99002 4.20005 6.66019 4.20005C6.33738 4.20005 6.03563 4.28075 5.75493 4.44215C5.48124 4.60356 5.2637 4.8211 5.1023 5.09478C4.94089 5.36847 4.86019 5.67022 4.86019 6.00005Z" fill="currentColor"/>
</svg>
