<svg width="100%" height="100%" viewBox="0 0 24 24" fill="none" xmlns="http://www.w3.org/2000/svg">
<path d="M10.2686 5C11.0384 3.66674 12.9626 3.66669 13.7324 5L21.5264 18.5C22.2961 19.8332 21.3343 21.4997 19.7949 21.5H4.20605C2.66654 21.5 1.70407 19.8333 2.47363 18.5L10.2686 5ZM12 16C11.7168 16.0001 11.4794 16.0961 11.2881 16.2881C11.0969 16.48 11.0007 16.7175 11 17C10.9994 17.2826 11.0955 17.5203 11.2881 17.7129C11.4807 17.9055 11.7181 18.0013 12 18C12.2832 18 12.5209 17.9037 12.7129 17.7119C12.9048 17.52 13.0006 17.2826 13 17C12.9993 16.7173 12.9032 16.4801 12.7119 16.2881C12.5206 16.0961 12.2833 16 12 16ZM12 10C11.7175 9.99939 11.48 10.0955 11.2881 10.2881C11.0962 10.4807 11 10.7181 11 11V14C11 14.2832 11.0962 14.5209 11.2881 14.7129C11.48 14.9048 11.7175 15.0006 12 15C12.2832 15 12.5209 14.9037 12.7129 14.7119C12.9048 14.52 13.0006 14.2826 13 14V11C13 10.7167 12.9039 10.4794 12.7119 10.2881C12.5199 10.0968 12.2827 10.0007 12 10Z" fill="#FFDD00"/>
</svg>
