<svg width="100%" height="100%" viewBox="0 0 32 32" fill="none" xmlns="http://www.w3.org/2000/svg">
<g clip-path="url(#clip0_2763_35781)">
<path d="M23.8352 4.1665H8.16403C4.7867 4.1665 2.04883 6.90437 2.04883 10.2817V22.0513C2.04883 25.4286 4.7867 28.1665 8.16403 28.1665H23.8352C27.2126 28.1665 29.9504 25.4286 29.9504 22.0513V10.2817C29.9504 6.90437 27.2126 4.1665 23.8352 4.1665Z" fill="#313D4F"/>
<path d="M15.9995 23.5137C20.0573 23.5137 23.3467 20.2243 23.3467 16.1665C23.3467 12.1088 20.0573 8.81934 15.9995 8.81934C11.9418 8.81934 8.65234 12.1088 8.65234 16.1665C8.65234 20.2243 11.9418 23.5137 15.9995 23.5137Z" fill="#DB5257"/>
<path d="M19.3552 16.5354L14.3072 19.4498C14.0232 19.6138 13.668 19.409 13.668 19.081V13.2522C13.668 12.9242 14.0232 12.7194 14.3072 12.8834L19.3552 15.7978C19.6392 15.9618 19.6392 16.3714 19.3552 16.5354Z" fill="#E4E6E9"/>
</g>
<defs>
<clipPath id="clip0_2763_35781">
<rect width="32" height="32" fill="white"/>
</clipPath>
</defs>
</svg>
