<svg width="100%" height="100%" viewBox="0 0 60 60" fill="none" xmlns="http://www.w3.org/2000/svg">
<g clip-path="url(#clip0_1273_49101)">
<path d="M52.4985 55.5004C51.7305 55.5004 50.964 55.2079 50.3775 54.6214L36.906 41.1499C35.7345 39.9784 35.7345 38.0794 36.906 36.9079C38.0775 35.7364 39.9765 35.7364 41.148 36.9079L54.6195 50.3794C55.791 51.5509 55.791 53.4499 54.6195 54.6214C54.033 55.2079 53.2665 55.5004 52.4985 55.5004Z" fill="#4E5968"/>
<path d="M44.4465 25.9725C44.4465 15.7875 36.1605 7.5 25.974 7.5C20.8815 7.5 16.263 9.5715 12.918 12.9165L39.0285 39.0285C42.3735 35.6835 44.4465 31.065 44.4465 25.9725Z" fill="#E5E9EE"/>
<path d="M39.0285 39.028L12.9165 12.916C9.5715 16.261 7.5 20.8795 7.5 25.972C7.5 36.157 15.7875 44.4445 25.9725 44.4445C31.065 44.4445 35.6835 42.373 39.0285 39.028Z" fill="#F0F3F6"/>
<path d="M25.971 46.6935C14.5455 46.6935 5.25 37.398 5.25 25.9725C5.25 14.547 14.5455 5.25 25.971 5.25C37.3965 5.25 46.6935 14.5455 46.6935 25.9725C46.6935 37.3995 37.398 46.6935 25.971 46.6935ZM25.971 9.75C17.0265 9.75 9.75 17.028 9.75 25.9725C9.75 34.917 17.028 42.1935 25.971 42.1935C34.914 42.1935 42.1935 34.9155 42.1935 25.9725C42.1935 17.0295 34.9155 9.75 25.971 9.75Z" fill="#A3ADB7"/>
</g>
<defs>
<clipPath id="clip0_1273_49101">
<rect width="60" height="60" fill="white"/>
</clipPath>
</defs>
</svg>
