<svg width="100%" height="100%" viewBox="0 0 60 60" fill="none" xmlns="http://www.w3.org/2000/svg">
<g clip-path="url(#clip0_1273_49928)">
<path d="M30 56.1238C44.4975 56.1238 56.25 44.4062 56.25 29.9518C56.25 15.4974 44.4975 3.77979 30 3.77979C15.5025 3.77979 3.75 15.4974 3.75 29.9518C3.75 44.4062 15.5025 56.1238 30 56.1238Z" fill="#FFC84D"/>
<path d="M27.7238 36.3464C29.9033 36.5369 31.5218 37.0919 32.5448 37.5599C32.9843 37.7609 33.4178 37.2734 33.1703 36.8594C32.3693 35.5274 30.7778 33.7049 27.9773 33.4619C25.1768 33.2189 23.2913 34.7354 22.2713 35.9099C21.9548 36.2744 22.2968 36.8294 22.7648 36.7079C23.8553 36.4244 25.5458 36.1559 27.7238 36.3464Z" fill="#FF6D00"/>
<path d="M20.8908 16.2506C22.6818 16.4066 23.6793 16.9061 24.5253 17.3696C25.0128 17.6366 25.4373 17.2781 25.2303 16.7231C24.7818 15.5231 23.4393 14.1581 21.0933 13.9526C18.7473 13.7486 17.1858 14.8601 16.5363 15.9641C16.2348 16.4756 16.5903 16.9016 17.1168 16.7231C18.0303 16.4141 19.1013 16.0946 20.8908 16.2506Z" fill="black"/>
<path d="M36.2565 11.6339C34.4655 11.7899 33.468 12.2894 32.622 12.7529C32.1345 13.0199 31.71 12.6614 31.917 12.1064C32.3655 10.9064 33.708 9.54141 36.054 9.33591C38.4 9.13191 39.9615 10.2434 40.611 11.3474C40.9125 11.8589 40.557 12.2849 40.0305 12.1064C39.117 11.7974 38.046 11.4779 36.2565 11.6339Z" fill="black"/>
<path d="M21.5115 26.1387C23.358 26.1387 24.855 24.6464 24.855 22.8057C24.855 20.9649 23.358 19.4727 21.5115 19.4727C19.6649 19.4727 18.168 20.9649 18.168 22.8057C18.168 24.6464 19.6649 26.1387 21.5115 26.1387Z" fill="black"/>
<path d="M35.431 26.1404C37.2461 26.1404 38.7175 24.403 38.7175 22.2599C38.7175 20.1168 37.2461 18.3794 35.431 18.3794C33.6159 18.3794 32.1445 20.1168 32.1445 22.2599C32.1445 24.403 33.6159 26.1404 35.431 26.1404Z" fill="black"/>
<path d="M11.9648 48.6222C11.9648 45.9867 12.2048 42.8247 12.3248 41.0697C12.4163 39.7347 12.5093 37.2762 12.6788 36.1602C12.8528 35.0097 13.5173 34.0362 14.7893 34.4667C16.0043 34.8792 16.6148 36.6537 16.6148 38.1822C16.6148 39.7107 16.7288 40.7307 17.6423 41.1957C18.5558 41.6607 19.6868 41.5977 21.5078 41.5977C23.3288 41.5977 29.6618 41.4702 32.8793 41.4702C33.6218 41.4702 34.7693 41.5767 35.2958 42.0987C35.9513 42.7497 35.8193 44.0127 34.8428 44.4447C33.2753 45.1377 29.5853 44.9787 28.6073 45.4047C27.6293 45.8307 27.7058 46.5282 27.6473 47.5917C27.5768 48.8967 27.8843 52.3017 27.5768 53.7237C27.2288 55.3362 26.2748 56.2242 24.8423 56.2242H18.6788C14.9963 56.2242 11.9663 52.5897 11.9663 48.6222H11.9648Z" fill="#FF9210"/>
</g>
<defs>
<clipPath id="clip0_1273_49928">
<rect width="60" height="60" fill="white"/>
</clipPath>
</defs>
</svg>
