<svg width="100%" height="100%" viewBox="0 0 60 60" fill="none" xmlns="http://www.w3.org/2000/svg">
<g clip-path="url(#clip0_1273_49942)">
<path d="M21.75 53.1824L6.351 48.7664C5.7015 48.5804 5.25 47.9489 5.25 47.2274V13.2749C5.25 12.2279 6.174 11.4659 7.116 11.7359L21.75 15.9329V53.1824Z" fill="#D0D5DC"/>
<path d="M21.75 53.1822L38.25 48.4512V11.2002L21.75 15.9327V53.1822Z" fill="#E1E4E7"/>
<path d="M52.884 52.6467L38.25 48.4497V11.2002L53.649 15.6162C54.2985 15.8022 54.75 16.4337 54.75 17.1552V51.1077C54.75 52.1547 53.826 52.9167 52.884 52.6467Z" fill="#D0D5DC"/>
<path d="M39.3298 29.2079C40.7323 27.7259 43.2703 25.0619 45.5203 22.8014C49.8073 18.4919 50.0998 11.1374 45.7603 6.88188C43.6753 4.83738 40.9633 3.81588 38.2498 3.81738C35.5378 3.81738 32.8258 4.83738 30.7408 6.88188C26.3983 11.1389 26.6923 18.4934 30.9808 22.8029C33.2308 25.0634 35.7733 27.7274 37.1758 29.2094C37.7608 29.8274 38.7433 29.8259 39.3283 29.2094L39.3298 29.2079Z" fill="#4582ED"/>
<path d="M38.2509 17.7269C40.0097 17.7269 41.4354 16.3012 41.4354 14.5424C41.4354 12.7837 40.0097 11.3579 38.2509 11.3579C36.4922 11.3579 35.0664 12.7837 35.0664 14.5424C35.0664 16.3012 36.4922 17.7269 38.2509 17.7269Z" fill="#FBFBFB"/>
</g>
<defs>
<clipPath id="clip0_1273_49942">
<rect width="60" height="60" fill="white"/>
</clipPath>
</defs>
</svg>
