<svg width="100%" height="100%" viewBox="0 0 42 42" fill="none" xmlns="http://www.w3.org/2000/svg">
<rect width="42" height="42" rx="6.46154" fill="#FFFDEE"/>
<path d="M19.6134 14.4817C20.5068 14.1429 21.4932 14.1429 22.3866 14.4817L33.5492 18.7142C35.6528 19.5119 35.6528 22.4877 33.5492 23.2853L22.3866 27.5179C21.4932 27.8566 20.5068 27.8566 19.6134 27.5179L8.45079 23.2853C6.34718 22.4877 6.34717 19.5119 8.45079 18.7142L19.6134 14.4817Z" fill="#4E5968"/>
<rect x="13.1758" y="22.9561" width="15.6437" height="6.84413" rx="1.95547" fill="#4E5968"/>
<path d="M21.0039 20.022L12.4558 23.4412C11.7134 23.7382 11.2266 24.4572 11.2266 25.2568V28.8216" stroke="#FFD500" stroke-width="1.4666" stroke-linecap="round"/>
<rect x="10.2461" y="24.9106" width="1.95547" height="5.8664" rx="0.977733" fill="#FFD400"/>
</svg>
