<svg
  viewBox="0 0 30 30"
  fill="none"
  xmlns="http://www.w3.org/2000/svg"
  width="100%"
  height="100%"
  preserveAspectRatio="xMidYMid meet"
><path fill-rule="evenodd" clip-rule="evenodd" d="M9.99583 3.80029C9.01377 3.80029 8.07193 4.16934 7.37751 4.82624C6.68309 5.48314 6.29297 6.3741 6.29297 7.3031V24.2333C6.29308 24.4323 6.34693 24.6279 6.44941 24.8016C6.55188 24.9754 6.69959 25.1214 6.87851 25.226C7.05742 25.3306 7.26162 25.3902 7.47172 25.3991C7.68182 25.4081 7.89085 25.3661 8.07898 25.2772L14.933 22.0359L21.787 25.2772C21.9751 25.3661 22.1841 25.4081 22.3942 25.3991C22.6043 25.3902 22.8085 25.3306 22.9874 25.226C23.1663 25.1214 23.3141 24.9754 23.4165 24.8016C23.519 24.6279 23.5729 24.4323 23.573 24.2333V7.3031C23.573 6.3741 23.1828 5.48314 22.4884 4.82624C21.794 4.16934 20.8522 3.80029 19.8701 3.80029H9.99583Z" fill="currentColor"/>
</svg>
