<svg width="100%" height="100%" viewBox="0 0 20 20" fill="none" xmlns="http://www.w3.org/2000/svg">
<path d="M4.1981 7.97308C4.1981 6.91293 4.45823 5.9313 4.97849 5.02821C5.50857 4.12512 6.22515 3.41345 7.12824 2.89319C8.03133 2.36311 9.01295 2.09808 10.0731 2.09808C11.1431 2.09808 12.1247 2.36311 13.018 2.89319C13.9211 3.41345 14.6327 4.12512 15.153 5.02821C15.6831 5.9313 15.9481 6.91293 15.9481 7.97308L15.9481 15.5266L4.1981 15.5266L4.1981 7.97308ZM16.7874 13.8481C17.023 13.8481 17.2193 13.9315 17.3764 14.0984C17.5432 14.2554 17.6267 14.4518 17.6267 14.6874C17.6267 14.9131 17.5432 15.1095 17.3764 15.2763C17.2193 15.4432 17.023 15.5266 16.7874 15.5266H15.1088C14.883 15.5266 14.6867 15.4432 14.5198 15.2763C14.353 15.1095 14.2695 14.9131 14.2695 14.6874C14.2695 14.4518 14.353 14.2554 14.5198 14.0984C14.6867 13.9315 14.883 13.8481 15.1088 13.8481H16.7874ZM3.35882 15.5266C3.13304 15.5266 2.93672 15.4432 2.76984 15.2763C2.60297 15.1095 2.51953 14.9131 2.51953 14.6874C2.51953 14.4518 2.60297 14.2554 2.76984 14.0984C2.93672 13.9315 3.13304 13.8481 3.35882 13.8481H5.03739C5.27298 13.8481 5.4693 13.9315 5.62636 14.0984C5.79324 14.2554 5.87667 14.4518 5.87667 14.6874C5.87667 14.9131 5.79324 15.1095 5.62636 15.2763C5.4693 15.4432 5.27298 15.5266 5.03739 15.5266H3.35882ZM10.0731 17.2052C10.0731 16.9696 10.1565 16.7733 10.3234 16.6162C10.4903 16.4494 10.6866 16.3659 10.9124 16.3659C11.148 16.3659 11.3443 16.4494 11.5014 16.6162C11.6682 16.7733 11.7517 16.9696 11.7517 17.2052C11.7517 17.4997 11.6731 17.7795 11.5161 18.0445C11.3688 18.2997 11.1676 18.5059 10.9124 18.6629C10.6572 18.8102 10.3774 18.8838 10.0731 18.8838C9.77862 18.8838 9.49885 18.8102 9.23382 18.6629C8.9786 18.5059 8.77245 18.2997 8.6154 18.0445C8.46815 17.7795 8.39453 17.4997 8.39453 17.2052C8.39453 16.9696 8.47797 16.7733 8.64484 16.6162C8.81172 16.4494 9.00804 16.3659 9.23382 16.3659C9.46941 16.3659 9.66573 16.4494 9.82279 16.6162C9.98966 16.7733 10.0731 16.9696 10.0731 17.2052C10.0731 17.2543 10.0633 17.2788 10.0437 17.2788C10.024 17.269 10.0093 17.2543 9.99948 17.2347C9.99948 17.215 10.024 17.2052 10.0731 17.2052C10.1222 17.2052 10.1418 17.215 10.132 17.2347C10.132 17.2543 10.1222 17.269 10.1026 17.2788C10.0829 17.2788 10.0731 17.2543 10.0731 17.2052ZM8.39453 2.93736C8.39453 2.63306 8.46815 2.3533 8.6154 2.09808C8.77245 1.84285 8.9786 1.64162 9.23382 1.49438C9.49885 1.33732 9.77862 1.25879 10.0731 1.25879C10.3774 1.25879 10.6572 1.33732 10.9124 1.49438C11.1676 1.64162 11.3688 1.84285 11.5161 2.09808C11.6731 2.3533 11.7517 2.63306 11.7517 2.93736V3.99751C10.8584 3.85027 10.2989 3.77665 10.0731 3.77665C9.84733 3.77665 9.28781 3.85027 8.39453 3.99751V2.93736ZM9.23382 18.0445C9.00804 18.0445 8.81172 17.9611 8.64484 17.7942C8.47797 17.6273 8.39453 17.431 8.39453 17.2052C8.39453 16.9696 8.47797 16.7733 8.64484 16.6162C8.81172 16.4494 9.00804 16.3659 9.23382 16.3659H10.9124C11.148 16.3659 11.3443 16.4494 11.5014 16.6162C11.6682 16.7733 11.7517 16.9696 11.7517 17.2052C11.7517 17.431 11.6682 17.6273 11.5014 17.7942C11.3443 17.9611 11.148 18.0445 10.9124 18.0445H9.23382ZM10.9124 17.2052C10.9124 17.431 10.829 17.6273 10.6621 17.7942C10.4952 17.9611 10.2989 18.0445 10.0731 18.0445C9.84733 18.0445 9.65101 17.9611 9.48413 17.7942C9.31725 17.6273 9.23382 17.431 9.23382 17.2052H10.9124Z" fill="currentColor"/>
</svg>
