<svg width="24" height="24" viewBox="0 0 24 24" fill="none" xmlns="http://www.w3.org/2000/svg">
<path d="M11.9982 6.25C12.148 6.25003 12.2943 6.29492 12.4184 6.37886C12.5424 6.46281 12.6385 6.58197 12.6942 6.721C13.0482 7.607 13.4872 8.166 13.9342 8.519C14.3782 8.872 14.8662 9.049 15.3642 9.113C16.3912 9.246 17.4452 8.901 18.0962 8.614L18.1132 8.607C18.2062 8.566 18.3102 8.52 18.3992 8.487H18.4042C18.5795 8.42004 18.7701 8.40375 18.9542 8.44C19.0864 8.46934 19.2106 8.52688 19.3185 8.60869C19.4264 8.6905 19.5153 8.79464 19.5792 8.914C19.7032 9.144 19.6892 9.376 19.6842 9.452V9.454C19.6772 9.548 19.6612 9.658 19.6482 9.753C19.3862 11.586 19.1202 13.418 18.8632 15.251C18.7332 16.171 18.2442 16.744 17.3292 17.009C13.8438 17.9968 10.1526 17.9968 6.66719 17.009C5.75219 16.744 5.26219 16.171 5.13319 15.251C4.87619 13.418 4.61019 11.586 4.34819 9.753C4.33245 9.65382 4.32044 9.55408 4.31219 9.454V9.452C4.2964 9.26639 4.33277 9.08005 4.41719 8.914C4.48109 8.79464 4.57002 8.6905 4.67789 8.60869C4.78576 8.52688 4.91003 8.46934 5.04219 8.44C5.22621 8.40343 5.41681 8.41938 5.59219 8.486L5.59619 8.488C5.68619 8.52 5.79019 8.566 5.88319 8.607L5.90019 8.614C6.55019 8.901 7.60419 9.246 8.63019 9.114C9.1537 9.05201 9.64975 8.84605 10.0632 8.519C10.5082 8.166 10.9472 7.607 11.3022 6.721C11.3579 6.58197 11.454 6.46281 11.578 6.37886C11.7021 6.29492 11.8484 6.25003 11.9982 6.25Z" fill="#FFDD00"/>
</svg>
