<svg width="100%" height="100%" viewBox="0 0 60 60" fill="none" xmlns="http://www.w3.org/2000/svg">
<g clip-path="url(#clip0_1273_49131)">
<path d="M49.5589 6.94336H10.4449C8.84437 6.94336 7.54688 8.24086 7.54688 9.84136V51.8534C7.54688 53.4539 8.84437 54.7514 10.4449 54.7514H40.8664L52.4554 43.1624V9.84136C52.4554 8.24086 51.1594 6.94336 49.5589 6.94336Z" fill="#E5E9EE"/>
<path fill-rule="evenodd" clip-rule="evenodd" d="M43.7637 43.1607H52.4562L40.8672 54.7497V46.0572C40.8672 44.4567 42.1647 43.1592 43.7652 43.1592L43.7637 43.1607Z" fill="#C0C7D1"/>
<path d="M52.4554 14.9727H7.54688V16.4202H52.4554V14.9727Z" fill="#D0D5DA"/>
<path d="M52.4554 21.8193H7.54688V23.2668H52.4554V21.8193Z" fill="#D0D5DA"/>
<path d="M52.4554 28.6631H7.54688V30.1106H52.4554V28.6631Z" fill="#D0D5DA"/>
<path d="M52.4554 35.5098H7.54688V36.9573H52.4554V35.5098Z" fill="#D0D5DA"/>
<path d="M14.8613 10.6815C13.8608 10.6815 13.0508 9.87145 13.0508 8.87095V5.24995C13.0508 4.24945 13.8623 3.43945 14.8613 3.43945C15.8603 3.43945 16.6718 4.24945 16.6718 5.24995V8.87095C16.6718 9.87145 15.8603 10.6815 14.8613 10.6815Z" fill="#4B596A"/>
<path d="M24.5214 10.6815C23.5209 10.6815 22.7109 9.87145 22.7109 8.87095V5.24995C22.7109 4.24945 23.5224 3.43945 24.5214 3.43945C25.5204 3.43945 26.3319 4.24945 26.3319 5.24995V8.87095C26.3319 9.87145 25.5204 10.6815 24.5214 10.6815Z" fill="#4B596A"/>
<path d="M34.1777 10.6815C33.1772 10.6815 32.3672 9.87145 32.3672 8.87095V5.24995C32.3672 4.24945 33.1787 3.43945 34.1777 3.43945C35.1767 3.43945 35.9882 4.24945 35.9882 5.24995V8.87095C35.9882 9.87145 35.1767 10.6815 34.1777 10.6815Z" fill="#4B596A"/>
<path d="M43.8378 10.6815C42.8373 10.6815 42.0273 9.87145 42.0273 8.87095V5.24995C42.0273 4.24945 42.8388 3.43945 43.8378 3.43945C44.8368 3.43945 45.6483 4.24945 45.6483 5.24995V8.87095C45.6483 9.87145 44.8368 10.6815 43.8378 10.6815Z" fill="#4B596A"/>
</g>
<defs>
<clipPath id="clip0_1273_49131">
<rect width="60" height="60" fill="white"/>
</clipPath>
</defs>
</svg>
