<svg width="100%" height="100%" viewBox="0 0 60 60" fill="none" xmlns="http://www.w3.org/2000/svg">
<g clip-path="url(#clip0_1273_49115)">
<path d="M49.6365 7.19824H10.3635C7.953 7.19824 6 9.15124 6 11.5617V49.3797C6 51.7902 7.953 53.7432 10.3635 53.7432H42.363L54 42.1062V11.5617C54 9.15124 52.047 7.19824 49.6365 7.19824Z" fill="#E5E9EE"/>
<path d="M16.5 29.1797C16.5 28.5002 16.8495 27.8672 17.427 27.5072L21.9405 24.6842C22.401 24.3962 22.9335 24.2432 23.4765 24.2432C25.0755 24.2432 26.373 25.5392 26.373 27.1397V43.8707C26.373 45.1892 25.3035 46.2587 23.985 46.2587C22.6665 46.2587 21.597 45.1892 21.597 43.8707V29.5727L19.512 30.8597C18.198 31.6712 16.503 30.7262 16.503 29.1812L16.5 29.1797Z" fill="#EF4452"/>
<path d="M28.8516 26.4707C28.8516 25.4012 29.7186 24.5342 30.7881 24.5342H41.7576C42.7191 24.5342 43.4991 25.3142 43.4991 26.2757C43.4991 27.3947 43.2696 28.5002 42.8226 29.5262L36.1866 44.7932C35.7996 45.6827 34.9221 46.2587 33.9516 46.2587C32.1846 46.2587 31.0056 44.4392 31.7256 42.8267L38.1711 28.4087H30.7896C29.7201 28.4087 28.8531 27.5417 28.8531 26.4722L28.8516 26.4707Z" fill="#EF4452"/>
<path d="M10.3635 7.19824H49.6365C52.0455 7.19824 54 9.15424 54 11.5617V18.5907H6V11.5617C6 9.15274 7.956 7.19824 10.3635 7.19824Z" fill="#FDAEB3"/>
<path d="M15.4547 10.8345C14.4512 10.8345 13.6367 10.0215 13.6367 9.0165V5.3805C13.6367 4.3755 14.4497 3.5625 15.4547 3.5625C16.4597 3.5625 17.2727 4.3755 17.2727 5.3805V9.0165C17.2727 10.0215 16.4597 10.8345 15.4547 10.8345Z" fill="#4B596A"/>
<path d="M44.5446 10.8345C43.5411 10.8345 42.7266 10.0215 42.7266 9.0165V5.3805C42.7266 4.3755 43.5396 3.5625 44.5446 3.5625C45.5496 3.5625 46.3626 4.3755 46.3626 5.3805V9.0165C46.3626 10.0215 45.5496 10.8345 44.5446 10.8345Z" fill="#4B596A"/>
<path fill-rule="evenodd" clip-rule="evenodd" d="M45.2733 42.1084H54.0003L42.3633 53.7454V45.0184C42.3633 43.4119 43.6653 42.1099 45.2718 42.1099L45.2733 42.1084Z" fill="#C0C7D1"/>
</g>
<defs>
<clipPath id="clip0_1273_49115">
<rect width="60" height="60" fill="white"/>
</clipPath>
</defs>
</svg>
