<svg width="100%" height="100%" viewBox="0 0 60 60" fill="none" xmlns="http://www.w3.org/2000/svg">
<g clip-path="url(#clip0_1273_49974)">
<path d="M56.25 19.1504V36.8999H3.75V19.1504C3.75 16.3889 5.988 14.1509 8.7495 14.1509H51.249C54.0105 14.1509 56.25 16.3889 56.25 19.1504Z" fill="#C3846C"/>
<path d="M56.25 36.8999V48.1499C56.25 50.9114 54.012 53.1494 51.2505 53.1494H8.7495C5.988 53.1494 3.75 50.9114 3.75 48.1499V36.8999H56.25Z" fill="#956759"/>
<path d="M41.876 14.1511H38.126C38.126 11.1586 35.6915 8.72559 32.7005 8.72559H27.3005C24.3095 8.72559 21.875 11.1601 21.875 14.1511H18.125C18.125 9.09159 22.241 4.97559 27.3005 4.97559H32.7005C37.76 4.97559 41.876 9.09159 41.876 14.1511Z" fill="#C3846C"/>
<path d="M34.9981 36.8491C34.9981 38.8651 33.3631 40.5001 31.3471 40.5001H28.6471C26.6311 40.5001 24.9961 38.8651 24.9961 36.8491H34.9981Z" fill="#FFC33A"/>
</g>
<defs>
<clipPath id="clip0_1273_49974">
<rect width="60" height="60" fill="white"/>
</clipPath>
</defs>
</svg>
