<svg width="20" height="20" viewBox="0 0 20 20" fill="none" xmlns="http://www.w3.org/2000/svg">
<g clip-path="url(#clip0_1273_49291)">
<path d="M9.99902 0.832031C15.0616 0.832031 19.166 4.93641 19.166 9.99902C19.1658 15.0615 15.0615 19.165 9.99902 19.165C4.93654 19.165 0.832207 15.0615 0.832031 9.99902C0.832031 4.93643 4.93643 0.832053 9.99902 0.832031ZM7.70801 6.04102C7.36283 6.04102 7.08301 6.32084 7.08301 6.66602C7.08301 7.01119 7.36283 7.29102 7.70801 7.29102H11.8232L6.22363 12.8906C5.97983 13.1346 5.97993 13.5304 6.22363 13.7744C6.4372 13.9878 6.76723 14.0146 7.00977 13.8545L7.1084 13.7744L12.708 8.1748V12.291C12.708 12.6362 12.9878 12.916 13.333 12.916C13.6779 12.9157 13.958 12.636 13.958 12.291V6.66602C13.958 6.32104 13.6779 6.04135 13.333 6.04102H7.70801Z" fill="#C9CED8"/>
</g>
<defs>
<clipPath id="clip0_1273_49291">
<rect width="20" height="20" fill="white"/>
</clipPath>
</defs>
</svg>
