<svg width="20" height="20" viewBox="0 0 20 20" fill="none" xmlns="http://www.w3.org/2000/svg">
<path d="M5.90346 5.87499C5.90346 5.11914 6.08997 4.42219 6.46298 3.78414C6.836 3.14608 7.34153 2.64055 7.97959 2.26753C8.61764 1.89452 9.31459 1.70801 10.0704 1.70801C10.8263 1.70801 11.5232 1.89452 12.1613 2.26753C12.7993 2.64055 13.3049 3.14608 13.6779 3.78414C14.0509 4.42219 14.2374 5.11914 14.2374 5.87499C14.2374 6.63084 14.0509 7.32779 13.6779 7.96584C13.3049 8.60389 12.7993 9.10943 12.1613 9.48244C11.5232 9.85546 10.8263 10.042 10.0704 10.042C9.31459 10.042 8.61764 9.85546 7.97959 9.48244C7.34153 9.10943 6.836 8.60389 6.46298 7.96584C6.08997 7.32779 5.90346 6.63084 5.90346 5.87499ZM1.70703 15.1071C1.70703 14.2924 2.08496 13.5709 2.8408 12.9427C3.60647 12.3046 4.62735 11.8138 5.90346 11.4702C7.18938 11.1168 8.57838 10.9402 10.0704 10.9402C11.5625 10.9402 12.9466 11.1168 14.2227 11.4702C15.5086 11.8138 16.5295 12.3046 17.2854 12.9427C18.051 13.5709 18.4338 14.2924 18.4338 15.1071C18.4338 15.7059 18.2817 16.2605 17.9774 16.771C17.6829 17.2814 17.2804 17.6888 16.77 17.9931C16.2596 18.2876 15.7049 18.4348 15.1062 18.4348H5.03473C4.43594 18.4348 3.88132 18.2876 3.37088 17.9931C2.86044 17.6888 2.45306 17.2814 2.14876 16.771C1.85427 16.2605 1.70703 15.7059 1.70703 15.1071Z" fill="white"/>
</svg>
