<svg width="100%" height="100%" viewBox="0 0 60 60" fill="none" xmlns="http://www.w3.org/2000/svg">
<g clip-path="url(#clip0_1273_49149)">
<path d="M6.99075 8.14648C5.66625 8.14648 4.59375 9.22048 4.59375 10.5435V43.395C4.59375 44.7195 5.66775 45.792 6.99075 45.792H8.38725L46.0342 8.14648H6.99075Z" fill="#333D4B"/>
<path d="M53.1947 8.14648H46.0337L8.38672 45.7935H53.1947C54.5192 45.7935 55.5917 44.721 55.5917 43.3965V10.545C55.5917 9.22048 54.5192 8.14648 53.1947 8.14648Z" fill="#333D4B"/>
<path d="M37.2679 46.3834V43.8799H22.9219V46.3834C22.9219 48.8254 21.6769 51.0994 19.6189 52.4149L17.8474 53.5474C17.1664 53.9839 17.4739 55.0399 18.2839 55.0399H41.9059C42.7144 55.0399 43.0234 53.9839 42.3424 53.5474L40.5709 52.4149C38.5129 51.0994 37.2679 48.8254 37.2679 46.3834Z" fill="#8A94A0"/>
<path d="M41.8372 53.2773H18.3532C17.8669 53.2773 17.4727 53.6716 17.4727 54.1578C17.4727 54.6441 17.8669 55.0383 18.3532 55.0383H41.8372C42.3234 55.0383 42.7177 54.6441 42.7177 54.1578C42.7177 53.6716 42.3234 53.2773 41.8372 53.2773Z" fill="#AFB7C0"/>
<path d="M6.99075 45.7931H53.1953C54.5198 45.7931 55.5923 44.7191 55.5923 43.3961V39.2891H4.59375V43.3961C4.59375 44.7206 5.66625 45.7931 6.99075 45.7931Z" fill="#AFB7C0"/>
</g>
<defs>
<clipPath id="clip0_1273_49149">
<rect width="60" height="60" fill="white"/>
</clipPath>
</defs>
</svg>
