<svg width="16" height="16" viewBox="0 0 16 16" fill="none" xmlns="http://www.w3.org/2000/svg">
<g clip-path="url(#clip0_1273_49019)">
<path d="M5.72548 5.49047L7.45748 2.00247C7.50789 1.90152 7.58543 1.81662 7.6814 1.75728C7.77737 1.69794 7.88798 1.6665 8.00081 1.6665C8.11364 1.6665 8.22425 1.69794 8.32022 1.75728C8.41619 1.81662 8.49373 1.90152 8.54414 2.00247L10.2761 5.49047L14.1481 6.05313C14.2598 6.06862 14.3649 6.11519 14.4514 6.18754C14.5379 6.25989 14.6023 6.35509 14.6372 6.46228C14.6722 6.56948 14.6763 6.68434 14.6491 6.79377C14.622 6.90319 14.5645 7.00277 14.4835 7.08113L11.6821 9.79447L12.3435 13.6278C12.4281 14.1198 11.9081 14.4945 11.4635 14.2625L8.00081 12.4518L4.53748 14.2625C4.09348 14.4951 3.57348 14.1198 3.65814 13.6271L4.31948 9.7938L1.51814 7.08047C1.43747 7.00205 1.38041 6.90257 1.35345 6.79334C1.3265 6.68411 1.33072 6.56951 1.36566 6.46256C1.40059 6.35562 1.46482 6.26061 1.55106 6.18835C1.63729 6.11609 1.74207 6.06948 1.85348 6.0538L5.72548 5.49047Z" fill="#10E4D5" stroke="#10E4D5" stroke-width="1.5" stroke-linecap="round" stroke-linejoin="round"/>
</g>
<defs>
<clipPath id="clip0_1273_49019">
<rect width="16" height="16" fill="white"/>
</clipPath>
</defs>
</svg>
