<svg width="100%" height="100%" viewBox="0 0 100 26" fill="none" xmlns="http://www.w3.org/2000/svg">
<rect x="0.5" width="99" height="26" rx="8" fill="#10E4D5"/>
<path fill-rule="evenodd" clip-rule="evenodd" d="M8.59984 10.2763L14.6531 12.5069L20.4574 10.2754L14.6533 8.04399L8.59984 10.2763ZM9.20089 11.8844L6.5 10.8855L6.50058 9.66511L14.4347 6.73926L14.8897 6.74239L22.5 9.66824V10.8826L14.8897 13.8085L14.4351 13.8117L10.5597 12.3852L10.9054 15.5085C11.2111 15.8087 11.7031 16.2122 12.3072 16.5579C13.0186 16.9651 13.8376 17.265 14.6581 17.265C16.687 17.265 17.681 16.1986 18.2688 15.5062L18.7205 13.3901L19.9871 13.6626L19.5013 15.9383L19.3624 16.222C19.3543 16.2317 19.346 16.2416 19.3376 16.2516C18.7129 16.9933 17.3889 18.5653 14.6581 18.5653C13.5355 18.5653 12.4923 18.1608 11.6655 17.6876C10.8373 17.2135 10.178 16.643 9.81026 16.243L9.64245 15.8738L9.20089 11.8844Z" fill="white"/>
<path d="M31.4102 17.1641C28.8906 17.1641 26.9863 15.2715 26.9805 12.7578C26.9863 10.2441 28.8906 8.35156 31.4102 8.35156C33.9355 8.35156 35.8457 10.2441 35.8398 12.7578C35.8457 15.2715 33.9355 17.1641 31.4102 17.1641ZM31.4102 15.7461C33.1211 15.7402 34.3281 14.5039 34.3281 12.7578C34.3281 11.0117 33.1211 9.77539 31.4102 9.76953C29.7051 9.77539 28.498 11.0117 28.5039 12.7578C28.498 14.5039 29.7051 15.7402 31.4102 15.7461ZM37.1172 17V8.51562H38.8281L42.8477 14.6211H42.8945V8.51562H44.3945V17H42.707L38.6758 10.8594H38.6172V17H37.1172ZM45.9648 17V8.51562H47.4648V15.5938H51.2031V17H45.9648ZM53.7109 17V13.5547L50.5117 8.51562H52.2695L54.4375 12.0781H54.4961L56.6523 8.51562H58.4102L55.2109 13.5547V17H53.7109ZM70.2344 7.44922V11.5859H71.8047V12.6758H70.2344V18.0195H68.9102V7.44922H70.2344ZM67.4219 8.55078C67.4277 11.668 66.1445 14.3867 62.6289 16.1328L61.8906 15.1367C64.4219 13.8535 65.8281 12.0723 66.0859 9.62891H62.4414V8.55078H67.4219ZM77.207 13.9766C79.4043 13.9766 80.7754 14.7383 80.7695 16.0039C80.7754 17.2871 79.4102 18.043 77.207 18.043C75.0039 18.043 73.627 17.2871 73.6328 16.0039C73.627 14.7383 75.0039 13.9766 77.207 13.9766ZM77.207 15.0195C75.7598 15.0254 74.9336 15.3535 74.9336 16.0039C74.9336 16.666 75.7539 17.0059 77.207 17.0117C78.6602 17.0059 79.4746 16.666 79.4805 16.0039C79.4746 15.3535 78.6484 15.0254 77.207 15.0195ZM80.6523 7.46094V9.98047H82.1406V11.0703H80.6523V13.7305H79.3398V7.46094H80.6523ZM73.9609 8.11719V9.53516H76.4219V8.11719H77.7227V13.0625H72.6602V8.11719H73.9609ZM73.9609 12.0195H76.4219V10.5547H73.9609V12.0195ZM92.3359 12.2539V13.3203H82.668V12.2539H85.2578C85.6562 10.8887 85.7559 9.85156 85.7852 9.11328H83.5703V8.05859H87.0742V8.46875C87.0742 9.21289 87.0859 10.4551 86.5938 12.2539H89.5C89.8281 10.8945 89.9102 9.86328 89.9336 9.11328H87.7422V8.05859H91.2109V8.51562C91.2168 9.24805 91.2227 10.4844 90.8242 12.2539H92.3359ZM91.4219 16.7305V17.7852H83.875V14.2695H85.1875V16.7305H91.4219Z" fill="white"/>
</svg>
